<?xml version="1.0" encoding="UTF-8"?><svg id="Layer_1" xmlns="http://www.w3.org/2000/svg" viewBox="0 0 130.85 35.3"><defs><style>.cls-1{fill:#fff;}.cls-2{fill:#35c4eb;}.cls-3{fill:#25c3ea;}</style></defs><path class="cls-1" d="m86.31,33c-.41,0-.81,0-1.22,0,.41,0,.81,0,1.22,0,.59,0,1.19,0,1.79,0-.6,0-1.19,0-1.79,0Zm11.77-25.69s0,.05,0,.07c0-.02,0-.05,0-.07h0Z"/><path class="cls-3" d="m4.96,12.97c.02.63-.23,1.13-.63,1.25-.11.03-.22.03-.33.03-.98,0-1.96-.01-2.94,0-.45,0-.81-.15-.99-.83,0-.03-.05-.05-.07-.07v-.65c.09-.02.1-.13.13-.23.14-.41.36-.62.66-.64.08,0,.16,0,.24,0,.97,0,1.94,0,2.91,0,.11,0,.22,0,.34.03.4.07.66.51.68,1.12Z"/><path class="cls-3" d="m24.97,24.37c-1.64.04-3.28.02-4.92.02-.88,0-1.76,0-2.64,0h-7.65c-.19,0-.37,0-.55-.1-.37-.24-.55-.72-.49-1.3.05-.48.33-.84.72-.95.15-.04.3-.04.45-.04,2.05,0,4.1,0,6.14-.01.33,0,.65,0,.96-.18.03-.02.05-.03.08-.05.74-.5.86-1.78.19-2.46-.15-.16-.32-.21-.52-.24-.57-.07-1.15-.06-1.72-.06-.14,0-.28,0-.43,0-.39,0-.78,0-1.17,0-.54-.02-.93-.56-.93-1.27,0-.76.48-1.3.94-1.26.24.02.47.02.71.02.14,0,.28,0,.42,0,.6-.01.92-.46.87-1.2,0-.06,0-.12-.01-.19-.07-.66-.28-.94-.83-.95-.25,0-.49,0-.74,0-1.1-.01-2.2-.03-3.3.06-.48.04-.95.01-1.43.02-.68,0-1.36.01-2.04,0-.88-.02-1.14-1.14-.81-1.85.16-.33.39-.51.7-.54.11,0,.23,0,.34,0,2.02,0,4.05,0,6.07,0,.19,0,.37-.03.53-.1.13-.06.26-.15.37-.28.28-.31.38-.69.29-1.13-.05-.26-.15-.46-.3-.61-.11-.12-.26-.2-.42-.24-.12-.03-.25-.03-.37-.03-1.07,0-2.14-.03-3.2,0-.77.03-1.21-1.01-.84-1.82.13-.3.34-.49.62-.55.16-.03.33-.03.49-.03,1.62,0,3.24,0,4.86,0h.46c.28,0,.55-.04.78-.25.37-.33.51-.8.37-1.3-.04-.13-.08-.25-.14-.35-.17-.29-.43-.45-.77-.46-1.08,0-2.16,0-3.24,0-.14,0-.28,0-.41-.04-.46-.15-.72-.68-.66-1.34.05-.55.39-.97.84-1.02.1-.01.2,0,.3,0,3.27,0,8.66-.08,11.93-.07-1.85,2.69-6.82,7.12-7.23,8.98-.61,2.8-.22,6.67.83,8.65.8,1.5,4.17,3.64,6.49,4.56Z"/><path class="cls-3" d="m90.72,23.15c0-7.31,0-14.61,0-21.91,0-.08,0-.16,0-.24,0-.36,0-.36-.37-.37-.97,0-1.94,0-2.92,0-.5,0-1,0-1.5,0-.23,0-.31.08-.29.3,0,.11,0,.22,0,.33v9.54c-.16-.15-.23-.21-.29-.27-.65-.67-1.45-1.1-2.34-1.33-1.08-.27-2.17-.29-3.26-.07-2.18.44-3.72,1.73-4.77,3.64-.89,1.61-1.06,3.36-.81,5.15.28,1.99,1.22,3.61,2.78,4.85,1.72,1.37,3.69,1.71,5.81,1.31,1.12-.21,2.04-.77,2.71-1.72.04-.05.06-.11.18-.09,0,.36,0,.73,0,1.1,0,.38,0,.38.4.38,1.36,0,2.73,0,4.09,0,.67,0,.59.07.59-.61Zm-5.98-4.05c-1.22,1.09-4.21,1.14-5.15-1.03-.66-1.52-.3-3.76,1.8-4.49.37-.13.76-.18,1.12-.17,1.65-.05,2.86.99,3.17,2.26.31,1.31.11,2.48-.94,3.43Z"/><path class="cls-3" d="m53.57,13.55c-.85-1.91-2.33-3.17-4.25-3.89-2.4-.91-4.85-.92-7.28-.09-2.71.93-5.14,3.26-5.08,6.61,0,3.55,1.46,5.76,4.22,7.14,1,.5,2.08.75,3.2.86,1.69.17,3.35.03,4.95-.6,1.84-.72,3.3-1.91,4.17-3.73.39-.82.58-1.68.65-2.58.1-1.29-.05-2.53-.58-3.72Zm-6.13,5.76c-1.22.72-2.49.71-3.71.03-.85-.47-1.28-1.26-1.39-2.22-.05-.46-.04-.9.07-1.35.34-1.49,1.7-2.41,3.15-2.35,1.57-.05,2.79.93,3.14,2.26.36,1.4-.02,2.9-1.26,3.64Z"/><path class="cls-3" d="m72.52,15.34c-.31-2.25-1.55-3.89-3.46-5.06-1.55-.94-3.25-1.28-5.03-1.29-1.12,0-2.22.13-3.29.48-2,.66-3.59,1.83-4.58,3.73-.5.96-.71,2-.75,3.08-.06,1.71.29,3.3,1.33,4.69.85,1.15,1.96,1.98,3.28,2.51,2.19.89,4.45.96,6.73.42,1.27-.3,2.41-.89,3.4-1.74,2.11-1.81,2.73-4.16,2.37-6.82Zm-6.65,3.97c-1.21.71-2.48.71-3.71.02-.93-.53-1.35-1.41-1.41-2.46-.11-1.64.8-2.89,2.15-3.32.36-.11.73-.17,1.06-.15,1.61,0,2.82.85,3.18,2.27.37,1.43-.03,2.91-1.27,3.64Z"/><path class="cls-3" d="m106.72,17.46c1.13,0,2.26,0,3.39,0h6.45c.43,0,.43,0,.44-.44,0-.72-.05-1.44-.19-2.15-.57-2.85-2.2-4.78-5.04-5.56-1.84-.5-3.7-.48-5.52.09-2.43.77-4.04,2.39-4.72,4.87-.27.98-.31,1.98-.25,2.98.17,3.02,1.66,5.13,4.45,6.3,1.47.62,3.04.75,4.62.64,1.23-.09,2.41-.4,3.49-1.01,1.29-.72,2.24-1.75,2.75-3.15.08-.22.19-.43.14-.67-.15-.09-.32-.05-.47-.05-1.3,0-2.6,0-3.91,0-.29,0-.49.06-.67.32-.39.54-.95.85-1.61.96-.41.07-.81.05-1.22,0-1.56-.19-2.45-1.16-2.5-2.73-.01-.39-.01-.4.37-.4Zm.71-4.65c.97-.69,3.03-.9,4.22.46.24.28.42.58.53.93.08.27.04.33-.25.34-.66,0-1.32,0-1.97,0-1.08,0-2.16,0-3.24,0-.08,0-.15-.02-.27-.03.1-.72.42-1.28.99-1.69Z"/><path class="cls-3" d="m127.4,23.66c-1.43.56-2.92.66-4.44.51-1.47-.15-2.85-.59-4.14-1.3-.1-.05-.19-.11-.29-.16-.15-.08-.18-.19-.1-.35.57-1.09,1.14-2.19,1.72-3.31.25.15.46.28.67.41,1.06.62,2.18,1.04,3.42,1.02.39,0,.75-.1,1.07-.31.56-.36.6-.99.09-1.42-.34-.29-.76-.43-1.19-.54-.8-.2-1.61-.39-2.4-.66-1.56-.53-2.34-1.64-2.4-3.28-.09-2.52,1.35-3.94,3.13-4.71.76-.33,1.56-.5,2.37-.55,1.74-.11,3.44.08,5.08.71.09.03.17.07.26.11.11.05.13.13.08.23-.03.07-.07.14-.11.21-.44.85-.89,1.69-1.33,2.54-.17.32-.17.32-.52.16-.84-.38-1.72-.56-2.65-.52-.25.01-.5.06-.73.15-.31.12-.53.34-.57.69-.04.35.1.61.38.81.26.18.56.27.87.34.78.17,1.57.29,2.32.57.79.3,1.5.71,2.04,1.38.5.62.74,1.34.79,2.12.17,2.73-1.33,4.31-3.43,5.14Z"/><path class="cls-3" d="m98.94,9.8s0,.06,0,.09c0,4.48,0,8.96,0,13.44,0,.42,0,.43-.4.43-1.43,0-2.85,0-4.28,0-.4,0-.4,0-.4-.43v-13.25c0-.11,0-.22,0-.33-.02-.24.1-.29.31-.29.86,0,1.72,0,2.59,0,.61,0,1.22,0,1.83,0,.34,0,.34,0,.36.33Z"/><path class="cls-3" d="m100.64,3.88c-.11-1.39-.69-2.62-1.34-3.83-.02-.04-.06-.06-.14-.04-.16.23-.34.46-.54.68-.56.6-1.25.99-1.97,1.34-.52.25-1.04.51-1.51.86-.66.49-1.19,1.08-1.39,1.89-.37,1.49.19,2.7,1.13,3.8.11.13.21.11.32.02.22-.18.44-.35.65-.54.48-.43.39-.37.17-.81-.3-.6-.31-1.22-.15-1.85.15.67.12,1.4.58,2,.3-.17.37-.42.27-.72-.07-.22-.15-.45-.21-.67-.13-.57-.12-1.13.11-1.68.07.34,0,.68.07,1.02.08.33.18.66.39,1.01.52-1.2.83-2.42,1.22-3.62-.07,1.12-.35,2.2-.56,3.33.31-.06.51-.2.69-.38.2-.2.67-.73.72-.7.08.06-.62,1.25-1.26,1.46-.14.04-.29.08-.35.21-.15.33-.29.67-.44,1.05.42-.02.98-.44,1-.46.01.02-.21.34-.32.41-.26.17-.53.33-.82.46-.27.12-.44.31-.57.62.87-.09,1.64-.36,2.33-.81,1.46-.95,2.03-2.34,1.9-4.03Zm-2.29,3.23s-.02.02-.04.02c0,0,.01-.02.02-.02,0,0,.01,0,.02,0h0s0,0,0,0Zm.02,0h0s0,0-.02,0c0,0,0,0,.01,0h.01s0,0,0,0Z"/><path class="cls-3" d="m11.66,17.76c0,.67-.31,1.18-.71,1.18-1.03,0-2.05,0-3.08,0s-2.04-.02-3.05,0c-.54.02-.9-.96-.63-1.8.12-.37.31-.57.56-.61.07,0,.15,0,.23,0,1.93,0,3.86,0,5.79,0,.08,0,.15,0,.23,0,.39.05.68.57.67,1.22Z"/><path class="cls-2" d="m81.47,31.71c-.11-.06-.24-.08-.32-.18.04-.08.11-.11.17-.15.95-.54.85-1.95.06-2.52-.45-.32-.96-.46-1.5-.47-.74-.01-1.47,0-2.21,0-.39,0-.39,0-.4.38,0,.93,0,1.85,0,2.78,0,1.1,0,2.19,0,3.29,0,.23.05.34.31.34.91-.01,1.82,0,2.73-.01.48,0,.93-.16,1.32-.43,1.14-.76,1.05-2.39-.16-3.02Zm-3.56-2.5c0-.21.09-.27.28-.27.59,0,1.19,0,1.79.01.33,0,.65.1.93.29.66.44.66,1.33,0,1.77-.26.18-.56.27-.88.28-.3,0-.6,0-.89,0h0c-.31,0-.63,0-.94,0-.19,0-.29-.05-.29-.26,0-.61,0-1.22,0-1.83Zm3.37,5.05c-.29.2-.62.32-.97.33-.7.02-1.41.01-2.11.03-.24,0-.29-.11-.29-.32,0-.37,0-.75,0-1.13,0-.34,0-.69,0-1.03,0-.16.03-.28.23-.27.8.03,1.6-.07,2.39.07.31.05.6.16.85.38.62.54.57,1.48-.1,1.94Z"/><path class="cls-3" d="m10.9,3.27c.02.7-.4,1.22-1,1.22-.98,0-1.96,0-2.94,0-.44,0-.75-.28-.89-.77-.14-.49-.04-1.02.27-1.36.18-.19.38-.28.62-.27.49,0,.98,0,1.47,0s.98.02,1.47,0c.48-.03.97.41.99,1.19Z"/><path class="cls-2" d="m99.83,31.96c-.1,1.19-.67,2.1-1.68,2.74-1.87,1.18-4.46.55-5.48-1.34-.83-1.55-.35-3.39,1.17-4.42,1.42-.97,3.42-.87,4.73.24.05.04.11.06.2.11-.1.12-.12.16-.16.19-.28.27-.27.26-.57.03-1.09-.82-2.55-.89-3.67-.21-1.09.66-1.66,1.86-1.44,2.99.25,1.24,1.31,2.24,2.59,2.4,1.32.17,2.41-.24,3.21-1.34.2-.28.35-.6.41-.94.05-.3.03-.34-.26-.34-.56,0-1.13,0-1.69,0-.15,0-.3,0-.53,0,.29-.39.56-.6,1.01-.56.58.04,1.16,0,1.74,0,.42,0,.46.05.43.46Z"/><path class="cls-2" d="m54.45,32c-.11,1.19-.7,2.1-1.71,2.72-1.88,1.17-4.47.5-5.47-1.39-.81-1.55-.31-3.4,1.22-4.41,1.57-1.04,3.72-.75,4.84.42-.03.05-.05.08-.07.1q-.3.29-.64.04c-1.36-.99-3.24-.81-4.36.41-.98,1.06-1.01,2.63-.07,3.73,1.36,1.58,3.97,1.45,5.15-.27.18-.26.31-.54.39-.85.1-.4.07-.44-.33-.44-.53,0-1.07,0-1.6,0h-.53c.27-.38.52-.59.95-.56.59.03,1.19,0,1.79,0,.44,0,.47.05.43.49Z"/><path class="cls-2" d="m73.13,34.87c0-.06,0-.13,0-.19v-5.83c0-.11,0-.22,0-.33,0-.07-.05-.11-.11-.13-.3-.1-.49.02-.49.32,0,.67,0,1.35,0,2.02,0,.15.03.3-.04.44-.16,0-.21-.11-.29-.18-.84-.74-1.8-.92-2.85-.54-1.37.5-2,2.04-1.38,3.31.74,1.52,2.85,1.92,4.14.79.11-.1.2-.24.38-.32.07.24.04.45.04.65,0,.24.12.28.32.28.22,0,.33-.07.3-.3Zm-1.04-.99c-.76.89-2.13,1.02-3.04.29-.98-.78-.95-2.21.08-2.94.36-.26.82-.41,1.28-.41,1.21-.01,2.04.91,2.1,1.7.04.51-.08.96-.41,1.35Z"/><path class="cls-2" d="m118.5,28.55c0-.11-.07-.16-.18-.18-.33-.05-.43.02-.44.35,0,.47,0,.94,0,1.41v1.05c-.21-.01-.26-.13-.34-.19-.85-.74-1.8-.92-2.85-.53-1.38.51-2,2.08-1.35,3.36.76,1.48,2.85,1.85,4.12.73.11-.1.22-.2.36-.33.09.24.05.44.05.64,0,.21.04.33.29.32.29-.01.32-.02.33-.31,0-.06,0-.13,0-.19v-5.79c0-.11,0-.22,0-.33Zm-1.27,5.57c-1.23,1.03-3.11.46-3.47-.96-.04-.14-.06-.27-.06-.42,0-.93.75-1.77,1.76-1.9.68-.09,1.31.08,1.82.56.84.79.83,1.97-.06,2.72Z"/><path class="cls-2" d="m32.65,34.91c0,.23-.08.3-.3.3-.8,0-1.6,0-2.4,0-.48,0-.97,0-1.46,0-.33,0-.34-.02-.34-.35,0-1.02,0-2.04,0-3.06s0-2.04,0-3.06c0-.34,0-.35.34-.35,1.28,0,2.57,0,3.86,0,.22,0,.31.07.3.3,0,.21-.09.27-.28.27-.61,0-1.22,0-1.83,0-.49,0-.97,0-1.46,0-.23,0-.3.08-.3.3,0,.64.01,1.28,0,1.93,0,.26.11.31.34.31.89,0,1.79,0,2.68,0,.11,0,.22,0,.33,0,.21-.02.26.1.26.29,0,.2-.08.27-.28.27-.8,0-1.6,0-2.4,0-.24,0-.47,0-.71,0-.16,0-.23.07-.22.23,0,.7,0,1.41,0,2.12,0,.27.19.24.36.24.97,0,1.94,0,2.92,0,.11,0,.22,0,.33,0,.21-.01.26.1.26.29Z"/><path class="cls-2" d="m84.38,33.01c.24,0,.47,0,.71,0,.41,0,.81,0,1.22,0,.59,0,1.19,0,1.79,0,.59,0,.64-.06.52-.65,0-.03-.02-.06-.02-.09-.28-1.12-1.02-1.75-2.12-1.95-1.11-.2-2.05.16-2.73,1.09-.6.82-.56,1.93.06,2.71,1.05,1.32,3.23,1.47,4.46.31.08-.08.23-.14.18-.3-.03-.11-.38-.24-.5-.18-.07.03-.13.09-.19.14-.6.49-1.29.64-2.03.51-.72-.12-1.29-.47-1.62-1.15-.18-.36-.13-.44.26-.44Zm1.38-2.17c1.06-.11,1.99.54,2.2,1.53-.33.09-3.36.12-3.91.03,0-.75.79-1.47,1.71-1.57Z"/><path class="cls-2" d="m38.87,30.55c0-.22-.11-.26-.3-.26-.17,0-.31,0-.32.24,0,.21.04.43-.04.66-.16-.02-.2-.11-.27-.17-.85-.76-1.82-.95-2.88-.55-1.38.52-2,2.08-1.34,3.36.77,1.48,2.84,1.85,4.11.74.12-.1.19-.28.38-.29.06.17.03.33.04.49,0,.41.01.42.32.41.29,0,.29,0,.29-.44,0-.64,0-1.28,0-1.93,0-.75,0-1.5,0-2.25Zm-.87,3.1c-.71,1.18-2.53,1.35-3.45.31-.74-.84-.61-2.07.31-2.72.38-.27.8-.42,1.33-.41,1.05,0,1.92.72,2.06,1.74.05.39-.05.75-.25,1.08Z"/><path class="cls-2" d="m111.38,31c-.61-.57-1.34-.79-2.16-.73-1.35.11-2.38,1.19-2.38,2.46,0,.17,0,.34.05.51.25.99,1.07,1.75,2.1,1.91,1.14.17,2.09-.16,2.75-1.12.67-.98.51-2.21-.36-3.03Zm-.33,2.96c-.97,1.09-2.83.82-3.44-.49-.11-.23-.15-.47-.15-.61,0-1.33,1.21-2.27,2.44-2,.5.11.94.35,1.26.77.54.7.5,1.65-.11,2.33Z"/><path class="cls-2" d="m105.93,32.56c-.15-1.34-1.26-2.29-2.93-2.29-.37,0-.95.2-1.46.61-.85.67-1.16,1.83-.71,2.79.46,1,1.29,1.49,2.35,1.54,1,.05,1.84-.35,2.4-1.21.28-.43.42-.91.36-1.43Zm-1.08,1.4c-.96,1.09-2.82.84-3.44-.47-.11-.23-.16-.47-.15-.64-.01-1.3,1.2-2.25,2.43-1.99.5.11.94.35,1.26.76.54.7.51,1.65-.09,2.33Z"/><path class="cls-2" d="m66.77,32.55c-.1-1.28-1.27-2.29-2.66-2.28-.63,0-1.25.22-1.74.61-.86.69-1.16,1.86-.68,2.84.48.99,1.32,1.47,2.38,1.49,1.02.02,1.86-.4,2.4-1.3.25-.42.35-.87.31-1.35Zm-1.1,1.43c-.97,1.07-2.8.81-3.42-.47-.12-.25-.17-.5-.17-.68,0-1.28,1.19-2.21,2.41-1.96.52.11.97.36,1.29.79.53.71.48,1.66-.13,2.33Z"/><path class="cls-2" d="m59.79,31c-.61-.57-1.34-.79-2.16-.73-1.35.11-2.38,1.19-2.38,2.46,0,.17,0,.34.05.51.25.99,1.07,1.75,2.1,1.91,1.14.18,2.09-.16,2.75-1.12.67-.98.51-2.21-.36-3.03Zm-.32,2.95c-.96,1.09-2.82.84-3.44-.46-.11-.23-.16-.47-.16-.65-.01-1.3,1.19-2.24,2.43-1.98.51.11.94.35,1.26.76.55.7.51,1.65-.09,2.33Z"/><path class="cls-2" d="m43.12,35.04c-.33.02-.66.03-.98-.06-.53-.14-.83-.48-.92-1.01-.07-.39-.05-.78-.05-1.17,0-.53,0-1.06,0-1.6,0-.24-.09-.34-.33-.33-.23,0-.47,0-.7,0-.22,0-.31-.09-.3-.31,0-.2.09-.28.28-.28.25,0,.5,0,.75,0,.23,0,.31-.09.3-.31,0-.13,0-.25,0-.38q0-.56.62-.73c0,.37,0,.72,0,1.08,0,.33.01.33.35.34.33,0,.66,0,.99,0,.22,0,.26.11.26.29,0,.19-.04.3-.26.29-.34,0-.69,0-1.03,0-.21,0-.31.07-.31.3,0,.81,0,1.63,0,2.44.02.62.26.84.87.87.14,0,.28,0,.42,0,.14,0,.28-.06.3.17.01.29-.02.37-.26.39Z"/><path class="cls-3" d="m7.68,24.11c-.23.27-.51.31-.79.28-.45.06-.78-.13-.98-.62-.19-.46-.15-.9.09-1.31.13-.22.3-.36.52-.42.2-.05.4-.06.6-.03.4.05.69.31.81.78.12.49.06.95-.25,1.33Z"/><path class="cls-3" d="m5.38,9.65c-.1,0-.2,0-.3,0-.59-.02-.96-.49-.95-1.21,0-.7.38-1.15.95-1.16.05,0,.1,0,.15,0,.66,0,1.04.38,1.09,1.09.04.62-.34,1.33-.93,1.28Z"/><polygon class="cls-1" points="98.37 7.12 98.37 7.1 98.36 7.11 98.37 7.12"/><path class="cls-3" d="m24.88,12.07v4.25h4.43s0,.07-.01.1c-.12,1.13-.58,2.01-1.38,2.63-.77.59-1.75.89-2.97.89-.07,0-.13,0-.2,0-1.6-.05-2.9-.73-3.89-2.04-.95-1.24-1.42-2.73-1.42-4.48s.46-3.22,1.38-4.48c1.02-1.39,2.36-2.09,4.04-2.09.04,0,.08,0,.12,0,2.11.04,3.57,1.14,4.39,3.31l.13-.05.37-.15,4.64-1.94c-.92-1.99-2.19-3.47-3.81-4.44-1.55-.93-3.41-1.39-5.59-1.39-3.24,0-5.89.94-7.93,2.81.06.1.12.22.15.35.15.5,0,.98-.42,1.31-.26.22.24,1.82-.07,1.82l-1.15-.5c-.54.82-1.11.66-1.4,1.64.16.15.27.36.33.62.1.45-.01.83-.32,1.15-.13.13-.27.22-.41.28-.07.56-.1,1.14-.1,1.74,0,.24,0,.48.02.71.27,0,.55,0,.82,0,.61,0,.84.29.92.96,0,.06.01.13.02.19.06.75-.3,1.2-.96,1.21-.15,0-.31,0-.47,0,.22.91.54,1.76.97,2.55.64,0,1.27-.01,1.91.06.22.02.41.08.57.24.73.69.6,1.99-.22,2.49,1.99,1.72,4.5,2.59,7.54,2.59,2.38,0,4.39-.54,6.04-1.61.98-.64,1.83-1.46,2.55-2.48.84-1.18,1.42-2.5,1.74-3.96.23-1.07.36-2.5.39-4.28h-10.76Z"/></svg>