<svg width="48" height="48" viewBox="0 0 48 48" fill="none" xmlns="http://www.w3.org/2000/svg">
    <rect width="48" height="48" rx="24" fill="#95E1F6"/>
    <path d="M14.8037 27.8062V37.003H10.6462C9.13442 37.003 8.12656 35.6172 8.50451 34.2314L10.7722 26.6724L14.8037 27.8062Z" fill="#FFDFB3"/>
    <mask id="mask0_1129_34065" style="mask-type:luminance" maskUnits="userSpaceOnUse" x="8" y="26" width="7" height="12">
        <path d="M14.8037 27.8038V37.0005H10.6462C9.13442 37.0005 8.12656 35.6147 8.50451 34.2289L10.7722 26.6699L14.8037 27.8038Z" fill="white"/>
    </mask>
    <g mask="url(#mask0_1129_34065)">
        <path d="M9.3877 27.93C9.63966 27.93 13.7971 27.5521 13.5451 31.2056C13.1672 34.7331 12.5373 40.4023 12.5373 40.4023L17.5766 41.4102L20.4742 31.0796L12.7892 21.8828L9.3877 27.93Z" fill="#E2BF9A"/>
    </g>
    <path d="M15.307 37.255H10.7716C9.88975 37.255 9.00786 36.877 8.50393 36.1211C8 35.4912 7.87402 34.6093 8.12598 33.8534L10.5197 25.9165L15.307 27.3023C15.307 27.4283 15.307 37.255 15.307 37.255ZM11.1496 27.1763L9.00787 34.2314C8.88188 34.7353 8.88188 35.2393 9.25983 35.7432C9.63778 36.2471 10.1417 36.4991 10.6456 36.4991H14.2992V28.1842L11.1496 27.1763Z" fill="#823A3A"/>
    <path d="M32.3153 32.72C31.5594 34.1058 30.9295 35.4916 30.1736 36.8774H16.5674V28.1846L32.3153 32.72Z" fill="#FFDFB3"/>
    <mask id="mask1_1129_34065" style="mask-type:luminance" maskUnits="userSpaceOnUse" x="16" y="28" width="17" height="9">
        <path d="M32.3123 32.7195C31.5564 34.1053 30.9265 35.4911 30.1706 36.8769H16.5645V28.1841L32.3123 32.7195Z" fill="white"/>
    </mask>
    <g mask="url(#mask1_1129_34065)">
        <path d="M15.8096 29.3185C15.9356 29.4445 21.6048 31.0822 25.3843 32.2161C27.4 32.846 28.6599 34.6098 28.7859 36.3735L29.0378 39.2711C29.0378 39.2711 35.8409 40.9089 35.9669 40.531C36.0929 40.153 34.0772 30.0744 34.0772 30.0744L15.1797 27.0508L15.8096 29.3185Z" fill="#E2BF9A"/>
    </g>
    <path d="M30.4265 37.2554H16.0645V27.4287L32.8202 32.2161L30.4265 37.2554ZM17.0723 36.3735H29.9226L31.6864 32.972L17.0723 28.8145V36.3735Z" fill="#823A3A"/>
    <path d="M33.0685 31.082L11.2734 25.0348L11.3994 24.6568C11.6514 23.7749 12.5333 23.145 13.5411 23.145H34.5803C35.4622 23.145 36.2181 23.649 36.596 24.4049C35.5882 26.1686 34.3283 28.5623 33.0685 31.082Z" fill="#FFDFB3"/>
    <mask id="mask2_1129_34065" style="mask-type:luminance" maskUnits="userSpaceOnUse" x="11" y="23" width="26" height="9">
        <path d="M33.0656 31.0771L11.2705 25.0299L11.3965 24.6519C11.6485 23.77 12.5303 23.1401 13.5382 23.1401H34.5774C35.4593 23.1401 36.2152 23.6441 36.5931 24.4C35.5853 26.1637 34.3254 28.5574 33.0656 31.0771Z" fill="white"/>
    </mask>
    <g mask="url(#mask2_1129_34065)">
        <path d="M16.6885 21.8805C16.6885 21.8805 27.649 26.038 31.4285 25.4081C35.208 24.7781 30.4206 31.2033 30.4206 31.2033L33.8222 31.4553L42.2631 23.3923L39.2395 18.605L16.6885 21.8805Z" fill="#E2BF9A"/>
    </g>
    <path d="M33.3215 31.5854L10.6445 25.2863L10.8965 24.4044C11.1485 23.3965 12.2823 22.5146 13.4162 22.5146H34.4553C35.4632 22.5146 36.4711 23.1446 36.849 24.1524L36.975 24.4044L36.849 24.6564C35.9671 26.5461 34.8333 28.8138 33.4475 31.3335L33.3215 31.5854ZM11.9044 24.6564L32.8176 30.5776C34.0774 28.1839 35.0853 26.1682 35.9671 24.4044C35.7152 23.9005 35.0853 23.5225 34.4553 23.5225H13.4162C12.9122 23.6485 12.1563 23.9005 11.9044 24.6564Z" fill="#823A3A"/>
    <path d="M37.3538 36.8785H32.1885C32.9444 35.3667 33.7003 33.8549 34.5822 32.3431C35.716 29.9494 36.7239 28.3116 37.3538 26.9258L39.6215 34.2328C39.8734 35.3667 38.8656 36.8785 37.3538 36.8785Z" fill="#FFDFB3"/>
    <mask id="mask3_1129_34065" style="mask-type:luminance" maskUnits="userSpaceOnUse" x="32" y="26" width="8" height="11">
        <path d="M37.3635 36.878H32.1982C32.9541 35.3662 33.71 33.8544 34.5919 32.3426C35.7258 29.9489 36.7336 28.3111 37.3635 26.9253L39.6312 34.2323C39.8832 35.3662 38.8753 36.878 37.3635 36.878Z" fill="white"/>
    </mask>
    <g mask="url(#mask3_1129_34065)">
        <path d="M35.3477 28.6892C35.3477 28.6892 39.5051 33.2245 37.8673 36.1221C35.9776 38.8938 40.8909 39.5237 40.8909 39.5237C40.8909 39.5237 44.4184 37.004 44.0405 35.9962C43.5366 35.1143 38.1193 26.1695 38.1193 26.1695L37.6154 25.1616L35.3477 28.6892Z" fill="#E2BF9A"/>
    </g>
    <path d="M37.3548 37.256H31.4336L31.6856 36.6261C32.1895 35.6182 32.6934 34.6103 33.1974 33.6025C33.4493 33.0985 33.7013 32.4686 34.0792 31.9647C34.7092 30.7048 35.3391 29.571 35.843 28.5631C36.221 27.8072 36.5989 27.0513 36.8509 26.5474L37.3548 25.5396L39.8745 33.9804C40.1264 34.7363 40.0004 35.6182 39.4965 36.2481C38.9926 36.878 38.2367 37.256 37.3548 37.256ZM32.9454 36.3741H37.3548C37.9847 36.3741 38.4886 36.1221 38.7406 35.6182C38.9926 35.2403 39.1186 34.6103 38.9926 34.1064L37.1028 27.9332C36.9769 28.3112 36.7249 28.5631 36.5989 28.9411C36.095 29.949 35.4651 31.0828 34.8351 32.3426C34.5832 32.8466 34.3312 33.4765 33.9533 33.9804C33.7013 34.8623 33.3233 35.6182 32.9454 36.3741Z" fill="#823A3A"/>
    <path d="M24.3772 26.4215C24.2512 26.2955 24.1252 26.1695 24.1252 26.0435C22.8654 23.5238 21.4796 21.3821 20.2198 18.8625C19.7158 17.9806 19.4639 17.3507 19.4639 16.3428C19.4639 14.957 20.0938 13.6972 21.1016 12.6893C21.8575 11.9334 22.6134 11.6814 23.6213 11.4295C24.8811 11.1775 26.141 11.3035 27.0229 12.0594C28.1567 12.8153 28.9126 13.6972 29.4165 14.831C29.9205 16.2168 29.7945 17.4766 29.0386 18.7365C27.6528 21.2561 26.3929 23.5238 25.0071 26.0435C25.0071 26.1695 24.8811 26.2955 24.7552 26.2955C24.6292 26.4214 24.5032 26.4215 24.3772 26.4215ZM24.6292 14.0751C23.2434 14.0751 22.1095 15.209 22.1095 16.5948C22.1095 17.9806 23.1174 19.1144 24.6292 19.1144C26.141 19.1144 27.1488 18.1066 27.1488 16.5948C27.1488 15.209 26.015 14.0751 24.6292 14.0751Z" fill="#FFBF66"/>
    <path d="M24.3763 26.7994L24.1243 26.6734C23.9983 26.5474 23.8723 26.4215 23.7463 26.1695C23.1164 24.9097 22.4865 23.7758 21.7306 22.7679C21.1007 21.5081 20.3448 20.3743 19.7149 19.2404C19.2109 18.3585 18.959 17.4766 18.959 16.5948C18.959 15.083 19.5889 13.6971 20.7227 12.6893C21.3527 12.0594 22.2345 11.5554 23.3684 11.3035C24.8802 11.0515 26.14 11.1775 27.1479 11.9334C28.1558 12.6893 29.1636 13.5712 29.6675 14.957C30.1715 16.4688 30.0455 17.9806 29.2896 19.2404C28.5337 20.5002 27.9038 21.7601 27.2739 22.7679C26.644 24.0278 25.8881 25.1616 25.2581 26.2955C25.2581 26.5474 25.0062 26.6734 24.7542 26.7994C24.7542 26.7994 24.5022 26.7994 24.3763 26.7994ZM24.7542 11.8074C24.3763 11.8074 24.1243 11.8074 23.7463 11.9334C22.7385 12.1854 22.1086 12.5633 21.4786 13.0672C20.4708 14.0751 19.9668 15.2089 19.9668 16.4688C19.9668 17.2247 20.0928 17.8546 20.5968 18.7365C21.2267 19.9963 21.9826 21.1302 22.6125 22.264C23.2424 23.3979 23.9983 24.6577 24.6282 25.7915C25.3841 24.5317 26.014 23.2719 26.644 22.264C27.2739 21.0042 28.0298 19.7443 28.6597 18.7365C29.2896 17.6026 29.4156 16.3428 29.0376 15.2089C28.5337 14.0751 27.9038 13.1932 26.8959 12.6893C26.266 12.0594 25.5101 11.8074 24.7542 11.8074ZM24.5022 19.4924C22.8645 19.4924 21.6046 18.1066 21.6046 16.4688C21.7306 14.831 23.1164 13.5712 24.6282 13.5712C26.266 13.5712 27.5258 14.957 27.5258 16.5948C27.3999 18.2325 26.266 19.4924 24.5022 19.4924ZM24.6282 14.579C23.3684 14.579 22.6125 15.5869 22.4865 16.5948C22.4865 17.7286 23.3684 18.7365 24.5022 18.7365C25.7621 18.7365 26.644 17.8546 26.644 16.7208C26.644 15.3349 25.7621 14.579 24.6282 14.579Z" fill="#823A3A"/>
    <path d="M16.4425 20.2476C16.3165 20.2476 16.3165 20.2476 16.4425 20.2476C15.4346 19.6177 14.8047 18.3579 14.8047 17.35C14.8047 16.2162 15.3086 15.2083 16.1905 14.4524C16.3165 14.3264 16.5685 14.3264 16.6944 14.4524C16.8204 14.5784 16.8204 14.8304 16.6944 14.8304C15.9385 15.4603 15.5606 16.3421 15.5606 17.35C15.5606 18.2319 16.0645 19.2398 16.8204 19.7437C16.9464 19.8697 16.9464 19.9957 16.9464 20.1216C16.6944 20.2476 16.5685 20.2476 16.4425 20.2476Z" fill="#823A3A"/>
    <path d="M17.1964 19.3662C16.4405 18.9882 15.9365 18.2323 15.9365 17.3505C15.9365 16.5946 16.1885 15.9646 16.8184 15.3347C16.9444 15.2087 17.1964 15.2087 17.3223 15.3347C17.4483 15.4607 17.4483 15.7127 17.3223 15.8386C16.8184 16.3426 16.5664 16.8465 16.5664 17.3505C16.5664 17.9804 16.8184 18.6103 17.3223 18.8623C17.4483 18.9882 17.5743 19.1142 17.4483 19.2402C17.3223 19.2402 17.3223 19.3662 17.1964 19.3662Z" fill="#823A3A"/>
    <path d="M18.0782 18.6107C17.4483 18.3588 17.1963 17.8548 17.1963 17.3509C17.1963 16.847 17.4483 16.469 17.7002 16.0911C17.8262 15.9651 18.0782 15.9651 18.2042 16.0911C18.3301 16.2171 18.3301 16.469 18.2042 16.595C17.9522 16.847 17.8262 17.0989 17.8262 17.4769C17.8262 17.8548 17.9522 18.1068 18.3301 18.2328C18.4561 18.3588 18.4561 18.4847 18.4561 18.6107C18.3301 18.6107 18.2042 18.6107 18.0782 18.6107Z" fill="#823A3A"/>
    <path d="M32.8184 20.2479C32.6924 20.2479 32.6924 20.2479 32.5664 20.1219C32.4404 19.9959 32.4404 19.7439 32.5664 19.7439C33.3223 19.114 33.7003 18.2321 33.7003 17.2243C33.7003 16.3424 33.1963 15.3345 32.4404 14.8306C32.3145 14.7046 32.3145 14.5786 32.3145 14.4527C32.4404 14.3267 32.5664 14.3267 32.6924 14.3267C33.5743 14.9566 34.2042 16.2164 34.2042 17.2243C34.0782 18.3581 33.7003 19.366 32.8184 20.2479C33.0704 20.2479 32.9444 20.2479 32.8184 20.2479Z" fill="#823A3A"/>
    <path d="M32.0629 19.3664C31.937 19.3664 31.937 19.3664 31.811 19.2404C31.685 19.1144 31.685 18.8624 31.811 18.7365C32.3149 18.2325 32.5669 17.7286 32.5669 17.2247C32.5669 16.5947 32.3149 15.9648 31.811 15.7129C31.685 15.5869 31.559 15.4609 31.685 15.3349C31.811 15.2089 31.937 15.0829 32.0629 15.2089C32.6929 15.5869 33.1968 16.3428 33.1968 17.2247C33.1968 17.9806 32.9448 18.6105 32.3149 19.2404C32.1889 19.3664 32.0629 19.3664 32.0629 19.3664Z" fill="#823A3A"/>
    <path d="M31.0557 18.61C30.9297 18.61 30.9297 18.61 30.8037 18.484C30.6777 18.358 30.6777 18.1061 30.8037 17.9801C31.0557 17.7281 31.1817 17.4762 31.1817 17.0982C31.1817 16.7203 31.0557 16.4683 30.6777 16.3423C30.5518 16.2163 30.5518 16.0904 30.5518 15.9644C30.6777 15.8384 30.8037 15.8384 30.9297 15.8384C31.4336 16.0903 31.6856 16.5943 31.6856 17.0982C31.6856 17.6021 31.4336 17.9801 31.1817 18.358C31.3077 18.61 31.1817 18.61 31.0557 18.61Z" fill="#823A3A"/>
</svg>
