<svg width="49" height="48" viewBox="0 0 49 48" fill="none" xmlns="http://www.w3.org/2000/svg">
    <rect x="0.5" width="48" height="48" rx="24" fill="#95E1F6"/>
    <path opacity="0.2" d="M36.4165 31.2151C36.4165 34.9967 30.1881 37.9996 22.5138 37.9996C18.6211 37.9996 15.1733 37.2211 12.6152 35.9977C10.0571 34.7742 8.5 33.1059 8.5 31.2151C8.5 27.4336 14.7284 24.4307 22.4026 24.4307C28.1861 24.4307 33.0798 26.099 35.193 28.6571C36.0828 29.3244 36.4165 30.2142 36.4165 31.2151Z" fill="#3A3A3A"/>
    <path d="M15.2852 18.314L26.9634 11.752C27.6307 12.8642 29.1878 13.309 30.3 12.6417L35.5274 21.6506C34.4152 22.3179 33.9703 23.875 34.6376 24.9873L22.4033 31.9942" fill="#FFBF66"/>
    <path d="M22.5154 32.3284L22.0705 31.6611L34.0824 24.8766C33.6375 23.6532 34.0824 22.3185 34.9721 21.54L30.0784 13.1984C29.5223 13.4208 28.855 13.4208 28.2989 13.3096C27.7428 13.0872 27.1867 12.7535 26.853 12.3086L15.5085 18.7594L15.1748 18.0921L27.1867 11.3076L27.4091 11.6413C27.6316 12.0862 28.0764 12.4198 28.6325 12.6423C29.1887 12.7535 29.7448 12.7535 30.1896 12.531L30.5233 12.3086L36.1956 21.9848L35.8619 22.2073C34.8609 22.7634 34.5273 24.098 35.0834 24.9878L35.3058 25.3215L22.5154 32.3284Z" fill="#823A3A"/>
    <path d="M16.7288 11.9741L16.2839 10.8619C16.2839 10.7507 16.3951 10.6394 16.5064 10.7507L17.3961 11.5292C17.6186 11.6404 17.841 11.7516 18.1747 11.6404L19.2869 11.1955C19.3981 11.1955 19.5093 11.3068 19.3981 11.418L18.6196 12.3078C18.5083 12.5302 18.3971 12.7526 18.5083 13.0863L18.9532 14.1985C18.9532 14.3097 18.842 14.421 18.7308 14.3097L17.841 13.5312C17.6186 13.42 17.3961 13.3087 17.0625 13.42L15.9503 13.8648C15.839 13.8648 15.7278 13.7536 15.839 13.6424L16.6176 12.7526C16.84 12.5302 16.84 12.1965 16.7288 11.9741Z" fill="#FFBF66"/>
    <mask id="mask0_1129_34069" style="mask-type:luminance" maskUnits="userSpaceOnUse" x="15" y="10" width="5" height="5">
        <path d="M16.7259 11.9716L16.281 10.8594C16.281 10.7482 16.3922 10.637 16.5034 10.7482L17.3932 11.5268C17.6156 11.638 17.8381 11.7492 18.1717 11.638L19.284 11.1931C19.3952 11.1931 19.5064 11.3043 19.3952 11.4155L18.6166 12.3053C18.5054 12.5278 18.3942 12.7502 18.5054 13.0839L18.9503 14.1961C18.9503 14.3073 18.8391 14.4185 18.7279 14.3073L17.8381 13.5287C17.6156 13.4175 17.3932 13.3063 17.0595 13.4175L15.9473 13.8624C15.8361 13.8624 15.7249 13.7512 15.8361 13.64L16.6147 12.7502C16.8371 12.5278 16.8371 12.1941 16.7259 11.9716Z" fill="white"/>
    </mask>
    <g mask="url(#mask0_1129_34069)">
        <path d="M18.2828 11.1933C18.1716 11.1933 16.9482 11.6381 16.9482 11.6381L17.5043 12.8616L16.6145 13.8626C16.6145 13.8626 13.834 15.3084 13.834 15.1972C13.834 15.086 14.6125 11.4157 14.6125 11.4157L15.7247 10.3035L18.394 10.0811L18.2828 11.1933Z" fill="#EDA754"/>
    </g>
    <path d="M18.8426 14.5328C18.7314 14.5328 18.7314 14.5328 18.6202 14.4215L17.7304 13.7542C17.5079 13.643 17.3967 13.643 17.1743 13.643L15.9508 14.0879C15.8396 14.0879 15.7284 13.9767 15.6172 13.8654C15.6172 13.7542 15.6172 13.643 15.7284 13.5318L16.3957 12.642C16.507 12.5308 16.507 12.1971 16.507 12.0859L16.0621 10.8625C16.0621 10.7512 16.1733 10.64 16.2845 10.5288C16.3957 10.5288 16.507 10.5288 16.6182 10.64L17.5079 11.3074C17.7304 11.4186 17.8416 11.4186 18.064 11.4186L19.2875 10.9737C19.3987 10.9737 19.5099 11.0849 19.6211 11.1961C19.6211 11.3074 19.6211 11.4186 19.5099 11.5298L18.8426 12.4196C18.7314 12.642 18.7314 12.7532 18.7314 12.9757L19.1763 14.1991C19.1763 14.3103 19.065 14.4215 18.8426 14.5328C18.9538 14.5328 18.9538 14.5328 18.8426 14.5328ZM17.3967 13.3093C17.6192 13.3093 17.8416 13.4206 17.9528 13.4206L18.8426 14.0879L18.5089 13.0869C18.3977 12.7532 18.5089 12.4196 18.6202 12.1971L19.2875 11.3074L18.2865 11.641C17.9528 11.7522 17.6192 11.641 17.3967 11.5298L16.507 10.8625L16.8406 11.8635C16.9518 12.0859 16.9518 12.5308 16.7294 12.7532L16.0621 13.5318L17.0631 13.1981C17.1743 13.3093 17.2855 13.3093 17.3967 13.3093Z" fill="#823A3A"/>
    <path d="M34.9705 33.2175H13.8385C13.8385 31.8829 12.8375 30.6594 11.3916 30.6594V20.3159C12.615 20.3159 13.8385 19.2037 13.8385 17.7578H34.9705C34.9705 19.0925 35.9714 20.3159 37.4173 20.3159V30.6594C35.8602 30.7707 34.9705 31.7717 34.9705 33.2175Z" fill="#FFDFB3"/>
    <mask id="mask1_1129_34069" style="mask-type:luminance" maskUnits="userSpaceOnUse" x="11" y="17" width="27" height="17">
        <path d="M34.9675 33.219H13.8355C13.8355 31.8843 12.8345 30.6609 11.3887 30.6609V20.3174C12.6121 20.3174 13.8355 19.2052 13.8355 17.7593H34.9675C34.9675 19.0939 35.9685 20.3174 37.4144 20.3174V30.6609C35.8573 30.7721 34.9675 31.7731 34.9675 33.219Z" fill="white"/>
    </mask>
    <g mask="url(#mask1_1129_34069)">
        <path d="M37.3032 29.9932H11.3887V38.0011H37.3032V29.9932Z" fill="#E2BF9A"/>
    </g>
    <path d="M35.3048 33.5505H13.3942V33.2168C13.3942 31.9934 12.5045 31.1036 11.3923 31.1036H11.0586V19.9815H11.3923C12.5045 19.9815 13.3942 18.9805 13.3942 17.8683V17.5347H35.3048V17.8683C35.3048 19.0918 36.1945 19.9815 37.3067 19.9815H37.6404V31.1036H37.3067C36.0833 31.2149 35.3048 31.9934 35.3048 33.2168V33.5505ZM14.1728 32.7719H34.6374C34.7487 31.4373 35.7497 30.5475 36.9731 30.3251V20.6489C35.7497 20.4264 34.7487 19.4254 34.6374 18.202H14.1728C13.9503 19.4254 12.9493 20.5376 11.8371 20.6489V30.3251C12.9493 30.4363 13.9503 31.5485 14.1728 32.7719Z" fill="#823A3A"/>
    <path d="M24.071 25.7661C23.6261 25.7661 23.1812 25.6549 23.07 25.5437C22.7363 25.4325 22.5139 25.21 22.2915 24.9876C22.069 24.7651 21.9578 24.4315 21.8466 24.0978C21.7353 23.7642 21.7354 23.3193 21.7354 22.9856C21.7354 22.6519 21.7353 22.0958 21.8466 21.8734C21.9578 21.5397 22.069 21.0948 22.2915 20.9836C22.5139 20.7612 22.7363 20.5387 23.1812 20.4275C23.5149 20.3163 23.9598 20.2051 24.1822 20.2051C24.6271 20.2051 25.072 20.3163 25.2944 20.4275C25.6281 20.5387 25.8505 20.7612 26.073 21.2061C26.2954 21.4285 26.4066 21.7622 26.4066 22.0958C26.5179 22.4295 26.5179 22.8744 26.5179 23.0968C26.5179 23.5417 26.5179 23.9866 26.4066 24.209C26.2954 24.5427 26.1842 24.9876 25.9617 25.0988C25.7393 25.3212 25.5169 25.5437 25.072 25.6549C24.8495 25.7661 24.4047 25.7661 24.071 25.7661ZM24.071 21.4285C23.9598 21.4285 23.8485 21.4285 23.7373 21.5397C23.6261 21.5397 23.5149 21.651 23.5149 21.7622C23.4037 21.8734 23.4037 21.9846 23.4037 22.2071C23.4037 22.4295 23.2924 22.6519 23.2924 22.9856C23.2924 23.3193 23.2924 23.5417 23.4037 23.8754C23.4037 24.0978 23.5149 24.209 23.6261 24.3203C23.7373 24.4315 23.7373 24.4315 23.8486 24.5427C23.9598 24.5427 24.071 24.6539 24.1822 24.6539C24.2934 24.6539 24.5159 24.6539 24.5159 24.5427C24.6271 24.5427 24.6271 24.4315 24.7383 24.3203C24.8495 24.209 24.8495 23.9866 24.8495 23.8754C24.8495 23.6529 24.8495 23.4305 24.8495 23.0968C24.8495 22.7632 24.8495 22.5407 24.7383 22.3183C24.7383 22.0958 24.6271 21.9846 24.6271 21.8734C24.5159 21.7622 24.5159 21.651 24.4047 21.651C24.2934 21.4285 24.2934 21.4285 24.071 21.4285Z" fill="#823A3A"/>
    <path d="M23.2923 30.8822C23.1811 30.8822 23.0699 30.8822 22.9587 30.8822C22.8474 30.8822 22.7362 30.771 22.7362 30.771C22.625 30.6597 22.625 30.5485 22.625 30.4373C22.625 30.3261 22.625 30.3261 22.7362 30.2149L29.6319 20.3162C29.6319 20.205 29.7431 20.205 29.7431 20.205C29.8544 20.205 29.8544 20.0938 29.9656 20.0938C30.0768 20.0938 30.0768 20.0938 30.188 20.0938C30.2993 20.0938 30.4105 20.0938 30.5217 20.0938C30.6329 20.0938 30.7441 20.0938 30.8554 20.0938C30.9666 20.0938 31.0778 20.205 31.0778 20.205C31.189 20.3162 31.189 20.4274 31.189 20.5386C31.189 20.6499 31.189 20.7611 31.0778 20.7611L24.1821 30.6597C24.1821 30.771 24.0709 30.771 24.0709 30.8822C24.0709 30.8822 23.9597 30.9934 23.8484 30.9934C23.7372 30.9934 23.7372 30.9934 23.626 30.9934C23.626 30.8822 23.4036 30.8822 23.2923 30.8822Z" fill="#823A3A"/>
    <path d="M30.6323 20.2051C30.7435 20.2051 30.8547 20.2051 30.8547 20.2051C30.9659 20.2051 30.9659 20.2051 30.9659 20.3163V20.4275C30.9659 20.4275 30.9659 20.5387 30.8547 20.5387L23.959 30.4374C23.959 30.4374 23.959 30.5486 23.8478 30.5486C23.8478 30.5486 23.7366 30.5486 23.7366 30.6599C23.7366 30.6599 23.6253 30.6599 23.5141 30.6599C23.4029 30.6599 23.4029 30.6599 23.2917 30.6599C23.1805 30.6599 23.0692 30.6599 23.0692 30.6599C22.958 30.6599 22.958 30.6599 22.958 30.5486V30.4374C22.958 30.4374 22.958 30.3262 23.0692 30.3262L29.9649 20.4275C29.9649 20.4275 29.9649 20.3163 30.0762 20.3163C30.0762 20.3163 30.1874 20.3163 30.1874 20.2051C30.1874 20.2051 30.2986 20.2051 30.4098 20.2051C30.4098 20.2051 30.521 20.2051 30.6323 20.2051Z" fill="#823A3A"/>
    <path d="M29.9655 30.7715C29.5206 30.7715 29.0758 30.6603 28.9645 30.5491C28.6309 30.4378 28.4084 30.2154 28.186 29.993C27.9635 29.7705 27.8523 29.4368 27.7411 29.1032C27.6299 28.7695 27.6299 28.3246 27.6299 27.991C27.6299 27.6573 27.6299 27.1012 27.7411 26.8788C27.8523 26.5451 27.9635 26.1002 28.186 25.989C28.4084 25.7666 28.6309 25.5441 29.0758 25.4329C29.4094 25.3217 29.8543 25.2104 30.0768 25.2104C30.5216 25.2104 30.9665 25.3217 31.189 25.4329C31.4114 25.5441 31.7451 25.7666 31.9675 26.2114C32.1899 26.4339 32.3012 26.7675 32.3012 27.1012C32.4124 27.4349 32.4124 27.8798 32.4124 28.1022C32.4124 28.5471 32.4124 28.992 32.3012 29.2144C32.1899 29.4369 32.0787 29.993 31.8563 30.1042C31.6338 30.3266 31.4114 30.5491 30.9665 30.6603C30.6329 30.6603 30.2992 30.7715 29.9655 30.7715ZM29.9655 26.4339C29.8543 26.4339 29.7431 26.4339 29.6319 26.5451C29.5206 26.5451 29.4094 26.6563 29.4094 26.7675C29.2982 26.8788 29.2982 26.99 29.2982 27.2124C29.2982 27.4349 29.187 27.6573 29.187 27.991C29.187 28.3246 29.187 28.5471 29.2982 28.8807C29.2982 29.1032 29.4094 29.2144 29.5206 29.3256C29.6319 29.4368 29.6319 29.4368 29.7431 29.5481C29.8543 29.5481 29.9655 29.6593 30.0768 29.6593C30.188 29.6593 30.4104 29.6593 30.4104 29.5481C30.5216 29.5481 30.5216 29.4368 30.6329 29.3256C30.7441 29.2144 30.7441 28.992 30.7441 28.8807C30.7441 28.6583 30.7441 28.4359 30.7441 28.1022C30.7441 27.7685 30.7441 27.5461 30.6329 27.3237C30.6329 27.1012 30.5216 26.99 30.5216 26.8788C30.4104 26.7675 30.4104 26.6563 30.2992 26.6563C30.188 26.4339 30.0768 26.4339 29.9655 26.4339Z" fill="#823A3A"/>
    <path d="M29.9657 25.3218C30.4106 25.3218 30.8555 25.433 30.9667 25.5442C31.1892 25.6554 31.4116 25.8779 31.7453 26.1003C31.8565 26.3228 31.9677 26.5452 32.0789 26.9901C32.1902 27.3238 32.1902 27.7686 32.1902 27.9911C32.1902 28.3247 32.1902 28.8808 32.0789 28.9921C31.9677 29.3257 31.8565 29.5482 31.6341 29.8818C31.4116 30.1043 31.1892 30.3267 30.8555 30.4379C30.6331 30.5492 30.2994 30.6604 29.9657 30.6604C29.5209 30.6604 29.1872 30.5492 29.076 30.4379C28.9647 30.3267 28.6311 30.1043 28.2974 29.9931C28.1862 29.7706 27.9638 29.5482 27.9638 29.1033C27.8525 28.7696 27.8525 28.3247 27.8525 27.9911C27.8525 27.6574 27.8525 27.2125 27.9638 26.9901C28.075 26.6564 28.1862 26.434 28.2974 26.1003C28.5199 25.8779 28.6311 25.6554 29.076 25.5442C29.2984 25.433 29.6321 25.3218 29.9657 25.3218ZM29.9657 29.6594C30.1882 29.6594 30.2994 29.6594 30.4106 29.5482C30.5218 29.437 30.6331 29.3257 30.7443 29.2145C30.8555 29.1033 30.8555 28.8808 30.8555 28.6584C30.8555 28.436 30.8555 28.2135 30.8555 27.8799C30.8555 27.5462 30.8555 27.3238 30.7443 26.9901C30.7443 26.7677 30.6331 26.5452 30.5218 26.434C30.4106 26.3228 30.2994 26.2115 30.1882 26.1003C30.077 25.9891 29.8545 25.9891 29.7433 25.9891C29.5209 25.9891 29.4096 25.9891 29.2984 26.1003C29.1872 26.2115 29.076 26.3228 28.9647 26.434C28.8535 26.5452 28.8535 26.7677 28.7423 26.9901C28.7423 27.2125 28.6311 27.435 28.6311 27.8799C28.6311 28.3247 28.6311 28.6584 28.7423 28.7696C28.7423 28.9921 28.8535 29.2145 28.9647 29.3257C29.076 29.437 29.1872 29.5482 29.2984 29.5482C29.6321 29.6594 29.7433 29.6594 29.9657 29.6594Z" fill="#823A3A"/>
    <path d="M17.6196 21.65C17.2859 21.65 17.0635 21.4275 17.0635 21.0938V18.2021C17.0635 17.8684 17.2859 17.646 17.6196 17.646C17.9532 17.646 18.1757 17.8684 18.1757 18.2021V21.0938C18.1757 21.3163 17.9532 21.65 17.6196 21.65Z" fill="#823A3A"/>
    <path d="M17.6196 33.5506C17.2859 33.5506 17.0635 33.3282 17.0635 32.9945V29.8803C17.0635 29.5467 17.2859 29.3242 17.6196 29.3242C17.9532 29.3242 18.1757 29.5467 18.1757 29.8803V32.9945C18.1757 33.3282 17.9532 33.5506 17.6196 33.5506Z" fill="#823A3A"/>
    <path d="M17.6196 27.1004C17.2859 27.1004 17.0635 26.878 17.0635 26.5443V24.4311C17.0635 24.0974 17.2859 23.875 17.6196 23.875C17.9532 23.875 18.1757 24.0974 18.1757 24.4311V26.5443C18.1757 26.7667 17.9532 27.1004 17.6196 27.1004Z" fill="#823A3A"/>
    <path d="M36.9706 12.3078L39.5286 11.8629C39.7511 11.8629 39.8623 12.0854 39.7511 12.3078L37.8603 13.9761C37.7491 14.0874 37.7491 14.1986 37.7491 14.1986L38.194 16.7567C38.194 16.9791 37.9715 17.0903 37.7491 16.9791L36.0808 15.0883C35.9696 14.9771 35.8583 14.9771 35.8583 14.9771L33.3003 15.422C33.0778 15.422 32.9666 15.1996 33.0778 14.9771L34.9686 13.3088C35.0798 13.1976 35.0798 13.0864 35.0798 13.0864L34.6349 10.5283C34.6349 10.3058 34.8573 10.1946 35.0798 10.3058L36.7481 12.1966C36.9705 12.1966 36.9706 12.3078 36.9706 12.3078Z" fill="#FFBF66"/>
    <mask id="mask2_1129_34069" style="mask-type:luminance" maskUnits="userSpaceOnUse" x="33" y="10" width="7" height="8">
        <path d="M36.9666 12.3078L39.5247 11.8629C39.7472 11.8629 39.8584 12.0854 39.7472 12.3078L37.8564 13.9761C37.7452 14.0874 37.7452 14.1986 37.7452 14.1986L38.1901 16.7567C38.1901 16.9791 37.9676 17.0903 37.7452 16.9791L36.0769 15.0883C35.9657 14.9771 35.8544 14.9771 35.8544 14.9771L33.2964 15.422C33.0739 15.422 32.9627 15.1996 33.0739 14.9771L34.9647 13.3088C35.0759 13.1976 35.0759 13.0864 35.0759 13.0864L34.631 10.5283C34.631 10.3058 34.8534 10.1946 35.0759 10.3058L36.7442 12.1966C36.9666 12.1966 36.9666 12.3078 36.9666 12.3078Z" fill="white"/>
    </mask>
    <g mask="url(#mask2_1129_34069)">
        <path d="M36.9677 11.8628H35.5218L35.8554 13.3087L35.0769 15.6444L29.7383 15.3107L33.0749 8.41499L38.3023 7.85889L36.9677 11.8628Z" fill="#EDA754"/>
    </g>
    <path d="M37.9712 17.2016C37.86 17.2016 37.7487 17.2016 37.6375 17.0903L37.5263 16.9791L35.858 15.0884L33.4111 15.5332C33.1887 15.5332 33.0774 15.422 32.9662 15.3108C32.855 15.1996 32.855 14.9771 32.9662 14.7547L33.0774 14.6435L34.9682 12.9752L34.5233 10.5283C34.5233 10.3059 34.6346 10.1946 34.7458 10.0834C34.857 9.97219 35.0794 9.97219 35.3019 10.0834L35.4131 10.1946L37.0814 11.9742C37.0814 11.9742 37.1926 11.9742 37.1926 12.0854L39.6395 11.6405C39.8619 11.6405 39.9731 11.7517 40.0844 11.863C40.1956 11.9742 40.1956 12.1966 40.0844 12.4191L39.9732 12.5303L38.0824 14.1986L38.5273 16.6455C38.5273 16.8679 38.4161 16.9791 38.3048 17.0903C38.0824 17.2016 37.9712 17.2016 37.9712 17.2016ZM37.8599 16.7567L37.4151 14.3098C37.4151 14.1986 37.4151 14.0874 37.6375 13.8649L39.5283 12.1966L36.9702 12.6415L36.859 12.5303H36.7477L36.6365 12.4191L34.9682 10.6395L35.4131 13.0864C35.4131 13.1976 35.4131 13.3088 35.1906 13.5313L33.2999 15.1996L35.7468 14.7547C35.858 14.7547 35.9692 14.7547 36.1916 14.9771L37.8599 16.7567Z" fill="#823A3A"/>
    <path d="M17.7314 17.4238H32.6351L32.0789 16.4229H19.3998L17.7314 17.4238Z" fill="#D89C55"/>
</svg>
