<svg width="44" height="44" viewBox="0 0 44 44" fill="none" xmlns="http://www.w3.org/2000/svg">
    <g clip-path="url(#clip0_1365_28524)">
        <path d="M29.2977 44H14.7023C6.61569 44 0 37.3843 0 29.2977V14.7023C0 6.61569 6.61569 0 14.7023 0H29.2977C37.3843 0 44 6.61569 44 14.7023V29.2977C44 37.3843 37.3843 44 29.2977 44Z" fill="#F1DFBA"/>
        <path d="M17.1115 32.2995C27.5547 35.9868 31.7604 28.4254 33.4004 20.8528C34.177 17.3347 34.4174 13.8544 34.453 11.4756C32.1031 11.9852 28.6784 12.8575 25.3939 14.2416C22.2118 15.5767 19.1432 17.4281 17.1761 19.8648C14.686 22.9557 13.9984 26.9968 17.1115 32.2995Z" fill="white"/>
        <path d="M34.008 11.4756C34.008 11.4756 34.5176 26.8877 20.8945 33.1629L21.6778 33.5368L25.3339 32.7535L28.7719 30.9332L31.1196 27.8557L32.8041 24.0639L34.0146 18.6543L34.6244 13.8077L34.008 11.4756Z" fill="#71C08F"/>
        <path d="M22.167 33.6038C20.5737 33.6038 18.8469 33.2767 16.9955 32.6247C16.9176 32.598 16.8531 32.5445 16.813 32.4733C13.9469 27.5956 13.978 23.2786 16.9065 19.647C18.7045 17.4195 21.515 15.4924 25.2601 13.9214C27.877 12.8199 30.9456 11.883 34.3792 11.1376C34.4815 11.1153 34.5906 11.142 34.6707 11.2088C34.753 11.2755 34.7998 11.3757 34.7975 11.4803C34.7708 13.3361 34.595 17.0345 33.7383 20.9265C32.481 26.73 30.1846 30.5974 26.9157 32.4222C25.5049 33.2099 23.916 33.6038 22.167 33.6038ZM17.3471 32.0149C20.9854 33.2744 24.0918 33.2077 26.5797 31.8191C29.6683 30.0945 31.8513 26.3806 33.0641 20.7774C33.8474 17.2281 34.0521 13.8413 34.101 11.9053C30.8811 12.6263 27.9994 13.5164 25.5293 14.5578C21.9422 16.0621 19.1473 17.9713 17.445 20.0809C14.7391 23.441 14.7057 27.4554 17.3471 32.0149Z" fill="#288933"/>
        <path d="M18.6467 30.8422C18.5688 30.8422 18.491 30.8155 18.4264 30.7621C18.2796 30.6397 18.2595 30.4217 18.3819 30.277L34.1902 11.2555C34.3125 11.1087 34.5306 11.0886 34.6753 11.211C34.8221 11.3334 34.8421 11.5515 34.7198 11.6961L18.9115 30.7176C18.8426 30.8 18.7446 30.8422 18.6467 30.8422Z" fill="#288933"/>
        <path d="M25.77 31.4806C25.5431 31.8633 25.2938 32.2505 25.0223 32.6444C19.0876 34.2621 15.3692 32.5398 13.0371 29.3265C11.2013 26.7897 10.2177 23.3428 9.76154 19.9226C9.30536 16.5179 9.33874 13.1111 9.45222 10.7211C9.45667 10.6299 9.46112 10.5409 9.46558 10.4541C11.7531 11.1128 15.0487 12.2566 18.2398 13.9255C24.8198 17.339 30.7769 23.0157 25.77 31.4806Z" fill="#38A46D"/>
        <path d="M26.8247 35.5127C26.7156 35.5127 26.6088 35.4615 26.542 35.3659L9.77029 11.4799C9.66125 11.3242 9.69908 11.1083 9.85485 10.9993C10.0106 10.8903 10.2265 10.9281 10.3355 11.0839L27.1073 34.9698C27.2163 35.1255 27.1785 35.3414 27.0227 35.4504C26.9626 35.4927 26.8936 35.5127 26.8247 35.5127Z" fill="#288933"/>
        <path d="M16.317 20.546C16.2881 20.546 16.2592 20.5415 16.2302 20.5349C16.0455 20.4859 15.9343 20.299 15.9832 20.1143L16.742 17.2014C16.791 17.0167 16.9779 16.9055 17.1626 16.9544C17.3473 17.0034 17.4586 17.1903 17.4096 17.375L16.6508 20.2879C16.6108 20.4436 16.4706 20.546 16.317 20.546Z" fill="#288933"/>
        <path d="M16.5225 20.9574H12.2033C12.0119 20.9574 11.8584 20.8039 11.8584 20.6125C11.8584 20.4211 12.0119 20.2676 12.2033 20.2676H16.5225C16.7139 20.2676 16.8675 20.4211 16.8675 20.6125C16.8675 20.8039 16.7139 20.9574 16.5225 20.9574Z" fill="#288933"/>
        <path d="M19.7374 25.4188C19.6907 25.4188 19.644 25.4099 19.5995 25.3899C19.4237 25.3142 19.3458 25.1095 19.4214 24.9359L20.8857 21.5736C20.9613 21.3978 21.166 21.3199 21.3396 21.3956C21.5154 21.4712 21.5933 21.6759 21.5176 21.8495L20.0534 25.2119C19.9978 25.3409 19.8709 25.4188 19.7374 25.4188Z" fill="#288933"/>
        <path d="M16.0321 26.1733C15.8741 26.1733 15.7317 26.0643 15.6961 25.9041C15.6538 25.7172 15.7718 25.5325 15.9565 25.4924L19.4568 24.7024C19.6437 24.6602 19.8284 24.7781 19.8707 24.9628C19.913 25.1497 19.795 25.3344 19.6103 25.3745L16.1078 26.1644C16.0833 26.1711 16.0566 26.1733 16.0321 26.1733Z" fill="#288933"/>
        <path d="M25.77 31.4806C25.1402 18.2803 14.953 12.7528 9.45215 10.7211C9.4566 10.6299 9.46105 10.5409 9.4655 10.4541C11.7531 11.1128 15.0487 12.2566 18.2397 13.9255C24.8198 17.339 30.7768 23.0157 25.77 31.4806Z" fill="#70BF8F"/>
        <path d="M20.957 33.8795C17.568 33.8795 14.8665 32.5176 12.8994 29.8028C11.2215 27.4841 10.0978 24.2663 9.56149 20.2408C9.1921 17.4927 9.08752 14.3751 9.24996 10.9771L9.28556 10.2739L9.70391 10.3941C11.493 10.9081 15.0178 12.0475 18.5426 13.8922C23.6585 16.5469 26.7627 19.6712 27.7685 23.1782C28.5518 25.913 28.0289 28.857 26.2109 31.9279C25.9839 32.3106 25.728 32.709 25.4498 33.1117L25.3786 33.2163L25.2562 33.2497C23.7164 33.6703 22.2833 33.8795 20.957 33.8795ZM9.92867 11.1841C9.77957 14.473 9.88638 17.4904 10.2424 20.1518C10.7565 24.0082 11.8669 27.2059 13.4557 29.4C15.9903 32.8914 19.8555 33.9751 24.9492 32.62C25.1895 32.2661 25.4142 31.9168 25.6123 31.5808C27.3279 28.679 27.8286 25.9153 27.101 23.3718C26.1508 20.0539 23.1623 17.0721 18.22 14.5086C15.0045 12.8263 11.7868 11.7381 9.92867 11.1841Z" fill="#288834"/>
    </g>
    <defs>
        <clipPath id="clip0_1365_28524">
            <rect width="44" height="44" rx="22" fill="white"/>
        </clipPath>
    </defs>
</svg>
