<svg width="48" height="48" viewBox="0 0 48 48" fill="none" xmlns="http://www.w3.org/2000/svg">
    <rect width="48" height="48" rx="24" fill="#95E1F6"/>
    <path opacity="0.2" d="M34.157 33.0604C34.157 36.4379 28.6831 39.0001 21.9281 39.0001C18.5506 39.0001 15.5225 38.3013 13.3097 37.2531C11.0968 36.2049 9.69922 34.6909 9.69922 33.0604C9.69922 29.6828 15.1731 27.1206 21.9281 27.1206C27.0526 27.1206 31.2454 28.6347 33.2253 30.731C33.8076 31.4298 34.157 32.1286 34.157 33.0604Z" fill="#3A3A3A"/>
    <path d="M17.1514 12.3294L12.2598 20.5985C11.0952 22.5784 11.794 25.0242 13.6574 26.1888C14.7056 26.7712 16.1032 26.5382 16.6855 25.3736L23.4405 13.8435C24.0228 12.7953 23.7899 11.3977 22.6253 10.8154C20.8783 9.76719 18.4325 10.466 17.1514 12.3294Z" fill="#FFBF66"/>
    <path d="M17.9669 18.3857C18.1998 18.0363 18.0833 17.8034 17.734 17.5705L14.9388 15.9399L14.3564 16.9881L17.1516 18.6187C17.501 18.7351 17.8504 18.6187 17.9669 18.3857Z" fill="#F2A63D"/>
    <path d="M15.754 22.2285C15.9869 21.8791 15.8705 21.6462 15.5211 21.4132L12.7259 19.7827L12.26 20.598C12.26 20.7144 12.1436 20.7144 12.1436 20.8309L14.9387 22.4614C15.2881 22.4614 15.6375 22.345 15.754 22.2285Z" fill="#F2A63D"/>
    <path d="M17.1524 12.3296L16.6865 13.1449L19.4817 14.7754C19.8311 15.0083 20.064 14.8919 20.297 14.5425C20.5299 14.1931 20.4134 13.9601 20.064 13.7272L17.2689 12.0967C17.2689 12.2131 17.2689 12.2131 17.1524 12.3296Z" fill="#F2A63D"/>
    <path d="M15.0556 26.7711C14.5898 26.7711 14.0074 26.6546 13.658 26.4217C11.5616 25.257 10.8629 22.4618 12.144 20.3654L17.0355 12.0964C17.7343 10.8153 19.1319 10 20.646 10C21.4612 10 22.393 10.2329 23.0917 10.5823C24.2564 11.2811 24.7223 12.7952 24.0235 14.0763L17.2685 25.6064C16.6861 26.3052 15.8709 26.7711 15.0556 26.7711ZM20.5295 10.5823C19.2484 10.6988 18.0837 11.2811 17.5014 12.4458L12.6098 20.7148C11.5616 22.5783 12.144 24.9076 13.891 25.9558C14.2404 26.1887 14.5898 26.3052 14.9391 26.3052C15.5215 26.3052 16.1038 25.9558 16.4532 25.3735L23.2082 13.8434C23.6741 12.9116 23.4411 11.8635 22.5094 11.1647C22.0436 10.8153 21.2283 10.5823 20.5295 10.5823Z" fill="#823A3A"/>
    <path d="M24.8396 13.9597L17.1529 19.55C15.2894 20.8312 14.94 23.3934 16.2211 25.2568C16.9199 26.305 18.3175 26.4215 19.2493 25.7227L29.9641 18.036C31.0123 17.3372 31.1287 15.9396 30.43 15.0079C29.2653 13.1444 26.7031 12.6786 24.8396 13.9597Z" fill="#FFBF66"/>
    <path d="M23.2083 19.9002C23.5577 19.6673 23.5577 19.3179 23.3247 19.085L21.4613 16.4062L20.4131 17.105L22.2765 19.7838C22.5095 20.0167 22.9753 20.0167 23.2083 19.9002Z" fill="#F2A63D"/>
    <path d="M19.5969 22.3455C19.9463 22.1126 19.9463 21.7632 19.7134 21.5303L17.8499 18.8516L17.0347 19.4339C16.9182 19.4339 16.9182 19.5504 16.8018 19.5504L18.6652 22.2291C19.0146 22.5785 19.364 22.5785 19.5969 22.3455Z" fill="#F2A63D"/>
    <path d="M24.8397 13.96L24.0244 14.5423L25.8879 17.221C26.1208 17.5704 26.4702 17.5704 26.7031 17.3375C27.0525 17.1045 27.0525 16.7551 26.8196 16.5222L24.8397 13.96Z" fill="#F2A63D"/>
    <path d="M18.0838 26.5387C17.2685 26.5387 16.4533 26.1893 15.9874 25.4905C15.2886 24.5588 15.0557 23.3941 15.1722 22.2295C15.4051 21.0648 15.9874 20.1331 17.0356 19.4343L24.7223 13.8439C25.4211 13.3781 26.2364 13.0287 27.0517 13.0287C28.5657 12.9122 29.9633 13.611 30.7786 14.8921C31.1279 15.358 31.2444 16.0568 31.1279 16.7556C31.0115 17.4544 30.6621 17.9202 30.0798 18.3861L19.3649 26.0728C19.0155 26.4222 18.5497 26.4222 18.0838 26.5387ZM27.0517 13.611C26.3529 13.611 25.6541 13.9604 25.0717 14.3098L17.385 19.9002C16.5697 20.4825 16.1039 21.2977 15.8709 22.3459C15.638 23.3941 15.9874 24.3258 16.4533 25.1411C16.8027 25.607 17.5015 25.9564 18.0838 25.9564C18.4332 25.9564 18.7826 25.8399 19.132 25.607L29.8468 17.9202C30.1962 17.5708 30.5456 17.2214 30.6621 16.7556C30.7785 16.2897 30.6621 15.7074 30.3127 15.358C29.6139 14.0769 28.3328 13.4945 27.0517 13.611Z" fill="#823A3A"/>
    <mask id="mask0_1129_34073" style="mask-type:luminance" maskUnits="userSpaceOnUse" x="11" y="24" width="19" height="11">
        <path d="M25.7699 34.4594H15.1715C14.3562 34.4594 13.541 33.7606 13.308 32.7124L11.3281 24.9092H29.7297L27.7498 32.7124C27.2839 33.877 26.5851 34.4594 25.7699 34.4594Z" fill="white"/>
    </mask>
    <g mask="url(#mask0_1129_34073)">
        <path d="M24.1392 23.5112C24.1392 23.5112 16.1031 25.1417 25.4203 37.4871C34.7376 49.8325 44.9866 46.6879 44.9866 46.6879L24.1392 23.5112Z" fill="#E2BF9A"/>
    </g>
    <path d="M25.7699 34.4574H15.1715C14.3562 34.4574 13.541 33.7586 13.308 32.7104L11.3281 24.9072H29.7297L27.7498 32.7104C27.2839 33.8751 26.5851 34.4574 25.7699 34.4574Z" fill="#FFDFB3"/>
    <mask id="mask1_1129_34073" style="mask-type:luminance" maskUnits="userSpaceOnUse" x="11" y="24" width="19" height="11">
        <path d="M25.7689 34.4584H15.1705C14.3553 34.4584 13.54 33.7596 13.3071 32.7114L11.3271 24.9082H29.7287L27.7488 32.7114C27.2829 33.8761 26.5841 34.4584 25.7689 34.4584Z" fill="white"/>
    </mask>
    <g mask="url(#mask1_1129_34073)">
        <path d="M22.6237 23.7437C22.6237 23.7437 17.2663 29.7999 24.6037 34.4585C31.8245 39.1171 30.194 25.3742 30.194 25.3742L22.6237 23.7437Z" fill="#E2BF9A"/>
    </g>
    <mask id="mask2_1129_34073" style="mask-type:luminance" maskUnits="userSpaceOnUse" x="11" y="24" width="19" height="11">
        <path d="M25.7699 34.4569H15.1715C14.3562 34.4569 13.541 33.7581 13.308 32.7099L11.3281 24.9067H29.7297L27.7498 32.7099C27.2839 33.8746 26.5851 34.4569 25.7699 34.4569Z" fill="white"/>
    </mask>
    <g mask="url(#mask2_1129_34073)">
        <path d="M12.7259 21.8789C12.7259 21.8789 14.3564 34.2243 18.4327 36.67C22.509 39.1158 12.26 38.65 12.0271 38.5335C11.7942 38.3006 6.78613 33.5255 6.78613 33.2925C6.78613 33.0596 8.99898 24.0918 9.11545 24.0918L12.7259 21.8789Z" fill="#E2BF9A"/>
    </g>
    <path d="M25.7696 34.8063H15.1713C14.2396 34.8063 13.3078 33.9911 13.0749 32.8264L10.9785 24.6738H30.0789L27.9825 32.8264C27.5166 34.1075 26.7014 34.8063 25.7696 34.8063ZM11.6773 25.1397L13.6572 32.5935C13.7737 33.4088 14.4725 34.1075 15.2877 34.1075H25.8861C26.5849 34.1075 27.1672 33.5252 27.6331 32.5935L29.613 25.1397H11.6773Z" fill="#823A3A"/>
    <path d="M29.6156 25.0239H11.3305C10.1658 25.0239 9.35059 24.0922 9.35059 23.044V21.8793C9.35059 20.7147 10.2823 19.8994 11.3305 19.8994H29.6156C30.7803 19.8994 31.5955 20.8311 31.5955 21.8793V23.044C31.5955 24.0922 30.6638 25.0239 29.6156 25.0239Z" fill="#FFDFB3"/>
    <mask id="mask3_1129_34073" style="mask-type:luminance" maskUnits="userSpaceOnUse" x="9" y="19" width="23" height="7">
        <path d="M29.6195 25.0224H11.3344C10.1698 25.0224 9.35449 24.0907 9.35449 23.0425V21.8779C9.35449 20.7132 10.2862 19.8979 11.3344 19.8979H29.6195C30.7842 19.8979 31.5994 20.8297 31.5994 21.8779V23.0425C31.5994 24.0907 30.6677 25.0224 29.6195 25.0224Z" fill="white"/>
    </mask>
    <g mask="url(#mask3_1129_34073)">
        <path d="M31.7143 19.8979H21.6982V21.412H31.7143V19.8979Z" fill="#E2BF9A"/>
    </g>
    <path d="M29.6144 25.2574H11.3293C10.0482 25.2574 9 24.2092 9 22.9281V21.7634C9 20.4823 10.0482 19.4341 11.3293 19.4341H29.6144C30.8955 19.4341 31.9437 20.4823 31.9437 21.7634V22.9281C31.8273 24.3256 30.7791 25.2574 29.6144 25.2574ZM11.3293 20.1329C10.3976 20.1329 9.58233 20.9481 9.58233 21.8799V23.0445C9.58233 23.9762 10.3976 24.7915 11.3293 24.7915H29.6144C30.5461 24.7915 31.3614 23.9762 31.3614 23.0445V21.9963C31.3614 21.0646 30.5461 20.2493 29.6144 20.2493L11.3293 20.1329Z" fill="#823A3A"/>
    <path d="M12.96 19.8999H22.1607L18.5503 26.6549C18.2009 27.3537 17.2692 27.3537 16.9198 26.6549L12.96 19.8999Z" fill="white"/>
    <path d="M17.7341 27.47C17.2683 27.47 16.9189 27.237 16.6859 26.7712L12.4932 19.5503H22.6257L18.7823 26.7712C18.6658 27.237 18.2 27.47 17.7341 27.47ZM13.4249 20.1326L17.1518 26.5382C17.2683 26.8876 17.5012 27.0041 17.7341 26.8876C17.967 26.8876 18.2 26.7712 18.3164 26.5382L21.8104 20.1326H13.4249Z" fill="#823A3A"/>
    <path d="M35.3215 33.6425C34.9721 33.6425 34.5062 33.6425 34.1568 33.5261C33.8074 33.4096 33.458 33.1767 33.458 32.5943C33.5745 32.245 33.8074 31.8956 34.3897 31.8956C36.952 32.2449 38.2331 31.4297 38.699 30.6144C38.9319 30.265 38.9319 29.9156 38.5825 29.5662C38.2331 29.2168 37.4178 29.2168 36.1367 29.9156C35.7873 30.1486 35.3215 29.9156 35.0885 29.5662C34.8556 29.2168 35.0885 28.751 35.4379 28.518C38.0002 27.2369 39.2813 28.1687 39.7471 28.518C40.4459 29.2168 40.5624 30.3815 40.0965 31.3132C39.5142 32.5943 38.0002 33.6425 35.3215 33.6425Z" fill="#F2E6D0"/>
    <path d="M35.3201 33.992C34.9707 33.992 34.5048 33.992 34.0389 33.8756C33.6895 33.8756 33.4566 33.6426 33.3401 33.5262C33.1072 33.2932 32.9907 33.0603 33.1072 32.7109C33.2237 32.1286 33.6895 31.6627 34.2719 31.6627C34.6213 31.6627 34.9707 31.7792 35.3201 31.7792C37.067 31.7792 37.9988 31.1968 38.2317 30.6145C38.3482 30.3816 38.3482 30.1487 38.2317 30.0322C38.2317 30.0322 37.9988 29.9157 37.7658 29.9157C37.5329 29.9157 36.9506 30.0322 36.2518 30.3816C36.0189 30.498 35.9024 30.498 35.7859 30.498C35.4365 30.498 34.9707 30.2651 34.7377 29.9157C34.6213 29.5663 34.5048 29.3334 34.6213 29.1005C34.7377 28.7511 34.9707 28.6346 35.2036 28.5181C36.1353 28.0523 37.067 27.8193 37.7658 27.8193C38.9305 27.8193 39.6293 28.2852 39.8622 28.6346C40.6775 29.4499 40.9104 30.6145 40.3281 31.7792C39.9787 32.0121 38.9305 33.992 35.3201 33.992ZM34.2719 32.3615C34.0389 32.3615 33.9225 32.5944 33.9225 32.7109C33.9225 32.8274 33.9225 32.9438 34.0389 33.0603C34.1554 33.1768 34.2719 33.1768 34.3883 33.2932C34.7377 33.4097 35.2036 33.4097 35.553 33.4097C38.5811 33.4097 39.6293 31.7792 39.9787 31.3133C40.3281 30.498 40.3281 29.4499 39.6293 28.984C39.3964 28.7511 38.9305 28.4017 37.9988 28.4017C37.3 28.4017 36.6012 28.6346 35.7859 28.984C35.6695 29.1005 35.553 29.1005 35.553 29.2169C35.553 29.3334 35.553 29.4499 35.553 29.5663C35.6695 29.7993 35.9024 29.9157 36.1353 29.7993C36.8341 29.4499 37.4164 29.3334 37.9988 29.3334C38.5811 29.3334 38.814 29.5663 39.047 29.6828C39.3964 30.0322 39.3964 30.498 39.1634 31.0804C38.814 31.8956 37.6494 32.7109 35.553 32.7109C35.0871 32.478 34.6213 32.478 34.2719 32.3615Z" fill="#823A3A"/>
    <path d="M37.0677 26.8872C37.0677 26.8872 36.9512 35.2727 30.6621 35.2727H29.4974C23.0918 35.2727 23.0918 26.8872 23.0918 26.8872H37.0677Z" fill="#FFDFB3"/>
    <mask id="mask4_1129_34073" style="mask-type:luminance" maskUnits="userSpaceOnUse" x="23" y="26" width="15" height="10">
        <path d="M37.0628 26.8857C37.0628 26.8857 36.9463 35.2713 30.6572 35.2713H29.4925C23.0869 35.2713 23.0869 26.8857 23.0869 26.8857H37.0628Z" fill="white"/>
    </mask>
    <g mask="url(#mask4_1129_34073)">
        <path d="M34.2674 27.9342C34.2674 27.9342 36.7132 30.4964 30.8899 36.0868C25.1831 41.6771 46.1469 38.7655 46.1469 38.7655L44.7493 30.3799L37.0625 27.0024L34.2674 27.9342Z" fill="#E2BF9A"/>
    </g>
    <path d="M30.5456 35.5059H29.381C22.626 35.5059 22.626 27.0039 22.626 26.8875C22.626 26.771 22.626 26.6545 22.7424 26.6545C22.8589 26.5381 22.9754 26.5381 22.9754 26.5381H37.0677C37.1842 26.5381 37.3006 26.5381 37.3006 26.6545C37.4171 26.771 37.4171 26.8875 37.4171 26.8875C37.4171 27.0039 37.3006 35.5059 30.5456 35.5059ZM23.2083 27.1204C23.2083 27.8192 23.4412 29.3333 24.0236 30.7308C25.0718 33.4096 26.8187 34.6907 29.2645 34.6907H30.4292C32.8749 34.6907 34.7384 33.4096 35.6701 30.7308C36.2525 29.2168 36.3689 27.7027 36.4854 27.1204H23.2083Z" fill="#823A3A"/>
    <path d="M29.9618 29.3334C33.8855 29.3334 37.0662 28.2384 37.0662 26.8877C37.0662 25.5369 33.8855 24.4419 29.9618 24.4419C26.0382 24.4419 22.8574 25.5369 22.8574 26.8877C22.8574 28.2384 26.0382 29.3334 29.9618 29.3334Z" fill="#FFF2DB"/>
    <path d="M29.9636 29.5659C26.3531 29.5659 22.5098 28.5177 22.5098 26.7708C22.5098 24.9073 26.3531 23.9756 29.9636 23.9756C33.574 23.9756 37.4174 25.0238 37.4174 26.7708C37.4174 28.7507 33.574 29.5659 29.9636 29.5659ZM29.9636 24.7908C26.0037 24.7908 23.2086 25.9555 23.2086 26.8872C23.2086 27.9354 26.0037 28.9836 29.9636 28.9836C33.9234 28.9836 36.7186 27.819 36.7186 26.8872C36.7186 25.839 33.9234 24.7908 29.9636 24.7908Z" fill="#823A3A"/>
    <path d="M34.7384 26.4219C33.6903 26.0725 32.1762 25.7231 29.9634 25.7231C27.867 25.7231 26.2365 26.0725 25.1883 26.4219C24.7224 26.6549 24.7224 27.3537 25.1883 27.4701C26.2365 27.8195 27.7505 28.1689 29.9634 28.1689C32.1762 28.1689 33.6903 27.8195 34.7384 27.4701C35.2043 27.1207 35.2043 26.4219 34.7384 26.4219Z" fill="#823A3A"/>
</svg>
