<svg width="48" height="48" viewBox="0 0 48 48" fill="none" xmlns="http://www.w3.org/2000/svg">
    <rect width="48" height="48" rx="24" fill="#95E1F6"/>
    <path opacity="0.2" d="M35.0533 33.3083C35.0533 36.146 29.4871 38.4379 22.6112 38.4379C19.1187 38.4379 16.0628 37.8923 13.88 36.91C11.588 35.9277 10.2783 34.7272 10.2783 33.3083C10.2783 30.4707 15.8445 28.1787 22.7204 28.1787C27.85 28.1787 32.2156 29.4884 34.1802 31.3438C34.7259 31.8895 35.0533 32.6535 35.0533 33.3083Z" fill="#3A3A3A"/>
    <path d="M26.7567 35.2729H21.0814C20.7539 35.2729 20.3174 34.9455 20.3174 34.5089V33.1992H27.5207V34.5089C27.5207 34.9455 27.1933 35.2729 26.7567 35.2729Z" fill="#823A3A"/>
    <path d="M26.5393 33.8548H21.5189C15.407 33.8548 10.2773 28.8343 10.2773 22.6132V20.3213H37.6717V22.6132C37.7809 28.8343 32.6512 33.8548 26.5393 33.8548Z" fill="#FFDFB3"/>
    <mask id="mask0_1129_34077" style="mask-type:luminance" maskUnits="userSpaceOnUse" x="10" y="20" width="28" height="14">
        <path d="M26.5384 33.8543H21.5179C15.406 33.8543 10.2764 28.8338 10.2764 22.6128V20.3208H37.6707V22.6128C37.7799 28.8338 32.6503 33.8543 26.5384 33.8543Z" fill="white"/>
    </mask>
    <g mask="url(#mask0_1129_34077)">
        <path d="M6.56543 23.8131C6.56543 23.8131 17.043 32.3261 30.0307 28.0696C31.5587 27.5239 33.1958 28.5062 33.5232 30.1433C33.7415 31.9987 33.5232 34.9455 31.2313 38.3288C26.7565 45.2047 44.7647 21.1937 44.7647 20.5389C44.7647 19.884 43.455 9.07909 43.455 9.07909L8.20254 6.56885L6.56543 23.8131Z" fill="#E2BF9A"/>
    </g>
    <mask id="mask1_1129_34077" style="mask-type:luminance" maskUnits="userSpaceOnUse" x="10" y="20" width="28" height="14">
        <path d="M26.5384 33.8543H21.5179C15.406 33.8543 10.2764 28.8338 10.2764 22.6128V20.3208H37.6707V22.6128C37.7799 28.8338 32.6503 33.8543 26.5384 33.8543Z" fill="white"/>
    </mask>
    <g mask="url(#mask1_1129_34077)">
        <path opacity="0.49" d="M14.7523 16.9368C14.7523 16.9368 10.2775 29.488 22.3922 34.6176C34.5068 39.7473 0.345703 33.8537 0.345703 33.8537L4.92962 16.3911L14.8614 17.1551L14.7523 16.9368Z" fill="#FFFAF3"/>
    </g>
    <mask id="mask2_1129_34077" style="mask-type:luminance" maskUnits="userSpaceOnUse" x="10" y="20" width="28" height="14">
        <path d="M26.5384 33.8543H21.5179C15.406 33.8543 10.2764 28.8338 10.2764 22.6128V20.3208H37.6707V22.6128C37.7799 28.8338 32.6503 33.8543 26.5384 33.8543Z" fill="white"/>
    </mask>
    <g mask="url(#mask2_1129_34077)">
        <path opacity="0.18" d="M10.0581 29.4888C10.0581 29.4888 24.0282 36.3647 39.8536 29.598C55.5699 22.7221 21.2996 45.2051 21.2996 45.2051L9.83984 42.5858V29.4888" fill="#823A3A"/>
    </g>
    <path d="M26.5399 34.0726H21.5194C15.1892 34.0726 10.0596 28.9429 10.0596 22.6128V20.1025H37.8905V22.6128C37.8905 28.9429 32.7609 34.0726 26.5399 34.0726ZM10.4961 20.6482V22.7219C10.4961 28.8338 15.4075 33.7451 21.5194 33.7451H26.5399C32.5426 33.7451 37.5631 28.8338 37.5631 22.7219V20.6482H10.4961Z" fill="#823A3A"/>
    <path d="M24.0296 26.4323C31.745 26.4323 37.9996 23.6959 37.9996 20.3204C37.9996 16.9449 31.745 14.2085 24.0296 14.2085C16.3142 14.2085 10.0596 16.9449 10.0596 20.3204C10.0596 23.6959 16.3142 26.4323 24.0296 26.4323Z" fill="#823A3A"/>
    <path d="M23.9202 26.6505C31.3945 26.6505 37.4536 24.1095 37.4536 20.9751C37.4536 17.8407 31.3945 15.2998 23.9202 15.2998C16.4459 15.2998 10.3867 17.8407 10.3867 20.9751C10.3867 24.1095 16.4459 26.6505 23.9202 26.6505Z" fill="#823A3A"/>
    <path d="M23.9196 15.6274C16.8254 15.6274 11.4775 18.0285 11.4775 21.0845C11.4775 21.4119 11.5867 21.8485 11.6958 22.0667C13.9878 24.4678 16.9346 25.4501 23.8105 25.4501C30.0315 25.4501 34.3971 23.7039 36.0342 21.9576C36.2525 21.7393 36.5799 21.4119 36.5799 21.1936C36.7982 18.1377 30.9046 15.6274 23.9196 15.6274Z" fill="#FFBF66"/>
    <path d="M16.2804 23.5947C16.6078 23.9221 17.2627 23.813 17.6992 23.4855C18.1358 23.1581 18.4632 22.7216 19.0089 22.7216C19.9912 22.5033 20.7552 23.4855 21.7374 23.5947C22.5014 23.7038 23.2654 23.049 23.4837 22.285C23.702 21.521 23.3746 20.6479 22.938 20.1022C22.3923 19.3382 21.41 18.7925 20.4277 18.7925C20.3186 18.7925 20.2095 18.7925 20.2095 18.9016C20.1003 19.0108 20.1003 19.1199 19.9912 19.1199C19.882 19.3382 19.5546 19.5565 19.2272 19.5565C18.8998 19.6656 18.6815 19.5565 18.3541 19.5565C17.2627 19.4473 16.1713 19.7748 15.4073 20.5387C15.189 20.757 14.9707 20.9753 14.9707 21.3027C14.9707 21.6301 15.0798 21.9576 15.2981 22.0667C15.5164 22.1758 15.8438 22.1759 16.0621 22.285C16.1713 22.3941 16.1713 22.5033 16.1713 22.6124C16.0621 23.049 16.0621 23.4855 16.2804 23.5947Z" fill="#91321A"/>
    <path d="M31.4506 20.9749C31.6689 20.7567 31.3414 20.3201 31.014 20.4292C30.9049 20.4292 30.9049 20.4292 30.9049 20.4292V20.3201C30.9049 20.1018 30.6866 19.9927 30.5775 19.9927C30.3592 19.9927 30.25 20.211 30.1409 20.211C29.9226 20.4292 29.8135 20.8658 29.8135 21.1932C29.8135 21.3024 29.8135 21.4115 29.9226 21.4115C30.0317 21.5206 30.0318 21.5206 30.0318 21.6298C30.1409 21.8481 30.1409 21.9572 30.1409 22.1755C30.25 22.3938 30.3592 22.5029 30.4683 22.5029C30.3592 22.6121 30.6866 22.8303 30.7957 22.8303C31.014 22.9395 31.3414 22.8303 31.5597 22.9395C31.6689 23.0486 31.778 23.0486 31.778 23.0486C31.8872 23.1578 31.9963 23.1578 31.9963 22.9395C32.1054 22.8303 32.1054 22.7212 32.2146 22.7212C32.3237 22.7212 32.3237 22.7212 32.4329 22.8303C33.1968 23.1578 33.8517 21.3024 33.9608 20.7567C33.9608 20.5384 34.07 20.4292 33.8517 20.3201C33.7425 20.1018 33.6334 20.1018 33.5243 20.1018C33.4151 20.211 33.4151 20.3201 33.4151 20.4292C32.9786 20.3201 32.4329 20.7567 32.542 21.1932C32.1054 21.0841 31.778 20.9749 31.4506 20.9749Z" fill="#E17851"/>
    <path d="M33.852 20.8661C33.852 20.7569 33.852 20.7569 33.852 20.6478C33.6337 20.5387 33.5245 20.6478 33.3063 20.7569C33.088 20.8661 33.088 21.0844 33.088 21.3026C33.088 21.5209 33.1971 21.6301 33.1971 21.7392C32.9788 21.6301 32.8697 21.5209 32.7606 21.4118C32.6514 21.5209 32.7606 21.6301 32.7606 21.6301C32.7606 21.6301 32.7605 21.8483 32.6514 21.8483C32.5423 21.9575 32.4331 21.7392 32.324 21.8483C32.2149 21.9575 32.2149 21.9575 32.2149 22.0666C32.1057 22.2849 32.1057 22.2849 32.1057 22.5032C32.1057 22.2849 32.2148 22.1758 32.1057 22.0666C31.9966 21.8483 31.8874 21.8483 31.7783 21.7392C31.6692 21.7392 31.6691 21.7392 31.56 21.7392C31.4509 21.6301 31.3417 21.5209 31.2326 21.5209C31.1234 21.5209 31.0143 21.6301 31.0143 21.7392C30.9052 21.8483 30.9052 21.9575 30.796 21.9575C31.0143 21.7392 31.0143 21.5209 31.1234 21.1935C31.1234 21.0844 31.1234 21.0844 31.1234 21.0844C31.1234 20.9752 31.0143 20.9752 31.0143 20.9752C30.9052 20.8661 30.796 20.7569 30.5777 20.8661C30.4686 20.8661 30.4686 20.9752 30.4686 20.9752C30.2503 21.1935 30.2503 21.1935 30.032 21.4118C30.1412 21.1935 30.2503 20.9752 30.2503 20.7569C30.3595 20.6478 30.3595 20.5387 30.1412 20.4295C30.032 20.3204 30.032 20.3204 29.9229 20.4295C29.8137 20.5387 29.7046 20.6478 29.5955 20.6478C29.4863 20.8661 29.4863 20.9752 29.4863 21.1935C29.4863 21.3026 29.4863 21.4118 29.5955 21.4118C29.7046 21.5209 29.7046 21.5209 29.7046 21.6301C29.8137 21.8484 29.8138 21.9575 29.8138 22.1758C29.9229 22.3941 30.032 22.5032 30.1412 22.5032C30.032 22.6123 30.3594 22.8306 30.4686 22.8306C30.6869 22.9398 31.0143 22.8306 31.2326 22.9398C31.3417 23.0489 31.4509 23.0489 31.4509 23.0489C31.56 23.158 31.6691 23.158 31.6691 22.9398C31.7783 22.8306 31.7783 22.7215 31.8874 22.7215C31.9966 22.7215 31.9966 22.7215 32.1057 22.8306C33.1971 23.2672 33.7428 21.4118 33.852 20.8661Z" fill="#E4A47B"/>
    <path d="M20.8649 18.4661C20.6466 18.6843 20.7558 19.0118 20.9741 19.1209C21.0832 19.1209 21.0832 19.1209 21.0832 19.23C21.0832 19.3392 21.0832 19.3392 21.0832 19.3392C20.9741 19.5575 21.1923 19.6666 21.3015 19.6666C21.5198 19.6666 21.6289 19.5575 21.738 19.4483C21.9563 19.2301 22.1746 18.9026 22.3929 18.5752C22.3929 18.4661 22.502 18.4661 22.502 18.3569C22.502 18.2478 22.3929 18.2478 22.3929 18.1386C22.2838 17.9204 22.502 17.8112 22.502 17.7021C22.6112 17.4838 22.3929 17.3747 22.2837 17.3747C22.3929 17.3747 22.1746 17.0472 22.1746 17.0472C21.9563 16.8289 21.7381 16.9381 21.6289 16.829C21.5198 16.7198 21.5198 16.7198 21.4106 16.6107C21.3015 16.5015 21.1923 16.5015 21.1923 16.6107C21.0832 16.7198 21.0832 16.7198 20.9741 16.7198C20.8649 16.7198 20.8649 16.6107 20.8649 16.6107C20.3192 16.1741 19.2278 17.9204 19.0095 18.3569C18.9004 18.5752 18.9004 18.5752 18.9004 18.7935C18.9004 19.0118 19.0095 19.0118 19.1187 19.0118C19.2278 18.9026 19.2278 18.7935 19.3369 18.6843C19.6644 18.9026 20.1009 18.4661 20.3192 18.0295C20.3192 18.2478 20.5375 18.3569 20.8649 18.4661Z" fill="#E17851"/>
    <path d="M18.7908 18.2473C18.7908 18.3564 18.6816 18.3565 18.6816 18.4656C18.8999 18.5747 19.0091 18.5747 19.1182 18.3565C19.3365 18.2473 19.4456 18.1382 19.4456 17.9199C19.5548 17.7016 19.5548 17.7016 19.5548 17.4833C19.6639 17.5925 19.773 17.7016 19.773 17.8107C19.8822 17.7016 19.8822 17.5925 19.8822 17.5925C19.8822 17.4833 19.9913 17.3742 19.9913 17.3742C20.1005 17.265 20.2096 17.4833 20.2096 17.4833C20.2096 17.4833 20.3187 17.3742 20.4279 17.265C20.537 17.1559 20.6462 17.0468 20.6462 16.9376C20.537 17.1559 20.537 17.1559 20.4279 17.3742C20.3187 17.5925 20.537 17.5925 20.6462 17.7016C20.7553 17.7016 20.7553 17.7016 20.7553 17.8107C20.8645 17.9199 20.8644 18.029 20.9736 18.029C21.0827 18.029 21.1919 17.9199 21.1919 17.8107C21.301 17.7016 21.4102 17.5925 21.4102 17.5925C21.1919 17.8107 21.0827 17.9199 20.9736 18.1382L20.8645 18.2473C20.8645 18.3564 20.8644 18.3565 20.9736 18.3565C21.0827 18.4656 21.1919 18.5747 21.301 18.5747C21.4102 18.5747 21.4102 18.4656 21.4102 18.4656C21.6284 18.3565 21.7376 18.2473 21.8467 18.1382C21.7376 18.3564 21.6284 18.4656 21.5193 18.6839C21.4102 18.793 21.4102 18.9022 21.4102 18.9022C21.5193 19.0113 21.5193 19.0113 21.6284 19.0113C21.7376 18.9022 21.8467 18.9022 21.9559 18.793C22.065 18.5747 22.1741 18.4656 22.1741 18.3565C22.1741 18.2473 22.2833 18.2473 22.2833 18.1382C22.2833 18.029 22.1741 18.029 22.1741 17.9199C22.065 17.7016 22.2833 17.5925 22.2833 17.4833C22.3924 17.265 22.1741 17.1559 22.065 17.1559C22.1741 17.1559 21.9559 16.8285 21.9559 16.8285C21.7376 16.6102 21.5193 16.7193 21.4102 16.6102C21.301 16.5011 21.301 16.5011 21.1919 16.3919C21.0827 16.2828 20.9736 16.2828 20.9736 16.3919C20.8644 16.5011 20.8645 16.5011 20.7553 16.5011C20.6462 16.5011 20.6462 16.3919 20.6462 16.3919C20.1005 16.1736 19.0091 17.7016 18.7908 18.2473Z" fill="#E4A47B"/>
    <path d="M25.7744 17.3731L25.9927 17.4822C25.9927 17.4822 26.5384 17.2639 27.5207 17.7005C28.2846 18.1371 28.6121 19.0102 28.6121 19.0102C28.6121 19.0102 29.5943 18.6828 29.5943 18.4645C29.5943 18.4645 28.2847 17.3731 27.4115 17.1548C26.5384 17.1548 25.9927 17.1548 25.7744 17.3731Z" fill="#86A738"/>
    <path d="M28.7212 18.9013C28.9395 18.7922 29.2669 18.683 29.4852 18.4648C28.7212 17.4825 27.6298 16.8276 26.4292 16.8276C26.211 16.8276 26.1018 16.8276 25.9927 16.9368C25.8836 17.0459 25.7744 17.1551 25.7744 17.2642C26.5384 17.1551 27.0841 17.2642 27.7389 17.5916C28.2846 18.0282 28.8304 18.3556 28.7212 18.9013Z" fill="#93B34F"/>
    <path d="M28.394 23.4858C28.2848 23.3766 28.0666 23.704 27.5209 23.2675C26.9751 22.9401 26.7569 22.1761 26.7569 22.0669C26.7569 21.9578 26.3203 22.5035 26.3203 22.8309C26.3203 22.8309 27.3026 23.704 27.63 23.8132C28.1757 23.8132 28.394 23.5949 28.394 23.4858Z" fill="#86A738"/>
    <path d="M26.5386 22.2847C26.4295 22.3938 26.3203 22.6121 26.3203 22.8304C26.866 23.7035 27.63 24.1401 28.2848 24.0309C28.394 24.0309 28.5031 23.9218 28.5031 23.8126C28.6123 23.7035 28.6123 23.5944 28.5031 23.4852C28.1757 23.7035 27.7391 23.7035 27.4117 23.3761C26.9752 23.0487 26.7569 22.8304 26.5386 22.2847Z" fill="#93B34F"/>
    <path d="M25.2275 20.211C25.2275 20.3201 25.3367 20.4292 25.4458 20.4292C26.4281 21.1932 27.7378 21.4115 28.9383 21.4115C29.0475 21.1932 28.8292 21.0841 28.72 20.9749C27.8469 20.4292 26.7555 20.211 25.6641 19.9927C25.555 19.9927 25.2275 19.9927 25.2275 20.211Z" fill="#D05851"/>
    <path d="M28.8299 21.4115C28.9391 21.1932 28.7208 21.0841 28.6116 21.0841C27.4111 20.9749 26.2106 20.8658 25.2283 20.2109C25.1191 20.3201 25.1191 20.3201 25.1191 20.4292C25.1191 20.5384 25.2283 20.6475 25.3374 20.6475C26.4288 21.0841 27.7385 21.4115 28.8299 21.4115Z" fill="#C23636"/>
    <path d="M15.1885 19.0108C15.1885 19.1199 15.2976 19.229 15.4068 19.229C16.389 19.993 17.6987 20.2113 18.8993 20.2113C19.0084 19.993 18.7901 19.8839 18.681 19.7748C17.8079 19.229 16.7165 19.0108 15.6251 18.7925C15.4068 18.7925 15.1885 18.9016 15.1885 19.0108Z" fill="#D05851"/>
    <path d="M18.7899 20.2118C18.899 19.9935 18.6807 19.8844 18.5716 19.8844C17.3711 19.7752 16.1705 19.6661 15.1882 19.0112C15.0791 19.1204 15.0791 19.1204 15.0791 19.2295C15.0791 19.3386 15.1882 19.4478 15.2974 19.4478C16.3888 19.9935 17.5893 20.3209 18.7899 20.2118Z" fill="#C23636"/>
    <path d="M23.3738 17.7013C23.4829 17.8104 23.5921 17.8104 23.5921 17.7013C24.4652 17.483 25.12 16.9373 25.4475 16.2825C25.3383 16.1733 25.12 16.1733 25.0109 16.1733C24.2469 16.3916 23.7012 16.8282 23.2646 17.483C23.2646 17.483 23.2646 17.7013 23.3738 17.7013Z" fill="#D05851"/>
    <path d="M25.5566 16.1731C25.4475 16.064 25.3383 16.064 25.12 16.064C24.7926 16.7188 24.1378 17.2645 23.2646 17.3737C23.2646 17.4828 23.3738 17.4828 23.3738 17.4828C23.4829 17.5919 23.5921 17.5919 23.5921 17.4828C24.5743 17.4828 25.12 16.9371 25.5566 16.1731Z" fill="#C23636"/>
    <path d="M30.6849 19.3383C30.794 19.4474 30.9031 19.4474 30.9031 19.5565C31.7763 19.7748 32.6494 19.6657 33.1951 19.12C33.0859 18.9017 32.9768 18.9017 32.8677 18.9017C32.1037 18.7926 31.3397 18.9017 30.794 19.12C30.6848 19.12 30.5757 19.2291 30.6849 19.3383Z" fill="#D05851"/>
    <path d="M33.1955 19.0108C33.0864 18.7925 32.9773 18.7925 32.8681 18.7925C32.2133 19.1199 31.5584 19.3382 30.5762 19.229C30.5762 19.3382 30.5762 19.3382 30.5762 19.4473C30.6853 19.5565 30.7945 19.5565 30.7945 19.6656C31.7767 19.6656 32.6498 19.4473 33.1955 19.0108Z" fill="#C23636"/>
    <path d="M34.3976 21.9574C34.6159 20.866 34.6159 19.5563 33.8519 18.7923C33.7427 18.6832 33.6336 18.574 33.4153 18.4649C32.8696 18.2466 32.3239 18.7923 31.7782 19.1197C30.6868 19.8837 29.0497 19.8837 28.0674 19.0106C27.8491 18.7923 27.6308 18.6832 27.3034 18.574C26.8669 18.4649 26.5394 18.6832 25.9937 18.6832C25.0115 18.7923 24.1383 17.9192 23.1561 17.3735C22.1738 16.8278 20.9733 16.6095 19.7727 16.8278C19.227 16.9369 18.6813 17.1552 18.463 17.5918C18.2447 17.9192 18.2447 18.4649 17.9173 18.6832C17.8082 18.7923 17.699 18.7923 17.4807 18.9015C16.7167 19.1197 15.7345 19.1197 14.8614 19.1197C14.3157 19.1197 13.5517 19.0106 13.1151 19.338C12.6785 19.5563 12.242 20.3203 12.5694 20.7569C12.8968 21.1934 13.5517 21.1934 14.0974 21.0843C14.7522 20.9751 15.4071 20.866 15.9528 20.866C16.1711 20.7569 16.3893 20.7569 16.7168 20.866C17.2625 21.0843 17.2625 21.7391 17.4807 22.1757C17.8082 22.9397 18.6813 23.2671 19.4453 23.3762C20.2093 23.4854 20.8641 23.2671 21.5189 23.0488C21.8464 22.8305 22.2829 22.7214 22.5012 22.5031C23.0469 22.2848 23.7018 22.1757 24.2475 22.2848C24.4657 22.2848 24.5749 22.394 24.684 22.5031C25.0115 22.7214 25.1206 23.158 25.3389 23.4854C25.5572 23.9219 25.7754 24.2494 26.212 24.5768C26.7577 24.4676 27.3034 24.4676 27.8491 24.3585C28.0674 24.1402 28.0674 23.9219 28.2857 23.8128C28.6131 23.5945 29.0497 23.9219 29.5954 24.0311C31.2325 23.7037 32.6513 23.2671 33.8519 22.7214C34.1793 22.5031 34.2884 22.2848 34.3976 21.9574Z" fill="#FFD9B6"/>
    <path d="M27.0851 17.7004C27.3034 17.7004 27.4125 17.7004 27.6308 17.9187C27.74 18.0278 27.74 18.137 27.74 18.137C27.8491 18.4644 28.1765 18.9009 28.504 18.7918C28.7222 18.6827 28.8314 18.5735 29.0497 18.3552C29.4862 18.0278 30.1411 18.137 30.6868 18.137C30.9051 17.9187 30.905 17.373 30.4685 17.1547C30.2502 16.9364 29.7045 16.8273 29.3771 16.7181C28.8314 16.609 28.2857 16.4998 27.74 16.3907C26.976 16.1724 26.212 16.0633 25.448 16.4998C25.3389 16.8273 25.2297 17.2638 25.5571 17.5913C25.7754 17.8095 25.9937 17.8095 26.212 17.8095C26.6486 17.7004 26.7577 17.7004 27.0851 17.7004Z" fill="#DA8E79"/>
    <path d="M16.6066 18.7922C16.7157 18.683 16.8249 18.683 16.934 18.5739C17.1523 18.3556 17.1523 18.2465 17.2615 18.0282C17.4797 17.8099 18.0254 17.8099 18.3529 17.7008C18.6803 17.5916 18.7894 17.0459 18.5711 16.9368C18.462 16.8276 18.3529 16.8276 18.2437 16.8276C18.0254 16.8276 17.8072 16.9368 17.4797 16.9368C16.6066 17.1551 15.7335 17.4825 14.7512 17.7008C14.4238 17.8099 13.9872 17.919 13.9872 18.4648C13.8781 18.7922 14.2055 19.0105 14.5329 19.2287C15.0786 19.2287 15.8426 18.9013 16.6066 18.7922Z" fill="#DA8E79"/>
    <path d="M31.9969 17.5921C31.7786 17.7013 31.6695 17.7013 31.4512 17.8104C31.3421 18.0287 31.2329 18.247 31.4512 18.3561C31.5604 18.5744 31.7786 18.5744 31.8878 18.5744C32.2152 18.5744 32.6518 18.5744 32.6518 18.3561C32.7609 18.1378 32.7609 17.9196 32.4335 17.8104C32.4335 17.5921 32.3243 17.483 31.9969 17.5921Z" fill="#C05236"/>
    <path d="M23.5926 23.5942C23.3743 23.5942 23.1561 23.7034 23.0469 23.7034C22.8286 23.8125 22.6104 23.9217 22.6104 24.1399C22.6104 24.3582 22.8286 24.4674 22.9378 24.4674C23.2652 24.5765 23.5926 24.6856 23.92 24.6856C24.2475 24.5765 24.4658 24.2491 24.3566 23.9217C24.1383 23.7034 23.9201 23.5942 23.5926 23.5942Z" fill="#C05236"/>
    <path d="M13.4424 21.4116C13.3333 21.4116 13.2242 21.4116 13.2242 21.5208C13.115 21.5208 13.0059 21.6299 13.0059 21.739C13.0059 21.8482 13.115 21.9573 13.2242 21.9573C13.4424 22.0665 13.4424 22.0665 13.6607 22.0665C13.879 21.9573 13.879 21.8482 13.879 21.739C13.7698 21.4116 13.5516 21.4116 13.4424 21.4116Z" fill="#C05236"/>
    <path d="M22.0643 16.6094C22.1734 16.8277 22.5009 16.8277 22.8283 16.8277C23.0466 16.7186 23.1557 16.7186 23.2649 16.6094C23.374 16.3912 23.374 16.282 23.1557 16.1729C23.0466 16.0637 22.9374 15.9546 22.7192 15.9546C22.5009 15.9546 22.3917 16.0637 22.2826 16.1729C22.0643 16.282 21.9552 16.6094 22.0643 16.6094Z" fill="#C05236"/>
    <path d="M35.1614 19.9933C34.9431 20.3208 35.0523 20.7573 35.3797 20.9756C35.4888 21.0847 35.598 21.0847 35.598 21.1939C35.8163 21.1939 35.9254 21.0847 36.0345 20.9756C36.1437 20.8665 36.1437 20.6482 36.1437 20.539C36.1437 20.3208 36.0345 20.2116 35.9254 20.1025C35.8162 19.9933 35.598 19.8842 35.4888 19.8842C35.2705 19.775 35.1614 19.7751 35.1614 19.9933Z" fill="#C05236"/>
    <path d="M19.3353 21.6305C19.5536 21.7396 19.7718 21.7396 20.0993 21.7396C20.2084 21.7396 20.3175 21.7396 20.3175 21.6305C20.4267 21.5214 20.4267 21.4122 20.4267 21.4122C20.5358 21.1939 20.5358 20.9756 20.4267 20.7574C20.2084 20.4299 19.881 20.3208 19.4444 20.3208C19.2261 20.3208 19.0079 20.3208 18.8987 20.4299C18.6804 20.5391 18.5713 20.6482 18.5713 20.8665C18.5713 21.0848 18.7896 21.1939 18.8987 21.3031C19.0079 21.5214 19.2261 21.5214 19.3353 21.6305Z" fill="#C05236"/>
    <path d="M28.2855 22.2848C28.5037 22.3939 28.722 22.3939 29.0495 22.3939C29.1586 22.3939 29.2677 22.3939 29.2677 22.2848C29.3769 22.1757 29.3769 22.0665 29.3769 22.0665C29.486 21.8482 29.486 21.6299 29.3769 21.4117C29.1586 21.0842 28.8312 20.9751 28.3946 20.9751C28.1763 20.9751 27.9581 20.9751 27.8489 21.0842C27.6306 21.1934 27.5215 21.3025 27.5215 21.5208C27.5215 21.7391 27.7398 21.8482 27.8489 21.9574C27.8489 22.1756 28.0672 22.2848 28.2855 22.2848Z" fill="#C05236"/>
    <path d="M25.6663 22.503C25.6663 22.503 27.3035 22.2847 28.0674 21.9573C28.8314 21.5207 29.0497 20.975 29.0497 20.975H28.8314C28.8314 20.975 29.3771 20.5385 29.4863 19.9927C29.5954 19.447 29.5954 19.3379 29.5954 19.3379L29.3771 19.447C29.3771 19.447 29.5954 19.0105 29.5954 18.4648C29.5954 17.9191 29.4863 17.7008 29.4863 17.7008L29.268 17.8099C29.268 17.8099 29.4863 17.5916 29.4863 17.1551C29.3771 16.8277 29.4863 16.6094 29.4863 16.6094C29.4863 16.6094 28.9406 16.8277 28.7223 17.0459C28.504 17.2642 28.1766 17.5916 28.1766 17.5916L27.9583 17.2642C27.9583 17.2642 27.74 17.3734 27.5217 17.8099C27.3035 18.1374 27.1943 18.3556 27.1943 18.3556L26.976 17.5916C26.976 17.5916 26.5395 17.8099 26.212 18.3556C25.9938 18.9013 25.6663 19.6653 25.6663 19.6653L25.4481 19.447C25.3389 19.447 25.2298 19.7745 25.1206 20.3202C24.6841 20.975 25.6663 22.503 25.6663 22.503Z" fill="#89D767"/>
    <path d="M25.6658 22.5034C25.6658 22.5034 25.884 22.5034 26.4297 22.3943C26.5389 22.176 26.648 21.9577 26.648 21.7395C26.648 21.6303 26.7572 21.5212 26.8663 21.5212C26.9754 21.5212 26.9754 21.412 27.0846 21.412C27.412 21.1938 27.8486 21.0846 28.2851 21.0846C27.8486 20.8663 27.412 20.9755 26.9754 21.3029C26.9754 21.0846 27.0846 20.9755 27.1937 20.7572C27.412 20.2115 27.9577 19.9932 28.5034 19.8841C28.2851 19.8841 27.9577 19.8841 27.6303 19.9932C27.7394 19.7749 27.8486 19.4475 28.0668 19.2292C28.2851 19.0109 28.3943 18.9018 28.8308 18.7927C28.6125 18.9018 28.2851 18.9018 28.0668 19.0109C28.0668 19.0109 28.0669 19.0109 27.9577 19.0109C27.9577 18.9018 27.9577 18.9018 27.9577 18.7927C28.176 18.0287 28.6126 17.483 29.2674 16.9373C29.2674 16.8281 29.2674 16.8281 29.2674 16.8281C29.2674 16.8281 28.7217 17.0464 28.5034 17.2647C28.176 17.483 27.9577 17.8104 27.9577 17.8104L27.7394 17.483C27.7394 17.483 27.5211 17.5921 27.3029 18.0287C27.0846 18.3561 26.9754 18.5744 26.9754 18.5744L26.7572 17.8104C26.7572 17.8104 26.3206 18.0287 25.9932 18.5744C25.7749 19.1201 25.4475 19.8841 25.4475 19.8841L25.2292 19.6658C25.1201 19.6658 25.0109 19.9932 24.9018 20.5389C24.6835 20.9755 25.6658 22.5034 25.6658 22.5034Z" fill="#51B23E"/>
    <path d="M22.9378 16.9372C22.7195 16.7189 22.7195 16.5006 22.7195 16.2823C22.5013 15.5183 21.9556 14.7543 21.4099 13.9904C21.1916 13.4446 20.755 12.7898 20.6459 12.2441C20.3184 11.5892 19.8819 10.3887 19.227 10.0613C18.4631 9.73385 17.5899 10.8253 17.4808 10.8253C17.3716 10.9344 16.9351 11.2618 16.8259 11.371C16.1711 12.135 16.6077 14.4269 16.9351 15.1909C17.1534 15.5183 17.1534 15.8457 17.3716 16.2823C17.6991 17.4829 18.3539 18.6834 19.227 19.4474C19.6636 19.9931 20.3184 20.5388 21.0824 20.6479C21.7373 20.6479 22.1738 20.5388 22.3921 20.4297C22.6104 20.2114 23.047 19.6657 23.1561 19.5565C23.8109 18.9017 23.4835 17.9194 22.9378 16.9372Z" fill="#F19E28"/>
    <path d="M16.6064 13.6629C16.7156 14.0995 16.8247 14.536 16.8247 14.9726C17.043 14.7543 17.1522 14.6452 17.2613 14.6452C17.6979 14.4269 17.9161 13.9903 18.0253 13.4446C18.1344 13.2263 17.807 13.1172 17.6979 13.1172C17.2613 13.1172 16.9339 13.4446 16.6064 13.6629Z" fill="#D78938"/>
    <path d="M17.916 17.4829C18.1343 17.2646 18.1343 17.1555 18.3526 16.828C18.68 16.3915 19.1166 15.8458 19.1166 15.4092C19.1166 15.3001 18.8983 15.1909 18.8983 15.1909C18.3526 15.1909 17.9161 15.7366 17.4795 15.9549C17.5886 16.064 17.6978 16.1732 17.6978 16.1732C17.4795 16.6098 17.5886 17.1555 17.916 17.4829Z" fill="#D78938"/>
    <path d="M19.2273 19.4475C19.6638 19.9932 20.3187 20.5389 21.0827 20.6481C21.4101 20.6481 21.6284 20.6481 21.8467 20.5389C22.0649 20.3207 22.2832 20.3206 22.3924 20.1024C22.7198 19.5567 22.2832 19.011 21.8467 19.2292C21.6284 19.011 21.301 18.7927 21.0827 18.9018C20.9735 18.5744 20.7553 18.3561 20.3187 18.247C20.1004 18.247 19.9913 18.3561 19.8821 18.3561C19.8821 18.247 19.9913 18.1378 19.9913 18.1378C20.1004 17.8104 20.2095 17.483 20.2095 17.2647C20.1004 17.1556 19.9913 17.0464 19.9913 17.1556C19.5547 17.3738 19.3364 17.9195 19.009 18.247C18.8998 18.3561 18.7907 18.4653 18.7907 18.5744C18.5724 18.7927 18.7907 19.2292 19.2273 19.4475Z" fill="#D78938"/>
    <path d="M21.5202 19.6653C20.9745 19.5562 20.4288 19.2287 19.9922 18.683C19.2282 17.919 18.6825 16.8276 18.2459 15.7362C18.0276 15.4088 17.9185 15.0814 17.8094 14.754C17.5911 14.0991 17.1545 12.2437 17.5911 11.3706C17.7002 11.1523 17.8094 11.1523 18.0277 11.1523L18.1368 11.0432L18.2459 10.8249C18.3551 10.4975 18.5734 10.3883 18.9008 10.4975C19.0099 10.4975 19.1191 10.6066 19.1191 10.6066C19.5556 10.8249 19.9922 11.4797 20.2105 12.2437C20.3196 12.3529 20.3196 12.5711 20.4287 12.6803C20.647 13.226 20.9744 13.7717 21.1927 14.4265C21.6293 15.0814 21.9567 15.8454 22.5024 16.7185C22.5024 16.9368 22.7207 17.1551 22.7207 17.3733C23.1573 18.2465 23.4847 19.1196 23.0481 19.6653C22.7207 19.5562 22.2841 19.7744 21.5202 19.6653C21.6293 19.6653 21.6293 19.6653 21.5202 19.6653Z" fill="#FFF2BF"/>
    <path d="M19.2281 12.2448C19.1189 12.1357 19.2281 12.1357 19.2281 12.2448C19.0098 12.0265 19.0098 12.1357 19.0098 12.1357C19.0098 12.354 19.0098 12.354 19.2281 12.2448Z" fill="#F1C731"/>
    <path d="M19.9927 12.7907C19.7744 12.5724 19.7744 12.6816 19.7744 12.6816C19.7744 12.8999 19.7744 12.8999 19.9927 12.7907C19.8836 12.8999 19.7744 12.8999 19.9927 12.7907Z" fill="#F1C731"/>
    <path d="M20.2108 13.7725C20.1016 13.6634 20.2108 13.5542 20.2108 13.7725C20.1016 13.6634 20.1016 13.6634 20.2108 13.7725Z" fill="#F1C731"/>
    <path d="M19.8826 14.3184C19.7735 14.3184 19.7735 14.3184 19.8826 14.3184C19.7735 14.4275 19.7735 14.4275 19.8826 14.3184Z" fill="#F1C731"/>
    <path d="M19.7735 14.7547C19.7735 14.6456 19.7735 14.6456 19.7735 14.7547C19.5552 14.7547 19.7735 14.6456 19.7735 14.7547C19.6643 14.8638 19.5552 14.7547 19.7735 14.7547Z" fill="#F1C731"/>
    <path d="M20.7552 15.301C20.6461 15.1918 20.7552 15.1918 20.7552 15.301C20.537 15.0827 20.537 15.1918 20.537 15.1918C20.4278 15.301 20.537 15.4101 20.7552 15.301C20.6461 15.4101 20.6461 15.4101 20.7552 15.301Z" fill="#F1C731"/>
    <path d="M20.5376 15.7375C20.5376 15.6284 20.5376 15.6284 20.5376 15.7375C20.3193 15.5192 20.3193 15.6284 20.3193 15.6284C20.4285 15.8466 20.5376 15.9558 20.5376 15.7375C20.5376 15.9558 20.5376 15.9558 20.5376 15.7375Z" fill="#F1C731"/>
    <path d="M21.7388 15.7375C21.7388 15.5192 21.8479 15.6284 21.7388 15.7375C21.5205 15.5192 21.5205 15.6284 21.5205 15.6284C21.5205 15.7375 21.6296 15.8466 21.7388 15.7375C21.7388 15.9558 21.7388 15.8466 21.7388 15.7375Z" fill="#F1C731"/>
    <path d="M20.8658 16.6105C20.6475 16.3923 20.6475 16.5014 20.6475 16.5014C20.7566 16.7197 20.8658 16.7197 20.8658 16.6105Z" fill="#F1C731"/>
    <path d="M21.52 16.7194C21.4109 16.6103 21.52 16.6103 21.52 16.7194C21.3018 16.5012 21.3018 16.6103 21.3018 16.6103C21.4109 16.7194 21.4109 16.8286 21.52 16.7194Z" fill="#F1C731"/>
    <path d="M21.0835 17.593C20.9744 17.4839 20.8652 17.4839 20.8652 17.4839C20.8652 17.7022 20.8652 17.7022 21.0835 17.593C21.0835 17.7022 21.0835 17.7022 21.0835 17.593Z" fill="#F1C731"/>
    <path d="M22.284 18.2476C22.1749 18.2476 22.1749 18.2476 22.284 18.2476C22.1749 18.2476 22.1749 18.3567 22.284 18.2476Z" fill="#F1C731"/>
    <path d="M22.2837 17.8112C22.2837 17.7021 22.3928 17.7021 22.2837 17.8112C22.0654 17.593 22.0654 17.7021 22.0654 17.7021C22.0654 17.9204 22.1746 17.9204 22.2837 17.8112Z" fill="#F1C731"/>
    <path d="M21.0835 17.4841C21.0835 17.3749 21.1927 17.3749 21.0835 17.4841C20.8652 17.2658 20.8652 17.3749 20.8652 17.3749C20.8652 17.4841 20.9744 17.5932 21.0835 17.4841Z" fill="#F1C731"/>
    <path d="M21.4107 16.7194C21.4107 16.6103 21.4107 16.6103 21.4107 16.7194C21.1924 16.5012 21.1924 16.6103 21.1924 16.6103C21.3015 16.7194 21.4107 16.7194 21.4107 16.7194Z" fill="#F1C731"/>
    <path d="M20.3194 17.1567C20.3194 17.0476 20.2102 17.0476 20.1011 16.9384C19.992 16.8293 19.992 17.0476 19.8828 17.1567C19.8828 17.2659 19.992 17.2659 20.1011 17.375C20.2102 17.1567 20.3194 17.1567 20.3194 17.1567Z" fill="#F1C731"/>
    <path d="M20.3192 16.72C20.3192 16.6109 20.3192 16.6109 20.3192 16.72C20.21 16.6109 20.21 16.72 20.3192 16.72C20.21 16.72 20.21 16.72 20.3192 16.72Z" fill="#F1C731"/>
    <path d="M19.774 16.6105C19.774 16.3922 19.774 16.3922 19.774 16.6105C19.5557 16.3922 19.5557 16.5013 19.5557 16.5013C19.5557 16.6105 19.6648 16.6105 19.774 16.6105Z" fill="#F1C731"/>
    <path d="M19.1187 14.5363C19.0095 14.4272 19.2278 14.4272 19.1187 14.5363C18.9004 14.3181 18.9004 14.4272 18.9004 14.4272C18.9004 14.5363 19.0095 14.5363 19.1187 14.5363Z" fill="#F1C731"/>
    <path d="M19.2281 13.446C19.2281 13.3369 19.2281 13.3369 19.2281 13.446C19.0098 13.2277 19.0098 13.3369 19.0098 13.3369C19.0098 13.446 19.1189 13.446 19.2281 13.446Z" fill="#F1C731"/>
    <path d="M18.6822 12.7913C18.7913 12.6821 18.7913 12.6821 18.6822 12.7913C18.573 12.6821 18.4639 12.6821 18.4639 12.6821C18.4639 12.7913 18.573 12.7913 18.6822 12.7913Z" fill="#F1C731"/>
    <path d="M18.9009 11.6995C18.7918 11.5903 18.6826 11.5903 18.6826 11.5903C18.7918 11.8086 18.7918 11.8086 18.9009 11.6995C19.01 11.8086 18.7918 11.8086 18.9009 11.6995Z" fill="#F1C731"/>
    <path d="M18.2461 10.8259C18.0278 10.6076 18.0278 10.7167 18.0278 10.7167C17.9187 10.8259 18.1369 10.935 18.2461 10.8259Z" fill="#F1C731"/>
    <path d="M18.5737 11.0446C18.5737 10.9355 18.5737 10.9355 18.5737 11.0446C18.3555 10.8263 18.3555 10.9355 18.3555 10.9355C18.4646 11.1538 18.5737 11.1538 18.5737 11.0446C18.5737 11.1538 18.4646 11.2629 18.5737 11.0446Z" fill="#F1C731"/>
    <path d="M19.0093 11.3718C18.9002 11.2627 19.0093 11.2627 19.0093 11.3718C18.9002 11.2627 18.791 11.2627 18.791 11.2627C18.791 11.2627 18.9002 11.3718 19.0093 11.3718Z" fill="#F1C731"/>
    <path d="M19.774 11.3718C19.6648 11.2627 19.5557 11.2627 19.5557 11.2627C19.5557 11.3718 19.6648 11.3718 19.774 11.3718Z" fill="#F1C731"/>
    <path d="M19.9922 12.0269C19.9922 11.9177 19.8831 11.9177 19.774 11.8086C19.6648 11.8086 19.6648 11.9177 19.5557 12.0269C19.5557 12.136 19.6648 12.136 19.774 12.2452C19.8831 12.136 19.8831 12.136 19.9922 12.0269Z" fill="#F1C731"/>
    <path d="M20.4282 13.2277C20.5374 13.1186 20.5374 13.1186 20.4282 13.2277C20.21 13.0095 20.21 13.1186 20.21 13.1186C20.3191 13.2277 20.4282 13.3369 20.4282 13.2277C20.6465 13.2277 20.4282 13.3369 20.4282 13.2277Z" fill="#F1C731"/>
    <path d="M20.8658 14.2097C20.8658 13.9914 20.9749 14.1005 20.8658 14.2097C20.6475 13.9914 20.6475 14.1005 20.6475 14.1005C20.7566 14.2097 20.8658 14.2097 20.8658 14.2097Z" fill="#F1C731"/>
    <path d="M20.647 14.7551C20.647 14.5368 20.7561 14.6459 20.647 14.7551C20.4287 14.5368 20.4287 14.6459 20.4287 14.6459C20.4287 14.6459 20.5378 14.7551 20.647 14.7551Z" fill="#F1C731"/>
    <path d="M20.9746 15.4097C20.9746 15.3005 20.8655 15.3005 20.7564 15.1914C20.6472 15.1914 20.6472 15.3005 20.5381 15.4097C20.5381 15.5188 20.6472 15.5188 20.7564 15.628C20.8655 15.628 20.9746 15.5188 20.9746 15.4097Z" fill="#F1C731"/>
    <path d="M22.502 16.6109C22.502 16.5017 22.3928 16.5017 22.2837 16.3926C22.1746 16.3926 22.1746 16.5017 22.0654 16.6109C22.0654 16.72 22.1746 16.72 22.2837 16.8291C22.2837 16.8291 22.502 16.8291 22.502 16.6109Z" fill="#F1C731"/>
    <path d="M23.0475 17.1566C22.9384 17.0474 22.9384 17.0474 23.0475 17.1566C22.8292 17.1566 22.8292 17.1566 23.0475 17.1566Z" fill="#F1C731"/>
    <path d="M22.1739 18.6839C22.1739 18.5748 22.1739 18.5748 22.1739 18.6839C22.0647 18.5748 22.0647 18.6839 22.1739 18.6839C22.0647 18.6839 21.9556 18.793 22.1739 18.6839Z" fill="#F1C731"/>
    <path d="M22.5025 19.448C22.3933 19.3389 22.2842 19.3389 22.2842 19.3389C22.2842 19.3389 22.2842 19.5572 22.5025 19.448Z" fill="#F1C731"/>
    <path d="M21.6294 19.0115C21.5203 18.9023 21.6294 18.9023 21.6294 19.0115C21.5203 18.9023 21.4111 18.9023 21.4111 18.9023C21.4111 18.9023 21.4111 19.1206 21.6294 19.0115Z" fill="#F1C731"/>
    <path d="M20.8649 18.7931C20.7558 18.7931 20.8649 18.684 20.8649 18.7931C20.7558 18.7931 20.8649 18.9023 20.8649 18.7931Z" fill="#F1C731"/>
    <path d="M20.3199 18.6848C20.3199 18.4665 20.3199 18.5756 20.3199 18.6848C20.1016 18.4665 20.1016 18.5756 20.1016 18.5756C20.1016 18.6848 20.2107 18.7939 20.3199 18.6848Z" fill="#F1C731"/>
    <path d="M20.2105 17.7024C20.1013 17.5933 19.9922 17.5933 19.9922 17.5933C19.9922 17.8115 19.9922 17.8115 20.2105 17.7024C20.2105 17.8115 20.2105 17.8115 20.2105 17.7024Z" fill="#F1C731"/>
    <path d="M19.774 17.3747C19.6648 17.2656 19.774 17.2656 19.774 17.3747C19.5557 17.1564 19.5557 17.2656 19.5557 17.2656C19.5557 17.3747 19.6648 17.4838 19.774 17.3747Z" fill="#F1C731"/>
    <path d="M19.2269 17.156C19.1178 16.9377 19.2269 17.0468 19.2269 17.156C19.0086 16.9377 19.0086 17.0468 19.0086 17.0468C18.8995 17.156 19.0086 17.156 19.2269 17.156Z" fill="#F1C731"/>
    <path d="M19.4468 16.174C19.3377 16.0649 19.4468 16.0649 19.4468 16.174C19.2285 15.9557 19.2285 16.0649 19.2285 16.0649C19.2285 16.174 19.2285 16.2832 19.4468 16.174C19.4468 16.2832 19.2285 16.2832 19.4468 16.174Z" fill="#F1C731"/>
    <path d="M18.5737 15.5193C18.4646 15.4102 18.3555 15.4102 18.3555 15.4102C18.4646 15.5193 18.4646 15.5193 18.5737 15.5193Z" fill="#F1C731"/>
    <path d="M18.2446 14.7546C18.2446 14.6455 18.2446 14.6455 18.2446 14.7546C18.1355 14.6455 18.0264 14.6455 18.0264 14.6455C18.2446 14.7546 18.2446 14.8638 18.2446 14.7546Z" fill="#F1C731"/>
    <path d="M17.9175 14.1004C17.8084 13.9912 17.6992 13.9912 17.6992 13.9912C17.6992 14.1004 17.8084 14.2095 17.9175 14.1004C17.9175 14.2095 17.9175 14.2095 17.9175 14.1004Z" fill="#F1C731"/>
    <path d="M18.0272 13.4455C17.918 13.4455 18.0272 13.3363 18.0272 13.4455C17.918 13.4455 17.918 13.4455 18.0272 13.4455Z" fill="#F1C731"/>
    <path d="M17.5904 12.9002C17.4812 12.791 17.3721 12.791 17.3721 12.791C17.4812 12.9002 17.4812 12.9002 17.5904 12.9002Z" fill="#F1C731"/>
    <path d="M17.5906 12.3541C17.5906 12.1359 17.5906 12.1359 17.5906 12.3541C17.4815 12.1359 17.4815 12.245 17.5906 12.3541C17.4815 12.245 17.4815 12.245 17.5906 12.3541Z" fill="#F1C731"/>
    <path d="M18.2446 11.8083C18.0264 11.59 18.0264 11.6992 18.0264 11.6992C18.0264 11.8083 18.1355 11.8083 18.2446 11.8083Z" fill="#F1C731"/>
    <path d="M18.4634 15.628C18.2451 15.1915 18.136 14.9732 17.8086 14.5366C17.8086 14.7549 17.8086 14.864 17.9177 14.9732C18.136 15.1915 18.136 15.4097 18.136 15.628C18.2452 15.9555 18.3543 16.392 18.4634 16.5012C18.5726 16.5012 18.5726 16.392 18.5726 16.392C18.7909 16.1737 18.7909 15.8463 18.4634 15.628Z" fill="#A14A1C"/>
    <path d="M19.4455 17.7005C19.3364 17.5914 19.2273 17.4822 19.2273 17.3731C19.1181 17.3731 19.1181 17.3731 19.009 17.1548C18.8998 17.1548 18.8998 17.0457 18.7907 16.9365C18.8998 17.0457 19.009 17.1548 18.8998 17.3731C19.009 17.4822 19.1181 17.5914 19.1181 17.7005C19.2273 18.0279 19.4455 17.8096 19.4455 17.7005Z" fill="#A14A1C"/>
    <path d="M20.3172 18.7927C20.0989 18.5745 19.9898 18.4653 19.8806 18.4653C19.7715 18.4653 19.7715 18.5745 19.7715 18.5745C19.9898 18.7928 19.9898 18.7928 19.9898 19.011C19.9898 19.2293 20.208 19.2293 20.3172 19.3385C20.3172 19.3385 20.3172 19.3385 20.3172 19.2293C20.5355 19.011 20.3172 18.7927 20.3172 18.7927Z" fill="#A14A1C"/>
    <path d="M19.5545 12.3535C19.5545 12.2443 19.5545 12.1352 19.3362 12.026C19.2271 12.026 19.1179 11.9169 19.1179 12.026C19.1179 12.1352 19.0088 12.2443 19.0088 12.3535C19.0088 12.4626 19.0088 12.6809 19.1179 12.79C19.2271 12.8992 19.3362 12.8992 19.4454 12.79C19.6636 12.6809 19.6636 12.4626 19.5545 12.3535Z" fill="#A14A1C"/>
    <path d="M19.2272 13.5543C19.2272 13.4452 19.3363 13.336 19.118 13.1177C19.0089 13.0086 18.8998 12.8994 18.8998 13.0086C18.6815 13.2269 18.5723 13.4451 18.6815 13.6634C18.7906 13.7726 18.8998 13.8817 18.8998 13.7726C19.118 13.7726 19.2272 13.6634 19.2272 13.5543Z" fill="#A14A1C"/>
    <path d="M18.79 14.5362C18.79 14.427 18.6809 14.427 18.79 14.3179H18.6809C18.5718 14.3179 18.5718 14.427 18.4626 14.5362C18.2443 14.7544 18.6809 14.8636 18.79 14.5362Z" fill="#A14A1C"/>
    <path d="M21.5186 15.0816C21.3003 14.8633 21.082 15.0816 21.082 15.2999C21.082 15.5182 21.3003 15.7365 21.3003 15.8456C21.846 15.9548 21.5186 15.409 21.5186 15.0816Z" fill="#A14A1C"/>
    <path d="M21.1907 16.2821C21.0815 16.173 20.8633 16.173 20.8633 16.3913C20.9724 16.5004 20.9724 16.8278 21.0816 16.8278C21.2998 16.6096 21.1907 16.3913 21.1907 16.2821Z" fill="#A14A1C"/>
    <path d="M20.7559 17.5921C20.6467 17.7013 20.5376 17.8104 20.5376 17.9196C20.4285 18.1378 20.7559 18.3561 20.865 18.0287C20.865 17.9196 20.9741 17.8104 20.9741 17.8104C21.0833 17.5921 20.865 17.483 20.7559 17.5921Z" fill="#A14A1C"/>
    <path d="M18.7907 23.485C19.5547 23.2667 20.2096 22.9393 20.537 22.6119C20.7553 22.3936 21.301 21.4114 21.301 21.1931C21.5193 20.7565 20.8644 19.556 19.8821 18.3554C19.6639 18.028 19.5547 17.8097 19.3364 17.5914C18.5724 16.8274 17.8085 15.9543 16.9353 15.1903C16.3896 14.5355 15.8439 13.8806 15.2982 13.3349C14.6434 12.5709 13.8794 11.1521 12.6788 11.043C11.5874 11.043 10.8234 12.3527 10.7143 12.6801C10.6052 12.8984 10.2777 13.4441 10.1686 13.6624C9.51376 14.972 10.9326 17.5914 11.5874 18.3554C11.9149 18.792 12.2423 19.1194 12.6788 19.4468C13.552 20.7565 14.7525 21.9571 16.1714 22.8302" fill="#F19E28"/>
    <path d="M10.7139 16.8281C10.9321 17.4829 11.2596 17.8103 11.4779 18.356C11.587 18.1378 11.6961 17.9195 11.8053 17.7012C12.1327 17.1555 12.4601 16.6098 12.4601 15.8458C12.4601 15.6275 12.1327 15.4092 12.0236 15.6275C11.3687 15.8458 11.0413 16.2824 10.7139 16.8281Z" fill="#D78938"/>
    <path d="M13.661 20.9754C13.8793 20.648 13.7702 20.3206 13.8793 20.1023C14.0976 19.3383 14.425 18.7926 14.2067 17.9195C14.0976 17.7012 13.9885 17.7012 13.7702 17.7012C13.1153 17.9195 12.6788 18.7926 12.2422 19.4474C12.3513 19.6657 12.4605 19.6657 12.4605 19.7749C13.0062 20.2114 13.4427 20.648 13.661 20.9754Z" fill="#D78938"/>
    <path d="M19.227 22.5032C18.5721 22.7215 17.8081 22.2849 16.935 21.7392C15.6253 20.9752 14.5339 19.8838 13.6608 18.465C13.3334 18.0284 13.0059 17.701 12.5694 17.3736C12.0237 16.6096 10.9323 14.4268 11.1505 13.2262C11.2597 13.0079 11.3688 12.7897 11.3688 12.7897L11.5871 12.6805V12.4622C11.6963 11.9165 11.8054 11.6982 12.3511 11.6982C12.4602 11.8074 12.5694 11.6982 12.6785 11.6982C13.4425 11.6982 13.9882 12.6805 14.7522 13.3354C14.9705 13.5536 14.9705 13.6628 15.0796 13.8811C15.5162 14.5359 16.171 15.1908 16.7167 15.7365C17.4807 16.5004 18.463 17.0461 19.1178 18.1376C19.3361 18.3558 19.4452 18.6833 19.6635 18.9015C20.7549 19.8838 21.0824 20.9752 20.8641 21.6301C20.6458 21.9575 20.2092 22.394 19.227 22.5032Z" fill="#FFF2BF"/>
    <path d="M13.5523 13.8814C13.6614 13.7722 13.4432 13.6631 13.334 13.6631C13.2249 13.6631 13.1158 13.7722 13.2249 13.8814C13.1158 13.9905 13.334 14.0997 13.4432 14.0997C13.4432 13.9905 13.6614 13.9905 13.5523 13.8814Z" fill="#F1C731"/>
    <path d="M14.8628 14.4277C14.9719 14.3186 14.7536 14.2094 14.6445 14.2094C14.5354 14.1003 14.4262 14.3186 14.4262 14.4277C14.3171 14.5369 14.5354 14.646 14.6445 14.646C14.7536 14.646 14.7537 14.5369 14.8628 14.4277Z" fill="#F1C731"/>
    <path d="M15.4073 15.5184C15.2981 15.4092 15.2981 15.4092 15.4073 15.5184C15.189 15.5184 15.2981 15.5184 15.4073 15.5184Z" fill="#F1C731"/>
    <path d="M15.0811 16.2829C15.0811 16.392 15.0811 16.392 15.0811 16.2829C15.0811 16.392 15.2993 16.392 15.0811 16.2829Z" fill="#F1C731"/>
    <path d="M16.6089 17.2647C16.718 17.1555 16.4997 17.0464 16.3906 17.0464C16.2815 17.0464 16.1723 17.1555 16.1723 17.2647C16.0632 17.3738 16.2815 17.483 16.3906 17.483C16.4997 17.3738 16.6089 17.2647 16.6089 17.2647Z" fill="#F1C731"/>
    <path d="M16.6089 18.0288C16.718 17.9196 16.4997 17.8105 16.3906 17.8105C16.2815 17.7014 16.1723 17.9196 16.1723 18.0288C16.0632 18.1379 16.2815 18.2471 16.3906 18.2471C16.6089 18.1379 16.6089 18.1379 16.6089 18.0288Z" fill="#F1C731"/>
    <path d="M17.9185 17.4834C18.0276 17.3742 17.8093 17.2651 17.7002 17.2651C17.591 17.156 17.4819 17.3742 17.4819 17.4834C17.3728 17.5925 17.591 17.7017 17.7002 17.7017C17.9185 17.5925 17.9185 17.4834 17.9185 17.4834Z" fill="#F1C731"/>
    <path d="M17.3721 18.7931C17.1538 18.9023 17.263 18.7931 17.3721 18.7931C17.1538 18.9023 17.263 19.1206 17.3721 18.7931C17.3721 19.0114 17.3721 19.0114 17.3721 18.7931Z" fill="#F1C731"/>
    <path d="M18.2452 18.793C17.9178 18.793 18.1361 18.793 18.2452 18.793C18.1361 18.793 18.1361 19.0113 18.2452 18.793Z" fill="#F1C731"/>
    <path d="M17.8096 19.994C17.5913 19.994 17.7005 19.8848 17.8096 19.994C17.7005 20.1031 17.7005 20.3214 17.8096 19.994C17.8096 20.1031 17.8096 20.1031 17.8096 19.994Z" fill="#F1C731"/>
    <path d="M19.4466 20.3213C19.3375 20.3213 19.3375 20.3213 19.4466 20.3213C19.2283 20.4304 19.4466 20.5396 19.4466 20.3213Z" fill="#F1C731"/>
    <path d="M19.3375 19.8843C19.4466 19.7752 19.2283 19.666 19.1192 19.7752C19.0101 19.666 18.9009 19.8843 19.0101 19.9935C18.9009 20.1026 19.1192 20.2118 19.2283 20.1026C19.3375 20.1026 19.3375 20.1026 19.3375 19.8843Z" fill="#F1C731"/>
    <path d="M17.918 19.884C17.6997 19.884 17.8089 19.7748 17.918 19.884C17.6997 19.884 17.8089 20.1022 17.918 19.884Z" fill="#F1C731"/>
    <path d="M18.0268 18.7934C18.136 18.6843 17.9177 18.5752 17.8086 18.5752C17.6994 18.466 17.5903 18.6843 17.5903 18.7934C17.4812 18.9026 17.6994 19.0117 17.8086 19.0117C17.9177 18.9026 17.9177 18.7934 18.0268 18.7934Z" fill="#F1C731"/>
    <path d="M16.7178 19.7754C16.827 19.6662 16.6087 19.5571 16.4995 19.5571C16.3904 19.4479 16.2812 19.6662 16.2812 19.7754C16.2812 19.8845 16.3904 19.9937 16.4995 19.9937C16.7178 19.7754 16.7178 19.7754 16.7178 19.7754Z" fill="#F1C731"/>
    <path d="M16.5006 19.2298C16.2823 19.1207 16.2823 19.1207 16.5006 19.2298C16.2823 19.2298 16.2823 19.2298 16.5006 19.2298Z" fill="#F1C731"/>
    <path d="M15.9546 19.1203C15.8454 18.902 16.0637 18.902 15.9546 19.1203C15.6271 19.0111 15.6271 19.1203 15.9546 19.1203C15.8454 19.3385 15.7363 19.3385 15.9546 19.1203C15.8454 19.3385 15.8454 19.2294 15.9546 19.1203Z" fill="#F1C731"/>
    <path d="M15.2995 17.5923C15.0812 17.7014 15.0812 17.7014 15.2995 17.5923V17.5923Z" fill="#F1C731"/>
    <path d="M14.0987 16.8281C14.2078 16.719 13.9895 16.6098 13.8804 16.6098C13.7712 16.5007 13.6621 16.719 13.6621 16.8281C13.6621 16.9373 13.7712 17.0464 13.8804 17.0464C13.9895 16.9372 14.2078 16.8281 14.0987 16.8281Z" fill="#F1C731"/>
    <path d="M13.9888 15.3003C14.0979 15.1911 13.8796 15.082 13.7705 15.082C13.6614 14.9729 13.5522 15.1911 13.5522 15.3003C13.4431 15.4094 13.6614 15.5185 13.7705 15.5185C13.9888 15.5185 13.9888 15.4094 13.9888 15.3003Z" fill="#F1C731"/>
    <path d="M13.1153 14.6457C12.897 14.6457 13.0061 14.5365 13.1153 14.6457C12.897 14.7548 13.0061 14.864 13.1153 14.6457C13.0061 14.7548 13.0061 14.7548 13.1153 14.6457Z" fill="#F1C731"/>
    <path d="M13.1153 13.554C12.897 13.4449 13.0061 13.4449 13.1153 13.554C13.0061 13.4449 13.1153 13.6632 13.1153 13.554Z" fill="#F1C731"/>
    <path d="M11.9146 12.4629C12.0238 12.3538 11.8055 12.2447 11.6963 12.3538C11.5872 12.2447 11.4781 12.4629 11.5872 12.5721C11.4781 12.6812 11.6963 12.7904 11.8055 12.6812C11.8055 12.6812 11.8055 12.6812 11.9146 12.4629Z" fill="#F1C731"/>
    <path d="M12.4605 12.7901C12.5697 12.6809 12.3514 12.5718 12.2422 12.681C12.1331 12.5718 12.024 12.7901 12.1331 12.8992C12.024 13.0084 12.2422 13.1175 12.3514 13.0084C12.4605 12.8992 12.4605 12.8992 12.4605 12.7901Z" fill="#F1C731"/>
    <path d="M13.0059 12.7904C12.7876 12.7904 12.8968 12.6812 13.0059 12.7904C12.8968 12.7904 12.8968 12.8995 13.0059 12.7904C13.0059 12.8995 13.0059 12.8995 13.0059 12.7904Z" fill="#F1C731"/>
    <path d="M13.9903 12.681C13.6629 12.681 13.8812 12.5719 13.9903 12.681C13.772 12.7901 13.8812 12.7901 13.9903 12.681Z" fill="#F1C731"/>
    <path d="M14.5347 13.4448C14.6438 13.3357 14.4255 13.2265 14.3164 13.2265C14.2073 13.1174 14.0981 13.3357 14.0981 13.4448C13.989 13.554 14.2073 13.6631 14.3164 13.6631C14.5347 13.5539 14.5347 13.4448 14.5347 13.4448Z" fill="#F1C731"/>
    <path d="M15.7364 14.5366C15.8455 14.4275 15.6272 14.3183 15.5181 14.3183C15.4089 14.2092 15.2998 14.4275 15.2998 14.5366C15.2998 14.6457 15.4089 14.7549 15.5181 14.7549C15.6272 14.7549 15.6272 14.7549 15.7364 14.5366Z" fill="#F1C731"/>
    <path d="M16.5001 15.7363C16.6092 15.6272 16.3909 15.518 16.2818 15.518C16.1726 15.4089 16.0635 15.6272 16.0635 15.7363C16.0635 15.8455 16.1726 15.9546 16.2818 15.9546C16.3909 15.8455 16.6092 15.9546 16.5001 15.7363Z" fill="#F1C731"/>
    <path d="M16.2817 16.6098C16.3909 16.5007 16.1726 16.3916 16.0635 16.3916C15.9543 16.2824 15.8452 16.5007 15.8452 16.6098C15.736 16.719 15.9543 16.8281 16.0635 16.8281C16.1726 16.719 16.2817 16.6098 16.2817 16.6098Z" fill="#F1C731"/>
    <path d="M17.1538 17.1557C17.2629 17.0466 17.0447 16.9375 16.9355 16.9375C16.8264 16.8283 16.7172 17.0466 16.7172 17.1557C16.6081 17.2649 16.8264 17.374 16.9355 17.374C17.0447 17.4832 17.0447 17.374 17.1538 17.1557Z" fill="#F1C731"/>
    <path d="M19.2286 18.3564C19.3377 18.2473 19.1194 18.1381 19.0103 18.1381C18.9011 18.029 18.792 18.2473 18.792 18.3564C18.792 18.4656 18.9011 18.5747 19.0103 18.5747C19.1194 18.6838 19.2286 18.4656 19.2286 18.3564Z" fill="#F1C731"/>
    <path d="M19.991 18.7931C19.8819 18.684 19.8819 18.7931 19.991 18.7931V18.7931Z" fill="#F1C731"/>
    <path d="M19.5543 20.9754C19.3361 20.8663 19.3361 20.8663 19.5543 20.9754C19.3361 20.9754 19.4452 21.1937 19.5543 20.9754C19.5543 21.0846 19.5543 21.0846 19.5543 20.9754Z" fill="#F1C731"/>
    <path d="M20.21 21.9579C19.8826 21.9579 20.1009 21.9579 20.21 21.9579C20.1009 21.9579 20.1009 22.1761 20.21 21.9579C20.21 22.067 20.21 22.067 20.21 21.9579Z" fill="#F1C731"/>
    <path d="M19.0098 21.5217C18.7915 21.5217 18.9007 21.5217 19.0098 21.5217C18.7915 21.6308 18.9007 21.8491 19.0098 21.5217C18.9007 21.7399 18.9007 21.7399 19.0098 21.5217Z" fill="#F1C731"/>
    <path d="M18.0274 21.5217C17.7 21.6308 17.9183 21.5217 18.0274 21.5217C17.9183 21.6308 17.9183 21.8491 18.0274 21.5217Z" fill="#F1C731"/>
    <path d="M17.2632 21.521C17.3723 21.4119 17.1541 21.3027 17.0449 21.3027C16.9358 21.3027 16.8266 21.4119 16.8266 21.521C16.7175 21.6302 16.9358 21.7393 17.0449 21.7393C17.1541 21.6302 17.2632 21.521 17.2632 21.521Z" fill="#F1C731"/>
    <path d="M16.7176 20.4299C16.6085 20.6481 16.6085 20.7573 16.7176 20.4299V20.4299Z" fill="#F1C731"/>
    <path d="M16.0635 20.2114C16.1727 20.1023 15.9544 19.9931 15.8452 19.9931C15.7361 19.884 15.627 20.1023 15.627 20.2114C15.627 20.3205 15.7361 20.4297 15.8452 20.4297C15.9544 20.3205 16.0635 20.2114 16.0635 20.2114Z" fill="#F1C731"/>
    <path d="M15.0806 19.9931C15.1897 19.884 14.9714 19.7749 14.8623 19.7749C14.7532 19.6657 14.644 19.884 14.644 19.9931C14.5349 20.1023 14.7532 20.2114 14.8623 20.2114C15.1897 20.2114 15.1897 20.2114 15.0806 19.9931Z" fill="#F1C731"/>
    <path d="M15.2989 18.902C15.0806 19.0112 15.1897 18.902 15.2989 18.902C15.0806 19.0112 15.1897 19.2294 15.2989 18.902Z" fill="#F1C731"/>
    <path d="M13.9903 18.2472C13.6629 18.2472 13.8812 18.2472 13.9903 18.2472C13.772 18.2472 13.8812 18.4655 13.9903 18.2472Z" fill="#F1C731"/>
    <path d="M13.2257 17.2653C12.8982 17.2653 13.1165 17.2653 13.2257 17.2653C13.1165 17.3744 13.1165 17.5927 13.2257 17.2653C13.2257 17.3744 13.2257 17.3744 13.2257 17.2653Z" fill="#F1C731"/>
    <path d="M12.7891 16.8285C12.4617 16.8285 12.68 16.7193 12.7891 16.8285C12.5709 16.9376 12.68 17.0467 12.7891 16.8285Z" fill="#F1C731"/>
    <path d="M12.4617 15.737C12.3526 15.737 12.3526 15.737 12.4617 15.737C12.3526 15.8461 12.3526 15.8461 12.4617 15.737Z" fill="#F1C731"/>
    <path d="M11.8067 15.1916C11.4793 15.1916 11.6976 15.0824 11.8067 15.1916C11.5884 15.3007 11.6976 15.4099 11.8067 15.1916Z" fill="#F1C731"/>
    <path d="M11.6969 14.5366C11.4786 14.6458 11.4786 14.6458 11.6969 14.5366V14.5366Z" fill="#F1C731"/>
    <path d="M12.1329 13.6634C12.242 13.5543 12.242 13.5543 12.1329 13.6634C11.9146 13.7725 12.0237 13.6634 12.1329 13.6634C12.0237 13.9908 12.0237 13.9908 12.1329 13.6634C12.1329 13.8817 12.1329 13.8817 12.1329 13.6634Z" fill="#F1C731"/>
    <path d="M32.6389 23.1712C33.6099 22.8439 34.163 21.884 33.8742 21.0272C33.5854 20.1705 32.5641 19.7412 31.5931 20.0685C30.6221 20.3958 30.0691 21.3557 30.3579 22.2125C30.6466 23.0692 31.6679 23.4985 32.6389 23.1712Z" fill="#E8AA60"/>
    <mask id="mask3_1129_34077" style="mask-type:luminance" maskUnits="userSpaceOnUse" x="30" y="19" width="4" height="5">
        <path d="M32.638 23.1688C33.609 22.8415 34.1621 21.8816 33.8733 21.0248C33.5845 20.168 32.5632 19.7388 31.5922 20.0661C30.6212 20.3934 30.0681 21.3533 30.3569 22.21C30.6457 23.0668 31.667 23.4961 32.638 23.1688Z" fill="white"/>
    </mask>
    <g mask="url(#mask3_1129_34077)">
        <path d="M33.6323 20.3174C33.6323 20.3174 33.7415 23.2642 30.7946 22.8276C27.8478 22.2819 32.4318 25.7744 32.4318 25.7744L36.2517 25.1196L36.3608 23.3733L33.6323 20.3174Z" fill="#CE9557"/>
    </g>
    <path d="M32.4317 21.3018C32.5409 21.3018 32.65 21.3018 32.65 21.3018H32.7592H32.8683C32.9774 21.3018 32.9774 21.3018 33.0866 21.3018C32.9774 21.3018 32.9774 21.1927 32.8683 21.1927H32.7592H32.65L32.4317 21.3018C32.3226 21.1927 32.3226 21.1927 32.2134 21.1927C32.2134 21.0835 32.1043 20.9744 32.1043 20.8652C32.1043 20.9744 31.9952 21.0835 32.1043 21.1927C31.9952 21.1927 31.886 21.3018 31.886 21.3018C31.7769 21.4109 31.6677 21.5201 31.5586 21.6292C31.6677 21.5201 31.7769 21.5201 32.1043 21.4109C32.2134 21.4109 32.2135 21.4109 32.3226 21.3018V21.4109C32.3226 21.5201 32.4317 21.6292 32.4317 21.7384C32.5409 21.8475 32.5409 21.9566 32.65 22.0658C32.65 21.9566 32.65 21.9566 32.65 21.8475C32.65 21.7384 32.65 21.7384 32.65 21.6292C32.5409 21.4109 32.4317 21.4109 32.4317 21.3018Z" fill="#F6D898"/>
    <path d="M27.1281 23.9764C28.1196 23.7178 28.7507 22.8462 28.5377 22.0297C28.3247 21.2131 27.3483 20.7609 26.3568 21.0195C25.3653 21.2781 24.7342 22.1497 24.9472 22.9663C25.1602 23.7828 26.1366 24.2351 27.1281 23.9764Z" fill="#E8AA60"/>
    <mask id="mask4_1129_34077" style="mask-type:luminance" maskUnits="userSpaceOnUse" x="24" y="20" width="5" height="5">
        <path d="M27.1243 23.9755C28.1158 23.7169 28.7469 22.8452 28.5339 22.0287C28.3209 21.2121 27.3445 20.7599 26.3529 21.0185C25.3614 21.2771 24.7303 22.1488 24.9433 22.9653C25.1563 23.7819 26.1327 24.2341 27.1243 23.9755Z" fill="white"/>
    </mask>
    <g mask="url(#mask4_1129_34077)">
        <path d="M28.3903 21.1929C28.3903 21.1929 28.172 24.1397 25.4435 23.4848C22.4967 22.7208 26.7532 26.4316 26.7532 26.4316L30.6823 25.8859L30.9005 24.1397L28.3903 21.1929Z" fill="#CE9557"/>
    </g>
    <path d="M26.9762 22.0669C27.1945 22.0669 27.1945 22.0669 27.1945 22.0669H27.4128C27.6311 22.0669 27.6311 22.0669 27.6311 22.0669C27.4128 22.0669 27.4128 21.8486 27.4128 21.8486H27.1945L26.9762 22.0669C26.7579 21.8486 26.7579 21.8486 26.5397 21.8486C26.5397 21.6304 26.3214 21.6304 26.3214 21.6304C26.3214 21.8487 26.1031 21.8486 26.1031 22.0669C25.8848 22.0669 25.8848 22.2852 25.8848 22.2852C25.6665 22.5035 25.6665 22.5035 25.4482 22.7218C25.6665 22.5035 25.6665 22.5035 25.9939 22.5035C26.2122 22.5035 26.2122 22.5035 26.2122 22.5035V22.7218C26.2122 22.9401 26.4305 22.9401 26.4305 23.1583C26.4305 23.3766 26.6488 23.3766 26.6488 23.5949C26.6488 23.3766 26.6488 23.3766 26.6488 23.3766C26.6488 23.2675 26.6488 23.1583 26.6488 23.1583C26.6488 23.0492 26.6488 22.9401 26.4305 22.7218V22.5035L26.9762 22.0669Z" fill="#F6D898"/>
</svg>
