<svg width="48" height="48" viewBox="0 0 48 48" fill="none" xmlns="http://www.w3.org/2000/svg">
    <rect width="48" height="48" rx="24" fill="#95E1F6"/>
    <path opacity="0.2" d="M37.1 32.3C37.1 34.4 31.1 36.1 23.5 36.1C19.8 36.1 16.3 35.7 13.9 35C11.4 34.3 10 33.4 10 32.3C10 30.2 16 28.5 23.6 28.5C29.2 28.5 34 29.4 36.1 30.8C36.6 31.3 37.1 31.8 37.1 32.3Z" fill="#3A3A3A"/>
    <path d="M15.3004 27.6999C14.8004 27.6999 14.3004 27.4999 13.8004 27.1999C13.2004 26.6999 12.9004 26.0999 12.9004 25.3999V25.1999C12.9004 24.4999 13.2004 23.8999 13.7004 23.4999C14.1004 23.0999 14.7004 22.8999 15.2004 22.8999H33.8004C34.4004 22.8999 35.0004 23.0999 35.4004 23.5999C35.9004 24.0999 36.1004 24.6999 36.1004 25.1999V25.3999C36.1004 25.9999 35.9004 26.5999 35.4004 26.9999C34.9004 27.4999 34.3004 27.6999 33.8004 27.6999H15.3004Z" fill="#672B2B"/>
    <path d="M33.9004 23.0998C35.1004 23.0998 36.0004 24.0998 36.0004 25.1998V25.3998C36.0004 26.5998 35.0004 27.4998 33.9004 27.4998H15.3004C14.8004 27.4998 14.3004 27.2998 13.9004 26.9998C13.4004 26.5998 13.0004 25.9998 13.0004 25.3998V25.1998C13.0004 24.5998 13.3004 23.9998 13.7004 23.6998C14.1004 23.3998 14.6004 23.0998 15.2004 23.0998H33.9004ZM33.9004 22.7998H15.3004C14.7004 22.7998 14.0004 22.9998 13.7004 23.4998C13.4004 23.6998 13.2004 23.9998 13.1004 24.2998C12.9004 24.5998 12.9004 24.9998 12.9004 25.3998V25.5998C12.9004 25.9998 13.0004 26.3998 13.2004 26.6998C13.4004 26.9998 13.6004 27.2998 13.9004 27.5998C14.1004 27.7998 14.4004 27.8998 14.6004 27.9998C14.9004 28.0998 15.2004 28.0998 15.4004 28.0998H34.0004C34.3004 28.0998 34.7004 27.9998 35.0004 27.8998C35.3004 27.7998 35.6004 27.5998 35.8004 27.2998C36.0004 27.0998 36.2004 26.7998 36.4004 26.4998C36.5004 26.1998 36.6004 25.7998 36.6004 25.4998V25.2998C36.6004 24.9998 36.5004 24.5998 36.4004 24.2998C36.3004 23.9998 36.1004 23.6998 35.8004 23.4998C35.6004 23.2998 35.3004 23.0998 35.0004 22.8998C34.6004 22.8998 34.2004 22.7998 33.9004 22.7998Z" fill="#823A3A"/>
    <path d="M13.3004 23.7002C13.1004 23.7002 12.9004 23.5002 12.9004 23.3002V21.6002C12.9004 21.4002 13.1004 21.2002 13.3004 21.2002H35.8004C36.0004 21.2002 36.2004 21.4002 36.2004 21.6002V23.3002C36.2004 23.5002 36.0004 23.7002 35.8004 23.7002H13.3004Z" fill="#C81D23"/>
    <path d="M35.8002 21.3C35.9002 21.3 36.0002 21.4 36.0002 21.5V23.2C36.0002 23.3 35.9002 23.4 35.8002 23.4H13.3002C13.2002 23.4 13.1002 23.3 13.1002 23.2V21.5C13.1002 21.4 13.2002 21.3 13.3002 21.3H35.8002ZM35.8002 21H13.3002C13.0002 21 12.7002 21.3 12.7002 21.6V23.3C12.7002 23.6 13.0002 23.9 13.3002 23.9H35.8002C36.1002 23.9 36.4002 23.6 36.4002 23.3V21.6C36.4002 21.2 36.1002 21 35.8002 21Z" fill="#823A3A"/>
    <path d="M13.9996 27.1999C13.4996 26.7999 13.0996 26.1999 13.0996 25.5999V25.3999C13.0996 24.7999 13.3996 24.1999 13.7996 23.8999C13.8996 24.0999 13.8996 24.2999 13.8996 24.5999C13.9996 24.2999 13.2996 25.5999 13.9996 27.1999Z" fill="#491F1F"/>
    <path d="M35.9998 21.5001V23.2001C35.9998 23.3001 35.8998 23.4001 35.7998 23.4001H33.2998C33.6998 22.9001 33.2998 22.2001 33.2998 22.2001C33.6998 21.7001 34.0998 21.4001 34.3998 21.1001H35.8998C35.8998 21.3001 35.9998 21.4001 35.9998 21.5001Z" fill="#ED1B24"/>
    <path d="M13.9996 23.4999H13.2996C13.1996 23.4999 13.0996 23.3999 13.0996 23.2999V21.5999C13.0996 21.4999 13.1996 21.3999 13.2996 21.3999H13.9996C13.7996 22.5999 13.9996 23.4999 13.9996 23.4999Z" fill="#911323"/>
    <path d="M13.9998 22.4998C13.3998 22.4998 12.8998 22.2998 12.4998 21.8998C12.0998 21.4998 11.8998 20.9998 11.7998 20.3998C11.7998 20.3998 11.7998 20.3998 11.7998 20.2998C11.7998 19.0998 12.1998 18.0998 12.8998 16.9998C13.4998 16.0998 14.3998 15.2998 15.4998 14.5998C16.5998 13.8998 17.7998 13.2998 19.2998 12.9998C20.8998 12.4998 22.6998 12.2998 24.4998 12.2998C24.7998 12.2998 25.0998 12.2998 25.3998 12.2998C28.5998 12.3998 31.4998 13.3998 33.6998 14.7998C35.8998 16.2998 37.1998 18.2998 37.1998 20.2998C37.1998 20.2998 37.1998 20.2998 37.1998 20.3998C37.1998 20.5998 37.1998 20.7998 37.0998 20.8998C36.7998 21.7998 35.9998 22.3998 35.0998 22.3998L13.9998 22.4998Z" fill="#F4A15D"/>
    <path d="M35.1 22.9H14C13.3 22.9 12.7 22.7 12.3 22.2C11.9 21.8 11.6 21.3 11.5 20.6V20.4C11.5 19.2 11.9 18.1 12.6 16.9C13.3 15.9 14.2 15 15.3 14.4C16.5 13.7 17.8 13.1 19.2 12.7C20.8 12.2 22.5 12 24.5 12H25.4C28.5 12.1 31.5 13 33.9 14.6C36.3 16.2 37.6 18.3 37.6 20.4V20.5C37.6 20.7 37.6 21 37.5 21.2C37.1 22.2 36.1 22.9 35.1 22.9ZM25.4 12.7H24.5C22.6 12.7 20.9 12.9 19.4 13.4C18.1 13.8 16.8 14.3 15.7 15C14.4 15.8 13.6 16.7 13.2 17.3C12.5 18.4 12.2 19.4 12.2 20.4V20.5C12.3 21 12.5 21.4 12.8 21.7C13.1 22 13.5 22.2 14 22.2H35.1C35.9 22.2 36.5 21.7 36.8 20.9L36.9 20.8C36.9 20.8 36.9 20.7 36.9 20.6V20.5C36.9 18.6 35.7 16.8 33.6 15.3C31.2 13.7 28.4 12.8 25.4 12.7Z" fill="#823A3A"/>
    <path d="M36.0998 25.3001V25.5001C36.0998 26.7001 35.0998 27.6001 33.9998 27.6001H33.2998C34.0998 25.4001 33.2998 23.9001 33.2998 23.9001C33.4998 23.6001 33.5998 23.3001 33.7998 23.1001H33.9998C35.0998 23.1001 36.0998 24.1001 36.0998 25.3001Z" fill="#822C2F"/>
    <path d="M24.9 26.0004C21.3 25.7004 17.6 25.1004 14 24.3004C13.3 24.1004 12.7 23.9004 12.1 23.8004C12 23.8004 12 23.7004 12 23.6004C12 23.5004 12.1 23.4004 12.2 23.4004H38.1C38.2 23.4004 38.3 23.5004 38.3 23.6004C38.3 23.7004 38.2 23.8004 38.1 23.8004C36.5 23.9004 34.8 24.1004 33.4 24.2004C30.1 24.4004 27.3 25.1004 24.9 26.0004Z" fill="#FFBF66"/>
    <path d="M24.8998 26.0003C21.2998 25.7003 17.5998 25.1003 13.8998 24.3003C13.1998 24.1003 12.4998 23.9003 11.9998 23.8003C11.8998 23.8003 11.7998 23.6003 11.7998 23.5003C11.7998 23.4003 11.8998 23.3003 12.0998 23.3003H37.9998C38.0998 23.3003 38.2998 23.4003 38.2998 23.5003C38.2998 23.6003 38.1998 23.8003 38.0998 23.8003C36.4998 23.9003 34.7998 24.1003 33.3998 24.2003C30.0998 24.5003 27.2998 25.2003 24.8998 26.0003C24.9998 26.0003 24.9998 26.0003 24.8998 26.0003ZM11.9998 23.4003C11.8998 23.6003 11.8998 23.6003 11.9998 23.6003C12.6998 23.8003 13.3998 24.0003 13.8998 24.1003C17.5998 25.1003 21.2998 25.6003 24.7998 25.8003C26.9998 24.9003 29.7998 24.3003 32.9998 24.0003C34.4998 23.8003 36.0998 23.7003 37.6998 23.6003C37.7998 23.6003 37.7998 23.6003 37.7998 23.5003C37.7998 23.4003 37.7998 23.4003 37.6998 23.4003H11.9998Z" fill="#823A3A"/>
    <path d="M37.9996 23.5001C36.3996 23.6001 34.6996 23.8001 33.2996 24.0001C30.0996 24.4001 27.2996 25.1001 25.0996 25.8001C21.3996 25.5001 17.6996 24.9001 14.1996 24.1001C13.4996 23.9001 12.7996 23.7001 12.2996 23.6001L37.9996 23.5001ZM37.9996 23.1001H11.9996C11.7996 23.1001 11.6996 23.2001 11.5996 23.4001C11.5996 23.6001 11.6996 23.7001 11.8996 23.8001C12.5996 24.0001 13.2996 24.2001 13.7996 24.3001C15.5996 24.8001 17.4996 25.2001 19.2996 25.5001C21.0996 25.8001 22.9996 26.0001 24.7996 26.2001H24.8996C27.0996 25.4001 29.8996 24.7001 33.0996 24.4001C34.5996 24.2001 36.1996 24.1001 37.7996 24.0001C37.9996 24.0001 38.0996 23.8001 38.0996 23.6001C38.3996 23.3001 38.1996 23.1001 37.9996 23.1001Z" fill="#823A3A"/>
    <path d="M15.9004 33.5002C15.1004 33.5002 14.4004 33.1002 13.9004 32.5002C13.6004 32.1002 13.4004 31.7002 13.2004 31.3002C13.0004 30.8002 12.9004 30.3002 12.9004 29.8002C12.9004 29.3002 13.0004 28.7002 13.2004 28.3002C13.2004 28.2002 13.3004 28.2002 13.4004 28.2002H35.9004C36.0004 28.2002 36.0004 28.2002 36.1004 28.3002C36.3004 28.8002 36.5004 29.3002 36.4004 29.8002C36.2004 30.8002 35.9004 31.6002 35.3004 32.3002C34.7004 33.0002 34.1004 33.5002 33.4004 33.5002H15.9004Z" fill="#F4A15D"/>
    <path d="M35.8002 28.4C36.0002 28.9 36.1002 29.4 36.1002 29.9C36.1002 30.9 35.8002 31.7 35.2002 32.4C34.7002 33.1 33.9002 33.5 33.2002 33.5H15.9002C15.1002 33.5 14.4002 33.1 14.0002 32.5C13.4002 31.8 13.1002 31 13.1002 29.9C13.1002 29.4 13.2002 28.9 13.4002 28.4H35.8002ZM35.8002 28H13.3002C13.2002 28 13.0002 28.1 13.0002 28.2C12.8002 28.7 12.7002 29.3 12.7002 29.7C12.7002 30.3 12.8002 30.8 13.0002 31.2C13.2002 31.6 13.4002 32.1 13.7002 32.5C14.3002 33.2 15.1002 33.6 15.9002 33.6H33.1002C33.6002 33.6 34.0002 33.5 34.4002 33.3C34.8002 33.1 35.1002 32.8 35.4002 32.4C36.0002 31.6 36.3002 30.7 36.3002 29.7C36.3002 29.1 36.2002 28.6 36.0002 28.2C36.1002 28.1 36.0002 28 35.8002 28Z" fill="#823A3A"/>
    <path d="M13.9996 29.9999C13.9996 29.9999 13.4996 31.1999 13.9996 32.4999C13.3996 31.7999 13.0996 30.9999 13.0996 29.8999C13.0996 29.3999 13.1996 28.8999 13.3996 28.3999H14.7996C14.5996 29.1999 13.9996 29.9999 13.9996 29.9999Z" fill="#E27638"/>
    <path d="M36.1002 29.9001C36.1002 30.9001 35.8002 31.7001 35.2002 32.4001C34.7002 33.1001 33.9002 33.5001 33.2002 33.5001C34.0002 32.3001 33.2002 30.5001 33.2002 30.5001C33.2002 29.7001 33.3002 29.0001 33.5002 28.6001H35.8002C36.0002 28.8001 36.1002 29.4001 36.1002 29.9001Z" fill="#FAC67D"/>
    <path d="M35.9996 27.7998H13.0996V30.5998H35.9996V27.7998Z" fill="#470901"/>
    <path d="M29.7999 31.1002C28.9999 31.1002 28.1999 30.9002 27.3999 30.7002C26.4999 30.5002 25.5999 30.2002 24.5999 30.2002C24.1999 30.2002 23.8999 30.2002 23.5999 30.3002C23.1999 30.4002 22.7999 30.4002 22.3999 30.4002C21.2999 30.4002 20.4999 30.1002 19.5999 29.9002C18.7999 29.7002 18.0999 29.5002 17.3999 29.5002C16.9999 29.5002 16.6999 29.5002 16.3999 29.6002C15.1999 29.9002 14.5999 30.0002 14.0999 30.0002C13.7999 30.0002 13.4999 30.0002 13.2999 29.9002C12.8999 29.7002 12.5999 29.4002 12.4999 28.8002C12.3999 28.5002 12.4999 28.2002 12.8999 27.8002C13.1999 27.6002 13.4999 27.5002 13.9999 27.4002C14.6999 27.2002 15.4999 27.2002 15.4999 27.2002H33.8999C34.0999 27.2002 34.2999 27.2002 34.4999 27.2002C34.9999 27.2002 35.2999 27.3002 35.6999 27.4002C36.2999 27.7002 36.5999 28.2002 36.5999 28.9002C36.5999 29.4002 36.4999 29.8002 36.3999 29.9002C36.3999 30.2002 36.2999 30.5002 36.0999 30.6002C35.8999 30.8002 35.6999 30.8002 35.4999 30.8002C35.1999 30.8002 34.8999 30.7002 34.4999 30.6002C34.1999 30.5002 33.7999 30.4002 33.3999 30.4002C33.1999 30.4002 33.0999 30.4002 32.8999 30.4002C32.3999 30.4002 31.8999 30.5002 31.4999 30.7002C30.7999 31.0002 30.2999 31.1002 29.7999 31.1002Z" fill="#9CC440"/>
    <path d="M34.3002 27.5003C34.8002 27.5003 35.1002 27.6003 35.4002 27.7003C36.7002 28.3003 36.0002 29.9003 36.0002 29.9003C35.9002 30.5003 35.7002 30.7003 35.3002 30.7003C34.8002 30.7003 34.0002 30.4003 33.3002 30.3003C33.1002 30.3003 33.0002 30.3003 32.8002 30.3003C32.3002 30.3003 31.8002 30.4003 31.3002 30.6003C30.8002 30.9003 30.2002 30.9003 29.8002 30.9003C28.2002 30.9003 26.5002 30.0003 24.6002 30.0003C24.2002 30.0003 23.9002 30.0003 23.5002 30.1003C23.1002 30.2003 22.7002 30.2003 22.4002 30.2003C20.5002 30.2003 19.0002 29.3003 17.4002 29.3003C17.1002 29.3003 16.7002 29.3003 16.3002 29.4003C15.3002 29.7003 14.6002 29.8003 14.0002 29.8003C13.7002 29.8003 13.5002 29.8003 13.3002 29.7003C12.9002 29.5003 12.7002 29.2003 12.6002 28.7003C12.5002 28.0003 13.2002 27.7003 14.0002 27.5003C14.7002 27.3003 15.4002 27.3003 15.4002 27.3003H33.8002C34.0002 27.5003 34.2002 27.5003 34.3002 27.5003ZM34.3002 27.3003C34.1002 27.3003 33.9002 27.3003 33.7002 27.3003H15.3002C15.3002 27.3003 14.5002 27.3003 13.8002 27.5003C13.3002 27.6003 12.9002 27.8003 12.7002 28.0003C12.5002 28.1003 12.4002 28.3003 12.3002 28.5003C12.2002 28.7003 12.2002 28.9003 12.2002 29.2003C12.3002 29.8003 12.6002 30.2003 13.1002 30.4003C13.3002 30.5003 13.6002 30.6003 14.0002 30.6003C14.6002 30.6003 15.3002 30.5003 16.4002 30.2003C16.7002 30.1003 17.0002 30.1003 17.4002 30.1003C18.2002 30.1003 18.9002 30.3003 19.6002 30.5003C20.5002 30.7003 21.3002 31.0003 22.4002 31.0003C22.8002 31.0003 23.2002 31.0003 23.6002 30.9003C23.9002 30.8003 24.3002 30.8003 24.6002 30.8003C25.6002 30.8003 26.4002 31.0003 27.3002 31.3003C28.2002 31.5003 28.9002 31.7003 29.8002 31.7003C30.5002 31.7003 31.0002 31.6003 31.5002 31.3003C31.9002 31.1003 32.3002 31.0003 32.8002 31.0003C33.0002 31.0003 33.1002 31.0003 33.3002 31.0003C33.7002 31.0003 34.1002 31.1003 34.4002 31.2003C34.8002 31.3003 35.1002 31.4003 35.5002 31.4003C35.8002 31.4003 36.1002 31.3003 36.2002 31.1003C36.4002 30.9003 36.5002 30.7003 36.5002 30.3003C36.5002 30.2003 36.7002 29.8003 36.7002 29.3003C36.7002 29.0003 36.6002 28.6003 36.5002 28.4003C36.3002 28.1003 36.1002 27.8003 35.7002 27.6003C35.2002 27.3003 34.8002 27.3003 34.3002 27.3003Z" fill="#823A3A"/>
    <path d="M36.7996 20.3002C36.7996 20.5002 36.7996 20.7002 36.6996 20.8002C36.4996 21.6002 35.6996 22.2002 34.9996 22.2002H33.1996C33.9996 16.7002 26.2996 13.0002 25.5996 12.7002C31.8996 12.9002 36.7996 16.2002 36.7996 20.3002Z" fill="#FAC67D"/>
    <path d="M33.2998 23.5H37.9998C36.3998 23.6 34.6998 23.8 33.2998 24C33.3998 23.7 33.2998 23.5 33.2998 23.5Z" fill="#FFF683"/>
    <path d="M36.0998 29.9998C35.8998 31.3998 34.7998 30.5998 33.2998 30.3998C34.0998 29.3998 33.3998 27.8998 33.2998 27.5998H33.8998C34.5998 27.4998 35.1998 27.5998 35.3998 27.7998C36.5998 28.2998 36.0998 29.9998 36.0998 29.9998Z" fill="#D0D439"/>
    <path d="M13.9996 22.3002C12.8996 22.3002 12.0996 21.4002 12.0996 20.5002C12.0996 20.5002 12.0996 20.5002 12.0996 20.4002C12.0996 19.2002 12.4996 18.2002 13.1996 17.2002C13.0996 17.3002 11.5996 21.4002 13.9996 22.3002Z" fill="#E27638"/>
    <path d="M13.9996 24C13.2996 23.8 12.5996 23.6 12.0996 23.5H13.9996C13.9996 23.5 13.7996 23.7 13.9996 24Z" fill="#E8A85D"/>
    <path d="M14.0004 30.0002C13.7004 30.0002 13.5004 30.0002 13.3004 29.9002C12.9004 29.7002 12.7004 29.4002 12.6004 28.9002C12.5004 28.2002 13.2004 27.9002 14.0004 27.7002C14.0004 27.7002 13.3004 29.1002 14.0004 30.0002Z" fill="#7C9632"/>
    <path d="M30.4004 13.8999C30.4004 13.8999 34.8004 15.5999 35.5004 18.4999C36.4004 21.1999 33.2004 15.2999 30.4004 13.8999Z" fill="#FEFEFC"/>
    <path d="M15.1082 18.3692C15.6765 18.1544 16.0897 17.8547 16.0311 17.6997C15.9725 17.5447 15.4644 17.5932 14.8961 17.8079C14.3279 18.0227 13.9147 18.3224 13.9732 18.4774C14.0318 18.6324 14.54 18.5839 15.1082 18.3692Z" fill="#FEFEFC"/>
    <path d="M30.2896 16.7225C30.3378 16.564 29.9058 16.2921 29.3247 16.1151C28.7435 15.9382 28.2333 15.9232 28.185 16.0817C28.1368 16.2402 28.5688 16.5121 29.1499 16.6891C29.7311 16.8661 30.2413 16.881 30.2896 16.7225Z" fill="#FEFEFC"/>
    <path d="M26.4767 14.4817C26.4926 14.3724 26.1952 14.2388 25.8126 14.1834C25.43 14.128 25.107 14.1717 25.0912 14.2811C25.0753 14.3904 25.3727 14.5239 25.7553 14.5793C26.1379 14.6347 26.4609 14.591 26.4767 14.4817Z" fill="#FEFEFC"/>
    <path d="M16.7451 16.5898C17.1209 16.4989 17.4044 16.3382 17.3784 16.2308C17.3524 16.1235 17.0268 16.1102 16.651 16.2011C16.2753 16.292 15.9918 16.4528 16.0177 16.5601C16.0437 16.6675 16.3694 16.6808 16.7451 16.5898Z" fill="#FEFEFC"/>
    <path d="M20.3005 18.2002C20.4005 18.4002 20.0005 18.7002 19.4005 18.9002C18.9005 19.1002 18.4005 19.1002 18.3005 19.0002C18.2005 18.8002 18.6005 18.5002 19.2005 18.3002C19.8005 18.2002 20.3005 18.2002 20.3005 18.2002Z" fill="#FEFEFC"/>
    <path d="M30.4888 19.4891C30.5371 19.3306 30.1051 19.0587 29.5239 18.8817C28.9428 18.7048 28.4325 18.6898 28.3843 18.8483C28.336 19.0068 28.768 19.2787 29.3491 19.4557C29.9303 19.6327 30.4405 19.6476 30.4888 19.4891Z" fill="#FEFEFC"/>
    <path d="M24.3964 14.0644C24.4202 13.9004 23.9963 13.7033 23.4497 13.6242C22.9031 13.545 22.4408 13.6138 22.417 13.7778C22.3933 13.9418 22.8171 14.1389 23.3637 14.218C23.9103 14.2971 24.3727 14.2284 24.3964 14.0644Z" fill="#FEFEFC"/>
    <path d="M20.6063 16.0733C21.1745 15.8585 21.5877 15.5588 21.5292 15.4038C21.4706 15.2488 20.9624 15.2973 20.3942 15.512C19.8259 15.7268 19.4127 16.0265 19.4713 16.1815C19.5299 16.3365 20.038 16.288 20.6063 16.0733Z" fill="#FEFEFC"/>
    <path d="M26.0503 17.5824C26.0986 17.4239 25.6666 17.152 25.0854 16.975C24.5043 16.798 23.9941 16.783 23.9458 16.9415C23.8975 17.1 24.3295 17.372 24.9107 17.5489C25.4918 17.7259 26.002 17.7409 26.0503 17.5824Z" fill="#FEFEFC"/>
</svg>
