<svg width="48" height="48" viewBox="0 0 48 48" fill="none" xmlns="http://www.w3.org/2000/svg">
    <rect width="48" height="48" rx="24" fill="#95E1F6"/>
    <path opacity="0.2" d="M36.8585 30.3487C36.8585 34.1035 30.4217 37.0001 22.3756 37.0001C18.4062 37.0001 14.7587 36.2491 12.1839 35.069C9.50192 33.8889 8 32.1724 8 30.3487C8 26.5938 14.4368 23.6973 22.4829 23.6973C28.4906 23.6973 33.5328 25.4137 35.7857 27.7739C36.4294 28.6322 36.8585 29.4904 36.8585 30.3487Z" fill="#3A3A3A"/>
    <path d="M36.6451 21.8736C36.6451 18.226 31.2811 15.2222 24.6297 15.2222C18.0856 15.2222 12.6143 18.226 12.6143 21.8736C12.6143 23.0537 12.6143 27.3449 12.6143 28.525C12.6143 32.1725 17.9783 35.1764 24.6297 35.1764C31.1738 35.1764 36.6451 32.1725 36.6451 28.525C36.6451 27.3449 36.6451 23.1609 36.6451 21.8736Z" fill="#FFDFB3"/>
    <mask id="mask0_1129_34107" style="mask-type:luminance" maskUnits="userSpaceOnUse" x="12" y="15" width="25" height="21">
        <path d="M36.6422 21.8731C36.6422 18.2255 31.2782 15.2217 24.6268 15.2217C18.0827 15.2217 12.6113 18.2255 12.6113 21.8731C12.6113 23.0532 12.6113 27.3444 12.6113 28.5245C12.6113 32.172 17.9754 35.1759 24.6268 35.1759C31.1709 35.1759 36.6422 32.172 36.6422 28.5245C36.6422 27.3444 36.6422 23.1604 36.6422 21.8731Z" fill="white"/>
    </mask>
    <g mask="url(#mask0_1129_34107)">
        <path d="M15.5081 25.1989C15.5081 25.1989 13.4698 32.2794 21.3013 33.4595C29.0255 34.7469 28.0599 37.5362 28.0599 37.5362L16.6882 41.7201L8.32031 30.6702L11.9678 21.9805L15.5081 25.1989Z" fill="#E2BF9A"/>
    </g>
    <mask id="mask1_1129_34107" style="mask-type:luminance" maskUnits="userSpaceOnUse" x="12" y="15" width="25" height="21">
        <path d="M36.6422 21.8731C36.6422 18.2255 31.2782 15.2217 24.6268 15.2217C18.0827 15.2217 12.6113 18.2255 12.6113 21.8731C12.6113 23.0532 12.6113 27.3444 12.6113 28.5245C12.6113 32.172 17.9754 35.1759 24.6268 35.1759C31.1709 35.1759 36.6422 32.172 36.6422 28.5245C36.6422 27.3444 36.6422 23.1604 36.6422 21.8731Z" fill="white"/>
    </mask>
    <g mask="url(#mask1_1129_34107)">
        <path d="M24.5202 35.0686C24.5202 35.0686 31.1716 38.287 33.639 30.7774C36.2138 23.2677 38.7885 24.6624 38.7885 24.6624L40.9341 36.5705L28.4895 43.1146L20.5508 38.0724L24.5202 35.0686Z" fill="#E2BF9A"/>
    </g>
    <path d="M24.6302 35.6059C17.8716 35.6059 12.293 32.4948 12.293 28.5254V21.874C12.293 18.0119 17.8716 14.7935 24.6302 14.7935C31.3889 14.7935 36.9675 17.9046 36.9675 21.874V28.5254C36.9675 32.4948 31.4962 35.6059 24.6302 35.6059ZM24.6302 15.5444C18.1934 15.5444 13.0439 18.3337 13.0439 21.874V28.5254C13.0439 31.9584 18.1934 34.8549 24.6302 34.8549C31.0671 34.8549 36.2165 32.0656 36.2165 28.5254V21.874C36.2165 18.441 31.0671 15.5444 24.6302 15.5444Z" fill="#823A3A"/>
    <path d="M24.6287 28.525C31.2647 28.525 36.6441 25.547 36.6441 21.8736C36.6441 18.2001 31.2647 15.2222 24.6287 15.2222C17.9928 15.2222 12.6133 18.2001 12.6133 21.8736C12.6133 25.547 17.9928 28.525 24.6287 28.525Z" fill="#FFBF66"/>
    <mask id="mask2_1129_34107" style="mask-type:luminance" maskUnits="userSpaceOnUse" x="12" y="15" width="25" height="14">
        <path d="M24.6278 28.525C31.2637 28.525 36.6432 25.547 36.6432 21.8736C36.6432 18.2001 31.2637 15.2222 24.6278 15.2222C17.9918 15.2222 12.6123 18.2001 12.6123 21.8736C12.6123 25.547 17.9918 28.525 24.6278 28.525Z" fill="white"/>
    </mask>
    <g mask="url(#mask2_1129_34107)">
        <path d="M26.1303 29.9197C26.1303 29.9197 33.5326 24.1265 31.2797 22.5173C29.0269 20.9081 29.456 25.1993 29.456 25.1993L25.7012 28.7396L26.1303 29.9197Z" fill="#D19854"/>
    </g>
    <mask id="mask3_1129_34107" style="mask-type:luminance" maskUnits="userSpaceOnUse" x="12" y="15" width="25" height="14">
        <path d="M24.6278 28.525C31.2637 28.525 36.6432 25.547 36.6432 21.8736C36.6432 18.2001 31.2637 15.2222 24.6278 15.2222C17.9918 15.2222 12.6123 18.2001 12.6123 21.8736C12.6123 25.547 17.9918 28.525 24.6278 28.525Z" fill="white"/>
    </mask>
    <g mask="url(#mask3_1129_34107)">
        <path d="M22.3754 28.9542C22.3754 28.9542 30.3142 23.8047 28.1686 21.981C26.0229 20.1572 26.0229 24.5557 26.0229 24.5557L21.9463 27.7741L22.3754 28.9542Z" fill="#D19854"/>
    </g>
    <path d="M36.8594 21.8741C36.8594 23.1615 36.1085 24.4489 35.2502 25.4144C34.392 26.2726 33.1046 27.0236 32.0318 27.56C29.6716 28.5255 27.0969 28.9547 24.6294 29.0619C22.0547 29.0619 19.5872 28.5255 17.227 27.56C16.047 27.0236 14.9742 26.3799 14.0086 25.4144C13.1504 24.5561 12.3994 23.2688 12.3994 21.8741C12.3994 20.5868 13.1504 19.2994 14.1159 18.3339C14.9742 17.4756 16.2615 16.8319 17.3343 16.2955C19.6945 15.33 22.2693 14.9009 24.6294 14.9009C27.0969 14.9009 29.6716 15.33 31.9245 16.2955C33.1046 16.8319 34.1774 17.3683 35.1429 18.3339C36.1085 19.4067 36.8594 20.5868 36.8594 21.8741ZM36.4303 21.8741C36.4303 20.694 35.7866 19.6212 34.9284 18.6557C34.0701 17.7975 32.9973 17.1538 31.8172 16.6174C29.5643 15.6519 26.9896 15.2227 24.6294 15.2227C22.162 15.2227 19.6945 15.7591 17.4416 16.7247C16.3688 17.2611 15.296 17.9047 14.3305 18.763C13.365 19.6212 12.8286 20.8013 12.8286 21.9814C12.8286 23.1615 13.4722 24.2343 14.3305 25.0925C15.1887 25.9508 16.3688 26.5945 17.4416 27.0236C19.6945 27.9891 22.2693 28.311 24.6294 28.311C27.0969 28.311 29.5643 27.8818 31.7099 27.0236C32.7827 26.4872 33.8556 25.9508 34.8211 25.0925C35.7866 24.2343 36.323 23.0542 36.4303 21.8741Z" fill="#823A3A"/>
    <path d="M35.0351 20.6942C35.0351 21.767 34.3914 22.8398 33.6405 23.5908C32.8895 24.3417 31.8167 24.8781 30.8512 25.3073C28.8128 26.0582 26.6672 26.4873 24.6289 26.4873C22.4833 26.4873 20.3376 26.1655 18.4066 25.3073C17.4411 24.8781 16.3683 24.3417 15.6173 23.5908C14.8663 22.8398 14.2227 21.767 14.2227 20.6942C14.2227 19.6214 14.8663 18.5486 15.6173 17.7976C16.3683 17.0466 17.4411 16.5102 18.4066 16.0811C20.4449 15.3301 22.5906 15.0083 24.6289 15.0083C26.7745 15.0083 28.9201 15.3301 30.8512 16.0811C31.8167 16.5102 32.8895 16.9394 33.6405 17.7976C34.3914 18.6558 35.0351 19.6214 35.0351 20.6942ZM34.8206 20.6942C34.8206 19.7287 34.1769 18.6558 33.5332 18.0122C32.7822 17.2612 31.8167 16.7248 30.8512 16.2957C28.8128 15.5447 26.7745 15.2229 24.6289 15.1156C22.4833 15.1156 20.3376 15.4374 18.4066 16.2957C17.4411 16.7248 16.4755 17.1539 15.7246 18.0122C14.9736 18.7631 14.4372 19.7287 14.4372 20.6942C14.4372 21.6597 15.0809 22.7325 15.8319 23.3762C16.5828 24.1272 17.5484 24.5563 18.5139 24.9854C20.5522 25.7364 22.5906 26.0582 24.6289 26.0582C26.7745 26.0582 28.9201 25.7364 30.7439 24.9854C31.7094 24.5563 32.6749 24.1272 33.4259 23.3762C34.2841 22.7325 34.8206 21.767 34.8206 20.6942Z" fill="#823A3A"/>
    <path d="M24.6301 26.1648C30.2588 26.1648 34.8218 23.7152 34.8218 20.6935C34.8218 17.6718 30.2588 15.2222 24.6301 15.2222C19.0014 15.2222 14.4385 17.6718 14.4385 20.6935C14.4385 23.7152 19.0014 26.1648 24.6301 26.1648Z" fill="#D16A0D"/>
    <path d="M24.6292 26.0575C29.7786 26.0575 34.0699 24.1264 34.8208 21.4444C34.3917 18.6551 29.8859 16.2949 24.5219 16.2949C19.3724 16.2949 15.1885 18.3333 14.4375 21.0153C14.8666 24.0191 19.3724 26.0575 24.6292 26.0575Z" fill="#823A3A"/>
    <path opacity="0.4" d="M30.8516 22.9469C30.637 22.3032 29.9934 21.7668 29.3497 22.0886C29.3497 21.9814 29.3497 21.5522 29.1351 21.445C29.3497 21.5522 29.6715 21.6595 29.8861 21.6595C31.388 21.9814 32.8899 21.7668 33.6409 21.2304C34.1773 20.9086 34.3918 20.4794 34.3918 20.1576C33.6409 19.0848 32.3535 18.1193 30.7443 17.4756V17.5828C29.4569 17.6901 28.0623 18.5484 27.955 19.7285C27.8477 20.4794 28.4914 21.0158 29.1351 21.3377C28.9205 21.2304 28.706 21.5522 28.706 21.7668C28.4914 21.3377 28.1696 21.2304 27.955 21.3377C27.8477 20.9085 27.7404 20.4794 27.4186 20.1576C27.204 19.8357 26.6677 19.4066 26.1313 19.5139C26.024 19.4066 26.024 19.1921 25.9167 19.0848C26.6676 18.9775 27.3113 18.8702 27.8477 18.3338C28.2769 18.012 28.2769 17.0464 27.7405 16.2955C26.7749 16.0809 25.5948 15.9736 24.522 15.9736C23.6638 15.9736 22.591 16.0809 21.84 16.1882C21.5182 16.6173 21.5182 17.0464 21.7327 17.6901C22.0546 18.3338 23.0201 18.6557 23.8784 18.8702C23.8784 18.9775 23.9856 19.0848 24.0929 19.0848C22.4837 18.9775 21.0891 20.694 21.4109 21.9814C21.3036 21.9814 21.1963 21.8741 21.089 21.8741C20.9818 21.0158 20.1235 21.1231 20.1235 21.1231C20.1235 21.1231 20.1235 21.0158 20.0162 20.9086C20.6599 20.694 20.9818 20.3722 21.3036 19.943C21.84 19.1921 21.9473 18.2265 21.3036 17.5828C20.9818 17.261 20.4454 16.8319 19.8017 16.7246C17.8706 17.261 16.2614 18.012 15.2959 18.9775C15.2959 19.0848 15.2959 19.0848 15.2959 19.1921C15.4032 19.943 16.2614 21.0158 17.4415 21.1231C17.7634 21.1231 18.0852 21.2304 18.2997 21.2304C17.1197 21.445 15.8323 22.3032 15.9396 23.376C16.9051 24.127 18.2997 24.7707 19.909 25.3071C20.6599 25.3071 21.6255 25.0925 22.1619 24.5561C22.4837 24.2342 22.591 23.6978 22.3764 23.0542C23.2347 23.376 24.522 23.376 25.1657 23.2687C25.273 23.2687 25.273 23.2687 25.3803 23.2687C25.1657 23.5906 25.0584 24.0197 25.0584 24.3415C25.0584 25.0925 25.7021 25.4143 26.3458 25.7362C28.4914 25.5216 30.3152 24.9852 31.8171 24.2343C32.139 23.6979 31.4953 22.9469 30.8516 22.9469Z" fill="#9B3432"/>
    <mask id="mask4_1129_34107" style="mask-type:luminance" maskUnits="userSpaceOnUse" x="14" y="12" width="21" height="15">
        <path d="M34.7184 21.5516C33.9675 24.2336 29.7835 26.2719 24.634 26.2719C19.27 26.2719 14.8715 24.1263 14.4424 21.2297C14.4424 21.2297 14.7642 11.789 24.4195 12.0036C34.182 12.0036 34.7184 21.5516 34.7184 21.5516Z" fill="white"/>
    </mask>
    <g mask="url(#mask4_1129_34107)">
        <path d="M24.5258 14.3635C22.9166 14.3635 20.6637 15.6509 21.5219 17.4747C21.951 18.2257 23.2384 18.6548 23.9894 18.7621C24.7404 18.8693 26.5641 18.9766 27.5296 18.0111C28.066 17.4747 27.9588 15.6509 26.3495 15.1145C26.2423 14.149 25.384 14.2563 25.384 14.2563C25.384 14.2563 25.2768 14.0417 25.1695 13.9344C24.9549 13.6126 24.5258 13.8271 24.5258 14.3635Z" fill="#FFDCC5"/>
        <path d="M24.5262 14.3635C23.7753 14.3635 23.2388 14.5781 22.7024 14.8999C22.166 15.2217 21.7369 15.6509 21.5223 16.1873C21.3078 16.831 21.5223 17.4746 22.0588 17.9038C22.5952 18.3329 23.1316 18.5474 23.7752 18.6547C24.9553 18.8693 26.35 18.8693 27.3155 18.1183C27.8519 17.7965 27.8519 17.0455 27.7446 16.5091C27.5301 15.8654 27.101 15.4363 26.5646 15.2217C26.4573 15.0072 26.35 14.7926 26.2427 14.5781C26.1354 14.3635 25.8136 14.3635 25.599 14.2562C25.4918 14.1489 25.4917 14.0417 25.3845 14.0417C25.2772 13.9344 25.0626 13.8271 24.9553 13.9344C24.6335 14.0417 24.5262 14.1489 24.5262 14.3635ZM24.5262 14.3635C24.4189 14.2562 24.4189 13.8271 24.7408 13.7198C25.0626 13.6125 25.2772 13.7198 25.3845 13.9344C25.4917 14.0417 25.4917 14.2562 25.4917 14.3635C25.7063 14.2562 26.0282 14.3635 26.2427 14.5781C26.4573 14.7926 26.5646 15.1145 26.5646 15.329C27.2082 15.4363 27.7446 15.9727 27.9592 16.6164C28.0665 16.9382 28.0665 17.3674 28.0665 17.5819C28.0665 17.9038 27.8519 18.3329 27.5301 18.4402C26.9937 18.8693 26.35 18.9766 25.599 19.0839C24.8481 19.0839 24.3116 19.0838 23.668 18.9766C23.0243 18.8693 22.3806 18.5474 21.8442 18.2256C21.3078 17.9038 21.0932 17.0455 21.3078 16.2946C21.5224 15.6509 22.0588 15.2217 22.5952 14.8999C23.2388 14.4708 23.8825 14.2562 24.5262 14.3635Z" fill="#823A3A"/>
        <path d="M24.3116 14.6859C24.2043 14.7932 24.2043 14.7932 24.3116 14.6859C24.2043 14.7932 24.2044 14.7932 24.0971 14.9005C24.0971 14.9005 23.9898 14.9005 23.9898 15.0078H23.8825H23.7752H23.6679H23.5607H23.4534H23.3461H23.2388C23.2388 15.0078 23.2388 15.0078 23.1315 15.0078H23.0243C22.917 15.0078 22.917 14.9005 22.917 14.9005C22.917 14.7932 23.0243 14.7932 23.0243 14.7932C23.0243 14.7932 23.0243 14.7932 23.1315 14.7932C23.1315 14.7932 23.1315 14.7932 23.2388 14.7932H23.3461H23.4534H23.5607H23.6679H23.7752H23.8825H23.9898C23.9898 14.7932 23.9898 14.7932 24.0971 14.7932C24.2044 14.6859 24.2043 14.6859 24.3116 14.6859C24.3116 14.5786 24.2043 14.6859 24.3116 14.6859C24.3116 14.5786 24.3116 14.5786 24.3116 14.6859Z" fill="#FFCA9F"/>
        <path d="M22.8091 15.544C22.8091 15.6513 22.8091 15.6513 22.8091 15.544C22.9164 15.6513 23.0237 15.6513 23.131 15.6513C23.2382 15.6513 23.3456 15.6513 23.5601 15.6513C23.6674 15.6513 23.6674 15.6513 23.7747 15.6513H23.8819H23.9892C23.9892 15.6513 24.0965 15.6513 24.0965 15.544C24.0965 15.544 24.2038 15.544 24.2038 15.4367C24.2038 15.4367 24.3111 15.4367 24.3111 15.3294C24.3111 15.3294 24.3111 15.2222 24.4183 15.2222C24.4183 15.2222 24.4184 15.1149 24.5256 15.1149C24.5256 15.1149 24.5256 15.0076 24.6329 15.0076V14.9003V14.793C24.6329 14.793 24.6329 14.793 24.6329 14.6857C24.6329 14.6857 24.6329 14.6858 24.6329 14.793V14.9003V15.0076V15.1149C24.6329 15.1149 24.6329 15.2222 24.5256 15.2222C24.5256 15.2222 24.5256 15.3294 24.4183 15.3294L24.3111 15.4367L24.2038 15.544L24.0965 15.6513C24.0965 15.6513 24.0965 15.6513 23.9892 15.6513H23.8819C23.8819 15.6513 23.7747 15.6513 23.7747 15.7586H23.6674C23.5601 15.7586 23.4528 15.7586 23.4528 15.8658C23.2383 15.8658 23.131 15.8658 23.0237 15.8658C22.9164 15.8658 22.8091 15.8658 22.7018 15.7586H22.5946C22.4873 15.7586 22.4873 15.6513 22.4873 15.544C22.5946 15.544 22.7019 15.544 22.8091 15.544C22.7019 15.544 22.7019 15.544 22.8091 15.544Z" fill="#FFCA9F"/>
        <path d="M25.2769 15.0078C25.2769 15.2224 25.2769 15.3296 25.1696 15.4369C25.0623 15.6515 24.955 16.0806 24.7405 16.1879C24.6332 16.2952 24.5259 16.5097 24.4186 16.617C24.3114 16.7243 24.0968 16.8316 23.9895 16.8316C23.8822 16.8316 23.7749 16.9389 23.6677 16.9389H23.5604C23.4531 16.9389 23.4531 16.9389 23.4531 16.8316C23.4531 16.7243 23.4531 16.7243 23.5604 16.7243C23.5604 16.7243 23.5604 16.7243 23.6677 16.7243C23.7749 16.7243 23.8822 16.7243 23.9895 16.7243C24.0968 16.7243 24.2041 16.617 24.3114 16.5097C24.4186 16.4025 24.5259 16.2952 24.6332 16.1879C24.8478 15.9733 24.9551 15.6515 25.0623 15.4369C25.1696 15.3296 25.1696 15.2224 25.2769 15.0078C25.1696 15.1151 25.1696 15.0078 25.2769 15.0078C25.1696 15.0078 25.1696 15.0078 25.2769 15.0078Z" fill="#FFCA9F"/>
        <path d="M25.7063 15.0076C25.7063 15.1149 25.7063 15.1149 25.7063 15.0076C25.7063 15.2222 25.8136 15.2222 25.8136 15.3295C25.8136 15.4368 25.8136 15.4368 25.8136 15.544C25.8136 15.6513 25.8136 15.6513 25.8136 15.7586C25.8136 15.8659 25.8136 15.8659 25.8136 15.9732V16.0804V16.1877C25.8136 16.295 25.8136 16.295 25.8136 16.4023V16.5096V16.6169V16.7241V16.8314V16.9387C25.8136 16.9387 25.8136 16.9387 25.8136 17.046L25.7063 17.1533L25.599 17.2605L25.4917 17.3678C25.4917 17.3678 25.3845 17.4751 25.2772 17.3678C25.2772 17.3678 25.1699 17.2605 25.2772 17.1533C25.2772 17.1533 25.2772 17.1532 25.3845 17.046C25.3845 17.046 25.3845 17.046 25.4917 16.9387L25.599 16.8314C25.599 16.8314 25.599 16.8314 25.599 16.7241C25.599 16.7241 25.599 16.7241 25.599 16.6169C25.599 16.6169 25.599 16.6168 25.599 16.5096V16.4023V16.295V16.0804C25.599 15.9732 25.599 15.9732 25.7063 15.8659V15.7586V15.6513C25.7063 15.5441 25.7063 15.544 25.7063 15.4368C25.7063 15.3295 25.7063 15.3295 25.7063 15.2222C25.7063 15.2222 25.7063 15.2222 25.7063 15.0076Z" fill="#FFCA9F"/>
        <path d="M26.4576 15.3295C26.5649 15.4368 26.5649 15.544 26.5649 15.544V15.6513V15.7586C26.5649 15.8659 26.5649 15.8659 26.5649 15.9732C26.5649 16.0804 26.5649 16.0805 26.5649 16.1877V16.295V16.4023C26.5649 16.5096 26.5649 16.5096 26.5649 16.6168C26.5649 16.7241 26.5649 16.7241 26.4576 16.7241C26.4576 16.7241 26.4576 16.7241 26.4576 16.8314C26.4576 16.8314 26.4576 16.8314 26.4576 16.9387C26.4576 16.9387 26.4576 17.046 26.3503 17.046C26.3503 17.046 26.3503 17.1533 26.243 17.1533V17.2605H26.1357V17.1533C26.1357 17.1533 26.1357 17.1532 26.1357 17.046C26.1357 17.046 26.1357 17.046 26.243 16.9387C26.243 16.9387 26.243 16.8314 26.3503 16.8314C26.3503 16.8314 26.3503 16.8314 26.3503 16.7241C26.3503 16.7241 26.3503 16.7241 26.3503 16.6168C26.3503 16.6168 26.3503 16.5096 26.4576 16.5096V16.4023C26.4576 16.4023 26.4576 16.4023 26.4576 16.295V16.0804C26.4576 15.9732 26.4576 15.9732 26.4576 15.8659C26.4576 15.7586 26.4576 15.7586 26.4576 15.7586V15.6513V15.544C26.4576 15.4368 26.4576 15.4368 26.4576 15.3295C26.4576 15.2222 26.4576 15.2222 26.4576 15.3295Z" fill="#FFCA9F"/>
        <path d="M25.5988 18.6546C25.7061 18.6546 25.7061 18.7619 25.8134 18.7619C26.5643 18.6546 27.1007 18.44 27.6371 18.0109C26.3498 18.2255 24.8479 18.0109 24.0969 17.3672C23.1314 16.7235 22.5949 15.758 22.7022 14.7925C21.844 15.4362 21.093 16.2944 21.6294 17.3672C22.0585 18.1182 23.3459 18.5473 24.0969 18.6546C24.4187 18.6546 24.8478 18.7619 25.277 18.7619C25.277 18.6546 25.3843 18.5473 25.5988 18.6546Z" fill="#FFDCC5"/>
        <path d="M17.8745 16.1869C16.3725 16.0796 15.1925 17.6888 15.2997 18.9762C15.407 19.7271 16.2653 21.0145 17.4454 21.1218C19.0546 21.3364 20.5565 21.1218 21.3075 19.8344C21.8439 19.0835 21.9512 18.0107 21.3075 17.2597C20.9856 16.8306 20.1274 16.2942 19.591 16.2942C19.591 16.0796 19.6982 15.5432 19.4837 15.4359C19.1618 15.2214 18.84 15.6505 18.84 15.8651C18.6254 15.6505 18.3036 15.3286 18.089 15.5432C17.7672 15.5432 17.7672 15.9723 17.8745 16.1869Z" fill="#FFDCC5"/>
        <path d="M17.8744 16.1868C16.3725 16.1868 15.407 17.5814 15.407 18.8688C15.407 19.6197 15.9434 20.1561 16.3725 20.5853C16.6943 20.7998 17.0161 21.0144 17.2307 21.0144C17.5526 21.1217 17.9817 21.1217 18.1963 21.1217C18.9472 21.1217 19.5909 21.0144 20.2346 20.6925C20.8783 20.3707 21.2001 19.8343 21.4147 19.1906C21.6292 18.5469 21.5219 17.9032 21.2001 17.2596C20.771 16.7232 20.2346 16.294 19.5909 16.1868C19.5909 15.9722 19.5909 15.8649 19.5909 15.7576C19.5909 15.6503 19.5909 15.4358 19.4836 15.3285C19.3763 15.2212 19.2691 15.2212 19.1618 15.3285C19.0545 15.4358 18.9472 15.5431 18.9472 15.6504C18.6254 15.4358 18.4108 15.2212 18.1963 15.3285C18.089 15.4358 17.9817 15.5431 17.9817 15.6504C17.8744 15.9722 17.8744 15.9722 17.8744 16.1868ZM17.8744 16.1868C17.7671 16.0795 17.7671 15.8649 17.7671 15.7576C17.7671 15.5431 17.8744 15.4358 18.089 15.3285C18.3035 15.2212 18.5181 15.2212 18.6254 15.4358C18.7327 15.5431 18.8399 15.6503 18.9472 15.8649H18.8399C18.8399 15.6503 18.9472 15.5431 19.0545 15.4358C19.1618 15.3285 19.4836 15.3285 19.5909 15.4358C19.6982 15.6503 19.6982 15.7576 19.6982 15.9722C19.6982 16.1867 19.6982 16.294 19.5909 16.4013C20.02 16.4013 20.3419 16.5086 20.5564 16.7232C20.8783 16.9377 21.2001 17.1523 21.3074 17.4741C21.8438 18.1178 21.8438 18.8688 21.6292 19.6197C21.4147 20.3707 20.8783 20.9071 20.3419 21.2289C19.6982 21.5508 18.9472 21.6581 18.1963 21.6581C16.8016 21.8726 15.2997 20.7998 15.1924 19.2979C15.1924 18.5469 15.5142 17.9032 15.9434 17.3668C16.4798 16.5086 17.2307 16.0795 17.8744 16.1868Z" fill="#823A3A"/>
        <path d="M18.0891 16.2943C18.0891 16.4016 17.9819 16.4016 17.9819 16.5089C17.9819 16.5089 17.9818 16.5089 17.8746 16.6162C17.8746 16.6162 17.7673 16.6162 17.7673 16.7235C17.7673 16.7235 17.66 16.7235 17.66 16.8307C17.66 16.8307 17.5527 16.8307 17.5527 16.938H17.4454H17.3382H17.2309C17.1236 16.938 17.1236 16.938 17.0163 16.938H16.909C16.8018 16.938 16.8018 16.8307 16.8018 16.8307C16.8018 16.7235 16.909 16.7235 16.909 16.7235C16.909 16.7235 16.9091 16.7235 17.0163 16.7235H17.1236H17.2309H17.3382H17.4454H17.5527H17.66H17.7673H17.8746C17.8746 16.7235 17.9819 16.7235 17.9819 16.6162C17.9819 16.2943 17.9819 16.2943 18.0891 16.2943C18.0891 16.187 17.9819 16.2943 18.0891 16.2943C18.0891 16.187 18.0891 16.187 18.0891 16.2943Z" fill="#FFCA9F"/>
        <path d="M18.4115 16.4014C18.4115 16.5086 18.4115 16.6159 18.4115 16.6159V16.7232C18.4115 16.8305 18.4115 16.8305 18.3042 16.9378C18.3042 17.0451 18.197 17.045 18.197 17.1523C18.197 17.1523 18.197 17.2596 18.0897 17.2596C18.0897 17.2596 18.0897 17.3669 17.9824 17.3669C17.9824 17.3669 17.8751 17.3669 17.8751 17.4742C17.8751 17.4742 17.7678 17.4742 17.7678 17.5814L17.6606 17.6887C17.6606 17.6887 17.5533 17.6887 17.5533 17.796H17.446C17.3387 17.796 17.3387 17.796 17.2314 17.9033C17.1241 17.9033 17.1242 17.9033 17.0169 17.9033H16.9096C16.9096 17.9033 16.9096 17.9033 16.8023 17.9033H16.695C16.5877 17.9033 16.5878 17.9033 16.5878 17.9033C16.4805 17.9033 16.4805 17.9033 16.4805 17.796C16.4805 17.6887 16.4805 17.6887 16.5878 17.6887C16.5878 17.6887 16.5877 17.6887 16.695 17.6887H16.8023C16.8023 17.6887 16.8023 17.6887 16.9096 17.6887C16.9096 17.6887 16.9096 17.6887 17.0169 17.6887C17.0169 17.6887 17.1241 17.6887 17.2314 17.6887C17.3387 17.6887 17.3387 17.6887 17.446 17.6887H17.5533H17.6606H17.7678H17.8751C17.8751 17.6887 17.9824 17.6887 17.9824 17.5814C17.9824 17.5814 18.0897 17.5815 18.0897 17.4742C18.0897 17.4742 18.0897 17.4742 18.197 17.3669C18.197 17.3669 18.1969 17.3669 18.3042 17.2596L18.4115 17.1523L18.5188 17.045V16.9378C18.3042 16.5086 18.3042 16.5086 18.4115 16.4014C18.3042 16.5086 18.3042 16.4014 18.4115 16.4014Z" fill="#FFCA9F"/>
        <path d="M18.8405 16.7236C18.8405 16.9382 18.8405 17.0455 18.8405 17.1527C18.8405 17.26 18.8405 17.4746 18.7332 17.5819C18.626 17.6891 18.6259 17.9037 18.5187 18.011L18.4114 18.1183L18.3041 18.2256L18.1968 18.3328C18.1968 18.3328 18.1968 18.3328 18.0895 18.3328C18.0895 18.3328 17.9823 18.3328 17.9823 18.4401H17.875C17.7677 18.4401 17.7677 18.4401 17.6604 18.5474C17.5531 18.5474 17.5531 18.5474 17.4459 18.5474C17.3386 18.5474 17.3386 18.5474 17.3386 18.5474C17.2313 18.5474 17.2313 18.5474 17.2313 18.5474C17.124 18.5474 17.124 18.5474 17.124 18.4401C17.124 18.3328 17.124 18.3328 17.2313 18.3328C17.2313 18.3328 17.2313 18.3328 17.3386 18.3328H17.4459C17.4459 18.3328 17.5531 18.3328 17.6604 18.3328C17.7677 18.3328 17.7677 18.3328 17.875 18.3328H17.9823H18.0895C18.0895 18.3328 18.1968 18.3328 18.1968 18.2256C18.1968 18.2256 18.3041 18.2255 18.3041 18.1183L18.4114 18.011C18.5187 17.9037 18.6259 17.7964 18.6259 17.5819C18.7332 17.4746 18.7332 17.26 18.7332 17.1527C18.7332 17.0455 18.7332 16.9382 18.8405 16.7236Z" fill="#FFCA9F"/>
        <path d="M19.2691 16.7236C19.2691 16.7236 19.3764 16.9382 19.3764 17.1527C19.3764 17.26 19.4836 17.4746 19.4836 17.5819C19.4836 17.6891 19.4836 17.7964 19.4836 17.7964C19.4836 17.9037 19.4836 18.011 19.4836 18.1183C19.4836 18.2255 19.4836 18.3328 19.3764 18.4401C19.3764 18.4401 19.3764 18.5474 19.2691 18.5474C19.2691 18.5474 19.2691 18.6547 19.1618 18.6547C19.1618 18.762 19.0545 18.762 18.9472 18.8692C18.9472 18.8692 18.8399 18.8692 18.8399 18.9765C18.8399 18.9765 18.7327 18.9765 18.7327 19.0838H18.6254H18.5181C18.4108 19.0838 18.4108 19.0838 18.4108 19.1911C18.3036 19.1911 18.3035 19.1911 18.3035 19.1911C18.1963 19.1911 18.1963 19.1911 18.1963 19.0838C18.1963 18.9765 18.1963 18.9765 18.3035 18.9765C18.3035 18.9765 18.3036 18.9765 18.4108 18.9765H18.5181C18.5181 18.9765 18.5181 18.9765 18.6254 18.9765C18.6254 18.9765 18.6254 18.9765 18.7327 18.9765H18.8399C18.8399 18.9765 18.9472 18.9765 18.9472 18.8692L19.0545 18.762C19.0545 18.762 19.0545 18.6547 19.1618 18.6547C19.1618 18.6547 19.1618 18.5474 19.2691 18.5474C19.2691 18.4401 19.3764 18.4401 19.3764 18.3328C19.3764 18.2256 19.3764 18.1183 19.3764 18.1183C19.3764 18.011 19.3764 17.9037 19.3764 17.9037C19.3764 17.6891 19.3764 17.5819 19.3764 17.4746C19.3764 17.3673 19.3764 17.26 19.2691 17.1527C19.1618 16.8309 19.1618 16.7236 19.2691 16.7236Z" fill="#FFCA9F"/>
        <path d="M19.5922 16.5086C19.8067 16.6159 19.914 16.7232 20.0213 16.8305C20.1286 16.8305 20.1286 16.9378 20.2359 16.9378C20.3432 17.045 20.3431 17.045 20.4504 17.1523C20.5577 17.2596 20.5577 17.2596 20.665 17.3669C20.7723 17.4741 20.7723 17.5814 20.7723 17.6887C20.7723 17.796 20.8796 17.9033 20.8796 18.0106C20.8796 18.1178 20.8796 18.2251 20.8796 18.3324C20.8796 18.4397 20.8796 18.547 20.8796 18.6542V18.7615V18.8688C20.8796 18.9761 20.8796 18.9761 20.7723 19.0834C20.7723 19.1906 20.7723 19.1906 20.665 19.1906C20.665 19.2979 20.5577 19.2979 20.5577 19.2979C20.5577 19.4052 20.4504 19.4052 20.4504 19.4052C20.3431 19.4052 20.3432 19.2979 20.3432 19.2979C20.3432 19.2979 20.3431 19.2979 20.4504 19.1906C20.4504 19.1906 20.4504 19.0834 20.5577 19.0834C20.5577 19.0834 20.5577 18.9761 20.665 18.8688V18.7615V18.6542C20.665 18.547 20.665 18.4397 20.665 18.4397C20.665 18.3324 20.665 18.2251 20.665 18.2251C20.665 18.1178 20.665 18.0106 20.5577 17.9033C20.5577 17.796 20.4504 17.6887 20.4504 17.6887C20.4504 17.5814 20.3432 17.5814 20.3432 17.4742C20.2359 17.3669 20.2359 17.3669 20.1286 17.2596C20.0213 17.1523 20.0213 17.1523 19.914 17.1523C19.8067 17.045 19.6995 17.045 19.5922 16.9378C19.5922 16.5086 19.5922 16.5086 19.5922 16.5086C19.4849 16.5086 19.4849 16.5086 19.5922 16.5086Z" fill="#FFCA9F"/>
        <path d="M16.5872 16.6162C15.8362 17.1526 15.1925 18.1181 15.2998 18.9764C15.4071 19.7273 16.2654 21.0147 17.4454 21.122C18.9474 21.3366 20.4493 21.122 21.093 20.0492C18.9474 20.1565 16.8018 18.6545 16.5872 16.6162Z" fill="#FFDCC5"/>
        <path d="M23.8839 18.8689C22.2747 18.7616 20.88 20.6926 21.2019 22.0873C21.5237 23.5892 23.7766 23.4819 24.9567 23.3746C25.9222 23.2674 27.4241 22.9455 27.6387 21.8727C27.746 21.1217 27.5314 20.2635 27.1023 19.7271C26.8877 19.4052 26.3513 18.9761 25.8149 19.0834C25.7076 18.7616 25.4931 18.4397 25.064 18.4397C25.064 18.2252 24.9567 17.6888 24.6348 17.6888C24.2057 17.5815 24.0984 18.1179 24.2057 18.4397C23.8839 17.9033 23.2402 18.3324 23.8839 18.8689Z" fill="#FFF0E8"/>
        <path d="M23.8839 18.9762C22.4892 18.9762 21.4164 20.2636 21.3092 21.4437C21.2019 22.0873 21.5237 22.731 22.0601 23.0529C22.7038 23.3747 23.3475 23.3747 23.9912 23.3747C24.7421 23.3747 25.2785 23.2674 26.0295 23.1602C26.6732 22.9456 27.3169 22.731 27.5314 22.1946C27.746 21.5509 27.6387 20.9072 27.4241 20.2636C27.3169 19.9417 27.1023 19.6199 26.7805 19.5126C26.5659 19.298 26.1368 19.0835 25.9222 19.1908C25.7077 18.8689 25.4931 18.6544 25.1713 18.5471C25.1713 18.4398 25.064 18.2252 25.064 18.1179C25.064 18.0107 24.9567 17.7961 24.8494 17.7961C24.5276 17.6888 24.4203 18.1179 24.4203 18.4398C24.2057 18.3325 23.8839 18.118 23.7766 18.2252C23.6693 18.2252 23.6693 18.3325 23.6693 18.5471C23.7766 18.7616 23.7766 18.7616 23.8839 18.9762ZM23.8839 18.8689C23.7766 18.7616 23.6693 18.6544 23.5621 18.5471C23.4548 18.4398 23.562 18.1179 23.6693 18.1179C23.9912 17.9034 24.313 18.2252 24.4203 18.4398H24.313C24.313 18.2252 24.313 18.1179 24.313 17.9034C24.313 17.6888 24.6348 17.5815 24.7421 17.5815C24.9567 17.5815 25.064 17.7961 25.1713 18.0107C25.2786 18.2252 25.2786 18.3325 25.1713 18.5471C25.3858 18.4398 25.6004 18.5471 25.7077 18.6543C25.815 18.7616 25.9222 18.9762 25.9222 19.1908C26.3513 19.0835 26.6732 19.298 26.8877 19.5126C27.2096 19.7272 27.4242 20.049 27.6387 20.2636C27.9606 20.9072 28.0678 21.6582 27.746 22.4092C27.4242 23.1601 26.6732 23.3747 26.0295 23.482C25.2785 23.5893 24.7421 23.6966 23.9912 23.6966C23.2402 23.6966 22.5965 23.6965 21.9529 23.2674C21.631 23.0529 21.3092 22.8383 21.2019 22.5165C21.0946 22.1946 20.9873 21.7655 20.9873 21.5509C21.0946 20.8 21.4164 20.2636 21.8456 19.7272C22.4893 19.1908 23.1329 18.8689 23.8839 18.8689Z" fill="#823A3A"/>
        <path d="M23.7769 19.1909C23.7769 19.2982 23.7769 19.2982 23.7769 19.1909C23.6696 19.2982 23.6696 19.4055 23.5623 19.4055L23.455 19.5128L23.3478 19.6201L23.2405 19.7273L23.1332 19.8346C23.1332 19.8346 23.0259 19.9419 22.9186 19.9419C22.8114 19.9419 22.8114 19.9419 22.7041 20.0492C22.5968 20.0492 22.5968 20.0492 22.4895 20.1565H22.3822H22.275H22.1677C22.0604 20.1565 22.0604 20.1565 22.0604 20.1565C21.9531 20.1565 21.9531 20.1564 21.9531 20.0492C21.9531 19.9419 21.9531 19.9419 22.0604 19.9419C22.0604 19.9419 22.0604 19.9419 22.1677 19.9419H22.275H22.3822H22.4895H22.5968C22.5968 19.9419 22.7041 19.9419 22.7041 19.8346C22.7041 19.8346 22.8114 19.8346 22.8114 19.7273L22.9186 19.6201L23.0259 19.5128L23.1332 19.4055L23.2405 19.2982C23.5623 19.4055 23.6696 19.2982 23.7769 19.1909C23.6696 19.2982 23.6696 19.1909 23.7769 19.1909C23.6696 19.1909 23.6696 19.1909 23.7769 19.1909Z" fill="#FFDCC5"/>
        <path d="M22.2748 20.8001C22.4894 20.8001 22.5966 20.6929 22.7039 20.6929C22.9185 20.5856 23.2403 20.4783 23.4549 20.2637C23.5622 20.2637 23.5622 20.1565 23.6694 20.1565L23.7767 20.0492C23.7767 20.0492 23.7767 19.9419 23.884 19.9419C23.884 19.9419 23.884 19.8346 23.9913 19.8346C23.9913 19.8346 23.9913 19.7273 24.0986 19.7273C24.0986 19.7273 24.0986 19.6201 24.2058 19.6201V19.5128C24.2058 19.5128 24.2058 19.4055 24.3131 19.4055C24.3131 19.4055 24.3131 19.5128 24.2058 19.5128V19.6201V19.7273C24.2058 19.7273 24.2059 19.8346 24.0986 19.8346C24.0986 19.8346 24.0986 19.9419 23.9913 19.9419C23.9913 19.9419 23.9913 20.0492 23.884 20.0492L23.7767 20.1565C23.6694 20.2637 23.6695 20.2637 23.5622 20.371C23.3476 20.5856 23.0258 20.6928 22.8112 20.8001C22.5966 20.8001 22.4894 20.9074 22.2748 20.8001C22.2748 20.9074 22.2748 20.9074 22.2748 20.8001C22.1675 20.9074 22.1675 20.9074 22.2748 20.8001Z" fill="#FFDCC5"/>
        <path d="M23.0258 21.5513C23.2403 21.5513 23.3476 21.444 23.4549 21.444C23.5622 21.3367 23.7767 21.2295 23.884 21.1222C23.9913 21.0149 23.9913 21.0149 24.0986 20.9076C24.2059 20.8003 24.2058 20.8003 24.3131 20.6931V20.5858V20.4785C24.3131 20.4785 24.3131 20.3712 24.4204 20.3712C24.4204 20.2639 24.5277 20.1566 24.5277 20.0494C24.5277 19.9421 24.5277 19.8348 24.635 19.7275V19.6203V19.513C24.635 19.4057 24.635 19.4057 24.635 19.2984C24.635 19.1911 24.635 19.1911 24.635 19.0838C24.635 18.9766 24.635 18.9766 24.635 18.9766V19.0838C24.635 19.0838 24.635 19.1911 24.635 19.2984C24.635 19.4057 24.635 19.4057 24.635 19.513V19.6203V19.7275C24.635 19.8348 24.635 19.9421 24.635 20.0494C24.635 20.1566 24.635 20.2639 24.5277 20.3712C24.5277 20.3712 24.5277 20.4785 24.4204 20.4785V20.5858V20.6931C24.4204 20.8003 24.3131 20.9076 24.2058 21.0149C24.0986 21.1222 24.0986 21.2295 23.9913 21.2295C23.884 21.3367 23.6695 21.444 23.5622 21.5513C23.4549 21.6586 23.2403 21.6586 23.2403 21.7659H23.133C23.0257 21.7659 23.0258 21.7659 23.0258 21.5513C22.9185 21.6586 22.9185 21.6586 23.0258 21.5513Z" fill="#FFDCC5"/>
        <path d="M24.8493 18.9766C24.9566 19.1911 25.0639 19.2984 25.0639 19.513C25.0639 19.6202 25.0639 19.7275 25.1712 19.8348C25.1712 19.9421 25.1712 20.0494 25.1712 20.1567C25.1712 20.2639 25.1712 20.3712 25.1712 20.4785C25.1712 20.5858 25.1712 20.6931 25.0639 20.8003V20.9076V21.0149C25.0639 21.1222 25.0639 21.1222 24.9566 21.2295C24.9566 21.3367 24.9566 21.3367 24.8493 21.3367L24.742 21.444L24.6348 21.5513L24.5275 21.6586L24.4202 21.7659L24.3129 21.8731C24.2056 21.9804 24.2056 21.9804 24.0984 21.9804C23.9911 21.9804 23.9911 22.0877 23.9911 22.0877C23.8838 22.195 23.8838 22.195 23.8838 22.195V22.0877C23.8838 22.0877 23.8838 22.0877 23.9911 21.9804L24.0984 21.8731C24.2056 21.8731 24.2056 21.7659 24.3129 21.7659L24.4202 21.6586L24.5275 21.5513L24.6348 21.444L24.742 21.3367L24.8493 21.2295L24.9566 21.1222C24.9566 21.1222 24.9566 21.0149 25.0639 21.0149V20.9076V20.8003C25.0639 20.6931 25.1712 20.5858 25.1712 20.4785C25.1712 20.3712 25.1712 20.2639 25.1712 20.1567C25.1712 20.0494 25.1712 19.9421 25.1712 19.8348C25.1712 19.7275 25.1712 19.6202 25.1712 19.513C25.0639 19.2984 24.9566 19.1911 24.8493 18.9766C24.8493 19.0838 24.8493 19.0838 24.8493 18.9766Z" fill="#FFDCC5"/>
        <path d="M25.1717 18.7617C25.3863 18.9763 25.4935 19.0836 25.6008 19.2981C25.7081 19.4054 25.7081 19.5127 25.8154 19.62C25.8154 19.7272 25.8154 19.7272 25.9226 19.8345C25.9226 19.9418 25.9227 19.9418 26.0299 20.0491C26.0299 20.1564 26.1372 20.2637 26.1372 20.4782C26.1372 20.5855 26.1372 20.5855 26.1372 20.6928V20.8V20.9073C26.1372 21.0146 26.1372 21.0146 26.1372 21.1219C26.1372 21.2292 26.1372 21.2292 26.1372 21.3364C26.1372 21.4437 26.1372 21.4437 26.1372 21.551V21.6583V21.7656V21.8729V21.9801V22.0874V22.1947C26.1372 22.1947 26.1372 22.1947 26.1372 22.302C26.1372 22.302 26.1372 22.302 26.0299 22.4093L25.9226 22.5165C25.8154 22.6238 25.8154 22.6238 25.7081 22.7311C25.6008 22.8384 25.6008 22.8384 25.4935 22.8384C25.3863 22.9457 25.3862 22.9457 25.3862 22.9457C25.279 23.0529 25.1717 22.9457 25.1717 22.9457C25.0644 22.8384 25.1717 22.7311 25.1717 22.7311C25.1717 22.7311 25.279 22.7311 25.279 22.6238C25.279 22.6238 25.3863 22.5165 25.4935 22.5165C25.6008 22.5165 25.6008 22.4093 25.7081 22.302L25.8154 22.1947C25.8154 22.1947 25.8154 22.1947 25.8154 22.0874C25.8154 22.0874 25.8154 22.0874 25.8154 21.9801C25.8154 21.9801 25.8154 21.9801 25.8154 21.8729C25.8154 21.8729 25.8154 21.8729 25.8154 21.7656C25.8154 21.7656 25.8154 21.7656 25.8154 21.6583V21.4437V21.3364V21.2292C25.8154 21.1219 25.8154 21.1219 25.9226 21.0146C25.9226 20.9073 25.9226 20.9073 25.9226 20.8C25.9226 20.6928 25.9226 20.6928 25.9226 20.5855V20.4782V20.3709C25.9226 20.2636 25.9226 20.2637 25.9226 20.1564C25.9226 20.0491 25.9226 19.9418 25.8154 19.7272C25.8154 19.62 25.8154 19.62 25.7081 19.5127C25.7081 19.4054 25.7081 19.4054 25.6008 19.2981C25.6008 19.1908 25.4935 19.0836 25.4935 18.9763C25.3863 18.869 25.279 18.7617 25.1717 18.7617Z" fill="#FFDCC5"/>
        <path d="M26.0293 19.2983C26.1366 19.2983 26.1366 19.4056 26.0293 19.2983C26.1366 19.4056 26.1366 19.4056 26.0293 19.2983C26.1366 19.4056 26.1366 19.5129 26.2439 19.5129C26.2439 19.5129 26.2438 19.6202 26.3511 19.6202C26.3511 19.6202 26.3511 19.7275 26.4584 19.7275C26.4584 19.7275 26.4584 19.8347 26.5657 19.8347C26.5657 19.8347 26.5657 19.942 26.5657 20.0493V20.1566V20.2639C26.5657 20.3711 26.5657 20.3712 26.5657 20.4784C26.5657 20.5857 26.5657 20.5857 26.5657 20.5857C26.5657 20.5857 26.5657 20.5857 26.5657 20.693C26.5657 20.693 26.5657 20.693 26.5657 20.8003V20.9075V21.0148V21.1221L26.4584 21.2294L26.3511 21.1221C26.3511 21.1221 26.3511 21.1221 26.3511 21.0148C26.3511 21.0148 26.3511 21.0148 26.3511 20.9075V20.8003C26.3511 20.8003 26.3511 20.8003 26.3511 20.693C26.3511 20.693 26.3511 20.693 26.3511 20.5857V20.3711V20.2639C26.3511 20.2639 26.3511 20.2639 26.3511 20.1566V20.0493V19.942V19.8347C26.3511 19.8347 26.3512 19.7275 26.2439 19.7275C26.2439 19.7275 26.2439 19.6202 26.1366 19.6202C26.1366 19.6202 26.1366 19.5129 26.0293 19.5129C26.1366 19.4056 26.1366 19.4056 26.0293 19.2983Z" fill="#FFDCC5"/>
        <path d="M21.8447 19.9419C21.201 20.6929 20.9864 21.4438 21.0937 22.1948C21.4156 23.6967 23.6685 23.5894 24.8485 23.4821C25.385 23.3749 26.0286 23.2676 26.565 23.053C25.4922 23.053 24.4194 22.7312 23.6685 22.3021C22.8102 21.8729 21.952 20.9074 21.8447 19.9419Z" fill="#FFF0E8"/>
        <path d="M30.4273 16.9386C29.14 17.0459 27.7453 18.0114 27.638 19.2988C27.5308 20.2643 28.4963 21.1225 29.6764 21.3371C31.1783 21.6589 32.6802 21.4444 33.4312 20.908C34.7186 19.9425 34.1821 18.226 33.3239 18.226C33.2166 17.5823 32.573 16.9386 32.0366 17.1532C32.0366 16.9386 32.0365 16.6167 31.9293 16.5095C31.7147 16.4022 31.5002 16.724 31.5002 16.9386C31.1783 16.0804 30.3201 16.1876 30.4273 16.9386Z" fill="#FFF0E8"/>
        <path d="M30.4273 16.9386C29.2472 17.0459 28.1744 17.7969 27.7453 18.9769C27.5307 19.6206 27.7453 20.157 28.1744 20.5861C28.6035 21.0153 29.0327 21.3371 29.6763 21.3371C30.7492 21.5517 32.0365 21.5517 33.1093 21.0153C33.6457 20.6934 33.8603 20.2643 33.9676 19.7279C33.9676 19.4061 33.9676 19.0842 33.8603 18.9769C33.753 18.6551 33.5385 18.4405 33.2166 18.4405C33.1093 17.7969 32.4657 17.2604 31.9292 17.3677C31.9292 17.1532 31.9292 16.8313 31.822 16.7241C31.7147 16.6168 31.5001 16.8313 31.3928 17.0459C31.2856 16.8313 31.071 16.6168 30.8564 16.6168C30.6419 16.4022 30.5346 16.6168 30.4273 16.9386ZM30.4273 16.9386C30.4273 16.8313 30.4273 16.724 30.4273 16.5095C30.5346 16.4022 30.6419 16.2949 30.8564 16.2949C31.1783 16.2949 31.3929 16.6168 31.5001 16.8313H31.3928C31.3928 16.724 31.5001 16.6168 31.6074 16.5095C31.7147 16.4022 31.822 16.4022 32.0365 16.4022C32.1438 16.5095 32.1438 16.6168 32.1438 16.7241C32.1438 16.8313 32.1438 16.9386 32.1438 17.0459C32.4657 16.8313 32.8948 17.0459 33.1093 17.2605C33.3239 17.475 33.5385 17.9041 33.5385 18.1187C33.8603 18.1187 34.1822 18.4405 34.2894 18.6551C34.504 18.9769 34.504 19.2988 34.504 19.5133C34.504 20.157 34.0749 20.6934 33.5385 21.1226C32.4657 21.7662 31.1783 21.659 29.9982 21.4444C29.3545 21.3371 28.8181 21.0153 28.389 20.5861C27.8526 20.157 27.7453 19.4061 27.9598 18.8697C28.0671 17.6896 29.2472 16.9386 30.4273 16.9386Z" fill="#823A3A"/>
        <path d="M30.6414 17.3674C30.6414 17.3674 30.5341 17.4747 30.3196 17.5819C30.2123 17.6892 30.105 17.6892 29.9977 17.7965C29.8905 17.7965 29.8905 17.9038 29.7832 17.9038C29.6759 17.9038 29.6759 18.0111 29.5686 18.0111C29.4613 18.0111 29.4613 18.1184 29.3541 18.1184H29.2468H29.1395H29.0322C28.9249 18.1184 28.9249 18.1184 28.8177 18.1184C28.7104 18.1184 28.7104 18.1184 28.7104 18.1184H28.6031C28.4958 18.1184 28.4958 18.1184 28.4958 18.1184C28.3885 18.1184 28.2812 18.0111 28.2812 17.9038C28.2812 17.7965 28.3885 17.6892 28.4958 17.6892C28.4958 17.6892 28.4958 17.6892 28.6031 17.6892H28.7104H28.8177C28.8177 17.6892 28.9249 17.6892 29.0322 17.6892H29.1395H29.2468H29.3541H29.4613C29.5686 17.6892 29.5686 17.6892 29.6759 17.5819C29.7832 17.5819 29.7832 17.582 29.8905 17.4747C29.9977 17.4747 29.9977 17.3674 30.105 17.3674C30.2123 17.2601 30.3196 17.2601 30.4269 17.1528C30.4269 17.3674 30.5341 17.3674 30.6414 17.3674Z" fill="#FFDCC5"/>
        <path d="M28.7109 18.7623C28.9255 18.7623 29.0328 18.7623 29.1401 18.655C29.3546 18.5478 29.6765 18.4405 29.891 18.3332C29.9983 18.3332 29.9983 18.2259 30.1056 18.2259C30.2129 18.2259 30.2129 18.1186 30.3201 18.1186C30.3201 18.1186 30.4274 18.1186 30.4274 18.0114L30.5347 17.9041C30.5347 17.9041 30.5347 17.7968 30.642 17.7968C30.642 17.7968 30.642 17.7968 30.7493 17.6895L30.8566 17.5822C30.8566 17.5822 30.8566 17.475 30.9638 17.475C30.9638 17.475 30.9638 17.5822 30.8566 17.5822L30.7493 17.6895C30.7493 17.6895 30.7493 17.7968 30.642 17.7968C30.642 17.7968 30.642 17.9041 30.5347 17.9041C30.5347 17.9041 30.5347 18.0114 30.4274 18.0114L30.3201 18.2259C30.2129 18.3332 30.2129 18.3332 30.1056 18.4405C29.9983 18.5478 29.9983 18.5478 29.891 18.5478C29.5692 18.7623 29.2473 18.8696 29.1401 18.9769C29.0328 18.9769 28.9255 19.0842 28.8182 19.0842C28.7109 19.0842 28.7109 19.0842 28.7109 19.0842C28.7109 18.9769 28.7109 18.9769 28.7109 18.7623Z" fill="#FFDCC5"/>
        <path d="M29.7836 19.2987C29.8909 19.2987 29.8909 19.2987 29.7836 19.2987C29.8909 19.1915 29.9981 19.1915 30.1054 19.0842C30.1054 19.0842 30.2127 18.9769 30.32 18.9769C30.4273 18.9769 30.4273 18.8696 30.5346 18.8696C30.6418 18.8696 30.6418 18.7623 30.7491 18.7623L30.8564 18.655L30.9637 18.5478C30.9637 18.4405 31.071 18.4405 31.071 18.3332C31.071 18.3332 31.0709 18.2259 31.1782 18.2259C31.1782 18.2259 31.1782 18.1186 31.2855 18.1186C31.2855 18.1186 31.2855 18.0114 31.3928 18.0114V17.9041V17.7968V17.6895C31.3928 17.5822 31.3928 17.5822 31.3928 17.5822C31.3928 17.5822 31.3928 17.6895 31.3928 17.7968V17.9041V18.0114V18.1186V18.2259C31.3928 18.2259 31.3928 18.3332 31.2855 18.3332C31.2855 18.3332 31.2855 18.4405 31.1782 18.4405C31.1782 18.5478 31.071 18.5478 31.071 18.655C31.071 18.655 31.071 18.7623 30.9637 18.7623L30.8564 18.8696C30.7491 18.9769 30.7491 18.9769 30.6418 19.0842C30.5345 19.1915 30.5346 19.1914 30.4273 19.1914C30.32 19.1914 30.32 19.2987 30.2127 19.2987C30.1054 19.406 29.9982 19.406 29.9982 19.5133H29.8909C29.7836 19.5133 29.7836 19.5133 29.7836 19.2987C29.6763 19.406 29.6763 19.2987 29.7836 19.2987Z" fill="#FFDCC5"/>
        <path d="M30.8564 19.513C30.9637 19.4057 31.071 19.2984 31.1783 19.1912C31.3928 18.9766 31.6074 18.762 31.7147 18.4402C31.7147 18.3329 31.822 18.3329 31.822 18.2256C31.822 18.1184 31.822 18.0111 31.9293 18.0111V17.9038V17.7965V17.6892V17.5819V17.4747C31.9293 17.4747 31.9293 17.4747 31.9293 17.3674C31.9293 17.3674 31.9292 17.2601 31.822 17.2601C31.822 17.1528 31.7147 17.1528 31.7147 17.1528C31.7147 17.1528 31.7147 17.1528 31.822 17.2601C31.822 17.2601 31.822 17.3674 31.9293 17.3674C31.9293 17.3674 31.9293 17.3674 31.9293 17.4747V17.5819V17.6892V17.7965V17.9038V18.0111C31.9293 18.1184 31.9293 18.2256 31.9293 18.2256C31.9293 18.3329 31.822 18.4402 31.822 18.4402C31.7147 18.762 31.5001 19.0839 31.2856 19.1912C31.1783 19.2984 31.071 19.4057 31.071 19.4057C30.9637 19.6203 30.9637 19.6203 30.8564 19.513C30.8564 19.6203 30.8564 19.6203 30.8564 19.513Z" fill="#FFDCC5"/>
        <path d="M32.0359 17.3676C32.1431 17.4749 32.2504 17.5821 32.3577 17.6894C32.465 17.7967 32.5723 17.904 32.5723 18.1185C32.5723 18.2258 32.6796 18.3331 32.6796 18.3331C32.6796 18.4404 32.6796 18.5477 32.6796 18.6549C32.6796 18.7622 32.6796 18.8695 32.6796 18.9768C32.6796 19.0841 32.6795 19.1913 32.5723 19.1913C32.5723 19.2986 32.465 19.4059 32.465 19.4059C32.465 19.4059 32.465 19.5132 32.3577 19.5132C32.3577 19.5132 32.3577 19.6205 32.2504 19.6205C32.2504 19.7278 32.1432 19.7277 32.1432 19.7277L32.0359 19.835C31.9286 19.9423 31.9286 19.9423 31.9286 19.9423H31.8213V19.835C31.8213 19.835 31.8213 19.835 31.9286 19.7277L32.0359 19.6205L32.1432 19.5132C32.1432 19.5132 32.1431 19.5132 32.2504 19.4059C32.2504 19.4059 32.2504 19.2986 32.3577 19.2986C32.3577 19.1913 32.465 19.1913 32.465 19.0841C32.465 18.9768 32.465 18.9768 32.5723 18.8695C32.5723 18.7622 32.5723 18.6549 32.5723 18.6549C32.5723 18.5477 32.5723 18.4404 32.5723 18.4404C32.5723 18.3331 32.5723 18.2258 32.465 18.2258C32.3577 18.1185 32.3577 17.904 32.2504 17.7967C32.1431 17.6894 32.1431 17.5821 32.0359 17.5821C32.0359 17.3676 32.0359 17.3676 32.0359 17.3676C31.9286 17.3676 31.9286 17.3676 32.0359 17.3676C32.0359 17.2603 32.0359 17.2603 32.0359 17.3676Z" fill="#FFDCC5"/>
        <path d="M33.1095 18.4404C33.1095 18.4404 33.1095 18.5477 33.1095 18.655C33.1095 18.7623 33.1095 18.9768 33.1095 19.1914C33.1095 19.2987 33.1095 19.406 33.0022 19.5132C33.0022 19.6205 32.8949 19.7278 32.8949 19.7278L32.7876 19.8351C32.7876 19.8351 32.7877 19.8351 32.6804 19.8351H32.5731H32.4658V19.7278C32.4658 19.7278 32.4658 19.7278 32.5731 19.7278C32.5731 19.7278 32.5731 19.7278 32.6804 19.6205C32.6804 19.6205 32.7876 19.5132 32.7876 19.406C32.7876 19.2987 32.8949 19.1914 32.8949 19.0841C32.8949 18.8696 32.8949 18.655 32.8949 18.5477C33.1095 18.5477 33.1095 18.4404 33.1095 18.4404Z" fill="#FFDCC5"/>
        <path d="M30.9629 20.05C29.8901 19.5136 29.0319 18.6553 28.8173 17.5825C28.1736 18.0116 27.8518 18.6553 27.7445 19.4063C27.6372 20.3718 28.6027 21.2301 29.7828 21.4446C31.2847 21.7665 32.7867 21.5519 33.5376 21.0155C33.7522 20.801 33.9668 20.5864 34.074 20.4791C32.6794 20.4791 31.4993 20.2645 30.9629 20.05Z" fill="#FFF0E8"/>
        <path d="M27.5292 21.6587C26.1346 21.9805 24.8472 23.1606 24.9545 24.5553C25.0618 25.6281 26.1346 26.2718 27.2074 26.379C28.8166 26.4863 30.4258 26.0572 30.9622 25.5208C32.1423 24.3407 31.2841 22.6242 30.4258 22.7315C30.2113 22.0878 29.5676 21.4441 28.9239 21.766C28.9239 21.5514 28.9239 21.1223 28.7093 21.1223C28.4948 21.015 28.2802 21.3369 28.2802 21.5514C28.1729 20.8005 27.3147 21.015 27.5292 21.6587Z" fill="#FFDCC5"/>
        <path d="M27.5297 21.6587C26.3496 21.9806 25.2768 22.9461 25.0622 24.1262C24.955 24.7699 25.1695 25.3063 25.7059 25.7354C26.2423 26.1645 26.7787 26.3791 27.4224 26.3791C28.6025 26.4864 29.8899 26.2718 30.9627 25.6281C31.4991 25.199 31.7136 24.7699 31.7136 24.1262C31.7136 23.8043 31.6063 23.4825 31.3918 23.3752C31.1772 23.2679 30.9626 22.8388 30.6408 22.8388C30.4262 22.1951 29.8898 21.766 29.1389 21.9806C29.1389 21.766 29.0316 21.4442 28.9243 21.3369C28.8171 21.2296 28.6025 21.5514 28.4952 21.6587C28.3879 21.4442 28.1734 21.2296 27.8515 21.2296C27.5297 21.2296 27.5297 21.4442 27.5297 21.6587ZM27.4224 21.6587C27.3151 21.5514 27.3151 21.3369 27.4224 21.2296C27.4224 21.1223 27.637 20.9078 27.7442 20.9078C28.0661 20.8005 28.3879 21.1223 28.3879 21.4442H28.2807C28.2807 21.3369 28.2807 21.2296 28.3879 21.1223C28.4952 21.015 28.6025 20.9078 28.8171 21.015C28.9243 21.1223 29.0316 21.2296 29.0316 21.3369C29.0316 21.4442 29.0316 21.5514 29.0316 21.6587C29.3534 21.4442 29.7826 21.5514 29.9971 21.766C30.319 21.9806 30.5335 22.3024 30.6408 22.6243C30.9626 22.6243 31.2845 22.8388 31.3918 23.0534C31.6063 23.3752 31.7136 23.6971 31.8209 23.9116C31.9282 24.6626 31.4991 25.199 31.07 25.7354C29.9971 26.4864 28.7098 26.5936 27.4224 26.4864C26.7787 26.4864 26.135 26.1645 25.5986 25.7354C25.0622 25.3063 24.8477 24.6626 24.8477 24.0189C25.1695 22.9461 26.3496 21.8733 27.4224 21.6587Z" fill="#823A3A"/>
        <path d="M27.745 22.1952C27.745 22.1952 27.6377 22.3025 27.5304 22.5171C27.4231 22.6243 27.3158 22.7316 27.2086 22.7316C27.1013 22.7316 27.1013 22.8389 26.994 22.8389C26.8867 22.8389 26.8867 22.9462 26.7794 22.9462C26.6722 22.9462 26.6721 23.0535 26.5649 23.0535C26.5649 23.0535 26.4576 23.0535 26.4576 23.1607H26.3503H26.243H26.1357C26.0285 23.1607 26.0284 23.1607 25.9212 23.268C25.8139 23.268 25.8139 23.268 25.8139 23.268H25.7066C25.5993 23.268 25.5993 23.268 25.5993 23.268C25.4921 23.268 25.3848 23.268 25.3848 23.1607C25.3848 23.0535 25.3848 22.9462 25.4921 22.9462C25.4921 22.9462 25.4921 22.9462 25.5993 22.9462H25.7066H25.8139C25.8139 22.9462 25.9212 22.9462 26.0285 22.9462H26.1357H26.243H26.3503H26.4576C26.5649 22.9462 26.5649 22.8389 26.6721 22.8389C26.7794 22.8389 26.7794 22.7316 26.8867 22.7316C26.994 22.7316 26.994 22.6243 27.1013 22.6243C27.2085 22.5171 27.3158 22.517 27.4231 22.4098C27.6377 22.1952 27.745 22.0879 27.745 22.1952C27.745 22.0879 27.745 22.0879 27.745 22.1952Z" fill="#FFCA9F"/>
        <path d="M25.9209 23.9115C26.1355 23.9115 26.2427 23.8042 26.35 23.8042C26.5646 23.697 26.8864 23.4824 27.101 23.2678C27.2083 23.1606 27.2083 23.1606 27.3156 23.0533C27.4228 22.946 27.4228 22.946 27.5301 22.8387L27.6374 22.7314C27.6374 22.7314 27.6374 22.6242 27.7447 22.6242C27.7447 22.6242 27.7447 22.5169 27.852 22.5169C27.852 22.5169 27.8519 22.4096 27.9592 22.4096C27.9592 22.3023 28.0665 22.3023 28.0665 22.195C28.0665 22.195 28.0665 22.0878 28.1738 22.0878V22.195C28.1738 22.3023 28.1738 22.3023 28.0665 22.4096V22.5169C28.0665 22.5169 28.0665 22.6242 27.9592 22.6242C27.9592 22.6242 27.9593 22.7314 27.852 22.7314C27.852 22.7314 27.852 22.8387 27.7447 22.8387C27.6374 22.946 27.6374 22.946 27.5301 23.0533C27.4228 23.1606 27.4228 23.1606 27.3156 23.2678C26.9937 23.4824 26.6719 23.697 26.5646 23.8042C26.4573 23.9115 26.35 23.9115 26.2428 23.9115C26.1355 23.9115 26.1355 23.9115 26.1355 23.9115C26.0282 23.9115 26.0282 23.9115 25.9209 23.9115C25.9209 24.0188 25.9209 24.0188 25.9209 23.9115Z" fill="#FFCA9F"/>
        <path d="M27.2084 24.2335C27.2084 24.1262 27.2084 24.1262 27.2084 24.2335C27.3157 24.1262 27.4229 24.0189 27.5302 24.0189L27.6375 23.9117C27.7448 23.9117 27.7448 23.8044 27.8521 23.6971C27.9594 23.5898 27.9593 23.5898 28.0666 23.4825C28.0666 23.4825 28.0666 23.3753 28.1739 23.3753C28.1739 23.3753 28.1739 23.268 28.2812 23.268C28.2812 23.1607 28.3885 23.1607 28.3885 23.0534C28.3885 23.0534 28.3885 22.9461 28.4957 22.9461V23.0534V23.1607C28.4957 23.268 28.3885 23.3753 28.3885 23.3753C28.3885 23.3753 28.3885 23.4825 28.2812 23.4825C28.2812 23.4825 28.2812 23.5898 28.1739 23.5898C28.1739 23.6971 28.0666 23.6971 28.0666 23.8044C27.9593 23.9117 27.9593 23.9116 27.9593 24.0189C27.9593 24.1262 27.8521 24.1262 27.8521 24.1262C27.7448 24.2335 27.6375 24.3408 27.6375 24.3408C27.6375 24.3408 27.5302 24.3408 27.5302 24.4481C27.3157 24.3408 27.3157 24.3408 27.2084 24.2335C27.1011 24.3408 27.1011 24.2335 27.2084 24.2335Z" fill="#FFCA9F"/>
        <path d="M28.3887 24.3406C28.496 24.2334 28.6032 24.1261 28.7105 24.0188C28.8178 23.8042 29.0323 23.4824 29.1396 23.2678C29.1396 23.1606 29.1396 23.0533 29.2469 23.0533C29.2469 22.946 29.2469 22.8387 29.2469 22.8387V22.7314V22.6242V22.5169V22.4096V22.3023C29.2469 22.3023 29.2469 22.3023 29.2469 22.195C29.2469 22.195 29.2469 22.195 29.3542 22.3023V22.4096V22.5169V22.6242V22.7314V22.8387C29.3542 22.946 29.3542 23.0533 29.3542 23.1606C29.3542 23.2678 29.3542 23.3751 29.2469 23.4824C29.1396 23.8042 28.9251 24.2334 28.8178 24.3406C28.7105 24.4479 28.7105 24.5552 28.6032 24.6625C28.6032 24.7698 28.4959 24.7698 28.4959 24.7698H28.3887C28.3887 24.4479 28.3887 24.3406 28.3887 24.3406Z" fill="#FFCA9F"/>
        <path d="M29.2475 21.8734C29.462 21.9807 29.5693 22.088 29.6766 22.1953C29.7838 22.3026 29.8911 22.4098 29.9984 22.5171C29.9984 22.6244 30.1057 22.6244 30.1057 22.7317C30.1057 22.839 30.213 22.9462 30.213 23.0535C30.213 23.1608 30.213 23.2681 30.213 23.3754C30.213 23.4826 30.213 23.5899 30.213 23.6972C30.213 23.8045 30.213 23.9118 30.1057 23.9118V24.019V24.1263C30.1057 24.2336 29.9984 24.2336 29.9984 24.3409L29.8911 24.4482C29.8911 24.5555 29.7839 24.5554 29.7839 24.5554C29.7839 24.5554 29.6766 24.6627 29.6766 24.5554C29.6766 24.5554 29.5693 24.4482 29.6766 24.4482C29.6766 24.4482 29.6766 24.4482 29.7839 24.3409C29.7839 24.3409 29.7839 24.2336 29.8911 24.2336L29.9984 24.1263V24.019V23.9118C29.9984 23.8045 30.1057 23.8045 30.1057 23.6972C30.1057 23.5899 30.1057 23.4826 30.1057 23.4826C30.1057 23.3754 30.1057 23.2681 30.1057 23.2681C30.1057 23.1608 30.1057 23.0535 29.9984 23.0535C29.9984 22.9462 29.8911 22.9462 29.8911 22.839C29.7839 22.7317 29.6766 22.5171 29.5693 22.5171C29.462 22.4098 29.3547 22.3026 29.3547 22.3026C29.2475 21.8734 29.1402 21.8734 29.2475 21.8734C29.1402 21.8734 29.1402 21.8734 29.2475 21.8734C29.1402 21.7661 29.1402 21.7661 29.2475 21.8734Z" fill="#FFCA9F"/>
        <path d="M30.6412 22.9463C30.6412 22.9463 30.6412 23.0536 30.7485 23.1609C30.7485 23.2681 30.8557 23.4827 30.8557 23.6973C30.8557 23.8045 30.8557 23.9118 30.8557 24.0191C30.8557 24.1264 30.7485 24.2337 30.7485 24.3409C30.7485 24.3409 30.7484 24.4482 30.6412 24.4482C30.6412 24.4482 30.6412 24.4482 30.5339 24.5555H30.4266H30.3193V24.4482C30.3193 24.4482 30.3193 24.4482 30.4266 24.3409C30.4266 24.2337 30.5339 24.2337 30.5339 24.1264C30.5339 24.0191 30.5339 23.9118 30.5339 23.8045C30.5339 23.59 30.5339 23.3754 30.4266 23.2681C30.6412 23.0536 30.5339 22.9463 30.6412 22.9463C30.5339 22.9463 30.5339 22.9463 30.6412 22.9463Z" fill="#FFCA9F"/>
        <path d="M28.4955 24.7695C27.3154 24.4477 26.3499 23.5894 25.9207 22.5166C25.277 23.053 25.0625 23.6967 25.0625 24.5549C25.1698 25.6277 26.2426 26.2714 27.3154 26.3787C28.9246 26.486 30.5338 26.0569 31.0702 25.5205C31.2848 25.3059 31.4993 25.0913 31.6066 24.8768C30.4265 24.9841 29.1391 24.9841 28.4955 24.7695Z" fill="#FFDCC5"/>
        <path d="M19.0549 21.1229C17.4457 21.0156 15.1928 22.4103 15.9438 24.2341C16.2657 24.985 17.553 25.5214 18.4113 25.6287C19.1622 25.736 20.986 25.9505 21.9515 24.985C22.4879 24.4486 22.3807 22.6248 20.8787 22.0884C20.7714 21.1229 19.9132 21.2302 19.9132 21.2302C19.9132 21.2302 19.8059 21.0156 19.6986 20.9083C19.4841 20.4792 19.0549 20.5865 19.0549 21.1229Z" fill="#FFF0E8"/>
        <path d="M19.1618 21.1226C18.4109 21.1226 17.8745 21.3372 17.338 21.659C16.8016 21.9809 16.3725 22.41 16.0507 22.9464C15.8361 23.5901 16.0507 24.2338 16.4798 24.6629C17.0162 25.092 17.5526 25.3066 18.1963 25.4138C19.3764 25.6284 20.771 25.7357 21.8439 24.9847C22.3803 24.6629 22.4875 23.9119 22.273 23.3755C22.0584 22.7318 21.6293 22.3027 21.0929 22.0882C20.9856 21.8736 20.8783 21.659 20.771 21.4445C20.6638 21.2299 20.3419 21.2299 20.1274 21.1226C20.0201 21.0153 20.0201 20.9081 19.9128 20.8008C19.8055 20.6935 19.5909 20.5862 19.4837 20.6935C19.2691 20.8008 19.1618 20.9081 19.1618 21.1226ZM19.0545 21.1226C18.9473 21.0153 19.0546 20.5862 19.2691 20.4789C19.591 20.3717 19.8055 20.5862 19.9128 20.6935C20.0201 20.8008 20.0201 20.9081 20.0201 21.1226C20.2346 21.0153 20.5565 21.1226 20.771 21.3372C20.9856 21.5517 21.0929 21.8736 21.0929 22.0882C21.7366 22.3027 22.273 22.8391 22.4875 23.3755C22.5948 23.6974 22.5948 24.1265 22.5948 24.341C22.5948 24.5556 22.3802 25.092 22.0584 25.1993C21.522 25.6284 20.8783 25.7357 20.1274 25.843C19.3764 25.843 18.84 25.843 18.1963 25.7357C17.5526 25.6284 16.9089 25.3066 16.3725 24.9847C15.8361 24.5556 15.6216 23.8046 15.8361 23.0537C16.0507 22.41 16.5871 21.9809 17.1235 21.659C17.7672 21.2299 18.5181 21.1226 19.0545 21.1226Z" fill="#823A3A"/>
        <path d="M18.8401 21.5517C18.7328 21.6589 18.7328 21.6589 18.6255 21.7662C18.6255 21.7662 18.5183 21.7662 18.5183 21.8735H18.411H18.3037H18.1964H18.0891H17.9819H17.8746C17.8746 21.8735 17.8746 21.8735 17.7673 21.8735H17.66C17.5527 21.8735 17.5527 21.7662 17.5527 21.7662C17.5527 21.6589 17.66 21.6589 17.66 21.6589C17.66 21.6589 17.66 21.6589 17.7673 21.6589C17.7673 21.6589 17.7673 21.6589 17.8746 21.6589H17.9819H18.0891H18.1964H18.3037H18.411H18.5183H18.6255L18.8401 21.5517C18.8401 21.4444 18.8401 21.4444 18.8401 21.5517Z" fill="#FFDCC5"/>
        <path d="M17.3384 22.3024C17.3384 22.4097 17.4457 22.4097 17.3384 22.3024C17.4457 22.4097 17.553 22.4097 17.6603 22.4097C17.7676 22.4097 17.8748 22.4097 18.0894 22.4097C18.1967 22.4097 18.1967 22.4097 18.3039 22.4097H18.4112H18.5185C18.5185 22.4097 18.6258 22.4097 18.6258 22.3024C18.6258 22.3024 18.7331 22.3024 18.7331 22.1952C18.7331 22.1952 18.8404 22.1952 18.8404 22.0879C18.8404 22.0879 18.8404 21.9806 18.9476 21.9806C18.9476 21.9806 18.9476 21.8733 19.0549 21.8733C19.0549 21.8733 19.0549 21.766 19.1622 21.766V21.6588C19.1622 21.6588 19.1622 21.6588 19.1622 21.5515C19.1622 21.5515 19.1622 21.5515 19.1622 21.4442V21.5515C19.1622 21.5515 19.1622 21.5515 19.1622 21.6588V21.766V21.8733V21.9806C19.1622 21.9806 19.1622 22.0879 19.0549 22.0879C19.0549 22.0879 19.0549 22.1952 18.9476 22.1952L18.8404 22.3024L18.7331 22.4097L18.6258 22.517C18.6258 22.517 18.6258 22.517 18.5185 22.517H18.4112C18.4112 22.517 18.3039 22.517 18.3039 22.6243H18.1967C18.0894 22.6243 17.9821 22.6243 17.9821 22.6243C17.7676 22.6243 17.6603 22.6243 17.553 22.6243C17.4457 22.517 17.3384 22.517 17.3384 22.3024L17.1239 22.4097C17.0166 22.4097 17.0166 22.3024 17.0166 22.1952C17.1239 22.3024 17.2311 22.3024 17.3384 22.3024Z" fill="#FFDCC5"/>
        <path d="M19.8061 21.8729C19.8061 21.7657 19.8061 21.7657 19.8061 21.8729C19.8061 22.0875 19.8061 22.1948 19.6988 22.3021C19.5915 22.5166 19.4842 22.9458 19.2697 23.053C19.1624 23.1603 19.0551 23.3749 18.8405 23.4822C18.7332 23.5894 18.5187 23.6967 18.4114 23.6967C18.3041 23.6967 18.1969 23.804 18.0896 23.804H17.9823C17.875 23.804 17.875 23.804 17.875 23.6967C17.875 23.5894 17.875 23.5894 17.9823 23.5894C17.9823 23.5894 17.9823 23.5894 18.0896 23.5894C18.1969 23.5894 18.3041 23.5894 18.4114 23.5894C18.5187 23.5894 18.626 23.4822 18.8405 23.3749C18.9478 23.2676 19.0551 23.1603 19.1624 23.053C19.3769 22.8385 19.4842 22.5166 19.5915 22.3021C19.6988 22.0875 19.6988 21.9802 19.8061 21.8729C19.9134 21.7657 19.9134 21.7657 19.8061 21.8729Z" fill="#FFDCC5"/>
        <path d="M20.2348 21.8734C20.2348 22.0879 20.3421 22.0879 20.3421 22.1952C20.3421 22.3025 20.3421 22.3025 20.3421 22.4098C20.3421 22.517 20.3421 22.5171 20.3421 22.6243C20.3421 22.7316 20.3421 22.7316 20.3421 22.8389V22.9462V23.0535C20.3421 23.1607 20.3421 23.1607 20.3421 23.268V23.3753V23.4826V23.5899V23.6971V23.8044C20.3421 23.8044 20.3421 23.8044 20.3421 23.9117L20.2348 24.019L20.1275 24.1263L20.0202 24.2336C20.0202 24.2336 19.9129 24.2336 19.8057 24.2336C19.8057 24.2336 19.8057 24.1263 19.8057 24.019C19.8057 24.019 19.8056 24.019 19.9129 23.9117C19.9129 23.9117 19.9129 23.9117 20.0202 23.8044L20.1275 23.6971C20.1275 23.6971 20.1275 23.6971 20.1275 23.5899C20.1275 23.5899 20.1275 23.5899 20.1275 23.4826C20.1275 23.4826 20.1275 23.4826 20.1275 23.3753V23.268V23.1607V23.0535C20.1275 22.9462 20.1275 22.9462 20.2348 22.8389V22.7316V22.6243C20.2348 22.5171 20.2348 22.517 20.2348 22.4098C20.2348 22.3025 20.2348 22.3025 20.2348 22.1952C20.2348 22.0879 20.2348 22.0879 20.2348 21.8734Z" fill="#FFDCC5"/>
        <path d="M20.9869 22.0879C21.0941 22.1952 21.0942 22.3024 21.0942 22.4097V22.517V22.6243C21.0942 22.7316 21.0942 22.7316 21.0942 22.8389C21.0942 22.9461 21.0942 22.9461 21.0942 23.0534V23.1607V23.268C21.0942 23.3752 21.0942 23.3752 21.0942 23.4825C21.0942 23.5898 21.0941 23.5898 20.9869 23.5898C20.9869 23.5898 20.9869 23.5898 20.9869 23.6971C20.9869 23.6971 20.9869 23.6971 20.9869 23.8044C20.9869 23.8044 20.9869 23.9117 20.8796 23.9117C20.8796 23.9117 20.8796 24.0189 20.7723 24.0189V24.1262H20.665V24.0189C20.665 24.0189 20.665 24.0189 20.665 23.9117C20.665 23.9117 20.665 23.9117 20.7723 23.8044C20.7723 23.8044 20.7723 23.6971 20.8796 23.6971C20.8796 23.6971 20.8796 23.6971 20.8796 23.5898C20.8796 23.5898 20.8796 23.4825 20.9869 23.4825V23.3753C20.9869 23.3753 20.9869 23.3752 20.9869 23.268V23.1607C20.9869 23.0534 20.9869 23.0534 20.9869 22.9461C20.9869 22.8388 20.9869 22.8389 20.9869 22.8389V22.7316V22.6243C20.9869 22.3025 20.9869 22.1952 20.9869 22.0879C20.8796 22.1952 20.8796 22.1952 20.9869 22.0879Z" fill="#FFDCC5"/>
        <path d="M20.235 25.5211C20.986 25.4139 21.5223 25.3066 22.0588 24.7702C20.7714 24.9847 19.2695 24.6629 18.5185 24.1265C17.553 23.4828 17.1238 22.5173 17.2311 21.5518C16.2656 22.0882 15.6219 23.0537 16.1583 24.1265C16.4802 24.8775 17.7675 25.4139 18.6258 25.5211C18.9476 25.5211 19.3768 25.6284 19.8059 25.6284C19.8059 25.4138 20.235 25.4139 20.235 25.5211Z" fill="#FFF0E8"/>
    </g>
    <path d="M31.4953 29.8125C31.388 29.9198 31.388 29.9198 31.388 30.0271L31.2807 30.1343L31.1734 30.2416C31.1734 30.2416 31.0661 30.2416 31.0661 30.3489C31.0661 30.3489 30.9589 30.3489 30.9589 30.4562H30.8516H30.7443H30.637H30.5297C30.4225 30.4562 30.4224 30.4562 30.3152 30.4562H30.2079C30.1006 30.4562 30.1006 30.3489 30.1006 30.3489C30.1006 30.2416 30.2079 30.2416 30.2079 30.2416C30.2079 30.2416 30.2079 30.2416 30.3152 30.2416C30.3152 30.2416 30.4225 30.2416 30.5297 30.2416H30.637H30.7443H30.8516H30.9589H31.0661H31.1734C31.1734 30.2416 31.2807 30.2416 31.2807 30.1343C31.2807 30.1343 31.388 30.1343 31.388 30.0271C31.2807 29.9198 31.2807 29.9198 31.4953 29.8125Z" fill="#FFDCC5"/>
    <path d="M31.7092 30.0272V30.2417C31.7092 30.2417 31.7092 30.349 31.7092 30.4563C31.7092 30.5636 31.7093 30.5636 31.602 30.6709C31.602 30.7781 31.4947 30.7781 31.4947 30.8854C31.4947 30.8854 31.4947 30.9927 31.3874 30.9927L31.2801 31.1L31.1728 31.2073L31.0656 31.3145L30.9583 31.4218C30.9583 31.4218 30.851 31.4218 30.851 31.5291H30.7437H30.6364C30.5291 31.5291 30.5292 31.5291 30.4219 31.6364C30.3146 31.6364 30.3146 31.6364 30.2073 31.6364H30.1H29.9928H29.8855C29.7782 31.6364 29.7782 31.6364 29.7782 31.6364C29.6709 31.6364 29.6709 31.5291 29.6709 31.5291C29.6709 31.4218 29.7782 31.4218 29.7782 31.4218C29.7782 31.4218 29.7782 31.4218 29.8855 31.4218H29.9928C29.9928 31.4218 29.9927 31.4218 30.1 31.4218C30.1 31.4218 30.1 31.4218 30.2073 31.4218C30.3146 31.4218 30.3146 31.4218 30.4219 31.4218C30.5292 31.4218 30.5291 31.4218 30.6364 31.4218H30.7437H30.851H30.9583H31.0656C31.0656 31.4218 31.1728 31.4218 31.1728 31.3145C31.1728 31.3145 31.2801 31.3145 31.2801 31.2073C31.2801 31.2073 31.3874 31.2073 31.3874 31.1C31.3874 31.1 31.3874 30.9927 31.4947 30.9927C31.4947 30.9927 31.602 30.8854 31.602 30.7781C31.602 30.6709 31.7092 30.6709 31.7092 30.5636C31.7092 30.5636 31.7092 30.4563 31.8165 30.4563C31.602 30.1344 31.6019 30.0272 31.7092 30.0272C31.6019 30.0272 31.6019 29.9199 31.7092 30.0272Z" fill="#FFDCC5"/>
    <path d="M32.1381 30.2412C32.1381 30.4558 32.1381 30.5631 32.1381 30.6703C32.1381 30.7776 32.0308 30.9922 32.0308 31.2067C31.9235 31.4213 31.9235 31.5286 31.709 31.7432L31.6017 31.8504L31.4944 31.9577L31.3871 32.065C31.3871 32.065 31.3871 32.065 31.2798 32.065C31.2798 32.065 31.2798 32.065 31.1726 32.065C31.1726 32.065 31.0653 32.065 31.0653 32.1723C31.0653 32.1723 30.958 32.1723 30.958 32.2796C30.8507 32.2796 30.8507 32.3868 30.7434 32.3868C30.6362 32.3868 30.6362 32.3868 30.5289 32.3868C30.4216 32.3868 30.4216 32.3868 30.4216 32.3868C30.3143 32.3868 30.3143 32.3868 30.3143 32.3868C30.207 32.3868 30.207 32.3868 30.207 32.2796C30.207 32.1723 30.207 32.1723 30.3143 32.1723C30.3143 32.1723 30.3143 32.1723 30.4216 32.1723H30.5289C30.6362 32.1723 30.6362 32.1723 30.7434 32.1723C30.8507 32.1723 30.8507 32.1723 30.958 32.065H31.0653H31.1726C31.1726 32.065 31.1726 32.065 31.2798 32.065C31.2798 32.065 31.3871 32.065 31.3871 31.9577L31.4944 31.8504L31.6017 31.7432C31.709 31.6359 31.8162 31.4213 31.9235 31.314C32.0308 31.2067 32.0308 30.9922 32.0308 30.8849C32.0308 30.7776 32.0308 30.6703 32.0308 30.5631C32.0308 30.3485 32.0308 30.2412 32.1381 30.2412C32.0308 30.2412 32.0308 30.2412 32.1381 30.2412Z" fill="#FFDCC5"/>
    <path d="M20.1219 28.9542C20.0147 28.8469 20.0146 28.6324 20.0146 28.4178C20.0146 28.2032 20.1219 28.096 20.3365 27.9887L33.4247 19.1917L34.4975 18.4407L36.4286 17.1533L36.6432 17.0461C36.8577 16.9388 37.0723 16.9388 37.1796 17.1533C37.2868 17.2606 37.2868 17.3679 37.2868 17.4752C37.2868 17.5825 37.1796 17.6897 37.1796 17.6897L35.1412 19.1917L34.0684 19.9426L21.1947 29.1688C20.7656 29.276 20.3365 29.2761 20.1219 28.9542Z" fill="#FFBF66"/>
    <path d="M22.6953 26.3795C22.6953 26.5941 22.8026 26.8086 22.9099 27.0232C23.0172 27.2378 23.2317 27.3451 23.4463 27.4523L24.5191 26.7014C24.3045 26.5941 24.1973 26.4868 24.09 26.2722C23.9827 26.0577 23.8754 25.8431 23.8754 25.7358L22.6953 26.3795Z" fill="#6D1837"/>
    <path d="M24.3076 25.3064C24.3076 25.5209 24.4149 25.7355 24.5222 25.95C24.6295 26.1646 24.844 26.2719 25.0586 26.3792L25.4877 26.0573C25.2731 25.9501 25.1659 25.8428 25.0586 25.6282C24.9513 25.4136 24.844 25.1991 24.844 25.0918L24.3076 25.3064Z" fill="#6D1837"/>
    <g opacity="0.55">
        <path d="M20.1211 28.8476C20.3357 28.9549 20.6575 29.0622 20.9793 28.8476L33.853 19.6215L34.9258 18.8705L36.9642 17.3686C37.0715 17.2613 37.0714 17.2613 37.0714 17.154C37.0714 17.154 37.0714 17.0467 37.0714 16.9395C37.0714 16.9395 37.1787 16.9394 37.1787 17.0467C37.286 17.154 37.286 17.2613 37.286 17.3686C37.286 17.4758 37.1787 17.5831 37.1787 17.5831L35.1404 19.0851L34.0676 19.836L21.1939 29.0622C20.7648 29.2767 20.3357 29.1694 20.1211 28.8476Z" fill="white"/>
    </g>
    <path d="M36.9644 16.832C37.0717 16.832 37.1789 16.9393 37.2862 17.0466C37.3935 17.2612 37.3935 17.583 37.1789 17.6903L21.1941 29.1693C20.9796 29.2766 20.765 29.3839 20.5504 29.2766C20.3359 29.2766 20.1213 29.1693 20.014 28.9547C19.9067 28.7402 19.7995 28.5256 19.9067 28.3111C19.9067 28.0965 20.1213 27.8819 20.2286 27.7747L36.5352 16.832C36.6425 16.832 36.8571 16.832 36.9644 16.832ZM20.5504 29.062C20.765 29.062 20.8723 29.062 20.9795 28.9547L36.9644 17.4757C37.0717 17.3684 37.0716 17.2612 37.0716 17.1539C36.9644 17.0466 36.8571 17.0466 36.7498 17.0466L20.4431 27.9892C20.3359 28.0965 20.2286 28.2038 20.2286 28.3111C20.2286 28.4183 20.2286 28.6329 20.3359 28.7402C20.3359 28.9548 20.4432 29.062 20.5504 29.062Z" fill="#823A3A"/>
    <g opacity="0.35">
        <path d="M20.0146 28.4181C20.0146 28.4181 20.1219 28.2036 20.3365 27.989L33.4247 19.192L34.4975 18.441L36.4286 17.1537C36.5359 17.1537 36.6432 17.0464 36.6432 17.0464C36.7504 16.9391 36.8577 17.0464 36.8577 17.1537C36.8577 17.1537 36.8577 17.261 36.7504 17.261L20.4438 28.6327C20.3365 28.6327 20.3365 28.74 20.2292 28.6327C20.1219 28.74 20.0146 28.6327 20.0146 28.4181Z" fill="#6D1837"/>
    </g>
    <path d="M24.0936 29.9192C23.9863 29.8119 23.9863 29.5973 23.9863 29.3828C23.9863 29.1682 24.0936 29.0609 24.3082 28.9537L36.0017 19.6202L36.9673 18.8693L38.6838 17.4746L38.8983 17.3673C39.1129 17.2601 39.3275 17.2601 39.4347 17.4746C39.542 17.5819 39.542 17.6892 39.542 17.7965C39.542 17.9038 39.4347 18.011 39.4347 18.011L37.611 19.6202L36.6454 20.3712L25.1664 30.1337C24.7373 30.241 24.3082 30.241 24.0936 29.9192Z" fill="#FFBF66"/>
    <path d="M26.3467 27.3444C26.3467 27.5589 26.454 27.7735 26.5613 27.9881C26.6685 28.2026 26.8831 28.3099 27.0977 28.3099L28.0632 27.5589C27.8486 27.4517 27.7413 27.3444 27.6341 27.2371C27.5268 27.0225 27.4195 26.808 27.4195 26.7007L26.3467 27.3444Z" fill="#6D1837"/>
    <path d="M27.7412 26.1643C27.7412 26.3788 27.8485 26.5934 27.9558 26.808C28.063 27.0225 28.2776 27.1298 28.4922 27.1298L28.9213 26.808C28.7067 26.7007 28.5994 26.5934 28.4922 26.4861C28.3849 26.2715 28.2776 26.057 28.2776 25.9497L27.7412 26.1643Z" fill="#6D1837"/>
    <g opacity="0.55">
        <path d="M24.0938 29.8124C24.3083 29.9197 24.6301 29.9197 24.952 29.7052L36.431 19.9426L37.3965 19.1916L39.2203 17.5824C39.3276 17.4752 39.3276 17.4752 39.3276 17.3679C39.3276 17.3679 39.3276 17.2606 39.3276 17.1533C39.3276 17.1533 39.4349 17.1533 39.4349 17.2606C39.5422 17.3679 39.5422 17.4752 39.5422 17.5824C39.5422 17.6897 39.4349 17.797 39.4349 17.797L37.6111 19.4062L36.6456 20.1572L25.1666 29.9197C24.7374 30.2416 24.3083 30.1343 24.0938 29.8124Z" fill="white"/>
    </g>
    <path d="M39.006 17.1532C39.1133 17.1532 39.2205 17.2605 39.3278 17.3677C39.4351 17.5823 39.4351 17.9042 39.3278 18.0114L25.1668 30.0269C24.9522 30.1341 24.7376 30.2414 24.5231 30.1342C24.3085 30.1342 24.094 30.0269 23.9867 29.9196C23.8794 29.705 23.7721 29.4905 23.8794 29.2759C23.8794 29.0613 24.094 28.8468 24.094 28.7395L38.6841 17.0459C38.7914 17.1532 38.8987 17.1532 39.006 17.1532ZM24.5231 30.0269C24.7376 30.0269 24.8449 30.0269 24.9522 29.9196L39.1133 17.7969C39.2205 17.6896 39.2205 17.5823 39.2205 17.475C39.1132 17.3678 39.006 17.3677 38.8987 17.3677L24.3085 29.0613C24.2012 29.1686 24.094 29.2759 24.094 29.3832C24.094 29.4905 24.0939 29.705 24.2012 29.8123C24.3085 29.9196 24.4158 30.0269 24.5231 30.0269Z" fill="#823A3A"/>
    <g opacity="0.35">
        <path d="M23.9863 29.49C23.9863 29.49 24.0936 29.2755 24.3082 29.0609L36.0017 19.7275L36.9673 18.9765L38.6838 17.5819C38.791 17.5819 38.8983 17.4746 38.8983 17.4746C39.0056 17.3673 39.1129 17.4746 39.1129 17.5819C39.1129 17.5819 39.1129 17.6892 39.0056 17.6892L24.5227 29.7046C24.4155 29.7046 24.4154 29.8119 24.3082 29.7046C24.0936 29.7046 23.9863 29.7046 23.9863 29.49Z" fill="#6D1837"/>
    </g>
</svg>
