<svg width="48" height="48" viewBox="0 0 48 48" fill="none" xmlns="http://www.w3.org/2000/svg">
    <rect width="48" height="48" rx="24" fill="#95E1F6"/>
    <path opacity="0.2" d="M30.0042 34.9579C30.0042 37.9787 26.1376 40.3953 21.3044 40.3953C18.8877 40.3953 16.7128 39.7912 15.142 38.8245C13.5712 37.8579 12.6045 36.5287 12.6045 34.9579C12.6045 31.9371 16.4711 29.5205 21.3044 29.5205C24.9293 29.5205 27.9501 30.8497 29.2792 32.783C29.7626 33.5079 30.0042 34.1121 30.0042 34.9579Z" fill="#3A3A3A"/>
    <path d="M23.3575 37.3748C26.5607 37.3748 29.1574 36.2928 29.1574 34.9581C29.1574 33.6235 26.5607 32.5415 23.3575 32.5415C20.1543 32.5415 17.5576 33.6235 17.5576 34.9581C17.5576 36.2928 20.1543 37.3748 23.3575 37.3748Z" fill="#FFDFB3" stroke="#823A3A" stroke-width="0.705" stroke-miterlimit="10"/>
    <path d="M41.361 25.6544C40.8776 28.796 37.736 31.5751 33.8694 32.5418C33.1444 32.7834 31.6945 32.9043 30.8486 33.0251L31.8153 31.3334C32.5403 31.2126 33.3861 31.0918 34.1111 30.7293C36.5277 29.8835 38.461 27.9502 38.8235 25.7752C39.186 23.6002 37.736 22.0294 35.4402 21.4253C34.7152 21.3044 33.9902 21.1836 33.1444 21.3044L33.3861 19.6128C34.1111 19.492 34.9569 19.6128 35.6819 19.6128C39.3068 20.0961 41.8443 22.5127 41.361 25.6544Z" fill="#FFDFB3" stroke="#823A3A" stroke-width="0.6834" stroke-miterlimit="10"/>
    <path d="M35.8031 19.7332L35.5614 21.5457C34.8364 21.4248 34.1114 21.304 33.2656 21.4248L33.5073 19.7332C34.3531 19.6124 35.0781 19.6124 35.8031 19.7332Z" fill="#F9CD87"/>
    <path d="M24.204 35.0791H23.2373C17.0749 35.0791 12 30.0042 12 23.8418V17.0752H35.4413V23.8418C35.4413 30.2458 30.4872 35.0791 24.204 35.0791Z" fill="#FFDFB3"/>
    <mask id="mask0_1129_34128" style="mask-type:luminance" maskUnits="userSpaceOnUse" x="12" y="17" width="24" height="19">
        <path d="M24.204 35.0791H23.2373C17.0749 35.0791 12 30.0042 12 23.8418V17.0752H35.4413V23.8418C35.4413 30.2458 30.4872 35.0791 24.204 35.0791Z" fill="white"/>
    </mask>
    <g mask="url(#mask0_1129_34128)">
        <path d="M10.1883 20.4587C10.1883 20.4587 16.2298 28.796 30.3671 25.2919C30.3671 25.2919 35.3212 34.8376 28.9171 43.6583C22.5131 52.479 46.0752 41.2417 46.0752 41.2417L41.3628 8.97965L-1.53239 0.279785L-4.31152 18.8878L10.1883 20.4587Z" fill="#E2BF9A"/>
    </g>
    <mask id="mask1_1129_34128" style="mask-type:luminance" maskUnits="userSpaceOnUse" x="12" y="17" width="24" height="19">
        <path d="M24.204 35.0791H23.2373C17.0749 35.0791 12 30.0042 12 23.8418V17.0752H35.4413V23.8418C35.4413 30.2458 30.4872 35.0791 24.204 35.0791Z" fill="white"/>
    </mask>
    <g mask="url(#mask1_1129_34128)">
        <path opacity="0.18" d="M12 30.6082C12 30.6082 23.1165 37.4956 36.5288 30.3665C49.9411 23.2375 40.6371 40.3955 40.0329 40.6372C39.4288 40.8789 21.9082 44.2621 21.9082 44.2621C21.9082 44.2621 15.1416 42.933 14.9 42.933C14.6583 42.933 12 30.6082 12 30.6082Z" fill="#823A3A"/>
    </g>
    <mask id="mask2_1129_34128" style="mask-type:luminance" maskUnits="userSpaceOnUse" x="12" y="17" width="24" height="19">
        <path d="M24.204 35.0791H23.2373C17.0749 35.0791 12 30.0042 12 23.8418V17.0752H35.4413V23.8418C35.4413 30.2458 30.4872 35.0791 24.204 35.0791Z" fill="white"/>
    </mask>
    <g mask="url(#mask2_1129_34128)">
        <path opacity="0.49" d="M14.9004 11.5166C14.9004 11.5166 11.3963 25.2914 22.0295 39.5495C32.6627 53.8076 8.97967 44.3828 8.97967 44.3828L-14.3408 13.5707L14.9004 11.5166Z" fill="#FFFAF3"/>
    </g>
    <path d="M24.204 35.0791H23.2373C17.0749 35.0791 12 30.0042 12 23.8418V17.0752H35.4413V23.8418C35.4413 30.2458 30.4872 35.0791 24.204 35.0791Z" stroke="#823A3A" stroke-width="0.6834" stroke-miterlimit="10"/>
    <path d="M23.8417 22.6332C30.3149 22.6332 35.5624 20.2529 35.5624 17.3166C35.5624 14.3803 30.3149 12 23.8417 12C17.3686 12 12.1211 14.3803 12.1211 17.3166C12.1211 20.2529 17.3686 22.6332 23.8417 22.6332Z" fill="#FFBF66" stroke="#823A3A" stroke-width="0.6946" stroke-miterlimit="10"/>
    <path d="M34.2327 17.3163C34.2327 17.5579 34.1119 17.9204 33.991 18.0412C33.8702 18.1621 33.6285 18.6454 33.3869 18.7662C31.8161 20.2162 28.3119 21.5454 23.7203 21.5454C19.1288 21.5454 15.5038 20.337 14.0538 18.7662C13.8122 18.5246 13.5705 18.1621 13.4497 18.0412C13.3288 17.9204 13.208 17.4371 13.208 17.3163C13.208 15.2621 17.4371 12.9663 23.7203 12.9663C29.8828 12.9663 34.2327 15.2621 34.2327 17.3163Z" fill="#F3AA65"/>
    <path d="M34.1117 18.2831C33.9908 18.5248 33.7492 18.8873 33.5075 19.0081C31.9367 20.4581 28.4326 21.7873 23.841 21.7873C19.2494 21.7873 15.6244 20.579 14.1745 19.0081C13.9328 18.7665 13.6911 18.404 13.5703 18.2831C14.4161 16.4707 18.5244 14.6582 23.841 14.6582C29.1576 14.6582 33.0242 16.3498 34.1117 18.2831Z" fill="#934627"/>
    <path d="M22.7537 21.6664C23.4787 21.7872 24.4454 21.7872 25.1703 21.6664C26.7412 21.3039 28.0703 20.4581 29.1578 19.3706C29.6411 18.8873 30.0036 18.5248 30.1244 17.9206C30.2453 17.3165 29.8828 16.7123 29.2786 16.5915C28.9161 16.5915 28.5536 16.7123 28.1911 16.5915C27.8286 16.4707 27.7078 15.9873 27.4661 15.8665C26.862 15.1415 25.412 15.1415 24.8078 15.8665C24.3245 16.229 23.962 16.8332 23.3579 16.954C22.5121 17.1957 21.9079 16.4707 21.3037 16.229C20.5787 15.6248 19.2496 15.3832 18.2829 15.6248C17.7996 15.7457 17.5579 15.9873 17.4371 16.3498C17.3163 16.5915 17.5579 16.8332 17.4371 16.954C17.3163 17.5581 17.5579 17.1956 17.0746 17.4373C16.3496 17.9206 16.108 18.0415 16.5913 18.8873C16.9538 19.4914 17.4371 19.8539 18.0413 20.2164C19.4913 21.3039 21.1829 21.5456 22.7537 21.6664Z" fill="#E56A2D"/>
    <path d="M15.2627 18.1625C15.2627 18.525 15.5044 18.8875 15.6252 19.0083C15.746 19.25 15.9877 19.4916 16.2294 19.6124C16.471 19.7333 16.7127 19.8541 16.9543 19.9749C17.6793 20.3374 18.646 20.6999 19.371 20.8208H19.4918C19.6126 20.8208 19.6126 20.5791 19.6126 20.4583C19.0085 19.7333 17.5585 19.7333 16.9543 19.0083C16.7127 18.7666 16.5918 18.4041 16.471 18.2833C16.471 18.1625 16.471 18.0416 16.471 17.9208C16.5918 17.6791 16.8335 17.5583 17.0752 17.4375C17.5585 17.3166 18.0418 17.3167 18.5252 17.3167C18.646 17.3167 18.646 17.3167 18.7668 17.3167C19.0085 17.1958 18.8876 16.9541 18.646 16.8333C18.4043 16.7125 17.921 16.8333 17.921 16.5917C17.921 16.4708 18.0418 16.35 18.1627 16.2292C18.2835 16.1083 18.4043 16.1083 18.646 15.9875C18.7668 15.8667 18.8877 15.7458 18.7668 15.7458C18.7668 15.625 18.5252 15.625 18.4043 15.625C17.3168 15.8667 15.2627 17.075 15.2627 18.1625Z" fill="#BF552D"/>
    <path opacity="0.85" d="M22.6324 20.4583C22.0282 19.25 20.699 18.4042 19.3699 18.1625C18.6449 17.9209 16.7116 17.8 17.6782 19.0083C18.1616 19.6125 18.8866 19.975 19.4907 20.3375C20.2157 20.8208 21.3032 21.1833 22.0282 21.0625C22.149 21.0625 22.2699 20.9417 22.2699 20.8208C22.5115 20.8208 22.7532 20.7 22.6324 20.4583Z" fill="white"/>
    <path opacity="0.85" d="M23.3577 18.8874C22.9952 17.7999 22.1494 16.9541 20.941 16.5916C20.3369 16.35 19.0077 15.8666 19.3702 17.075C19.4911 17.6791 20.216 18.1625 20.6994 18.5249C21.3035 19.0083 22.0285 19.4916 22.7535 19.4916C22.8743 19.4916 22.9952 19.3708 22.9952 19.2499C23.2368 19.2499 23.4785 19.1291 23.3577 18.8874Z" fill="white"/>
    <path opacity="0.85" d="M24.4455 20.4583C25.0497 19.3709 26.1371 18.5251 27.3454 18.1626C27.8288 18.0417 28.4329 17.9209 29.0371 17.9209C30.0037 18.0417 29.6413 18.6459 29.0371 19.1292C28.5538 19.4917 28.3121 19.8542 27.7079 20.2167C26.983 20.7 25.8955 21.0625 25.1705 20.9417C25.0497 20.9417 24.9288 20.8208 24.9288 20.7C24.5663 20.8208 24.3247 20.7 24.4455 20.4583Z" fill="white"/>
    <path opacity="0.85" d="M23.8422 18.8875C24.0838 18.1625 26.2588 15.1417 27.4671 16.1084C27.8296 16.4709 27.4671 17.075 27.2255 17.3167C26.9838 17.8 26.6213 18.0417 26.3797 18.2833C25.8963 18.7667 25.1713 19.25 24.4463 19.1292C24.3255 19.1292 24.2047 19.0083 24.2047 18.8875C23.8422 19.25 23.7214 19.1292 23.8422 18.8875Z" fill="white"/>
    <path d="M28.433 16.5916C28.3122 16.7124 28.1913 16.9541 28.3122 17.0749C28.3122 17.0749 28.433 17.0749 28.5538 17.0749C28.9163 17.0749 29.2788 16.8332 29.5205 16.8332C29.883 16.9541 30.1246 17.3166 30.2455 17.5582C30.3663 17.9207 30.3663 18.2832 30.4871 18.5249C30.608 18.6457 30.608 18.7665 30.8496 18.7665C30.9705 18.7665 31.0913 18.6457 31.2121 18.5249C31.4538 18.0416 31.4538 17.4374 31.2121 16.9541C30.8496 16.2291 30.2455 16.1082 29.3997 15.8666C28.9163 15.7457 28.3122 15.2624 27.708 15.1416C27.2247 15.1416 26.983 15.1416 27.2247 15.6249C27.3455 15.9874 28.7955 15.8666 28.433 16.5916Z" fill="#BF552D"/>
</svg>
