<svg width="48" height="48" viewBox="0 0 48 48" fill="none" xmlns="http://www.w3.org/2000/svg">
    <rect width="48" height="48" rx="24" fill="#95E1F6"/>
    <path opacity="0.2" d="M38.8826 29.3261C38.8826 33.0592 31.9821 36.0004 23.3848 36.0004C19.0861 36.0004 15.2399 35.2085 12.5249 34.0773C9.69685 32.8329 8 31.2492 8 29.3261C8 25.5931 14.9005 22.6519 23.4979 22.6519C29.9459 22.6519 35.3758 24.3487 37.7514 26.7243C38.4301 27.5162 38.8826 28.4211 38.8826 29.3261Z" fill="#3A3A3A"/>
    <path d="M24.5159 33.7378C32.5129 33.7378 38.9957 31.3067 38.9957 28.3078C38.9957 25.309 32.5129 22.8779 24.5159 22.8779C16.5189 22.8779 10.0361 25.309 10.0361 28.3078C10.0361 31.3067 16.5189 33.7378 24.5159 33.7378Z" fill="#FFDFB3"/>
    <path d="M24.5164 34.0771C16.2584 34.0771 9.69727 31.5884 9.69727 28.3079C9.69727 25.0273 16.2584 22.5386 24.5164 22.5386C32.7744 22.5386 39.3355 25.0273 39.3355 28.3079C39.3355 31.4753 32.7744 34.0771 24.5164 34.0771ZM24.5164 23.3304C16.9372 23.3304 10.4891 25.5929 10.4891 28.3079C10.4891 31.0228 16.9372 33.2853 24.5164 33.2853C32.0957 33.2853 38.5437 31.0228 38.5437 28.3079C38.5437 25.5929 32.0957 23.3304 24.5164 23.3304Z" fill="#823A3A"/>
    <path d="M24.5159 32.0408C30.2012 32.0408 34.8101 30.3695 34.8101 28.3078C34.8101 26.2461 30.2012 24.5747 24.5159 24.5747C18.8306 24.5747 14.2217 26.2461 14.2217 28.3078C14.2217 30.3695 18.8306 32.0408 24.5159 32.0408Z" fill="#E2BF9A"/>
    <path d="M32.3233 18.4658H14.9023V29.0994H32.3233V18.4658Z" fill="#FFDFB3"/>
    <path d="M32.3233 23.3301H14.9023V25.0269H32.3233V23.3301Z" fill="#934C4C"/>
    <path d="M32.3233 25.0269H14.9023V29.0993H32.3233V25.0269Z" fill="#FFDFB3"/>
    <mask id="mask0_1129_34137" style="mask-type:luminance" maskUnits="userSpaceOnUse" x="14" y="25" width="19" height="5">
        <path d="M32.3233 25.0269H14.9023V29.0993H32.3233V25.0269Z" fill="white"/>
    </mask>
    <g mask="url(#mask0_1129_34137)">
        <path d="M25.4229 24.5742C25.4229 24.5742 28.8165 26.9497 26.6672 29.7778C24.5179 32.4928 30.6265 31.9272 30.6265 31.9272C30.6265 31.9272 34.1333 28.3072 34.1333 28.1941C34.1333 27.9679 31.4184 22.0854 31.4184 22.0854L25.4229 24.5742Z" fill="#E2BF9A"/>
    </g>
    <path d="M32.3233 27.2896H14.9023V29.0995H32.3233V27.2896Z" fill="#E2BF9A"/>
    <path d="M32.322 29.3257H14.901C14.7879 29.3257 14.6748 29.2126 14.6748 29.0995V25.027C14.6748 24.9139 14.7879 24.8008 14.901 24.8008H32.322C32.4351 24.8008 32.5483 24.9139 32.5483 25.027V29.0995C32.6614 29.2126 32.5483 29.3257 32.322 29.3257ZM15.2404 28.7601H32.0958V25.2533H15.2404V28.7601Z" fill="#823A3A"/>
    <path d="M32.3227 29.5518H14.9017C14.6755 29.5518 14.4492 29.3255 14.4492 29.0993V18.4657C14.4492 18.2394 14.6755 18.0132 14.9017 18.0132H32.3227C32.5489 18.0132 32.7752 18.2394 32.7752 18.4657V29.0993C32.7752 29.4386 32.5489 29.5518 32.3227 29.5518ZM15.3542 28.7599H31.9833V18.9182H15.3542V28.7599Z" fill="#823A3A"/>
    <path d="M14.9019 18.4658L20.8974 13.9409L32.3229 18.4658C32.3229 18.4658 14.7888 18.3527 14.9019 18.4658Z" fill="#FFBF66"/>
    <path d="M14.9017 19.0315L14.4492 18.579L14.5623 18.3527C14.5623 18.3527 14.5623 18.2396 14.6755 18.2396L20.7841 13.6016L34.3589 18.9184H32.3227C25.8746 18.8052 16.1461 18.8052 15.1279 18.9184L14.9017 19.0315ZM19.8791 18.0134C22.1416 18.0134 25.5353 18.0134 30.3996 18.1265L21.0103 14.5066L16.1461 18.1265C16.9379 18.0134 18.0691 18.0134 19.8791 18.0134Z" fill="#823A3A"/>
    <path d="M14.9017 18.9179C14.7886 18.9179 14.6755 18.9179 14.5623 18.8048C14.4492 18.6917 14.4492 18.4654 14.4492 18.3523C14.4492 18.3523 14.4492 18.2392 14.5623 18.2392L20.5579 13.7142C20.671 13.6011 20.7841 13.6011 20.8972 13.7142L32.3227 18.2392C32.5489 18.3523 32.662 18.4654 32.5489 18.6916C32.5489 18.9179 32.3227 19.031 32.0964 19.031C25.6484 18.9179 15.8067 18.9179 14.7886 19.031C15.0148 18.9179 15.0148 18.9179 14.9017 18.9179ZM19.8791 18.0129C22.1416 18.0129 25.4222 18.0129 30.1733 18.126L21.0103 14.5061L16.2592 18.0129C17.051 18.0129 18.1823 18.0129 19.8791 18.0129Z" fill="#823A3A"/>
    <path d="M32.322 23.5565H14.901C14.7879 23.5565 14.6748 23.4434 14.6748 23.3303C14.6748 23.2171 14.7879 23.104 14.901 23.104H32.322C32.4351 23.104 32.5483 23.2171 32.5483 23.3303C32.5483 23.4434 32.5483 23.5565 32.322 23.5565Z" fill="#823A3A"/>
    <path d="M17.39 21.7463C17.39 21.8594 17.2769 21.9725 17.1637 21.9725C17.0506 21.9725 16.9375 21.8594 16.9375 21.7463C16.9375 21.6331 17.0506 21.52 17.1637 21.52C17.39 21.52 17.39 21.6331 17.39 21.7463Z" fill="#FFD29C"/>
    <path d="M18.7463 20.6156C19.0587 20.6156 19.3119 20.3624 19.3119 20.05C19.3119 19.7376 19.0587 19.4844 18.7463 19.4844C18.4339 19.4844 18.1807 19.7376 18.1807 20.05C18.1807 20.3624 18.4339 20.6156 18.7463 20.6156Z" fill="#FFD29C"/>
    <path d="M19.1996 22.1989C19.4495 22.1989 19.6521 21.9963 19.6521 21.7464C19.6521 21.4965 19.4495 21.2939 19.1996 21.2939C18.9497 21.2939 18.7471 21.4965 18.7471 21.7464C18.7471 21.9963 18.9497 22.1989 19.1996 22.1989Z" fill="#FFD29C"/>
    <path d="M21.0094 21.4071C21.1344 21.4071 21.2357 21.3058 21.2357 21.1808C21.2357 21.0559 21.1344 20.9546 21.0094 20.9546C20.8845 20.9546 20.7832 21.0559 20.7832 21.1808C20.7832 21.3058 20.8845 21.4071 21.0094 21.4071Z" fill="#FFD29C"/>
    <path d="M24.0645 20.0503C24.0645 20.2766 23.8382 20.3897 23.7251 20.3897C23.4989 20.3897 23.3857 20.1634 23.3857 20.0503C23.3857 19.8241 23.612 19.7109 23.7251 19.7109C23.9514 19.7109 24.0645 19.8241 24.0645 20.0503Z" fill="#FFD29C"/>
    <path d="M22.8189 21.8599C23.0063 21.8599 23.1582 21.7079 23.1582 21.5205C23.1582 21.3331 23.0063 21.1812 22.8189 21.1812C22.6314 21.1812 22.4795 21.3331 22.4795 21.5205C22.4795 21.7079 22.6314 21.8599 22.8189 21.8599Z" fill="#FFD29C"/>
    <path d="M25.4213 22.9904C25.6712 22.9904 25.8737 22.7878 25.8737 22.5379C25.8737 22.288 25.6712 22.0854 25.4213 22.0854C25.1713 22.0854 24.9688 22.288 24.9688 22.5379C24.9688 22.7878 25.1713 22.9904 25.4213 22.9904Z" fill="#FFD29C"/>
    <path d="M27.6838 20.8422C27.9962 20.8422 28.2494 20.5889 28.2494 20.2766C28.2494 19.9642 27.9962 19.7109 27.6838 19.7109C27.3714 19.7109 27.1182 19.9642 27.1182 20.2766C27.1182 20.5889 27.3714 20.8422 27.6838 20.8422Z" fill="#FFD29C"/>
    <path d="M29.3816 21.8602C29.3816 22.1996 29.1553 22.3127 28.929 22.3127C28.7028 22.3127 28.4766 22.0865 28.4766 21.8602C28.4766 21.634 28.7028 21.4077 28.929 21.4077C29.0422 21.4077 29.3816 21.634 29.3816 21.8602Z" fill="#FFD29C"/>
    <path d="M31.3034 20.1634C31.3034 20.3897 31.0772 20.6159 30.8509 20.6159C30.6247 20.6159 30.3984 20.3897 30.3984 20.1634C30.3984 19.9372 30.6247 19.7109 30.8509 19.7109C31.0772 19.8241 31.3034 20.0503 31.3034 20.1634Z" fill="#FFD29C"/>
    <path d="M31.0768 21.8598C30.9637 21.973 31.0768 21.973 31.0768 21.8598C30.8506 21.973 30.8506 21.8598 30.8506 21.8598H31.0768Z" fill="#FFD29C"/>
    <path d="M25.7601 21.4074C26.01 21.4074 26.2126 21.2048 26.2126 20.9549C26.2126 20.705 26.01 20.5024 25.7601 20.5024C25.5102 20.5024 25.3076 20.705 25.3076 20.9549C25.3076 21.2048 25.5102 21.4074 25.7601 21.4074Z" fill="#FFD29C"/>
    <path d="M16.485 20.2757C16.485 20.6151 16.2588 20.7282 16.0326 20.7282C15.6932 20.7282 15.5801 20.502 15.5801 20.2757C15.5801 20.0495 15.8063 19.8232 16.0326 19.8232C16.1457 19.8232 16.485 20.0495 16.485 20.2757Z" fill="#FFD29C"/>
    <path d="M17.3889 11.4521C17.3889 11.4521 16.0314 17.2214 21.5745 16.9952C23.3844 11.7915 17.3889 11.4521 17.3889 11.4521Z" fill="#FFDFB3"/>
    <path d="M21.3486 17.448C19.7649 17.448 18.6337 16.9955 17.8418 15.9774C16.3712 14.1674 17.0499 11.4525 17.0499 11.3394L17.1631 11H17.5024C17.6156 11 20.5568 11.2262 21.8011 13.1493C22.4799 14.1674 22.593 15.5249 22.0274 17.1087L21.9142 17.3349H21.5749C21.5749 17.448 21.4617 17.448 21.3486 17.448ZM17.7287 11.905C17.6156 12.6968 17.5024 14.3937 18.4074 15.5249C18.973 16.2037 19.9911 16.6562 21.2355 16.6562C21.5749 15.5249 21.4617 14.5068 21.0092 13.715C20.2174 12.4706 18.5205 12.0181 17.7287 11.905Z" fill="#823A3A"/>
    <path d="M21.3489 17.3345C20.7833 16.7689 20.3308 16.0901 19.9914 15.2983C19.5389 14.6195 19.1996 13.9408 18.7471 13.1489C19.3127 13.7145 19.9914 14.3933 20.557 14.9589C21.1227 15.5245 21.6883 16.2032 22.1408 16.882L21.3489 17.3345Z" fill="#823A3A"/>
    <path d="M27.1188 15.1856C27.1188 13.4887 25.9875 13.2625 25.9875 13.2625C25.9875 12.6968 25.535 12.3575 25.3088 12.2444C25.535 11.6787 24.5169 11 24.5169 11C24.5169 11.4525 24.2907 11.905 23.9513 12.1312C23.4988 12.2444 23.1594 12.4706 23.0463 13.1493C23.0463 13.1493 21.9151 13.3756 21.9151 15.0724C21.9151 15.0724 20.5576 15.1856 20.5576 17.2218H24.5169H28.4762C28.3631 15.2987 27.1188 15.1856 27.1188 15.1856Z" fill="#FFFBF8"/>
    <path d="M24.1778 15.6381C25.6484 15.6381 26.6665 15.4118 27.2322 15.1856C27.0059 15.0725 26.8928 15.0725 26.8928 15.0725C26.8928 14.62 26.7797 14.3937 26.7797 14.1675C26.2141 14.5068 25.4222 14.62 24.1778 14.62C23.1597 14.62 22.3679 14.3937 21.9154 14.1675C21.8023 14.5068 21.6891 14.7331 21.6891 15.1856C21.6891 15.1856 21.576 15.1856 21.4629 15.1856C22.3679 15.525 23.1597 15.6381 24.1778 15.6381Z" fill="#DCDCEA"/>
    <path d="M28.1367 16.0905C26.8924 16.543 23.6118 17.2217 20.7837 15.8643C20.5575 16.2036 20.4443 16.6561 20.4443 17.2217H24.4036H28.363C28.363 16.7692 28.2498 16.4299 28.1367 16.0905Z" fill="#DCDCEA"/>
    <path d="M24.4031 13.6018C25.1949 13.6018 25.7605 13.4886 26.213 13.2624C26.0999 13.2624 25.9868 13.1493 25.9868 13.1493C25.9868 12.923 25.8737 12.6968 25.7605 12.6968C25.3081 12.923 24.9687 13.0361 24.5162 13.0361C23.9506 13.0361 23.385 12.923 23.1587 12.6968C23.0456 12.8099 22.9325 13.0361 22.9325 13.2624C22.9325 13.2624 22.9325 13.2624 22.8193 13.2624C23.1587 13.4886 23.7243 13.6018 24.4031 13.6018Z" fill="#DCDCEA"/>
    <path d="M28.4759 17.5611H20.5573C20.4442 17.5611 20.3311 17.448 20.3311 17.3349C20.3311 15.5249 21.236 15.0724 21.6885 14.9593C21.8017 13.6018 22.4804 13.2625 22.8198 13.0362C23.046 12.2443 23.4985 12.1312 23.8379 12.0181C24.0641 11.905 24.1772 11.4525 24.1772 11.2262C24.1772 11.1131 24.1772 11 24.2904 11C24.4035 11 24.5166 11 24.5166 11C24.6297 11.1131 25.4216 11.5656 25.4216 12.2444C25.761 12.3575 25.9872 12.6968 26.1003 13.1493C26.4397 13.2625 27.1184 13.715 27.2316 15.0724C27.684 15.1856 28.589 15.7512 28.589 17.3349C28.589 17.448 28.589 17.448 28.4759 17.5611C28.589 17.5611 28.3628 17.6743 28.4759 17.5611ZM20.7835 16.9955H28.1365C27.9103 15.5249 27.0053 15.4118 27.0053 15.4118C26.8922 15.4118 26.7791 15.2987 26.7791 15.1856C26.7791 13.715 25.9872 13.6018 25.8741 13.6018C25.761 13.6018 25.6478 13.4887 25.6478 13.3756C25.6478 12.81 25.3085 12.6968 25.1954 12.6968C25.0822 12.6968 24.9691 12.4706 24.9691 12.3575C25.0822 12.1312 24.856 11.905 24.6297 11.7919C24.5166 12.1312 24.2904 12.4706 23.951 12.6968C23.4985 12.81 23.2723 12.9231 23.1591 13.4887C23.1591 13.6018 23.046 13.715 22.9329 13.715C22.9329 13.715 22.0279 13.9412 22.0279 15.2987C22.0279 15.4118 21.9148 15.5249 21.8017 15.5249C21.9148 15.4118 20.8967 15.5249 20.7835 16.9955Z" fill="#823A3A"/>
    <path d="M33.5658 29.8919H29.2671L28.249 25.9326H34.5839L33.5658 29.8919Z" fill="#FFDFB3"/>
    <path d="M34.5845 25.9326H34.0189L33.4533 28.6476C33.2271 28.6476 33.0008 28.7607 32.7746 28.7607L33.114 25.9326H32.6615L32.3221 28.7607C31.9827 28.7607 31.8696 28.7607 31.5302 28.7607V26.0457H31.0777V28.7607C30.8515 28.7607 30.6252 28.6476 30.399 28.5345L30.0596 26.0457H29.6071L29.7203 28.3082C29.3809 28.082 29.0415 27.8557 28.7021 27.7426L29.2678 30.005H33.5664L34.5845 25.9326Z" fill="#E2BF9A"/>
    <path d="M29.2668 30.0049C29.1537 30.0049 29.0406 29.8918 29.0406 29.8918L28.0225 26.0456C28.0225 25.9325 28.0225 25.8193 28.1356 25.8193C28.2487 25.8193 28.3618 25.8193 28.3618 25.9325L29.3799 29.7786C29.4931 29.8918 29.3799 30.0049 29.2668 30.0049Z" fill="#823A3A"/>
    <path d="M30.3985 30.0047C30.2853 30.0047 30.1722 29.8916 30.1722 29.7785L29.7197 25.9323C29.7197 25.8192 29.8328 25.7061 29.946 25.7061C30.0591 25.7061 30.1722 25.8192 30.1722 25.9323L30.6247 29.7785C30.6247 29.8916 30.5116 30.0047 30.3985 30.0047Z" fill="#823A3A"/>
    <path d="M31.4157 30.0047C31.3026 30.0047 31.1895 29.8916 31.1895 29.7785V25.9323C31.1895 25.8192 31.3026 25.7061 31.4157 25.7061C31.5288 25.7061 31.642 25.8192 31.642 25.9323V29.7785C31.642 30.0047 31.5288 30.0047 31.4157 30.0047Z" fill="#823A3A"/>
    <path d="M32.4343 30.0047C32.3211 30.0047 32.208 29.8916 32.208 29.7785L32.6605 25.9323C32.6605 25.8192 32.7736 25.7061 32.8867 25.7061C32.9999 25.7061 33.113 25.8192 33.113 25.9323L32.6605 29.7785C32.6605 30.0047 32.5474 30.0047 32.4343 30.0047Z" fill="#823A3A"/>
    <path d="M33.5661 30.0044C33.453 30.0044 33.3398 29.8913 33.3398 29.7781L34.3579 25.932C34.3579 25.8188 34.4711 25.7057 34.5842 25.8188C34.6973 25.8188 34.8104 25.9319 34.6973 26.0451L33.6792 29.8913C33.6792 30.0044 33.6792 30.0044 33.5661 30.0044Z" fill="#823A3A"/>
    <path d="M33.5655 30.1179H29.2668C29.1537 30.1179 29.0406 30.0047 29.0406 29.8916L28.0225 26.0454C28.0225 25.9323 28.0225 25.9323 28.0225 25.8192C28.0225 25.7061 28.1356 25.7061 28.2487 25.7061H34.4705C34.5836 25.7061 34.5836 25.7061 34.6967 25.8192C34.6967 25.9323 34.8098 25.9323 34.6967 26.0454L33.6786 29.8916C33.7917 30.0047 33.6786 30.1179 33.5655 30.1179ZM29.493 29.5522H33.3392L34.2442 26.1585H28.7012L29.493 29.5522Z" fill="#823A3A"/>
    <path d="M35.6013 24.4614C35.6013 26.3845 33.6782 25.932 31.3026 25.932C28.927 25.932 27.0039 26.3845 27.0039 24.4614C27.0039 22.5383 28.927 20.9546 31.3026 20.9546C33.6782 20.9546 35.6013 22.5383 35.6013 24.4614Z" fill="#FFBF66"/>
    <path d="M29.38 26.3845C28.475 26.3845 27.6832 26.2714 27.1175 25.8189C26.7782 25.4795 26.665 25.027 26.665 24.4614C26.665 22.3121 28.7013 20.6152 31.3031 20.6152C33.9049 20.6152 35.9412 22.3121 35.9412 24.4614C35.9412 25.027 35.828 25.4795 35.4886 25.8189C34.8099 26.3845 33.7918 26.3845 32.3212 26.3845C31.6425 26.3845 30.8506 26.3845 30.1719 26.3845C29.9456 26.3845 29.7194 26.3845 29.38 26.3845ZM31.4162 21.4071C29.2669 21.4071 27.4569 22.7646 27.4569 24.4614C27.4569 24.8008 27.57 25.1402 27.6832 25.2533C28.1357 25.7058 29.0406 25.5927 30.285 25.5927C30.9637 25.5927 31.7556 25.5927 32.4343 25.5927C33.5656 25.5927 34.5837 25.7058 35.0362 25.2533C35.2624 25.1402 35.2624 24.8008 35.2624 24.4614C35.2624 22.7646 33.5656 21.4071 31.4162 21.4071Z" fill="#823A3A"/>
    <path d="M29.607 22.6514C29.7201 22.5383 29.8332 22.4252 29.9463 22.4252C30.1726 22.4252 30.2857 22.5383 30.3988 22.6514C30.6251 22.6514 30.7382 22.6514 30.9644 22.6514C31.0776 22.5383 31.1907 22.4252 31.3038 22.4252C31.6432 22.4252 31.7563 22.8777 31.9826 22.8777C32.4351 22.8777 32.435 22.4252 32.6613 22.4252C33.1138 22.4252 33.1138 22.8777 33.34 22.8777C33.7925 22.8777 33.7925 22.4252 34.0188 22.4252C34.1319 22.4252 34.245 22.4252 34.245 22.5383C34.245 22.5383 34.245 22.4252 34.3581 22.4252C33.6794 21.7464 32.6613 21.2939 31.4169 21.2939C30.2857 21.2939 29.2676 21.6333 28.5889 22.1989C28.9282 22.3121 29.1545 22.5383 29.3807 22.6514C29.3807 22.6514 29.4938 22.6514 29.607 22.6514Z" fill="#FFFEFF"/>
    <path d="M34.8113 23.1041C34.472 23.1041 34.3588 22.991 34.3588 22.8779C34.2457 22.7647 34.2457 22.6516 34.0195 22.6516C33.9063 22.6516 33.9063 22.6516 33.7932 22.7647C33.6801 22.8779 33.567 22.991 33.3407 22.991C33.1145 22.991 33.0014 22.8779 33.0014 22.7647C32.8882 22.6516 32.8882 22.5385 32.662 22.5385C32.5489 22.5385 32.5489 22.5385 32.4357 22.6516C32.3226 22.7647 32.2095 22.8779 31.9833 22.8779C31.757 22.8779 31.6439 22.7647 31.5308 22.6516C31.3045 22.4254 31.1914 22.4254 31.0783 22.6516C30.9651 22.7647 30.852 22.8779 30.6258 22.8779C30.3995 22.8779 30.2864 22.7647 30.2864 22.6516C30.1733 22.5385 30.1733 22.4254 29.947 22.4254C29.8339 22.4254 29.8339 22.4254 29.7208 22.5385C29.6077 22.6516 29.4945 22.7647 29.2683 22.7647C29.042 22.7647 28.9289 22.6516 28.9289 22.5385C28.8158 22.4254 28.8158 22.3122 28.5896 22.3122C28.4764 22.3122 28.4764 22.3122 28.3633 22.4254C28.2502 22.5385 28.1371 22.6516 27.9108 22.6516H27.7977C27.7977 22.6516 27.6846 22.6516 27.6846 22.5385V22.4254C28.4764 21.4073 29.8339 20.7285 31.4176 20.7285C32.8882 20.7285 34.2457 21.2941 35.1507 22.4254V22.5385C34.9244 22.991 34.9245 23.1041 34.8113 23.1041ZM32.662 22.4254C32.8882 22.4254 33.1145 22.5385 33.1145 22.6516C33.2276 22.7647 33.2276 22.7647 33.3407 22.7647C33.4539 22.7647 33.567 22.6516 33.6801 22.5385C33.7932 22.4254 33.9063 22.3122 34.0195 22.3122C34.0195 22.3122 34.0195 22.3122 34.1326 22.3122C33.3407 21.7466 32.3226 21.4073 31.3045 21.4073C30.1733 21.4073 29.1552 21.7466 28.4764 22.3122C28.4764 22.3122 28.4764 22.3122 28.5896 22.3122C28.8158 22.3122 29.042 22.4254 29.042 22.5385C29.1552 22.6516 29.1552 22.6516 29.2683 22.6516C29.3814 22.6516 29.4945 22.5385 29.6077 22.4254C29.7208 22.3122 29.8339 22.1991 29.947 22.1991C30.1733 22.1991 30.3995 22.3122 30.3995 22.4254C30.5126 22.5385 30.5126 22.5385 30.6258 22.5385C30.7389 22.5385 30.7389 22.4254 30.852 22.4254C30.9651 22.3122 31.0783 22.1991 31.3045 22.1991C31.5308 22.1991 31.6439 22.3122 31.757 22.4254C31.8701 22.5385 31.8701 22.5385 31.9833 22.5385C32.0964 22.5385 32.2095 22.4254 32.3226 22.3122C32.3226 22.5385 32.4357 22.4254 32.662 22.4254Z" fill="#823A3A"/>
    <path d="M28.9274 23.6693C28.9274 23.8955 28.7012 24.1218 28.4749 24.1218C28.2487 24.1218 28.0225 23.8955 28.0225 23.6693C28.0225 23.443 28.2487 23.2168 28.4749 23.2168C28.7012 23.2168 28.9274 23.443 28.9274 23.6693Z" fill="#FFCB92"/>
    <path d="M29.4945 25.3664C29.7444 25.3664 29.947 25.1638 29.947 24.9139C29.947 24.664 29.7444 24.4614 29.4945 24.4614C29.2446 24.4614 29.042 24.664 29.042 24.9139C29.042 25.1638 29.2446 25.3664 29.4945 25.3664Z" fill="#FFCB92"/>
    <path d="M30.9642 24.3483C31.2141 24.3483 31.4167 24.1458 31.4167 23.8959C31.4167 23.6459 31.2141 23.4434 30.9642 23.4434C30.7143 23.4434 30.5117 23.6459 30.5117 23.8959C30.5117 24.1458 30.7143 24.3483 30.9642 24.3483Z" fill="#FFCB92"/>
    <path d="M33.5667 23.8967C33.8166 23.8967 34.0192 23.6941 34.0192 23.4442C34.0192 23.1943 33.8166 22.9917 33.5667 22.9917C33.3168 22.9917 33.1143 23.1943 33.1143 23.4442C33.1143 23.6941 33.3168 23.8967 33.5667 23.8967Z" fill="#FFCB92"/>
    <path d="M33.114 25.1405C33.114 25.3667 32.8877 25.593 32.6615 25.593C32.4352 25.593 32.209 25.3667 32.209 25.1405C32.209 24.9142 32.4352 24.688 32.6615 24.688C33.0008 24.688 33.114 24.9142 33.114 25.1405Z" fill="#FFBF66"/>
    <path d="M34.6986 25.0275C34.9485 25.0275 35.1511 24.825 35.1511 24.5751C35.1511 24.3251 34.9485 24.1226 34.6986 24.1226C34.4487 24.1226 34.2461 24.3251 34.2461 24.5751C34.2461 24.825 34.4487 25.0275 34.6986 25.0275Z" fill="#FFCB92"/>
</svg>
