<svg width="49" height="48" viewBox="0 0 49 48" fill="none" xmlns="http://www.w3.org/2000/svg">
    <rect x="0.5" width="48" height="48" rx="24" fill="#95E1F6"/>
    <path opacity="0.2" d="M36.9996 31.2002C36.9996 34.8002 31.3996 37.6002 24.2996 37.6002C20.7996 37.6002 17.6996 36.9002 15.2996 35.7002C12.9996 34.5002 11.5996 32.9002 11.5996 31.1002C11.5996 27.5002 17.1996 24.7002 24.2996 24.7002C29.5996 24.7002 33.9996 26.3002 35.8996 28.6002C36.5996 29.4002 36.9996 30.3002 36.9996 31.2002Z" fill="#3A3A3A"/>
    <path d="M36.2 18.5998H32.2C30 17.4998 27.3 16.7998 24.3 16.7998C21.3 16.7998 18.7 17.4998 16.4 18.5998H12.4C12.4 18.5998 11.5 23.1998 11.5 25.2998C11.5 30.0998 17.2 33.7998 24.2 33.7998C31.2 33.7998 36.9 29.9998 36.9 25.2998C37.1 23.0998 36.2 18.5998 36.2 18.5998Z" fill="#FFDFB3"/>
    <mask id="mask0_1129_34090" style="mask-type:luminance" maskUnits="userSpaceOnUse" x="11" y="16" width="26" height="18">
        <path d="M36.2 18.5998H32.2C30 17.4998 27.3 16.7998 24.3 16.7998C21.3 16.7998 18.7 17.4998 16.4 18.5998H12.4C12.4 18.5998 11.5 23.1998 11.5 25.2998C11.5 30.0998 17.2 33.7998 24.2 33.7998C31.2 33.7998 36.9 29.9998 36.9 25.2998C37.1 23.0998 36.2 18.5998 36.2 18.5998Z" fill="white"/>
    </mask>
    <g mask="url(#mask0_1129_34090)">
        <path d="M11.7002 19.7C11.7002 19.7 16.0002 28.9 32.3002 24.4C32.3002 24.4 35.7002 26.5 32.3002 31.5C28.9002 36.6 46.6002 23.8 46.6002 23.8L41.3002 15.8L25.2002 15.5L8.2002 17L11.7002 19.7Z" fill="#E2BF9A"/>
    </g>
    <mask id="mask1_1129_34090" style="mask-type:luminance" maskUnits="userSpaceOnUse" x="11" y="16" width="26" height="18">
        <path d="M36.2 18.5998H32.2C30 17.4998 27.3 16.7998 24.3 16.7998C21.3 16.7998 18.7 17.4998 16.4 18.5998H12.4C12.4 18.5998 11.5 23.1998 11.5 25.2998C11.5 30.0998 17.2 33.7998 24.2 33.7998C31.2 33.7998 36.9 29.9998 36.9 25.2998C37.1 23.0998 36.2 18.5998 36.2 18.5998Z" fill="white"/>
    </mask>
    <g mask="url(#mask1_1129_34090)">
        <path opacity="0.49" d="M17.9004 19.4999C17.9004 19.4999 10.4004 32.4999 19.7004 39.0999C28.8004 45.5999 5.1004 42.9999 5.1004 42.7999C5.1004 42.5999 3.90039 19.0999 3.90039 19.0999L16.4004 10.3999L17.9004 19.4999Z" fill="#FFFAF3"/>
    </g>
    <mask id="mask2_1129_34090" style="mask-type:luminance" maskUnits="userSpaceOnUse" x="11" y="16" width="26" height="18">
        <path d="M36.2 18.5998H32.2C30 17.4998 27.3 16.7998 24.3 16.7998C21.3 16.7998 18.7 17.4998 16.4 18.5998H12.4C12.4 18.5998 11.5 23.1998 11.5 25.2998C11.5 30.0998 17.2 33.7998 24.2 33.7998C31.2 33.7998 36.9 29.9998 36.9 25.2998C37.1 23.0998 36.2 18.5998 36.2 18.5998Z" fill="white"/>
    </mask>
    <g mask="url(#mask2_1129_34090)">
        <path opacity="0.18" d="M9.59961 28.3999C9.59961 28.3999 22.6996 36.7999 40.1996 28.3999C57.6996 19.9999 20.3996 47.4999 20.3996 47.4999C20.3996 47.4999 17.3996 49.0999 15.7996 46.8999C14.1996 44.5999 9.59961 28.3999 9.59961 28.3999Z" fill="#823A3A"/>
    </g>
    <path d="M24.3996 34.0999C17.1996 34.0999 11.5996 30.0999 11.5996 24.9999C11.5996 22.7999 12.4996 18.0999 12.4996 17.8999V17.6999H16.5996C19.2996 16.4999 21.7996 15.8999 24.4996 15.8999C27.3996 15.8999 30.0996 16.4999 32.3996 17.6999H36.4996V17.8999C36.4996 18.0999 37.3996 22.6999 37.1996 24.9999C37.1996 29.9999 31.3996 34.0999 24.3996 34.0999ZM12.8996 18.1999C12.6996 19.0999 11.9996 23.0999 11.9996 24.9999C11.9996 29.7999 17.3996 33.5999 24.2996 33.5999C31.0996 33.5999 36.5996 29.6999 36.5996 24.9999C36.7996 22.9999 36.0996 19.0999 35.8996 18.1999H32.0996C29.7996 16.9999 27.1996 16.3999 24.3996 16.3999C21.7996 16.3999 19.2996 16.9999 16.6996 18.1999H16.5996H12.8996Z" fill="#823A3A"/>
    <path d="M17.6998 29.6001C16.5998 29.0001 15.4998 28.6001 14.4998 27.8001C14.3998 27.7001 14.2998 27.5001 14.2998 27.2001C14.2998 26.6001 14.2998 25.9001 14.3998 25.4001C14.4998 24.9001 14.9998 24.8001 15.0998 24.9001C15.8998 25.5001 16.8998 25.9001 17.8998 26.3001C18.0998 26.4001 18.3998 26.6001 18.3998 26.9001C18.3998 27.6001 18.3998 28.4001 18.3998 29.1001C18.4998 29.4001 17.9998 29.7001 17.6998 29.6001Z" fill="#823A3A"/>
    <path d="M24.3998 11C30.9998 11 36.4998 13.5 36.4998 17.3C36.4998 21.1 31.0998 24.1 24.3998 24.1C17.7998 24.1 12.2998 21.1 12.2998 17.3C12.2998 13.5 17.5998 11 24.3998 11Z" fill="#823A3A"/>
    <path d="M35.1996 16.8999C35.1996 20.0999 30.2996 22.7999 24.3996 22.7999C18.4996 22.7999 13.5996 20.1999 13.5996 16.8999C13.5996 13.6999 18.4996 11.3999 24.3996 11.3999C30.3996 11.3999 35.1996 13.5999 35.1996 16.8999Z" fill="#823A3A"/>
    <path d="M24.3998 22.9004C30.254 22.9004 34.9998 20.6618 34.9998 17.9004C34.9998 15.139 30.254 12.9004 24.3998 12.9004C18.5456 12.9004 13.7998 15.139 13.7998 17.9004C13.7998 20.6618 18.5456 22.9004 24.3998 22.9004Z" fill="#F4511E"/>
    <path d="M24.4002 22.9002C18.5002 22.9002 13.7002 20.6002 13.7002 17.8002C13.7002 15.0002 18.5002 12.7002 24.4002 12.7002C30.3002 12.7002 35.1002 15.0002 35.1002 17.8002C35.1002 20.6002 30.3002 22.9002 24.4002 22.9002ZM24.4002 13.0002C18.6002 13.0002 13.9002 15.2002 13.9002 17.9002C13.9002 20.6002 18.6002 22.8002 24.4002 22.8002C30.2002 22.8002 34.9002 20.6002 34.9002 17.9002C34.9002 15.2002 30.2002 13.0002 24.4002 13.0002Z" fill="#424242"/>
    <path d="M33.5002 17.3C32.8002 17.1 32.1002 17.2 31.6002 16.8C31.0002 16.5 30.8002 16 30.1002 16C29.6002 16 29.4002 16.2 29.0002 16.5C28.5002 16.7 28.3002 16.7 27.7002 16.7C27.2002 16.6 27.0002 16.4 26.6002 16.4C26.0002 16.3 25.8002 16.4 25.3002 16.6C24.8002 16.8 24.6002 17.2 24.3002 17.2C23.7002 17.2 23.5002 16.9 22.9002 16.9C22.4002 16.8 22.2002 17 21.8002 17.2C21.3002 17.4 21.1002 17.8 20.8002 17.8C20.3002 18 20.1002 18 19.7002 17.8C19.4002 17.6 19.1002 17.2 19.4002 17.1C19.5002 16.9 19.9002 16.8 20.1002 16.8C20.3002 16.8 20.7002 16.8 20.8002 16.8C21.4002 16.6 21.5002 16 22.1002 15.7C22.7002 15.5 23.0002 15.7 23.6002 15.8C23.9002 15.9 24.3002 16 24.6002 16C24.7002 16 24.9002 15.9 25.1002 15.8C25.3002 15.8 25.6002 15.8 25.7002 15.8C26.4002 15.8 27.1002 15.7 27.6002 15.6C28.2002 15.5 28.5002 15.4 29.1002 15.3C29.3002 15.3 29.7002 15.1 29.3002 14.7C29.2002 14.6 28.7002 14.5 28.6002 14.5C28.4002 14.5 28.0002 14.6 27.9002 14.6C27.3002 14.6 26.9002 14 26.2002 14C25.4002 13.9 24.6002 14.8 23.8002 14.7C23.2002 14.6 22.9002 14.1 22.3002 14.1C21.8002 14 21.5002 14.1 21.0002 14.3C20.4002 14.6 20.3002 15 19.7002 15.1C19.1002 15.4 18.9002 15.7 18.2002 15.8C17.5002 15.9 16.5002 15.7 16.3002 16.5C16.2002 16.8 16.2002 17.1 16.2002 17.2C16.2002 17.5 16.1002 17.8 16.0002 17.9C15.8002 18.1 15.4002 18.2 15.3002 18.5C15.1002 18.6 15.0002 18.8 14.7002 19C15.0002 19.5 15.4002 19.8 16.0002 20.1C16.0002 20 16.1002 19.9 16.1002 19.8C16.3002 19.5 16.6002 19.2 16.8002 19.1C17.4002 18.9 17.8002 19.1 18.4002 19.1C18.9002 19.1 19.1002 18.9 19.3002 18.8C19.5002 18.7 19.9002 18.5 20.2002 18.3C20.7002 18.2 20.9002 18.3 21.1002 18.5C21.3002 18.7 21.6002 19.2 21.3002 19.3C21.1002 19.4 20.7002 19.6 20.6002 19.6C20.5002 19.6 20.0002 19.5 19.8002 19.5C18.9002 19.5 18.1002 20.3 17.3002 20.8C18.1002 21.4 19.2002 21.6 20.5002 21.9C20.6002 21.8 20.7002 21.7 20.7002 21.7C21.0002 21.4 21.4002 21 21.8002 21.1C22.3002 21.2 22.5002 21.7 22.7002 21.8C23.0002 22 23.4002 21.9 23.6002 21.9C23.9002 21.8 24.2002 21.7 24.5002 21.6C25.6002 21.1 27.1002 21.4 28.1002 22.2C29.4002 21.9 30.5002 21.5 31.5002 21.2C31.3002 21.1 31.2002 20.9 31.0002 20.6C30.8002 20.4 30.5002 20 30.3002 20C29.7002 19.8 29.0002 20.3 28.5002 20.1C28.0002 20 27.8002 19.5 27.6002 19.4C27.0002 18.9 26.3002 18.9 25.7002 19.1C25.1002 19.3 24.3002 19.4 23.6002 19.4C23.4002 19.4 23.1002 19.4 23.0002 19.2C22.9002 19 23.0002 18.6 23.1002 18.5C23.3002 18.2 23.7002 17.9 23.9002 17.9C24.5002 17.9 24.8002 18.4 25.3002 18.2C25.9002 18.1 26.0002 17.5 26.6002 17.3C26.9002 17.2 27.2002 17.4 27.4002 17.6C27.7002 17.8 28.0002 18.1 28.1002 18.3C28.4002 18.5 28.7002 18.5 28.8002 18.6C29.0002 18.7 29.4002 18.8 29.5002 18.8C30.1002 18.9 30.5002 18.8 31.2002 18.8C31.9002 18.8 32.3002 18.8 32.8002 19.1C33.1002 19.3 33.4002 19.6 33.4002 19.8C34.0002 19.2 34.3002 18.8 34.7002 18.1C34.5002 17.8 34.0002 17.4 33.5002 17.3Z" fill="#FC8D70"/>
    <path d="M16.8003 16.6997C16.5003 16.9997 16.2003 17.2997 16.1003 17.4997C16.0003 17.7997 15.8003 18.1997 15.9003 18.4997C16.0003 18.7997 16.1003 19.0997 16.4003 19.1997C16.6003 19.4997 16.9003 19.7997 17.0003 19.8997C17.1003 20.0997 17.3003 20.3997 17.5003 20.4997C17.8003 20.6997 18.2003 20.5997 18.5003 20.6997C18.8003 20.7997 19.1003 20.8997 19.2003 21.1997C19.5003 21.2997 19.8003 21.3997 19.9003 21.3997C20.1003 21.3997 20.5003 21.1997 20.5003 20.7997C20.5003 20.5997 20.4003 20.2997 20.2003 20.1997C20.0003 20.0997 19.7003 19.9997 19.6003 19.9997C19.4003 19.8997 19.0003 19.8997 18.9003 19.8997C18.6003 19.8997 18.3003 19.8997 18.1003 19.7997C17.5003 19.6997 17.4003 19.1997 17.1003 18.9997C17.0003 18.8997 16.9003 18.6997 16.8003 18.3997C16.7003 18.1997 16.7003 17.8997 16.9003 17.7997C17.0003 17.5997 17.4003 17.5997 17.5003 17.4997C17.8003 17.2997 18.0003 16.8997 18.1003 16.7997C18.4003 16.1997 18.8003 16.0997 19.2003 15.6997C19.4003 15.5997 19.9003 15.1997 19.8003 15.0997C19.6003 14.8997 19.1003 15.2997 19.0003 15.3997C17.9003 15.7997 17.3003 16.1997 16.8003 16.6997Z" fill="#E0F294"/>
    <path d="M23.2003 21.3001C23.8003 21.4001 24.1003 21.1001 24.7003 21.2001C25.0003 21.3001 25.3003 21.5001 25.5003 21.7001C26.1003 21.8001 26.5003 21.5001 27.1003 21.4001C27.8003 21.3001 28.6003 21.6001 29.3003 21.5001C30.0003 21.4001 30.7003 20.8001 31.2003 20.1001C31.7003 19.5001 31.9003 19.1001 32.1003 18.3001C32.3003 17.6001 32.2003 16.9001 31.6003 16.5001C31.3003 16.2001 30.9003 15.9001 30.7003 15.8001C30.5003 15.7001 30.2003 15.6001 30.1003 15.5001C29.9003 15.4001 29.6003 15.7001 29.9003 16.0001C30.1003 16.1001 30.4003 16.3001 30.5003 16.5001C30.7003 16.7001 31.0003 16.6001 31.1003 16.7001C31.4003 16.9001 31.7003 17.3001 31.7003 17.6001C31.7003 17.9001 31.5003 18.3001 31.1003 18.5001C31.0003 18.6001 30.8003 18.7001 30.6003 18.8001C30.5003 19.0001 30.6003 19.3001 30.6003 19.4001C30.6003 19.7001 30.4003 20.0001 30.3003 20.1001C30.0003 20.6001 29.7003 20.8001 29.3003 20.9001C29.0003 21.0001 28.6003 20.8001 28.4003 20.8001C28.1003 20.8001 27.8003 20.8001 27.7003 20.9001C27.4003 21.0001 27.1003 21.0001 26.9003 21.1001C26.6003 21.2001 26.3003 21.2001 26.1003 21.3001C25.4003 21.4001 24.8003 21.4001 24.2003 21.3001C23.9003 21.2001 23.6003 21.2001 23.4003 21.0001C23.2003 20.9001 22.8003 20.5001 22.7003 20.5001C22.1003 20.6001 22.7003 21.2001 23.2003 21.3001Z" fill="#E0F294"/>
    <path d="M28.4004 15.2999C28.5004 15.3999 28.6004 15.3999 28.7004 15.3999C28.9004 15.3999 29.3004 15.3999 29.3004 15.1999C29.3004 14.9999 29.3004 14.8999 29.1004 14.8999C28.9004 14.7999 28.6004 14.8999 28.5004 14.8999C28.4004 14.7999 28.1004 14.9999 28.4004 15.2999Z" fill="#E0F294"/>
    <path d="M27.3004 14.0999C27.4004 14.2999 27.5004 14.6999 27.3004 14.7999C27.1004 14.7999 27.0004 14.5999 27.0004 14.4999C27.0004 14.2999 27.0004 14.1999 26.9004 13.9999C26.8004 13.8999 26.6004 13.7999 26.4004 13.7999C25.9004 13.7999 25.7004 13.7999 25.3004 13.7999C25.0004 13.7999 24.6004 13.7999 24.4004 13.8999C24.1004 13.8999 23.8004 13.8999 23.7004 13.9999C23.2004 14.0999 23.0004 14.0999 22.7004 14.2999C22.6004 14.2999 22.5004 14.2999 22.5004 14.2999C22.4004 14.1999 22.5004 14.0999 22.6004 13.9999C22.7004 13.8999 22.8004 13.9999 22.9004 13.9999C23.5004 13.9999 23.9004 13.3999 24.6004 13.3999C24.9004 13.3999 25.2004 13.4999 25.5004 13.4999C25.7004 13.4999 26.0004 13.4999 26.1004 13.4999C26.5004 13.5999 27.1004 13.6999 27.3004 14.0999Z" fill="#E0F294"/>
    <path d="M22.6004 16.5999C22.5004 16.6999 22.3004 16.6999 22.1004 16.7999C22.0004 16.8999 21.9004 16.8999 21.9004 17.0999C21.9004 17.1999 22.0004 17.2999 22.1004 17.2999C22.2004 17.2999 22.3004 17.2999 22.4004 17.1999C22.5004 17.0999 22.6004 17.0999 22.6004 16.9999C22.8004 16.7999 23.2004 16.7999 23.3004 16.8999C23.5004 16.8999 23.9004 16.9999 23.8004 16.6999C23.7004 16.4999 23.3004 16.3999 23.2004 16.3999C23.2004 16.3999 22.9004 16.4999 22.6004 16.5999Z" fill="#E0F294"/>
    <path d="M25.6006 17.3998C25.6006 17.4998 25.7006 17.4998 25.7006 17.5998H25.8006C25.9006 17.5998 26.0006 17.5998 26.1006 17.5998C26.2006 17.5998 26.3006 17.5998 26.3006 17.5998C26.5006 17.4998 26.3006 17.3998 26.2006 17.2998C26.1006 17.2998 25.6006 17.2998 25.6006 17.3998Z" fill="#E0F294"/>
    <path d="M19.3004 17.0002C19.2004 16.8002 19.2004 16.4002 19.2004 16.3002C18.7004 16.1002 18.5004 16.0002 17.9004 15.7002C17.9004 15.8002 17.9004 15.8002 17.9004 15.9002C18.0004 16.6002 18.2004 17.4002 18.5004 18.0002C18.5004 18.1002 18.6004 18.2002 18.7004 18.3002C19.2004 18.5002 19.4004 18.8002 19.8004 18.9002H19.9004C19.8004 18.1002 19.5004 17.5002 19.3004 17.0002Z" fill="#E8E88E"/>
    <path d="M19.3006 16.2002C19.4006 15.9002 19.6006 15.7002 19.9006 15.6002C20.4006 15.3002 20.7006 15.0002 21.2006 14.7002C21.1006 14.6002 21.1006 14.5002 21.0006 14.5002C20.7006 14.4002 20.4006 14.3002 20.3006 14.2002C20.1006 14.1002 20.0006 14.2002 19.7006 14.2002C19.1006 14.7002 18.7006 15.0002 18.2006 15.6002C18.1006 15.7002 18.1006 15.8002 18.1006 15.8002C18.6006 15.8002 18.9006 15.9002 19.3006 16.2002C19.2006 16.2002 19.2006 16.2002 19.3006 16.2002Z" fill="#F2F9AF"/>
    <path d="M21.2002 14.7002C20.6002 14.9002 20.3002 15.3002 19.8002 15.5002C19.6002 15.7002 19.2002 15.8002 19.2002 16.1002V16.2002C19.2002 16.4002 19.2002 16.8002 19.3002 16.9002C19.5002 17.5002 19.9002 18.0002 20.0002 18.7002C20.1002 18.7002 20.2002 18.7002 20.2002 18.6002C20.7002 18.4002 20.9002 18.1002 21.2002 17.9002C21.3002 17.8002 21.4002 17.6002 21.4002 17.4002C21.7002 16.7002 21.4002 15.7002 21.2002 14.7002Z" fill="#D8D57D"/>
    <path d="M24.2001 19.8005C23.6001 19.2005 22.9001 18.9005 22.3001 18.5005C22.2001 18.6005 22.2001 18.6005 22.1001 18.7005C21.8001 19.3005 21.5001 19.6005 21.3001 20.2005C21.2001 20.4005 21.2001 20.8005 21.4001 20.9005L22.3001 21.8005C22.4001 21.9005 22.5001 21.9005 22.6001 22.0005C23.2001 21.3005 23.6001 20.6005 24.2001 19.8005C24.0001 19.9005 24.0001 19.9005 24.2001 19.8005Z" fill="#E8E88E"/>
    <path d="M24.2004 19.8004C24.2004 19.9004 24.1004 19.9004 24.1004 20.0004C23.5004 20.7004 23.1004 21.4004 22.4004 22.1004C22.6004 22.1004 22.7004 22.1004 23.0004 22.0004C23.8004 21.3004 24.8004 20.3004 25.5004 19.6004C25.7004 19.4004 25.7004 19.0004 25.6004 18.9004C25.1004 19.0004 24.6004 19.4004 24.2004 19.8004Z" fill="#D8D57D"/>
    <path d="M24.1996 19.8004C24.6996 19.3004 24.9996 19.1004 25.5996 18.8004C25.0996 18.2004 24.7996 18.1004 24.0996 17.9004C23.9996 17.9004 23.7996 17.9004 23.5996 17.9004C22.9996 18.2004 22.5996 18.5004 22.0996 18.7004C22.8996 18.9004 23.5996 19.2004 24.1996 19.8004Z" fill="#F2F9AF"/>
    <path d="M29.5998 18.1999L26.7998 17.8999C26.7998 17.9999 26.7998 18.0999 26.8998 18.0999C26.9998 18.1999 27.0998 18.3999 27.1998 18.5999C27.2998 18.6999 27.2998 18.7999 27.3998 18.7999C28.1998 19.0999 29.1998 19.3999 30.1998 19.4999C30.2998 19.4999 30.2998 19.4999 30.3998 19.4999C30.2998 18.8999 30.0998 18.6999 29.8998 18.0999C29.7998 18.1999 29.6998 18.1999 29.5998 18.1999Z" fill="#E8E88E"/>
    <path d="M31.3002 16.6001C31.2002 16.4001 31.1002 16.3001 30.8002 16.3001C30.0002 16.3001 29.1002 16.2001 28.3002 16.1001C28.1002 16.1001 28.0002 16.1001 27.8002 16.3001L26.8002 17.7001C26.7002 17.8001 26.7002 17.9001 26.7002 18.0001L29.5002 18.3001C29.6002 18.3001 29.7002 18.3001 29.8002 18.2001C29.9002 18.2001 30.0002 18.1001 30.1002 18.0001C30.6002 17.5001 31.0002 17.1001 31.3002 16.6001Z" fill="#F2F9AF"/>
    <path d="M31.3004 16.6001C30.8004 17.2001 30.6004 17.5001 30.2004 18.1001C30.1004 18.2001 30.0004 18.3001 29.9004 18.3001C30.0004 18.9001 30.2004 19.1001 30.4004 19.7001C30.6004 19.7001 30.7004 19.6001 30.9004 19.4001C31.2004 18.7001 31.5004 17.9001 31.6004 17.2001C31.6004 17.1001 31.6004 17.0001 31.6004 16.7001C31.4004 16.7001 31.3004 16.7001 31.3004 16.6001Z" fill="#D8D57D"/>
    <path d="M25.0004 16.5002C24.7004 15.8002 24.4004 14.9002 24.3004 14.1002C24.3004 13.9002 24.2004 13.6002 24.2004 13.5002C24.2004 13.4002 24.3004 13.3002 24.4004 13.2002C24.3004 13.2002 24.2004 13.2002 24.1004 13.3002C24.0004 13.4002 23.9004 13.5002 23.8004 13.6002C23.5004 13.9002 23.2004 14.2002 23.1004 14.4002C23.0004 14.6002 22.9004 14.7002 23.0004 15.0002C23.2004 15.3002 23.6004 15.6002 23.7004 15.7002C24.3004 16.3002 24.6004 16.5002 25.2004 17.1002C25.3004 17.2002 25.4004 17.3002 25.7004 17.2002C25.7004 17.2002 25.6004 17.2002 25.6004 17.1002C25.1004 17.0002 25.1004 16.7002 25.0004 16.5002Z" fill="#E8E88E"/>
    <path d="M26.4 13.9003C25.8 13.6003 25.4 13.3003 24.7 13.3003C24.6 13.3003 24.4 13.3003 24.2 13.3003C24.1 13.4003 24 13.5003 24 13.6003C24 13.8003 24 14.1003 24.1 14.2003C24.3 14.9003 24.7 15.9003 24.8 16.6003C24.9 16.8003 25 17.1003 25.3 17.2003C25.3 17.2003 25.4 17.2003 25.4 17.3003C25.5 17.3003 25.5 17.2003 25.5 17.1003C26 16.4003 26.2 15.7003 26.6 15.0003C26.7 14.8003 26.8 14.5003 26.8 14.4003C26.8 14.2003 26.5 14.0003 26.4 13.9003Z" fill="#F2F9AF"/>
    <path d="M31.4996 18.8997C30.9996 18.2997 30.1996 18.2997 29.6996 18.3997C28.9996 18.5997 28.5996 19.0997 27.8996 19.3997C27.2996 19.6997 26.7996 20.0997 26.0996 20.0997C25.5996 20.0997 25.3996 19.7997 25.2996 19.3997C25.1996 19.2997 25.0996 19.3997 25.0996 19.4997C25.1996 20.0997 25.5996 20.5997 25.8996 20.9997C26.5996 21.4997 27.4996 21.5997 28.2996 21.4997C28.9996 21.4997 29.8996 21.3997 30.4996 20.8997C31.1996 20.6997 32.0996 19.4997 31.4996 18.8997Z" fill="#CC3D3C"/>
    <path d="M31.6994 19C31.4994 19.5 31.0994 19.7 30.9994 19.9C30.3994 20.5 29.8994 20.6 29.1994 20.7C28.8994 20.5 28.5994 20.4 28.3994 20.4C28.1994 20.4 27.7994 20.6 27.5994 20.9C26.9994 20.8 26.5994 20.8 26.0994 20.4C25.7994 20.3 25.4994 19.9 25.3994 19.8C25.4994 20.4 25.8994 20.7 26.1994 20.9C26.8994 21.4 27.7994 21.5 28.5994 21.4C29.2994 21.4 30.1994 21.3 30.7994 20.8C31.1994 20.7 31.9994 19.7 31.6994 19Z" fill="#A92B3D"/>
    <path d="M32.8994 18.2998C32.8994 18.1998 32.7994 17.9998 32.6994 17.7998C32.4994 18.2998 32.0994 18.4998 31.7994 18.4998C31.5994 18.2998 31.0994 17.9998 30.8994 18.1998C30.8994 18.4998 31.0994 18.7998 31.3994 18.7998C31.1994 18.9998 30.8994 19.3998 30.8994 19.4998C31.0994 19.4998 31.4994 19.4998 31.5994 19.2998C31.4994 19.4998 31.4994 19.8998 31.5994 19.8998C31.8994 19.5998 32.1994 19.0998 32.0994 18.5998C32.2994 18.8998 32.8994 18.2998 32.8994 18.2998Z" fill="#C4D150"/>
    <path d="M27.5 34.7999H20.6C20.3 34.7999 20 34.5999 20 34.1999V33.3999H28V34.1999C28 34.5999 27.8 34.7999 27.5 34.7999Z" fill="#823A3A"/>
</svg>
