<svg width="48" height="48" viewBox="0 0 48 48" fill="none" xmlns="http://www.w3.org/2000/svg">
    <rect width="48" height="48" rx="24" fill="#95E1F6"/>
    <path opacity="0.2" d="M39.7661 29.3356C39.8772 33.7782 32.769 37.3324 24.1058 37.4434C19.6632 37.4434 15.7759 36.5549 12.7771 35.111C9.77834 33.6672 8.11235 31.668 8.00128 29.4467C7.89022 25.0041 14.9984 21.4499 23.6616 21.3389C30.2144 21.2278 35.8788 23.227 38.3222 26.1147C39.2108 27.1143 39.7661 28.225 39.7661 29.3356Z" fill="#3A3A3A"/>
    <path d="M25.4391 34.0012C33.2906 34.0012 39.6555 31.0177 39.6555 27.3373C39.6555 23.6569 33.2906 20.6733 25.4391 20.6733C17.5876 20.6733 11.2227 23.6569 11.2227 27.3373C11.2227 31.0177 17.5876 34.0012 25.4391 34.0012Z" fill="#FFBF66"/>
    <path d="M25.4393 34.3346C17.4425 34.3346 10.8896 31.2248 10.8896 27.3375C10.8896 23.4502 17.4425 20.3403 25.4393 20.3403C33.436 20.3403 39.9889 23.4502 39.9889 27.3375C39.9889 31.2248 33.436 34.3346 25.4393 34.3346ZM25.4393 20.8957C17.7757 20.8957 11.445 23.7834 11.445 27.3375C11.445 30.8916 17.6647 33.7793 25.4393 33.7793C33.2139 33.7793 39.4335 30.8916 39.4335 27.3375C39.4335 23.7834 33.2139 20.8957 25.4393 20.8957Z" fill="#823A3A"/>
    <path d="M25.4391 31.558C33.2906 31.558 39.6555 28.7236 39.6555 25.2272C39.6555 21.7309 33.2906 18.8965 25.4391 18.8965C17.5876 18.8965 11.2227 21.7309 11.2227 25.2272C11.2227 28.7236 17.5876 31.558 25.4391 31.558Z" fill="#FFDFB3"/>
    <path d="M25.4393 31.7801C17.3315 31.7801 10.8896 28.8924 10.8896 25.2272C10.8896 21.562 17.2204 18.6743 25.4393 18.6743C33.6581 18.6743 39.9889 21.562 39.9889 25.2272C39.9889 28.8924 33.6581 31.7801 25.4393 31.7801ZM25.4393 19.2296C17.7757 19.2296 11.445 21.8952 11.445 25.2272C11.445 28.5592 17.6647 31.2248 25.4393 31.2248C33.2139 31.2248 39.4335 28.5592 39.4335 25.2272C39.4335 21.8952 33.2139 19.2296 25.4393 19.2296Z" fill="#823A3A"/>
    <path d="M15.2202 23.1168C14.776 24.2274 14.6649 25.6713 15.6645 26.4487C16.3309 27.1151 17.2194 27.2262 18.1079 27.2262C18.9965 27.3373 19.885 27.3373 20.6625 27.7815C21.2178 28.1147 21.551 28.559 21.9952 28.7811C22.6616 29.2254 23.328 29.4475 24.1055 29.5586C26.9932 30.1139 29.992 29.2254 32.3244 27.6705C33.435 26.7819 34.6567 25.7824 34.9899 24.3385C35.101 23.6721 35.101 23.0057 34.6568 22.4504C34.4346 22.1172 33.9903 21.784 33.9903 21.5619C34.1014 21.3397 34.2125 21.1176 34.3235 20.8955C34.4346 20.5623 34.4346 20.3401 34.3235 20.118C34.2125 19.5627 33.8793 19.2295 33.435 19.2295C33.7682 18.3409 33.435 17.2303 32.9908 16.4528C32.5465 15.7864 31.769 15.3422 31.1026 15.12C29.8809 14.7868 28.9924 15.4532 28.1039 16.3418C27.9928 16.4528 27.7707 16.675 27.6596 16.675C27.3264 16.786 26.9932 16.5639 26.8821 16.3418C26.2157 15.7864 25.7715 15.4532 24.994 15.2311C24.5498 15.12 24.3276 15.12 23.9944 15.009C23.7723 14.8979 23.5502 14.6758 23.328 14.5647C22.6616 14.1204 21.7731 14.2315 21.1067 14.4536C20.6625 14.5647 20.4403 14.6758 20.2182 14.8979C19.7739 15.12 19.5518 15.4532 19.3297 15.6754C18.4411 16.786 17.6637 18.341 17.4415 19.8959C17.3305 20.2291 17.4416 20.5623 17.1084 20.7844C16.7752 21.0065 16.442 21.1176 16.2198 21.4508C15.8866 21.784 15.4424 22.5614 15.2202 23.1168Z" fill="#D97400"/>
    <path d="M23.439 15.6753C20.5513 15.7864 18.1078 17.8966 17.6636 20.6733C17.6636 20.7844 17.6636 20.7844 17.6636 20.8954C17.6636 20.8954 17.5525 20.8954 17.4414 20.8954C16.1087 21.5618 15.8865 23.2278 16.664 24.3385C17.5525 25.7823 19.4406 25.4491 20.8845 25.1159C21.2177 25.0049 21.1066 24.4495 20.7734 24.5606C19.7738 24.8938 18.1078 25.227 17.4414 24.2274C16.775 23.4499 16.664 21.784 17.8857 21.3397C18.1078 21.2286 18.1078 21.0065 17.9968 20.8954C18.1078 21.0065 18.33 20.8954 18.441 20.6733C18.9964 18.0077 21.1066 16.1196 23.7722 16.1196C23.5501 16.1196 23.5501 15.5643 23.439 15.6753Z" fill="#CC4700"/>
    <path d="M22.7729 14.2314C20.9959 14.4536 19.552 15.3421 18.5524 16.897C18.3303 17.2302 18.8856 17.5634 19.1078 17.2302C19.8852 15.8974 21.3291 15.0089 22.884 14.8978C23.1061 14.7868 23.1061 14.2314 22.7729 14.2314Z" fill="#CC4700"/>
    <path d="M26.4386 17.2301C26.3275 16.5637 25.8833 16.0084 25.439 15.6752C24.7726 15.342 24.2173 15.453 23.662 15.8973C23.3288 16.1194 23.773 16.5637 24.1062 16.3416C24.5505 16.0084 24.9947 16.0084 25.439 16.3416C25.9943 16.7858 26.1054 17.2301 25.9943 17.8965C25.8833 19.0072 24.9947 20.1178 24.1062 21.0063C23.8841 21.3395 24.2173 21.6727 24.5505 21.4506C25.439 20.2289 26.6607 18.785 26.4386 17.2301Z" fill="#CC4700"/>
    <path d="M24.7725 17.6748C24.7725 17.2305 24.5504 17.0084 24.1061 16.7863C23.5508 16.5641 23.2176 16.8973 22.8844 17.2305C22.6623 17.5637 22.9955 17.8969 23.3287 17.6748C23.6619 17.3416 23.9951 17.1195 24.2172 17.6748C24.3283 18.008 24.2172 18.3412 24.2172 18.5633C23.9951 19.2297 23.6619 19.8961 23.3287 20.5625C23.1066 20.8957 23.6619 21.2289 23.884 20.8957C24.3283 19.8961 24.9947 18.8965 24.7725 17.6748Z" fill="#CC4700"/>
    <path d="M22.5509 19.3402C22.5509 18.8959 22.4399 18.4517 21.8845 18.4517C21.4403 18.4517 21.1071 19.007 20.8849 19.2291C20.5517 19.6734 20.3296 20.1176 20.2185 20.5619C20.1075 20.8951 20.7739 21.1172 20.7739 20.673C20.8849 20.0066 21.3292 19.5623 21.6624 19.007C21.8845 18.7849 21.7735 18.8959 21.8845 19.007C21.9956 19.1181 21.9956 19.4513 21.9956 19.6734C21.9956 20.1177 21.8845 20.3398 21.6624 20.673C21.4403 21.0062 21.9956 21.3394 22.2177 21.0062C22.4399 20.3398 22.5509 19.7845 22.5509 19.3402Z" fill="#CC4700"/>
    <path d="M21.6623 17.4525C20.4406 18.1189 19.33 19.3406 18.8857 20.5624C18.7746 20.8956 19.33 21.1177 19.441 20.6734C19.9964 19.4517 20.7738 18.4521 22.1066 17.7857C22.2177 17.6746 21.8845 17.3415 21.6623 17.4525Z" fill="#CC4700"/>
    <path d="M28.4373 23.0057C28.3263 22.8947 28.3263 22.8947 28.2152 23.0057C27.1046 23.5611 25.6607 23.0057 24.55 23.5611C24.3279 23.6721 24.1058 23.7832 23.8837 23.8942C23.9947 23.6721 23.8836 23.3389 23.5505 23.45C23.2173 23.5611 22.8841 23.3389 22.6619 23.2279C22.4398 23.1168 22.1066 22.8947 21.8845 22.7836C21.3291 22.4504 20.9959 22.0061 20.5517 21.8951C19.7742 21.4508 18.3304 21.2287 17.775 22.1172C17.1086 23.0057 18.1082 23.8943 18.8857 24.2275C19.9963 24.7828 21.4402 24.8938 22.773 25.0049C22.5509 25.3381 22.4398 25.6713 22.3287 25.8934C22.2177 26.4488 22.5509 26.782 22.9951 26.782C23.6615 26.893 24.1058 26.4488 24.6611 26.1156C25.8828 25.3381 27.2156 24.5607 28.3263 23.7832C28.8816 23.3389 28.7705 23.0057 28.4373 23.0057ZM23.2173 24.2275C22.2177 24.0053 20.9959 23.8943 19.9963 23.5611C19.441 23.45 18.9968 23.2279 18.6636 22.7836C18.3304 22.3393 18.4414 21.8951 19.1078 21.784C20.1074 21.5619 20.9959 22.3393 21.7734 22.7836C22.2177 23.1168 22.5509 23.3389 22.8841 23.45C23.3283 23.6721 23.6615 23.8943 24.1058 23.6721C23.8836 23.7832 23.6615 24.0053 23.4394 24.2275C23.3283 24.3385 23.3283 24.3385 23.2173 24.2275ZM24.1058 25.7824C23.8836 25.8934 23.4394 26.1156 23.2173 26.0045C22.8841 25.7824 23.2173 25.3381 23.3283 25.2271C23.8837 24.4496 24.55 24.0053 25.5496 23.7832C26.216 23.6721 26.7714 23.7832 27.4378 23.6721C26.7714 24.1164 26.216 24.4496 25.5496 24.7828C24.9943 25.227 24.6611 25.4492 24.1058 25.7824Z" fill="#CC4700"/>
    <path d="M18.6636 25.7824C17.9972 26.3377 16.8866 26.1156 16.2202 25.6713C15.5538 25.2271 15.1095 24.5607 15.4427 23.7832C15.5538 23.45 15.1095 23.1168 14.8874 23.45C14.3321 24.3386 14.8874 25.5603 15.7759 26.1156C16.6644 26.6709 18.1083 26.782 18.8857 26.1156C19.33 26.0045 18.9968 25.5603 18.6636 25.7824Z" fill="#CC4700"/>
    <path d="M28.3259 17.5635C28.2149 17.2303 27.6595 17.3414 27.7706 17.6746C28.1038 18.341 27.3263 18.8963 26.8821 19.4516C26.4378 20.0069 25.9936 20.3401 25.3272 20.4512C24.994 20.5623 25.105 21.1176 25.4382 21.0065C26.2157 20.7844 26.771 20.2291 27.3263 19.6737C27.9927 19.0074 28.5481 18.3409 28.3259 17.5635Z" fill="#CC4700"/>
    <path d="M31.2136 16.8975C30.3251 16.2311 29.2144 16.2311 28.2148 16.6753C28.2148 16.6753 28.1038 16.6753 28.1038 16.7864C27.8816 16.8975 27.9927 17.3417 28.3259 17.3417C28.9923 17.3417 29.5476 18.1192 29.7697 18.6745C30.1029 19.3409 29.9919 20.1184 29.5476 20.6737C29.1034 21.3401 28.6591 21.5622 27.9927 21.8954C27.3263 22.3397 26.6599 22.5618 25.7714 22.5618C25.4382 22.5618 25.4382 23.1172 25.7714 23.1172C26.1046 23.1172 26.4378 23.1172 26.6599 23.1172C26.6599 23.2282 26.771 23.3393 26.9931 23.3393C27.9927 23.3393 29.1034 22.784 29.9919 22.3397C30.8804 21.6733 31.7689 21.0069 31.88 19.8963C32.2132 18.6745 32.2132 17.5639 31.2136 16.8975ZM31.2136 20.0073C30.8804 20.7848 30.103 21.3401 29.3255 21.8954C28.7702 22.2286 28.437 22.5618 27.8816 22.5618C28.1038 22.4508 28.2148 22.3397 28.437 22.2286C29.2144 21.7844 29.8808 21.3401 30.214 20.4516C30.5472 19.6741 30.5472 18.7856 30.1029 18.1192C29.8808 17.6749 29.4366 17.2307 29.2144 17.1196C29.8808 17.0085 30.4361 17.0086 31.1025 17.4528C31.7689 17.8971 31.5468 19.1188 31.2136 20.0073Z" fill="#CC4700"/>
    <path d="M30.7694 22.7836C30.214 23.3389 29.7698 23.6721 29.2144 24.1164C28.6591 24.5606 28.2149 25.0049 27.4374 25.0049C27.1042 25.0049 27.1042 25.5602 27.4374 25.5602C28.1038 25.6713 28.7702 25.227 29.3255 24.7828C29.9919 24.1164 30.5472 23.7832 31.2136 23.1168C31.3247 23.0057 30.8804 22.6725 30.7694 22.7836Z" fill="#CC4700"/>
    <path d="M33.3241 22.7835C33.213 22.4503 32.6577 22.7835 32.7688 23.1167C33.4352 24.5606 31.6581 25.8934 30.6585 26.3376C30.3253 26.5598 30.6585 27.004 30.9917 26.893C32.2134 26.1155 34.1016 24.6716 33.3241 22.7835Z" fill="#CC4700"/>
    <path d="M33.8801 26.1157C32.7694 26.8932 31.5477 27.5595 30.4371 28.337C29.3264 29.0034 27.8825 29.2255 26.5498 29.3366C25.5502 29.4477 24.4395 29.4477 23.4399 29.2255C23.662 29.2255 23.8842 29.3366 24.1063 29.3366C24.9948 29.4477 25.8834 29.4477 26.6608 29.1145C27.4383 28.7813 28.2157 28.337 28.7711 27.7817C28.9932 27.5595 28.66 27.1153 28.3268 27.3374C27.7715 27.8928 27.1051 28.2259 26.4387 28.4481C25.7723 28.7813 24.8838 28.6702 24.1063 28.6702C23.4399 28.5591 22.6624 28.4481 22.1071 28.0038C21.9961 27.8928 21.7739 27.7817 21.6629 27.5595C22.1071 28.0038 22.5514 28.226 23.2178 28.226C24.5506 28.4481 25.9944 28.337 27.4383 27.7817C27.7715 27.6706 27.6604 27.1153 27.3272 27.2263C26.2166 27.6706 24.9948 27.8928 23.8842 27.6706C23.2178 27.5596 22.7735 27.4485 22.2182 27.1153C21.7739 26.7821 21.5518 26.3378 21.5518 25.8936C21.5518 25.5604 20.8854 25.6714 20.9965 26.0046C20.9965 26.1157 20.9965 26.2268 21.1075 26.4489C20.9965 26.3378 20.9965 26.2268 20.8854 26.1157C20.6633 25.7825 20.219 26.1157 20.3301 26.4489C20.5522 26.7821 20.7743 27.1153 20.9965 27.3374C20.6633 27.0042 20.3301 26.671 20.1079 26.4489C19.7747 26.2268 19.4415 26.7821 19.7747 27.0042C20.4411 27.4485 20.6633 27.8927 21.1075 28.337C21.5518 28.7813 21.996 29.1145 22.5514 29.2255C23.7731 29.8919 25.328 29.8919 26.6608 29.6698C27.9936 29.5587 29.4375 29.3366 30.5481 28.7813C31.7698 28.1149 33.1026 27.2264 34.3244 26.4489C34.4354 26.4489 34.2133 25.8936 33.8801 26.1157Z" fill="#CC4700"/>
    <path d="M23.439 23.8942C23.55 23.7831 23.439 23.561 23.2169 23.4499C22.3283 23.3388 21.5509 22.6724 20.6623 22.3392C19.9959 22.006 18.9963 21.5618 18.6631 22.3392C18.33 23.1167 19.3296 23.7831 19.8849 24.0052C20.7734 24.3384 21.9951 24.4495 22.9947 24.3384C23.439 24.3384 23.55 24.0052 23.439 23.8942ZM19.8849 23.2278C19.6627 23.1167 18.9963 22.4503 19.5517 22.3392C20.2181 22.2282 20.8845 22.8946 21.4398 23.2278C21.773 23.4499 22.1062 23.672 22.3283 23.7831C21.773 23.7831 21.3287 23.672 20.7734 23.561C20.4402 23.561 20.107 23.4499 19.8849 23.2278Z" fill="#FFC400"/>
    <path d="M28.3256 23.3391C28.2146 23.3391 28.1035 23.228 27.9924 23.228C27.1039 23.3391 26.1043 23.5612 25.2158 23.8944C24.6605 24.1165 23.5498 24.6719 23.9941 25.2272C24.4383 25.8936 25.6601 25.2272 25.9933 25.0051C26.8818 24.5608 27.6592 24.1166 28.5478 23.7834C28.881 23.7834 28.5478 23.228 28.3256 23.3391ZM24.6605 25.1161C24.3273 25.1161 24.5494 25.1161 24.6605 24.894C24.7715 24.7829 24.9937 24.6719 25.1047 24.5608C25.4379 24.3387 25.7711 24.2276 25.9933 24.2276C26.4375 24.1165 26.7707 24.0055 27.215 23.8944C26.9929 24.0055 26.7707 24.1165 26.5486 24.2276C25.9933 24.6719 25.3269 25.0051 24.6605 25.1161Z" fill="#FFC400"/>
    <path d="M34.4352 23.1168C33.9909 22.4504 33.1024 22.3394 32.436 22.3394C31.5475 22.3394 30.5479 22.5615 29.6594 23.0058C29.3262 23.1168 29.4372 23.6722 29.7704 23.5611C30.4368 23.2279 31.1032 23.0058 31.7696 23.0058C32.436 23.0058 33.3246 23.0058 33.7688 23.45C34.3241 24.0053 33.7688 24.7828 33.5467 25.2271C33.2135 25.7824 32.8803 26.1156 32.436 26.5599C31.4364 27.4484 29.9926 27.6705 28.6598 27.8926C27.8823 28.0037 27.2159 28.1148 26.5495 28.0037C25.8831 27.8927 25.2167 28.1148 24.5504 28.2258C23.6618 28.448 22.7733 28.559 21.9958 28.1148C21.3294 27.6705 20.552 27.3373 19.9967 26.8931C19.6635 26.6709 19.3303 27.0041 19.5524 27.3373C20.2188 28.0037 20.8852 28.2258 21.5516 28.559C22.218 29.0033 22.9954 29.1144 23.7729 29.0033C24.6614 28.8922 25.5499 28.448 26.4385 28.559C26.8827 28.559 27.2159 28.6701 27.5491 28.6701C27.9934 28.6701 28.4377 28.559 28.7709 28.448C30.3258 28.2258 31.7696 27.7816 32.9913 26.782C33.5467 26.2267 33.8799 25.7824 34.2131 25.0049C34.5463 24.4496 34.6573 23.7832 34.4352 23.1168Z" fill="#FFC400"/>
    <path d="M28.5489 16.6746C28.1047 16.7857 28.3268 17.341 28.7711 17.341C29.4375 17.2299 29.9928 17.5631 30.326 18.1185C30.7702 18.7849 30.6592 19.5623 30.2149 20.1176C29.8817 20.784 29.3264 21.2283 28.7711 21.5615C28.1047 22.0058 27.4383 22.0058 26.7719 22.2279C26.3276 22.45 26.7719 22.8943 27.1051 22.7832C27.6604 22.5611 27.9936 22.45 28.5489 22.339C28.9932 22.1168 29.3264 21.8947 29.5485 21.6726C30.2149 21.0062 30.7703 20.4508 30.9924 19.5623C31.4367 18.0074 30.326 16.4525 28.5489 16.6746Z" fill="#9E3700"/>
    <path d="M27.1046 16.8967C26.6603 15.2307 24.7722 15.0086 23.4394 15.2307C22.9952 15.3418 23.2173 15.8971 23.6616 15.8971C24.6611 15.5639 26.4382 15.786 26.6603 17.2299C26.8825 18.5626 25.6607 19.5623 24.6611 20.2286C24.328 20.4508 24.6612 21.0061 24.9944 20.784C25.9939 19.7844 27.4378 18.6737 27.1046 16.8967Z" fill="#9E3700"/>
    <path d="M24.2166 18.119C24.2166 17.5636 24.1056 17.2304 23.5502 17.1194C23.106 17.0083 22.8838 17.6747 23.3281 17.7858C23.7724 17.8968 23.4392 19.5628 23.3281 19.7849C23.217 20.2292 23.8834 20.4513 23.9945 20.0071C24.1056 19.3407 24.2166 18.7854 24.2166 18.119Z" fill="#9E3700"/>
    <path d="M23.2169 16.5636C22.1063 16.3415 20.8845 16.7858 19.996 17.4522C19.1075 18.1186 18.2189 19.1182 17.9968 20.2288C17.8857 20.6731 18.5521 20.8952 18.6632 20.4509C18.8853 19.5624 19.5517 18.785 20.3292 18.1186C21.1067 17.4522 22.2173 17.119 23.2169 17.23C23.439 17.3411 23.439 16.6747 23.2169 16.5636Z" fill="#9E3700"/>
    <path d="M22.773 23.0058C21.9956 22.2284 21.107 21.4509 19.9964 21.1177C19.1079 20.8956 17.9972 21.1177 17.3308 22.0062C16.9976 22.4505 16.8865 22.8948 17.2197 23.339C17.5529 23.7833 17.8861 24.0054 18.2193 24.2276C19.1079 24.894 20.1074 25.005 21.107 25.005C21.5513 25.005 21.5513 24.3386 21.107 24.3386C20.3296 24.3386 19.5521 24.1165 18.7747 23.6722C18.4415 23.4501 18.1083 23.228 17.8861 23.0058C17.664 22.7837 17.4419 22.6726 17.4419 22.3394C17.4419 22.1173 17.5529 21.7841 17.7751 21.673C18.4415 21.0066 19.2189 21.0067 19.9964 21.2288C20.8849 21.562 21.4402 22.1173 22.1066 22.7837C22.5509 23.6722 23.1062 23.228 22.773 23.0058Z" fill="#9E3700"/>
    <path d="M26.9943 23.0059C25.9947 23.1169 24.773 23.5612 23.9955 24.2276C23.5512 24.5608 23.3291 25.005 23.3291 25.4493C23.3291 25.8936 23.8844 26.1157 24.2176 26.1157C24.6619 26.1157 24.6619 25.4493 24.2176 25.4493C23.9955 25.4493 23.8844 25.4493 23.8844 25.2272C23.8844 25.005 23.9955 24.894 24.1066 24.6718C24.3287 24.3386 24.6619 24.1165 24.884 24.0054C25.5504 23.5612 26.1057 23.339 26.7721 23.339C27.2164 23.6722 27.2164 23.0059 26.9943 23.0059Z" fill="#9E3700"/>
    <path d="M33.2135 22.8947C32.6582 23.45 32.325 23.8943 31.9918 24.5607C31.5475 25.2271 31.2143 25.6713 31.1033 26.4488C30.9922 26.893 31.6586 27.1152 31.7696 26.6709C31.8807 26.0045 32.325 25.5603 32.6582 24.8939C32.9914 24.2275 33.4356 23.8943 33.8799 23.3389C33.8799 23.0057 33.4356 22.6725 33.2135 22.8947Z" fill="#9E3700"/>
    <path d="M30.6592 25.3382C30.2149 26.2267 28.9932 26.4489 28.1046 26.671C27.1051 26.8931 25.8833 26.7821 24.9948 26.3378C24.5505 26.2268 24.4395 26.8931 24.7727 27.0042C25.1059 27.1153 25.4391 27.2263 25.6612 27.3374C23.9952 27.8927 21.996 28.2259 20.9964 26.671C20.7743 26.3378 20.219 26.671 20.4411 27.0042C21.1075 27.8927 21.885 28.2259 22.8846 28.4481C24.1063 28.6702 25.328 28.2259 26.4387 27.7817C26.5497 27.6706 26.6608 27.5595 26.6608 27.4485C27.3272 27.4485 27.9936 27.4485 28.5489 27.3374C29.5485 27.1153 30.7702 26.671 31.2145 25.5604C31.2145 25.2272 30.7702 25.1161 30.6592 25.3382Z" fill="#9E3700"/>
    <path d="M18.2196 25.3378C17.6643 25.3378 17.3311 25.3378 16.8868 25.0046C16.4426 24.6714 16.2204 24.1161 16.2204 23.7829C15.8873 22.8944 16.3315 21.8948 17.109 21.2284C17.4422 21.0062 17.109 20.4509 16.7758 20.673C15.8873 21.4505 15.3319 22.5612 15.6651 23.7829C15.8873 24.4493 16.1094 24.8935 16.5537 25.3378C16.9979 25.7821 17.6643 25.8931 18.3307 25.8931C18.5528 26.0042 18.5528 25.3378 18.2196 25.3378Z" fill="#9E3700"/>
    <path d="M31.5472 27.2261C29.6591 28.4479 27.6599 29.6696 25.3275 29.8917C24.328 30.0028 23.1062 29.6696 22.2177 29.2253C21.3292 28.67 20.5517 28.0036 19.8853 27.1151C19.5521 26.7819 19.2189 27.2261 19.4411 27.5593C20.1075 28.4479 20.8849 29.2253 21.8845 29.7807C22.8841 30.336 24.1058 30.6692 25.2165 30.5581C27.6599 30.447 29.7702 29.2253 31.7694 27.7815C32.2136 27.5593 31.8804 26.8929 31.5472 27.2261Z" fill="#9E3700"/>
    <path d="M35.8785 24.2275C35.1011 26.1156 34.1015 27.5594 32.2134 28.559C30.5474 29.3365 27.9929 30.1139 26.438 29.2254C25.9937 29.0033 25.7716 29.6697 26.1048 29.8918C27.9929 30.7803 30.5474 30.225 32.3244 29.3365C33.213 28.8922 34.2126 28.3369 34.99 27.4484C35.7675 26.5599 36.1007 25.5603 36.656 24.5607C36.4339 24.0053 35.9896 23.8943 35.8785 24.2275Z" fill="#FFA502"/>
    <path d="M35.1004 22.7836C34.8783 22.3393 34.5451 22.1172 34.323 21.8951C34.8783 21.0065 34.9894 19.2295 33.6566 19.0074C34.1008 17.7856 33.9898 16.4528 32.7681 15.5643C30.991 14.1205 28.7697 14.7869 27.548 16.4528C27.3258 16.2307 26.9926 16.0086 26.8816 15.7865C26.2152 15.2311 25.6599 14.8979 24.8824 14.6758C24.4381 14.4537 23.9939 14.4537 23.6607 14.4537C23.6607 14.3426 23.5496 14.2315 23.4385 14.2315C20.6619 13.1209 17.8852 16.2307 17.552 18.7852C17.552 18.8963 17.552 19.0074 17.552 19.0074C17.441 19.5627 17.3299 19.8959 17.3299 20.4512C16.2193 20.7844 15.3307 21.5619 14.9975 22.7836C13.9979 24.0053 14.109 25.8934 15.5529 26.893C17.441 28.1148 19.6623 27.3373 21.3283 26.4488C21.3283 26.5598 21.3283 26.5598 21.4393 26.6709C21.8836 27.4483 22.7721 27.3373 23.4385 27.0041C23.5496 27.0041 23.6607 26.893 23.8828 26.893C23.8828 26.893 23.8828 26.893 23.9939 27.0041C24.7713 27.5594 25.6598 27.8926 26.6594 28.0037C27.659 28.1148 28.6586 28.0037 29.6582 27.6705C31.3242 27.2262 33.2123 26.5598 34.1008 24.8938C34.7672 23.5611 33.8787 22.1172 32.3238 22.2283C32.1017 22.2283 31.7685 22.3393 31.6574 22.3393C31.5463 22.3393 31.5463 22.3393 31.4353 22.3393C30.7689 22.5615 30.4357 22.7836 29.8804 23.0057C31.1021 22.2283 32.5459 21.6729 33.8787 22.1172C35.2115 22.6725 35.1004 23.8943 34.5451 24.8938C33.8787 25.7824 33.3234 26.3377 32.4349 26.782C30.5467 27.6705 28.1033 28.8922 26.1041 28.1147C25.6598 28.0037 25.4377 28.6701 25.882 28.7811C28.2144 29.6697 30.8799 28.2258 32.9902 27.2262C34.1008 26.5598 36.1 24.4496 35.1004 22.7836ZM28.8808 17.8967C29.214 18.1188 29.4361 18.452 29.5471 18.7852C29.7693 19.5627 29.4361 20.2291 28.8808 20.7844C27.8812 21.784 26.1041 22.0061 24.7713 21.6729C24.6603 21.6729 24.5492 21.6729 24.4381 21.784C24.3271 21.6729 24.1049 21.5619 23.9939 21.4508C24.1049 21.3397 24.216 21.2287 24.3271 21.1176C25.6599 21.2287 27.548 21.2287 28.4365 20.0069C28.8808 19.5627 28.9918 18.6742 28.8808 17.8967ZM21.8836 17.5635C21.2172 17.6746 20.884 18.341 20.4398 18.7852C20.1066 19.4516 19.8844 19.8959 19.7734 20.5623C19.4402 20.4512 19.107 20.4512 18.8848 20.4512C19.4402 19.3406 20.2176 18.1188 21.4393 17.5635C22.3279 17.1192 23.1053 17.6746 23.3275 18.5631C23.5496 19.3406 23.2164 20.118 22.9943 20.7844C22.8832 20.6733 22.6611 20.5623 22.4389 20.4512C22.9943 19.7848 23.6607 17.2303 21.8836 17.5635ZM21.5504 18.5631C21.7725 18.341 22.2168 17.8967 22.4389 18.341C22.55 18.5631 22.4389 19.0074 22.4389 19.1184C22.3279 19.5627 22.2168 19.8959 21.9947 20.2291C21.4393 20.007 20.9951 20.007 20.5508 20.2291C20.773 19.6738 20.9951 19.0074 21.5504 18.5631ZM20.9951 21.0065C20.9951 20.5623 21.9947 21.0065 22.1057 21.1176C22.4389 21.3397 22.7721 21.5619 22.8832 21.784C23.2164 22.1172 23.5496 22.3393 23.8828 22.5615C24.216 22.7836 24.5492 22.8947 24.7713 23.1168C24.4381 23.2278 24.216 23.3389 23.9939 23.45C23.3275 23.45 22.55 22.5615 22.1057 22.1172C21.6615 21.4508 21.3283 21.2287 20.9951 21.0065ZM23.4385 17.4524C23.3275 17.3414 23.5496 17.0082 23.6607 16.8971C23.7717 16.786 23.9939 16.675 24.216 16.675C24.7713 16.5639 25.1045 16.786 25.1045 17.3414C25.3267 18.0078 24.9935 18.6742 24.6603 19.2295C24.3271 19.7848 23.9939 20.118 23.7717 20.6733C23.9939 19.4516 24.1049 18.0078 23.4385 17.4524ZM27.9922 17.7856C28.2144 18.0078 28.4365 18.452 28.4365 18.6742C28.4365 19.0074 28.3254 19.3406 28.2144 19.5627C27.9922 20.2291 27.548 20.4512 27.1037 20.5623C26.5484 20.7844 26.1041 20.7844 25.5488 20.7844C25.6598 20.7844 25.6598 20.6733 25.7709 20.6733C26.3262 20.3401 26.6594 20.0069 26.8816 19.7848C27.1037 19.1184 27.659 18.5631 27.9922 17.7856ZM24.8824 15.3422C25.6599 15.7864 27.2148 16.4528 27.4369 17.3414C27.4369 17.3414 27.4369 17.3414 27.4369 17.4524C27.1037 18.341 26.5484 19.2295 25.7709 19.7848C25.3266 20.118 24.9935 20.3401 24.6603 20.4512C25.4377 19.3406 26.2152 17.7856 25.5488 16.5639C25.2156 16.0086 24.8824 15.8975 24.5492 15.7865C23.9939 15.3422 23.6607 15.1201 22.9943 15.1201C23.4385 15.1201 24.4381 15.2311 24.8824 15.3422ZM22.55 14.7869C21.8836 15.009 21.3283 15.2311 20.773 15.6754C20.773 15.6754 20.773 15.7865 20.6619 15.7865C20.2176 16.0086 19.8844 16.2307 19.5512 16.4528C19.218 16.675 18.9959 16.8971 18.8848 17.1192C19.7734 15.5643 21.1061 14.5647 22.55 14.7869ZM19.7734 17.0082C20.6619 16.2307 22.4389 15.4532 23.6607 16.1196C23.3275 16.3418 22.9943 16.675 22.9943 17.0082C22.7721 16.8971 22.55 16.8971 22.3279 16.8971C20.5508 16.8971 19.218 19.0074 18.5516 20.4512C18.4406 20.4512 18.2184 20.4512 18.1074 20.4512C17.9963 19.0074 18.5516 17.7856 19.7734 17.0082ZM15.6639 23.0057C15.6639 22.8947 15.775 22.8946 15.6639 22.7836C15.8861 22.1172 16.4414 21.5619 17.1078 21.1176C16.9967 21.2287 16.8857 21.4508 16.7746 21.5619C16.2193 22.4504 16.8857 23.7832 17.6631 24.3385C18.2184 24.7828 18.7738 25.0049 19.4402 25.0049C18.8848 25.227 18.5516 25.3381 18.1074 25.4492C17.441 25.5602 17.2189 25.5602 16.6635 25.227C16.2193 24.8938 15.8861 24.5606 15.775 24.1164C15.6639 23.7832 15.6639 23.3389 15.6639 23.0057ZM16.5525 26.6709C15.4418 26.2266 14.7754 25.116 15.1086 24.0053C15.1086 24.1164 15.2197 24.2274 15.2197 24.3385C15.5529 25.227 16.4414 26.2266 17.441 26.2266C17.7742 26.2266 18.1074 26.2266 18.4406 26.1156C18.6627 26.4488 18.8848 26.5598 19.107 26.6709C18.2184 26.893 17.3299 26.893 16.5525 26.6709ZM21.4393 25.6713C20.773 25.8934 19.5512 26.5598 18.9959 26.1156C19.6623 25.8934 20.4398 25.5602 20.9951 25.3381C21.2172 25.3381 21.4394 25.3381 21.6615 25.227C21.5504 25.227 21.4393 25.4492 21.4393 25.6713ZM18.1074 24.0053C17.441 23.45 17.1078 22.7836 17.441 22.0061C17.8852 21.3397 18.8848 21.1176 19.5512 21.2287C20.6619 21.4508 21.8836 22.4504 22.6611 23.2279C22.8832 23.3389 22.9943 23.561 23.2164 23.6721C22.7721 24.0053 22.4389 24.3385 22.2168 24.5606L22.1057 24.6717C21.9947 24.6717 21.9947 24.6717 21.8836 24.6717C20.6619 24.7828 19.218 24.6717 18.1074 24.0053ZM23.4385 26.2266C23.3275 26.2266 23.3275 26.2266 23.2164 26.3377C23.2164 26.3377 23.1053 26.3377 23.1053 26.4488C22.9943 26.4488 22.8832 26.5598 22.8832 26.5598C22.8832 26.5598 22.7721 26.5598 22.7721 26.6709C22.2168 26.782 21.7725 26.782 21.9947 26.0045C22.1057 25.5602 22.4389 25.3381 22.6611 25.116C23.2164 24.5606 23.6607 24.3385 24.216 24.1164C24.3271 24.1164 24.5492 24.0053 24.6603 23.8942C25.3266 23.561 25.882 23.45 26.5484 23.6721C26.9926 23.7832 27.2148 23.8942 27.548 24.0053C27.1037 24.3385 26.7705 24.5606 26.5484 24.7828C25.5488 25.0049 24.6603 25.7824 23.4385 26.2266ZM27.1037 25.3381C26.8816 25.3381 26.6594 25.3381 26.4373 25.227C26.7705 25.0049 26.9926 24.7828 27.2148 24.6717C27.1037 24.7828 27.1037 24.7828 26.9926 24.8938C26.8816 25.0049 26.9926 25.227 27.1037 25.3381ZM30.4357 26.6709C29.7693 26.893 29.214 27.1151 28.5476 27.2262C27.8812 27.3373 27.1037 27.4484 26.4373 27.3373C25.6598 27.2262 25.1045 26.893 24.4381 26.4488C24.5492 26.3377 24.6603 26.3377 24.7713 26.2266C25.6598 26.893 26.9926 26.782 27.9922 26.5598C28.8808 26.3377 29.7693 26.1156 30.5467 25.6713C30.6578 26.1156 30.5467 26.4488 30.4357 26.6709ZM33.1013 23.1168C33.3234 23.2278 33.4345 23.5611 33.4345 23.7832C33.4345 24.4496 32.8791 25.0049 32.5459 25.4492C32.1017 25.8934 31.6574 26.1156 31.2131 26.3377C31.3242 25.116 31.6574 23.3389 33.1013 23.1168ZM31.5463 23.0057C31.6574 23.0057 31.7685 22.8947 31.9906 22.8947C31.3242 23.3389 31.1021 23.8943 30.991 24.6717C30.991 24.6717 30.8799 24.6717 30.8799 24.7828C30.2135 25.4492 29.214 25.6713 28.2144 25.8934C27.3258 26.1156 26.3262 26.3377 25.4377 25.8934C25.5488 25.7824 25.6598 25.7824 25.7709 25.6713C25.7709 25.6713 25.7709 25.6713 25.882 25.6713C28.1033 26.6709 30.5467 24.8938 31.5463 23.0057ZM30.6578 23.3389C29.8803 24.2274 28.7697 25.227 27.548 25.227C28.3254 24.4496 29.4361 23.8942 30.6578 23.3389ZM29.7693 22.3393C29.2139 22.5615 28.8808 22.8947 28.5476 23.1168H28.4365C27.7701 23.2278 27.3258 22.8946 26.7705 22.7836C26.7705 22.7836 26.7705 22.7836 26.6594 22.7836C26.3262 22.6725 25.993 22.6725 25.882 22.5615C27.3258 22.5615 28.7697 22.0061 29.5471 20.8955C30.1025 20.2291 30.2135 19.4516 30.1025 18.6742C29.9914 17.8967 29.214 17.4524 28.5476 16.8971C29.7693 15.8975 31.8795 16.0086 32.3238 17.7856C32.5459 18.5631 31.9906 19.4516 31.6574 20.0069C30.991 21.0065 30.5467 21.5619 29.7693 22.3393ZM31.9906 21.4508C31.6574 21.4508 31.4353 21.5619 31.2131 21.6729C31.8795 21.0065 32.2127 20.2291 32.5459 19.5627C32.9902 18.7852 33.1013 17.7856 32.5459 17.0082C31.7685 15.6754 30.3246 15.3422 29.1029 15.8975C30.2135 15.2311 31.7685 15.2311 32.7681 16.3418C34.2119 17.7856 32.657 20.118 31.9906 21.4508ZM32.657 21.4508C32.9902 20.7844 33.3234 20.2291 33.5455 19.5627C34.434 19.6737 34.2119 21.0065 33.7677 21.5619C33.4345 21.4508 33.1013 21.4508 32.657 21.4508Z" fill="#FFA502"/>
    <path d="M18.663 20.6733C17.7745 20.7844 16.7749 21.4508 16.6639 22.4504C16.5528 22.7836 17.2192 23.0057 17.2192 22.5615C17.3302 21.784 17.8856 21.2287 18.7741 21.2287C18.9962 21.2287 18.9962 20.6733 18.663 20.6733Z" fill="#FFD240"/>
    <path d="M19.6628 20.6733C19.5517 20.6733 19.5517 20.6733 19.4406 20.6733C19.3296 20.6733 19.1074 20.6733 19.1074 20.8955C19.1074 21.0065 19.1074 21.2287 19.3296 21.2287C19.4406 21.2287 19.5517 21.2287 19.7738 21.2287C19.8849 21.2287 20.107 21.1176 20.107 20.8955C19.8849 20.7844 19.7738 20.6733 19.6628 20.6733Z" fill="#FFD240"/>
    <path d="M21.6615 21.4509C21.5505 21.4509 21.3283 21.3399 21.3283 21.2288C21.2173 21.1177 20.9951 21.1177 20.8841 21.2288C20.773 21.3399 20.773 21.562 20.8841 21.6731C21.1062 21.8952 21.3284 22.0063 21.5505 22.1173C21.6615 22.1173 21.8837 22.0063 21.8837 21.8952C21.8837 21.4509 21.7726 21.4509 21.6615 21.4509Z" fill="#FFD240"/>
    <path d="M21.1066 15.7864C20.6623 16.0085 20.3291 16.1196 19.9959 16.4528C19.6627 16.6749 19.2185 16.8971 19.1074 17.2303C18.8853 17.5635 19.3295 17.8967 19.5517 17.6745C19.9959 17.0081 20.7734 16.786 21.4398 16.5639C21.6619 16.1196 21.4398 15.5643 21.1066 15.7864Z" fill="#FFD240"/>
    <path d="M29.4364 15.1201C28.8811 15.3422 28.5479 15.5643 28.2147 15.8975C27.8815 16.1197 28.3257 16.5639 28.6589 16.3418C28.9921 16.0086 29.3253 15.7865 29.6585 15.6754C29.8807 15.5643 29.7696 15.009 29.4364 15.1201Z" fill="#FFD240"/>
    <path d="M30.4357 14.8979C30.2136 14.8979 30.1025 15.009 30.1025 15.2311C30.1025 15.3422 30.2136 15.5643 30.4357 15.5643C30.5468 15.5643 30.7689 15.4533 30.7689 15.2311C30.7689 15.009 30.6579 14.8979 30.4357 14.8979Z" fill="#FFD240"/>
    <path d="M33.4349 17.7855C33.4349 18.563 33.1017 19.2294 32.7685 19.8958C32.6574 20.229 33.2128 20.4511 33.3238 20.0069C33.657 19.3405 33.9902 18.563 33.9902 17.7855C33.8792 17.4523 33.4349 17.4523 33.4349 17.7855Z" fill="#FFD240"/>
    <path d="M32.1021 20.0069C31.991 19.8959 31.7689 20.0069 31.6578 20.118C31.5467 20.2291 31.5467 20.3401 31.4357 20.4512C31.3246 20.5623 31.4357 20.7844 31.5467 20.8955C31.6578 21.0065 31.8799 20.8955 31.991 20.7844L32.2131 20.4512C32.2131 20.2291 32.2131 20.118 32.1021 20.0069Z" fill="#FFD240"/>
    <path d="M15.7764 22.5615C15.8875 22.2283 15.4432 21.8951 15.2211 22.2283C14.8879 23.0058 14.6657 23.7833 15.2211 24.5607C15.4432 24.8939 15.8875 24.5607 15.7764 24.2275C15.3321 23.7833 15.5543 23.0058 15.7764 22.5615Z" fill="#FFD240"/>
    <path d="M16.3307 25.0046C16.2197 24.8936 16.1086 24.8936 16.1086 24.7825C15.9976 24.6715 15.7754 24.6715 15.6644 24.7825C15.5533 24.8936 15.5533 25.1157 15.6644 25.2268C15.7754 25.3379 15.8865 25.4489 15.9976 25.4489C16.1086 25.56 16.3307 25.4489 16.4418 25.3378C16.4418 25.2268 16.4418 25.1157 16.3307 25.0046Z" fill="#FFD240"/>
    <path d="M28.8816 18.3412C28.8816 18.008 28.2152 18.008 28.3263 18.3412C28.3263 18.7855 28.3263 19.0076 28.2152 19.3408C28.2152 19.5629 28.1042 19.674 27.9931 19.8961C27.9931 20.0072 27.882 20.0072 27.882 20.1183L27.771 20.2293C27.6599 20.2293 27.5488 20.3404 27.5488 20.5625C27.5488 20.7847 27.6599 20.8957 27.882 20.8957C28.3263 20.8957 28.5484 20.2293 28.6595 20.0072C28.8816 19.3408 28.8816 18.8965 28.8816 18.3412Z" fill="#FFD240"/>
    <path d="M27.4373 20.7842C27.4373 20.6731 27.2152 20.562 27.1042 20.562C26.9931 20.562 26.882 20.6731 26.771 20.6731C26.6599 20.6731 26.6599 20.7842 26.5488 20.7842C26.5488 20.8952 26.5488 20.8952 26.5488 21.0063C26.5488 21.1174 26.771 21.2284 26.882 21.2284C26.9931 21.2284 27.1042 21.1173 27.2152 21.1173C27.3263 21.1173 27.3263 21.0063 27.4373 21.0063C27.4373 20.8952 27.4373 20.7842 27.4373 20.7842Z" fill="#FFD240"/>
    <path d="M24.7717 19.8961C24.6606 19.785 24.4385 19.8961 24.3274 20.0072C24.2164 20.3404 23.9943 20.5625 23.7721 20.6736C23.55 21.0068 23.8832 21.3399 24.2164 21.1178C24.4385 20.8957 24.6606 20.5625 24.7717 20.3404C24.8828 20.2293 24.8828 20.0072 24.7717 19.8961Z" fill="#FFD240"/>
    <path d="M25.3271 18.7853C25.216 18.6742 24.9939 18.7853 24.8828 18.8963C24.7718 19.1185 24.6607 19.3406 24.4386 19.5627C24.3275 19.6738 24.4386 19.8959 24.5496 20.007C24.6607 20.118 24.8828 20.007 24.9939 19.8959C25.105 19.6738 25.3271 19.4517 25.4382 19.2295C25.4382 19.0074 25.4382 18.8963 25.3271 18.7853Z" fill="#FFD240"/>
    <path d="M25.216 20.562C25.1049 20.562 24.8828 20.6731 24.8828 20.8952C24.8828 21.0063 24.9939 21.2284 25.216 21.2284C25.3271 21.2284 25.5492 21.1173 25.5492 20.8952C25.4381 20.6731 25.3271 20.562 25.216 20.562Z" fill="#FFD240"/>
    <path d="M25.3267 22.6725C25.2156 22.6725 25.2156 22.6725 25.3267 22.6725C25.2156 22.6725 25.2156 22.6725 25.1045 22.6725C24.9935 22.5614 24.7713 22.6725 24.6603 22.7835C24.5492 22.8946 24.6603 23.1167 24.7713 23.2278C24.9935 23.3389 25.1045 23.3389 25.3267 23.3389C25.4377 23.3389 25.6599 23.2278 25.6599 23.0057C25.5488 22.7835 25.4377 22.6725 25.3267 22.6725Z" fill="#FFD240"/>
    <path d="M22.1082 27.6705C22.1082 27.5594 22.1082 27.4484 21.9972 27.4484C21.9972 27.3373 21.9972 27.2262 21.8861 27.1152C21.8861 27.0041 21.8861 26.893 21.8861 26.893C21.8861 26.782 21.775 26.782 21.664 26.6709C21.5529 26.4488 21.4418 26.3377 21.3308 26.2266C21.3308 26.1156 21.3308 26.0045 21.2197 26.0045C21.1086 25.8934 20.9976 25.8934 20.9976 25.8934C20.8865 25.7824 20.7754 25.7824 20.7754 25.6713C20.7754 25.5602 20.6644 25.4492 20.5533 25.4492C20.4423 25.4492 20.3312 25.4492 20.2201 25.4492C20.1091 25.4492 19.8869 25.3381 19.6648 25.3381C19.5537 25.227 19.5537 25.2271 19.4427 25.2271C19.3316 25.2271 19.2205 25.3381 19.1095 25.3381C18.9984 25.3381 18.8873 25.3381 18.8873 25.3381C18.7763 25.227 18.6652 25.2271 18.5541 25.2271C18.4431 25.2271 18.332 25.3381 18.332 25.4492C18.2209 25.5602 18.1099 25.5602 17.8877 25.6713C17.7767 25.6713 17.6656 25.6713 17.5545 25.7824C17.4435 25.8934 17.4435 26.0045 17.4435 26.1156C17.4435 26.2266 17.3324 26.2266 17.3324 26.3377C17.2213 26.3377 17.1103 26.4488 16.9992 26.5598C16.8881 26.6709 16.9992 26.782 16.9992 26.893C16.9992 27.0041 16.8881 27.2262 16.8881 27.3373C16.7771 27.3373 16.666 27.4484 16.666 27.6705C16.666 27.7816 16.7771 27.8926 16.8881 28.0037C16.8881 28.1148 16.8881 28.1148 16.8881 28.2258C16.7771 28.3369 16.7771 28.448 16.7771 28.559C16.7771 28.6701 16.8881 28.7812 17.1103 28.7812C17.2213 28.8922 17.2213 29.0033 17.3324 29.1144C17.3324 29.2254 17.3324 29.3365 17.4435 29.4475C17.5545 29.5586 17.6656 29.5586 17.7767 29.5586C17.8877 29.5586 17.8877 29.6697 17.9988 29.6697C17.9988 29.7807 18.1099 29.8918 18.2209 30.0029C18.332 30.0029 18.4431 30.0029 18.5541 30.0029C18.6652 30.0029 18.8873 30.1139 18.9984 30.1139C19.1095 30.225 19.1095 30.225 19.3316 30.225C19.4427 30.225 19.5537 30.1139 19.5537 30.1139C19.6648 30.1139 19.7759 30.1139 19.8869 30.1139C19.998 30.225 20.1091 30.225 20.2201 30.1139C20.3312 30.1139 20.4423 30.0029 20.4423 29.8918C20.6644 29.7807 20.7754 29.6697 20.8865 29.5586C20.9976 29.5586 21.1086 29.5586 21.1086 29.4475C21.2197 29.3365 21.2197 29.3365 21.2197 29.2254C21.3308 29.1143 21.3308 29.0033 21.4418 28.8922C21.5529 28.8922 21.5529 28.7811 21.664 28.6701C21.664 28.559 21.664 28.448 21.664 28.448C21.775 28.2258 21.775 28.1148 21.775 27.8926C22.1082 27.7816 22.1082 27.6705 22.1082 27.6705Z" fill="#7D2513"/>
    <path d="M19.2209 27.0043C19.4049 27.0043 19.5541 26.8551 19.5541 26.6711C19.5541 26.4871 19.4049 26.3379 19.2209 26.3379C19.0369 26.3379 18.8877 26.4871 18.8877 26.6711C18.8877 26.8551 19.0369 27.0043 19.2209 27.0043Z" fill="#A63119"/>
    <path d="M19.5539 28.3373C19.7379 28.3373 19.8871 28.1881 19.8871 28.0041C19.8871 27.8201 19.7379 27.6709 19.5539 27.6709C19.3699 27.6709 19.2207 27.8201 19.2207 28.0041C19.2207 28.1881 19.3699 28.3373 19.5539 28.3373Z" fill="#A63119"/>
    <path d="M20.4416 27.1151C20.6256 27.1151 20.7748 26.966 20.7748 26.7819C20.7748 26.5979 20.6256 26.4487 20.4416 26.4487C20.2576 26.4487 20.1084 26.5979 20.1084 26.7819C20.1084 26.966 20.2576 27.1151 20.4416 27.1151Z" fill="#A63119"/>
    <path d="M18.5541 27.6706C18.5541 27.8927 18.443 28.0038 18.2209 28.0038C17.9988 28.0038 17.8877 27.8927 17.8877 27.6706C17.8877 27.4485 17.9988 27.3374 18.2209 27.3374C18.443 27.3374 18.5541 27.5595 18.5541 27.6706Z" fill="#A63119"/>
    <path d="M21.886 27.1155C21.886 27.0045 21.886 26.8934 21.886 26.8934C21.886 26.7823 21.7749 26.7823 21.6639 26.6713C21.5528 26.4491 21.4417 26.3381 21.3307 26.227C21.3307 26.1159 21.3307 26.1159 21.2196 26.0049C20.7753 26.1159 20.8864 26.5602 20.9975 26.8934C20.7753 26.8934 20.6643 27.1155 20.6643 27.2266C20.6643 27.4487 20.6643 27.5598 20.7753 27.7819C20.6643 27.7819 20.5532 27.893 20.4421 28.0041C20.4421 28.1151 20.4421 28.3373 20.4421 28.4483C20.1089 28.3373 19.7757 28.4483 19.7757 28.6705C19.6647 28.5594 19.4425 28.5594 19.3315 28.6705C19.2204 28.7815 19.1093 28.8926 18.9983 29.0037C18.7762 28.7815 18.443 28.7815 18.2208 29.0037C18.2208 28.8926 18.1098 28.7815 17.9987 28.7815C17.8876 28.7815 17.7766 28.7815 17.5544 28.7815H17.4434C17.5544 28.8926 17.5544 29.0037 17.6655 29.1147C17.6655 29.2258 17.6655 29.3368 17.7766 29.4479C17.8876 29.559 17.9987 29.559 18.1098 29.559C18.2208 29.559 18.2208 29.6701 18.3319 29.6701C18.3319 29.7811 18.443 29.8922 18.554 30.0032C18.6651 30.0032 18.7762 30.0032 18.8872 30.0032C18.9983 30.0032 19.2204 30.1143 19.3315 30.1143C19.4425 30.2254 19.4425 30.2254 19.6647 30.2254C19.7757 30.2254 19.8868 30.1143 19.8868 30.1143C19.9979 30.1143 20.1089 30.1143 20.22 30.1143C20.3311 30.2254 20.4421 30.2254 20.5532 30.1143C20.6643 30.1143 20.7753 30.0033 20.7753 29.8922C20.9975 29.7811 21.1085 29.6701 21.2196 29.559C21.3307 29.559 21.4417 29.559 21.4417 29.4479C21.5528 29.3368 21.5528 29.3368 21.5528 29.2258C21.6639 29.1147 21.6639 29.0036 21.7749 28.8926C21.886 28.8926 21.886 28.7815 21.9971 28.6705C21.9971 28.5594 21.9971 28.4483 21.9971 28.4483C22.1081 28.2262 22.1081 28.1151 22.1081 27.893C22.2192 27.7819 22.2192 27.7819 22.2192 27.6709C22.2192 27.5598 22.2192 27.4487 22.1081 27.4487C21.9971 27.3377 21.9971 27.2266 21.886 27.1155Z" fill="#611512"/>
    <path d="M29.2148 20.3399C29.2148 20.2289 29.2149 20.1178 29.3259 20.1178C29.3259 20.0067 29.3259 19.8957 29.437 19.7846C29.437 19.6735 29.437 19.5625 29.437 19.5625C29.437 19.4514 29.548 19.4514 29.6591 19.3403C29.7702 19.1182 29.8812 19.0071 29.9923 18.8961C29.9923 18.785 29.9923 18.6739 30.1034 18.6739C30.2144 18.5629 30.3255 18.5629 30.3255 18.5629C30.4366 18.4518 30.5476 18.4518 30.5476 18.3407C30.5476 18.2297 30.6587 18.1186 30.7698 18.1186C30.8808 18.1186 30.9919 18.1186 31.103 18.1186C31.214 18.1186 31.4362 18.0076 31.6583 18.0076C31.7694 17.8965 31.7694 17.8965 31.8804 17.8965C31.9915 17.8965 32.1026 18.0076 32.2136 18.0076C32.3247 18.0076 32.4358 18.0076 32.4358 18.0076C32.5468 17.8965 32.6579 17.8965 32.769 17.8965C32.88 17.8965 32.9911 18.0075 32.9911 18.1186C33.1021 18.2297 33.2132 18.2297 33.4353 18.3407C33.5464 18.3407 33.6575 18.3407 33.7685 18.4518C33.8796 18.5629 33.8796 18.6739 33.8796 18.785C33.8796 18.8961 33.9907 18.8961 33.9907 19.0071C34.1017 19.0071 34.2128 19.1182 34.3239 19.2293C34.4349 19.3403 34.3239 19.4514 34.3239 19.5625C34.3239 19.6735 34.4349 19.8957 34.4349 20.0067C34.546 20.0067 34.6571 20.1178 34.6571 20.3399C34.6571 20.451 34.546 20.5621 34.4349 20.6731C34.4349 20.7842 34.4349 20.7842 34.4349 20.8953C34.546 21.0063 34.546 21.1174 34.546 21.2285C34.546 21.3395 34.4349 21.4506 34.2128 21.4506C34.1017 21.5617 34.1017 21.6727 33.9907 21.7838C33.9907 21.8949 33.9907 22.0059 33.8796 22.117C33.7685 22.2281 33.6575 22.228 33.5464 22.228C33.4353 22.228 33.4353 22.3391 33.3243 22.3391C33.3243 22.4502 33.2132 22.5613 33.1021 22.6723C32.9911 22.6723 32.88 22.6723 32.769 22.6723C32.6579 22.6723 32.4358 22.7834 32.3247 22.7834C32.2136 22.8944 32.2136 22.8944 31.9915 22.8944C31.8804 22.8944 31.7694 22.7834 31.7694 22.7834C31.6583 22.7834 31.5472 22.7834 31.4362 22.7834C31.3251 22.8944 31.214 22.8944 31.103 22.7834C30.9919 22.7834 30.8808 22.6723 30.8808 22.5612C30.6587 22.4502 30.5476 22.3391 30.4366 22.228C30.3255 22.228 30.2144 22.2281 30.2144 22.117C30.1034 22.0059 30.1034 22.0059 30.1034 21.8949C29.9923 21.7838 29.9923 21.6727 29.8812 21.5617C29.7702 21.5617 29.7702 21.4506 29.6591 21.3395C29.6591 21.2285 29.6591 21.1174 29.6591 21.1174C29.548 20.8953 29.548 20.7842 29.548 20.5621C29.3259 20.451 29.2148 20.451 29.2148 20.3399Z" fill="#7D2513"/>
    <path d="M31.8809 19.4513C31.8809 19.6735 31.9919 19.7845 32.2141 19.7845C32.4362 19.7845 32.5473 19.6735 32.5473 19.4513C32.5473 19.2292 32.4362 19.1182 32.2141 19.1182C31.9919 19.1182 31.8809 19.3403 31.8809 19.4513Z" fill="#A63119"/>
    <path d="M31.881 21.0067C32.0651 21.0067 32.2142 20.8576 32.2142 20.6735C32.2142 20.4895 32.0651 20.3403 31.881 20.3403C31.697 20.3403 31.5479 20.4895 31.5479 20.6735C31.5479 20.8576 31.697 21.0067 31.881 21.0067Z" fill="#A63119"/>
    <path d="M30.6602 19.4513C30.6602 19.6735 30.7712 19.7845 30.9934 19.7845C31.2155 19.7845 31.3265 19.6735 31.3265 19.4513C31.3265 19.2292 31.2155 19.1182 30.9934 19.1182C30.7712 19.2292 30.6602 19.4513 30.6602 19.4513Z" fill="#A63119"/>
    <path d="M32.6592 20.34C32.6592 20.5622 32.7702 20.6732 32.9924 20.6732C33.2145 20.6732 33.3256 20.5622 33.3256 20.34C33.3256 20.1179 33.2145 20.0068 32.9924 20.0068C32.7702 20.0068 32.6592 20.229 32.6592 20.34Z" fill="#A63119"/>
    <path d="M29.4377 19.785C29.4377 19.6739 29.4377 19.5628 29.4377 19.5628C29.4377 19.4518 29.5488 19.4518 29.6598 19.3407C29.7709 19.1186 29.882 19.0075 29.993 18.8964C29.993 18.7854 29.993 18.7854 30.1041 18.6743C30.5483 18.7854 30.4373 19.2296 30.3262 19.5628C30.5483 19.5628 30.6594 19.785 30.6594 19.896C30.6594 20.1182 30.6594 20.2292 30.5484 20.4514C30.6594 20.4514 30.7705 20.5624 30.8815 20.6735C30.8815 20.7846 30.8815 21.0067 30.8815 21.1178C31.2147 21.0067 31.5479 21.1178 31.5479 21.3399C31.659 21.2288 31.8811 21.2288 31.9922 21.3399C32.1033 21.451 32.2143 21.562 32.3254 21.6731C32.5475 21.451 32.8807 21.451 33.1029 21.6731C33.1029 21.562 33.2139 21.451 33.325 21.451C33.4361 21.451 33.5471 21.451 33.7693 21.451H33.8803C33.7693 21.562 33.7693 21.6731 33.6582 21.7842C33.6582 21.8952 33.6582 22.0063 33.5471 22.1174C33.4361 22.2284 33.325 22.2284 33.2139 22.2284C33.1029 22.2284 33.1029 22.3395 32.9918 22.3395C32.9918 22.4506 32.8807 22.5616 32.7697 22.6727C32.6586 22.6727 32.5475 22.6727 32.4365 22.6727C32.3254 22.6727 32.1033 22.7837 31.9922 22.7837C31.8811 22.8948 31.8811 22.8948 31.659 22.8948C31.5479 22.8948 31.4369 22.7837 31.4369 22.7837C31.3258 22.7837 31.2147 22.7837 31.1037 22.7837C30.9926 22.8948 30.8815 22.8948 30.7705 22.7837C30.6594 22.7837 30.5484 22.6727 30.5484 22.5616C30.3262 22.4506 30.2152 22.3395 30.1041 22.2284C29.993 22.2284 29.882 22.2284 29.882 22.1174C29.7709 22.0063 29.7709 22.0063 29.7709 21.8952C29.6598 21.7842 29.6598 21.6731 29.5488 21.562C29.4377 21.562 29.4377 21.451 29.3266 21.3399C29.3266 21.2288 29.3266 21.1178 29.3266 21.1178C29.2156 20.8956 29.2156 20.7846 29.2156 20.5624C29.1045 20.4514 29.1045 20.4514 29.1045 20.3403C29.1045 20.2292 29.1045 20.1182 29.2156 20.1182C29.3266 20.0071 29.4377 19.896 29.4377 19.785Z" fill="#611512"/>
    <path d="M24.7733 18.5631C24.7733 18.452 24.7733 18.3409 24.6622 18.3409C24.6622 18.2299 24.6622 18.1188 24.5511 18.0078C24.5511 17.8967 24.5511 17.7856 24.5511 17.7856C24.5511 17.6745 24.4401 17.6746 24.329 17.5635C24.2179 17.3414 24.1069 17.2303 23.9958 17.1192C23.9958 17.0082 23.9958 16.8971 23.8847 16.8971C23.7737 16.786 23.6626 16.786 23.6626 16.786C23.5515 16.675 23.4405 16.675 23.4405 16.5639C23.4405 16.4528 23.3294 16.3418 23.2184 16.3418C23.1073 16.3418 22.9962 16.3418 22.8852 16.3418C22.7741 16.3418 22.552 16.2307 22.3298 16.2307C22.2188 16.1196 22.2188 16.1196 22.1077 16.1196C21.9966 16.1196 21.8856 16.2307 21.7745 16.2307C21.6634 16.2307 21.5524 16.2307 21.5524 16.2307C21.4413 16.1196 21.3302 16.1196 21.2192 16.1196C21.1081 16.1196 20.997 16.2307 20.997 16.3418C20.886 16.4528 20.7749 16.4528 20.5528 16.5639C20.4417 16.5639 20.3306 16.5639 20.2196 16.675C20.1085 16.786 20.1085 16.8971 20.1085 17.0082C20.1085 17.1192 19.9974 17.1192 19.9974 17.2303C19.8864 17.2303 19.7753 17.3414 19.6642 17.4524C19.5532 17.5635 19.6642 17.6745 19.6642 17.7856C19.6642 17.8967 19.5532 18.1188 19.5532 18.2299C19.4421 18.2299 19.3311 18.341 19.3311 18.5631C19.3311 18.6742 19.4421 18.7852 19.5532 18.8963C19.5532 19.0073 19.5532 19.0074 19.5532 19.1184C19.4421 19.2295 19.4421 19.3405 19.4421 19.4516C19.4421 19.5627 19.5532 19.6737 19.7753 19.6737C19.8864 19.7848 19.8864 19.8959 19.9974 20.0069C19.9974 20.118 19.9974 20.2291 20.1085 20.3401C20.2196 20.4512 20.3306 20.4512 20.4417 20.4512C20.5528 20.4512 20.5528 20.5623 20.6638 20.5623C20.6638 20.6733 20.7749 20.7844 20.886 20.8955C20.997 20.8955 21.1081 20.8955 21.2192 20.8955C21.3302 20.8955 21.5524 21.0065 21.6634 21.0065C21.7745 21.1176 21.7745 21.1176 21.9966 21.1176C22.1077 21.1176 22.2188 21.0065 22.2188 21.0065C22.3298 21.0065 22.4409 21.0065 22.552 21.0065C22.663 21.1176 22.7741 21.1176 22.8852 21.0065C22.9962 21.0065 23.1073 20.8955 23.1073 20.7844C23.3294 20.6733 23.4405 20.5623 23.5515 20.4512C23.6626 20.4512 23.7737 20.4512 23.7737 20.3401C23.8848 20.2291 23.8847 20.2291 23.8847 20.118C23.9958 20.0069 23.9958 19.8959 24.1069 19.7848C24.2179 19.7848 24.2179 19.6737 24.329 19.5627C24.329 19.4516 24.329 19.3405 24.329 19.3405C24.4401 19.1184 24.4401 19.0073 24.4401 18.7852C24.7733 18.7852 24.7733 18.6742 24.7733 18.5631Z" fill="#7D2513"/>
    <path d="M22.2191 17.6745C22.2191 17.8966 22.1081 18.0077 21.8859 18.0077C21.6638 18.0077 21.5527 17.8966 21.5527 17.6745C21.5527 17.4524 21.6638 17.3413 21.8859 17.3413C22.1081 17.3413 22.2191 17.5634 22.2191 17.6745Z" fill="#A63119"/>
    <path d="M22.3295 19.007C22.3295 19.2292 22.2184 19.3402 21.9963 19.3402C21.7741 19.3402 21.6631 19.2292 21.6631 19.007C21.6631 18.7849 21.7741 18.6738 21.9963 18.6738C22.2184 18.6738 22.3295 18.7849 22.3295 19.007Z" fill="#A63119"/>
    <path d="M23.4398 17.7858C23.4398 18.008 23.3288 18.119 23.1066 18.119C22.8845 18.119 22.7734 18.008 22.7734 17.7858C22.7734 17.5637 22.8845 17.4526 23.1066 17.4526C23.3288 17.4526 23.4398 17.5637 23.4398 17.7858Z" fill="#A63119"/>
    <path d="M20.9973 19.0072C21.1813 19.0072 21.3305 18.858 21.3305 18.674C21.3305 18.49 21.1813 18.3408 20.9973 18.3408C20.8132 18.3408 20.6641 18.49 20.6641 18.674C20.6641 18.858 20.8132 19.0072 20.9973 19.0072Z" fill="#A63119"/>
    <path d="M24.6624 18.0081C24.6624 17.8971 24.6624 17.786 24.6624 17.786C24.6624 17.6749 24.5513 17.6749 24.4402 17.5638C24.3292 17.3417 24.2181 17.2307 24.107 17.1196C24.107 17.0085 24.107 17.0085 23.996 16.8975C23.5517 17.0085 23.6628 17.4528 23.7738 17.786C23.5517 17.786 23.4406 18.0081 23.4406 18.1192C23.4406 18.3413 23.4406 18.4524 23.5517 18.6745C23.4406 18.6745 23.3296 18.7856 23.2185 18.8966C23.2185 19.0077 23.2185 19.2298 23.2185 19.3409C22.8853 19.2298 22.5521 19.3409 22.5521 19.563C22.441 19.452 22.2189 19.452 22.1078 19.563C21.9968 19.6741 21.8857 19.7852 21.7746 19.8962C21.5525 19.6741 21.2193 19.6741 20.9972 19.8962C20.9972 19.7852 20.8861 19.6741 20.7751 19.6741C20.664 19.6741 20.5529 19.6741 20.3308 19.6741H20.2197C20.3308 19.7852 20.3308 19.8962 20.4419 20.0073C20.4419 20.1184 20.4419 20.2294 20.5529 20.3405C20.664 20.4516 20.7751 20.4516 20.8861 20.4516C20.9972 20.4516 20.9972 20.5626 21.1083 20.5626C21.1083 20.6737 21.2193 20.7848 21.3304 20.8958C21.4414 20.8958 21.5525 20.8958 21.6636 20.8958C21.7747 20.8958 21.9968 21.0069 22.1078 21.0069C22.2189 21.118 22.2189 21.1179 22.441 21.1179C22.5521 21.1179 22.6632 21.0069 22.6632 21.0069C22.7742 21.0069 22.8853 21.0069 22.9964 21.0069C23.1074 21.118 23.2185 21.118 23.3296 21.0069C23.4406 21.0069 23.5517 20.8958 23.5517 20.7848C23.7738 20.6737 23.8849 20.5626 23.996 20.4516C24.107 20.4516 24.2181 20.4516 24.2181 20.3405C24.3292 20.2294 24.3292 20.2294 24.3292 20.1184C24.4402 20.0073 24.4402 19.8962 24.5513 19.7852C24.6624 19.7852 24.6624 19.6741 24.7734 19.563C24.7734 19.452 24.7734 19.3409 24.7734 19.3409C24.8845 19.1188 24.8845 19.0077 24.8845 18.7856C24.9956 18.6745 24.9956 18.6745 24.9956 18.5634C24.9956 18.4524 24.9956 18.3413 24.8845 18.3413C24.6624 18.2302 24.6624 18.1192 24.6624 18.0081Z" fill="#611512"/>
    <path d="M25.5517 24.4496C26.107 24.4496 26.4402 24.5607 26.8845 24.3386C27.3288 24.2275 27.662 24.0054 27.9952 23.7832C28.8837 23.1168 29.9943 22.8947 31.105 22.3394C31.2161 22.3394 31.4382 22.2283 31.5493 22.1172C31.6603 22.0062 31.6603 21.784 31.5493 21.673C31.5493 21.673 31.4382 21.673 31.3271 21.673C30.8829 21.673 30.6607 21.784 30.4386 21.8951C30.5497 21.673 30.6607 21.4508 30.5497 21.2287C30.4386 21.0066 30.1054 20.8955 29.8833 21.0066C29.9943 20.6734 30.1054 20.3402 30.1054 20.1181C30.1054 19.7849 29.9943 19.4517 29.7722 19.3406C29.5501 19.1185 29.1058 19.1185 28.9947 19.3406C29.1058 19.1185 29.1058 18.6742 28.7726 18.5631C28.5505 18.341 28.1062 18.4521 27.9952 18.6742C27.8841 18.2299 27.662 18.0078 27.3288 18.0078C26.9956 18.0078 26.6624 18.2299 26.6624 18.5631C26.6624 18.4521 26.4402 18.341 26.3292 18.2299C26.107 18.1189 25.7738 18.0078 25.6628 18.1189C25.4406 18.2299 25.2185 18.4521 25.2185 18.6742C24.9964 18.4521 24.6632 18.341 24.4411 18.2299C24.1079 18.2299 23.7747 18.341 23.7747 18.6742C23.8857 18.4521 23.1083 18.341 23.1083 18.4521C22.8861 18.5631 22.7751 19.0074 22.664 19.1185C22.2197 18.8963 21.8865 18.8963 21.6644 19.0074C21.5533 19.0074 21.5533 19.0074 21.4423 19.1185C21.3312 19.2295 21.3312 19.5627 21.4423 19.7849C21.1091 19.6738 20.7759 19.7849 20.6648 20.007C20.4427 20.2291 20.5537 20.3402 20.5537 20.6734C20.4427 21.1176 19.6652 20.8955 19.8874 21.5619C19.9984 21.784 20.2206 22.0062 20.4427 22.1172C21.1091 22.6726 21.7755 22.8947 22.4419 23.2279C22.9972 23.45 23.2193 23.7832 23.6636 23.8943C24.33 24.2275 24.8853 24.3385 25.5517 24.4496Z" fill="#A81212"/>
    <path d="M31.4377 21.784C31.4377 21.784 31.3266 21.784 31.2155 21.784C30.7713 21.784 30.5491 21.8951 30.327 22.0062C30.4381 21.784 30.5492 21.5619 30.4381 21.3398C30.327 21.1177 29.9938 21.0066 29.7717 21.1176C29.8827 20.7844 29.9938 20.4513 29.9938 20.2291C29.9938 20.1181 29.9938 19.8959 29.8828 19.7849C29.7717 19.8959 29.5496 19.8959 29.4385 20.1181C29.2164 20.4513 29.1053 20.7845 29.1053 21.0066C28.8832 20.7845 28.55 20.7845 28.4389 20.7845C28.3278 20.7845 27.8836 21.1177 27.7725 21.3398C27.5504 21.0066 27.2172 20.8955 26.995 20.8955C26.7729 20.8955 26.3286 21.1177 26.2176 21.4508C25.9955 20.5623 24.8848 21.2287 24.5516 21.784C24.5516 21.4509 24.2184 21.2287 23.8852 21.2287C23.552 21.2287 23.2188 21.3398 22.9967 21.5619C23.1077 21.3398 23.1077 21.0066 22.8856 20.8955C22.6635 20.6734 22.3303 20.8955 22.1082 20.7845C22.2192 20.6734 22.3303 20.5623 22.4413 20.3402C22.6635 20.1181 22.8856 19.7849 22.6635 19.5627C22.5524 19.4517 22.4413 19.4517 22.2192 19.4517C21.886 19.4517 21.5528 19.5627 21.3307 19.8959C21.3307 19.7849 21.2196 19.7849 21.2196 19.6738C20.8864 19.5627 20.5532 19.6738 20.4422 19.8959C20.22 20.1181 20.3311 20.2291 20.3311 20.5623C20.22 21.0066 19.4426 20.7845 19.6647 21.4508C19.7758 21.673 19.9979 21.8951 20.22 22.0062C20.8864 22.5615 21.5528 22.7836 22.2192 23.1168C22.7745 23.339 22.9967 23.6722 23.4409 23.7832C24.1073 24.0054 24.5516 24.2275 25.218 24.2275C25.7733 24.2275 26.1065 24.3386 26.5508 24.1164C26.995 24.0054 27.3282 23.7832 27.6614 23.5611C28.55 22.8947 29.6606 22.6726 30.7713 22.1172C30.8823 22.1172 31.1045 22.0062 31.2155 21.8951C31.5487 22.1173 31.5487 21.8951 31.4377 21.784Z" fill="#850C1C"/>
    <path d="M24.8844 20.5627C24.7734 20.4516 24.6623 20.4517 24.6623 20.4517C24.5512 20.4517 24.4402 20.4516 24.4402 20.5627C24.3291 20.6738 24.3291 20.7849 24.3291 20.7849C24.3291 20.8959 24.3291 21.007 24.4402 21.007C24.5512 21.1181 24.6623 21.118 24.6623 21.118C24.7734 21.118 24.8844 21.1181 24.8844 21.007C24.9955 20.8959 24.9955 20.7849 24.9955 20.7849C24.9955 20.7849 24.8844 20.6738 24.8844 20.5627Z" fill="#850C1C"/>
    <path d="M26.9948 20.2292C26.8837 20.1182 26.7727 20.1182 26.7727 20.1182C26.6616 20.1182 26.5505 20.1182 26.5505 20.2292C26.4395 20.3403 26.4395 20.4514 26.4395 20.4514C26.4395 20.5624 26.4395 20.6735 26.5505 20.6735C26.6616 20.7846 26.7727 20.7846 26.7727 20.7846C26.8837 20.7846 26.9948 20.7846 26.9948 20.6735C27.1058 20.5624 27.1059 20.4514 27.1059 20.4514C27.1059 20.4514 27.1058 20.2292 26.9948 20.2292Z" fill="#850C1C"/>
    <path d="M25.8844 19.4519C25.7734 19.3408 25.6623 19.3408 25.6623 19.3408C25.5512 19.3408 25.4402 19.3408 25.4402 19.4519C25.3291 19.5629 25.3291 19.674 25.3291 19.674C25.3291 19.7851 25.3291 19.8961 25.4402 19.8961C25.5512 20.0072 25.6623 20.0072 25.6623 20.0072C25.7734 20.0072 25.8844 20.0072 25.8844 19.8961C25.9955 19.7851 25.9955 19.674 25.9955 19.674C25.9955 19.674 25.9955 19.4519 25.8844 19.4519Z" fill="#850C1C"/>
    <path d="M28.217 20.229C27.7727 20.229 27.7727 20.8954 28.217 20.8954C28.6612 20.8954 28.6612 20.229 28.217 20.229Z" fill="#850C1C"/>
    <path d="M24.1071 19.5622C23.996 19.4512 23.885 19.4512 23.885 19.4512C23.7739 19.4512 23.6628 19.4512 23.6628 19.5622C23.5518 19.6733 23.5518 19.7844 23.5518 19.7844V19.8954C23.5518 20.0065 23.5518 20.1176 23.6628 20.1176C23.7739 20.2286 23.885 20.2286 23.885 20.2286C23.996 20.2286 24.1071 20.2286 24.1071 20.1176C24.2182 20.0065 24.2182 19.8954 24.2182 19.8954V19.7844C24.2182 19.6733 24.2182 19.5622 24.1071 19.5622Z" fill="#C21515"/>
    <path d="M25.8842 20.7844C25.7731 20.6733 25.662 20.6733 25.551 20.6733C25.4399 20.6733 25.3288 20.6733 25.3288 20.7844C25.2178 20.8955 25.2178 21.0065 25.2178 21.0065C25.2178 21.1176 25.2178 21.2287 25.3288 21.2287C25.4399 21.3397 25.551 21.3397 25.551 21.3397C25.662 21.3397 25.7731 21.3397 25.7731 21.2287C25.8842 21.1176 25.8842 21.0065 25.8842 21.0065C25.9952 21.0065 25.9952 20.8955 25.8842 20.7844Z" fill="#C21515"/>
    <path d="M23.5519 20.3403C23.1077 20.3403 23.1077 21.0067 23.5519 21.0067C24.1073 21.1178 24.1073 20.3403 23.5519 20.3403Z" fill="#C21515"/>
    <path d="M27.1061 19.1184C26.995 19.0073 26.884 19.0073 26.884 19.0073C26.7729 19.0073 26.6618 19.0073 26.6618 19.1184C26.5508 19.2295 26.5508 19.3405 26.5508 19.3405C26.5508 19.4516 26.5508 19.5627 26.6618 19.5627C26.7729 19.6737 26.884 19.6737 26.884 19.6737C26.995 19.6737 27.1061 19.6737 27.1061 19.5627C27.2172 19.4516 27.2172 19.3405 27.2172 19.3405C27.1061 19.2295 27.1061 19.1184 27.1061 19.1184Z" fill="#C21515"/>
    <path d="M28.55 19.5625C28.1057 19.5625 28.1057 20.2289 28.55 20.2289C28.9943 20.2289 28.9943 19.5625 28.55 19.5625Z" fill="#C21515"/>
    <path d="M27.3283 21.0063C26.8841 21.0063 26.8841 21.6727 27.3283 21.6727C27.8836 21.5617 27.8836 21.0063 27.3283 21.0063Z" fill="#C21515"/>
    <path d="M26.5504 21.8948C26.4394 21.7837 26.3283 21.7837 26.3283 21.7837C26.2172 21.7837 26.1062 21.7837 26.1062 21.8948C25.9951 22.0058 25.9951 22.1169 25.9951 22.1169C25.9951 22.228 25.9951 22.339 26.1062 22.339C26.2172 22.4501 26.3283 22.4501 26.3283 22.4501C26.4394 22.4501 26.5504 22.4501 26.5504 22.339C26.6615 22.228 26.6615 22.1169 26.6615 22.1169C26.6615 22.1169 26.6615 22.0058 26.5504 21.8948Z" fill="#C21515"/>
    <path d="M25.6616 19.2295C25.7727 19.0074 26.1059 18.7852 26.328 18.6742C26.6612 18.452 26.9944 18.452 27.3276 18.341C27.6608 18.2299 28.1051 18.0078 28.3272 17.7856C28.6604 17.5635 28.8825 17.3414 29.1046 17.1193C28.4382 16.5639 27.6608 16.4529 26.9944 16.7861C26.328 17.1193 25.7727 17.6746 25.5505 18.341C25.3284 17.6746 24.8841 17.3414 24.3288 17.1193C23.6624 16.8971 23.1071 17.0082 22.5518 17.3414C22.996 17.7856 23.3292 18.0078 23.6624 18.2299C23.9956 18.452 24.3288 18.5631 24.5509 18.7852C24.8841 19.0074 25.2173 19.3406 25.2173 19.6738C25.3284 19.5627 25.6616 19.3406 25.6616 19.2295Z" fill="#52A83D"/>
    <path d="M28.4384 17.2305C27.772 17.2305 26.8835 17.5637 26.3281 18.0079C25.9949 18.3411 25.6617 18.6743 25.5507 19.1186C25.2175 18.2301 24.329 17.6747 23.4404 17.6747C23.4404 17.6747 23.4404 17.6747 23.4404 17.7858C24.1068 18.0079 24.329 18.2301 24.8843 18.4522C25.1064 18.6743 25.3286 18.8965 25.4396 19.1186C25.5507 19.4518 25.5507 19.6739 25.5507 19.8961C25.5507 20.0071 25.7728 20.0071 25.7728 19.8961C25.7728 19.785 25.7728 19.785 25.7728 19.6739C25.9949 19.0075 26.2171 18.5633 26.6613 18.0079C26.9945 17.6747 27.6609 17.4526 28.4384 17.2305Z" fill="#236B33"/>
    <path d="M11.5563 25.2271H11.001V27.1152H11.5563V25.2271Z" fill="#823A3A"/>
    <path d="M39.9889 25.5601H39.4336V28.0035H39.9889V25.5601Z" fill="#823A3A"/>
</svg>
