<svg width="48" height="48" viewBox="0 0 48 48" fill="none" xmlns="http://www.w3.org/2000/svg">
    <rect width="48" height="48" rx="24" fill="#95E1F6"/>
    <path opacity="0.2" d="M29.509 17.6304L8 27.4277L22.527 36.9997C22.527 36.9997 39.5315 29.6799 38.8559 28.5538C38.0676 27.6529 29.509 17.6304 29.509 17.6304Z" fill="#3A3A3A"/>
    <path d="M26.2422 12.2252C26.0169 12.2252 26.0169 12.2252 26.2422 12.2252C26.1295 12 26.1295 12 26.2422 12C26.2422 12 26.3548 12 26.2422 12.2252Z" fill="#FFB894"/>
    <g opacity="0.3">
        <path d="M26.3563 29.5679C26.2437 29.5679 26.1311 29.5679 26.0184 29.5679C25.7932 29.4553 25.568 29.3427 25.4554 29.1175C25.3428 28.8922 25.3428 28.667 25.3428 28.4418C25.4554 28.2166 25.568 27.9913 25.7932 27.8787C26.0184 27.7661 26.2437 27.7661 26.4689 27.7661C27.032 27.9913 27.2572 28.4418 27.1446 28.7796C27.032 29.3427 26.6941 29.5679 26.3563 29.5679ZM26.3563 27.9913C26.2437 27.9913 26.1311 27.9913 26.0184 28.104C25.7932 28.2166 25.6806 28.3292 25.568 28.5544C25.4554 28.7796 25.568 29.0048 25.6806 29.1175C25.7932 29.3427 25.9058 29.4553 26.1311 29.4553C26.6941 29.6805 27.032 29.3427 27.032 28.8922C27.1446 28.5544 27.032 27.9913 26.4689 27.9913H26.3563Z" fill="#650000"/>
    </g>
    <path d="M27.596 30.9185L25.3438 31.932V34.8599L27.596 33.959V30.9185Z" fill="#FFBF66"/>
    <path d="M25.3438 34.9725V31.932L27.9338 30.9185V33.959L25.3438 34.9725ZM25.3438 31.932V34.7473L27.8212 33.8464V31.0311L25.3438 31.932Z" fill="#650000"/>
    <path d="M23.8779 34.0714L25.3419 33.5083V34.9723L23.8779 34.0714Z" fill="#FFBF66"/>
    <path d="M25.3432 35.0849L23.7666 34.184L25.3432 33.5083V35.0849ZM23.8792 34.0714L25.2306 34.9723V33.6209L23.8792 34.0714Z" fill="#650000"/>
    <path d="M35.9287 29.3424L37.5053 28.7793V30.2433L35.9287 29.3424Z" fill="#F7A006"/>
    <path d="M37.5053 30.2426L35.9287 29.3417L37.5053 28.666V30.2426ZM35.9287 29.3417L37.2801 30.2426V28.7786L35.9287 29.3417Z" fill="#650000"/>
    <path d="M25.3444 35.1977C25.2317 35.0851 25.1191 35.0851 25.1191 34.9725V32.0446C25.1191 31.932 25.1191 31.932 25.2317 31.8194L27.7092 30.9185C27.8218 30.9185 27.8218 30.9185 27.9345 30.9185L28.0471 31.0311V33.959C28.0471 34.0716 28.0471 34.0716 27.9345 34.1842L25.3444 35.1977ZM25.457 32.1572V34.6347L27.484 33.8464V31.2563L25.457 32.1572Z" fill="#650000"/>
    <path d="M39.9833 26.3018L37.5059 27.2027V30.2432L39.9833 29.3423V26.3018Z" fill="#F7A006"/>
    <path d="M37.5059 30.243V27.2025L40.0959 26.189V29.2295L37.5059 30.243ZM37.5059 27.2025V30.1304L39.9833 29.2295V26.4142L37.5059 27.2025Z" fill="#650000"/>
    <path d="M39.9833 26.3013L37.5059 27.2022V30.2427L39.9833 29.3418V26.3013Z" fill="#FFBF66"/>
    <path d="M37.5065 30.4682C37.3939 30.3556 37.2812 30.3556 37.2812 30.243V27.3151C37.2812 27.2025 37.2813 27.2025 37.3939 27.0899L39.8713 26.189C39.984 26.189 39.984 26.189 40.0966 26.189L40.2092 26.3016V29.2295C40.2092 29.3421 40.2092 29.3421 40.0966 29.4547L37.5065 30.4682ZM37.6191 27.3151V29.9052L39.7587 29.0043V26.4142L37.6191 27.3151Z" fill="#650000"/>
    <path d="M25.3435 35.1977L23.7669 34.2968C23.6543 34.2968 23.6543 34.0716 23.6543 34.0716C23.6543 33.959 23.8795 33.959 23.8795 33.959L25.3435 34.8599C25.4561 34.8599 25.4561 35.0851 25.4561 35.0851C25.4561 35.1977 25.4561 35.1977 25.3435 35.1977Z" fill="#650000"/>
    <path d="M37.5059 30.4677L35.8167 29.5668C35.7041 29.5668 35.7041 29.3416 35.7041 29.3416C35.7041 29.229 35.9293 29.229 35.9293 29.229L37.5059 30.1299C37.5059 30.2425 37.5059 30.3551 37.5059 30.4677Z" fill="#650000"/>
    <path d="M42.122 24.1618L30.5229 17.8555L10.3652 24.4996L23.2031 31.8194L42.122 24.1618Z" fill="#FFDFB3"/>
    <path d="M23.2031 31.8193L10.3652 24.4994H10.4779L30.4103 17.9679L42.122 24.3868L23.2031 31.8193ZM10.4779 24.4994L23.2031 31.7066L42.2346 24.049L30.6355 17.7427L10.4779 24.4994Z" fill="#650000"/>
    <g opacity="0.25">
        <path d="M13.8574 23.3731C14.8709 23.4857 15.8844 23.8236 16.7853 24.1614C17.6862 24.4992 18.6998 24.9497 19.6007 25.2875C20.5016 25.738 21.5151 26.0758 22.5286 26.1884L22.979 26.301C23.0916 26.301 23.2043 26.4137 23.4295 26.4137C23.6547 26.5263 23.9926 26.5263 24.2178 26.5263C24.3304 26.5263 24.443 26.5263 24.6682 26.5263H24.8934C25.0061 26.5263 25.0061 26.5263 25.1187 26.5263H25.5691H26.0196C26.1322 26.5263 26.1322 26.5263 26.2448 26.5263H26.47C26.5826 26.5263 26.6952 26.5263 26.9205 26.5263C27.1457 26.5263 27.4835 26.4137 27.7088 26.4137C28.2718 26.301 28.6097 26.0758 29.0601 25.8506L29.3979 25.6254C29.5106 25.5128 29.6232 25.5128 29.7358 25.4001C29.961 25.2875 30.1862 25.1749 30.4115 24.9497C30.5241 24.8371 30.6367 24.8371 30.7493 24.7245L30.9745 24.6119L31.1998 24.4992L31.5376 24.274L31.8754 24.0488C32.3259 23.711 32.7763 23.3731 33.1142 23.1479C33.5646 22.8101 34.0151 22.4722 34.3529 22.247L34.6908 22.0218C34.8034 22.0218 34.8034 21.9092 34.916 21.9092L35.1412 21.7965L35.479 21.5713C35.5917 21.4587 35.7043 21.4587 35.8169 21.3461C36.0421 21.2335 36.2673 21.1209 36.6052 21.0083C36.8304 20.8956 37.1682 20.783 37.3935 20.6704C37.1682 20.783 36.943 20.8956 36.6052 21.0083C36.3799 21.1209 36.1547 21.2335 35.9295 21.3461C35.8169 21.4587 35.7043 21.4587 35.5916 21.5713L35.2538 21.7965L35.0286 21.9092C34.916 21.9092 34.916 22.0218 34.8034 22.0218L34.4655 22.247C33.5646 22.9227 32.7763 23.4857 31.988 24.1614C31.5376 24.4992 31.0872 24.8371 30.7493 25.0623C30.5241 25.1749 30.2989 25.4001 30.0736 25.5128C29.961 25.6254 29.8484 25.6254 29.7358 25.738L28.8349 26.1884C28.2718 26.4137 27.934 26.6389 27.3709 26.7515C27.1457 26.8641 26.8079 26.8641 26.5826 26.8641C26.47 26.8641 26.3574 26.8641 26.1322 26.8641H25.907C25.7944 26.8641 25.7944 26.8641 25.6817 26.8641H25.2313H24.7808C24.6682 26.8641 24.6682 26.8641 24.5556 26.8641H24.3304C24.2178 26.8641 24.1052 26.8641 23.8799 26.8641C23.6547 26.8641 23.3169 26.7515 23.0917 26.7515C22.979 26.7515 22.8664 26.7515 22.6412 26.6389L22.1907 26.5263C22.0781 26.5263 21.9655 26.4137 21.7403 26.4137C21.6277 26.4137 21.5151 26.301 21.2898 26.301C21.0646 26.1884 20.7268 26.0758 20.5016 26.0758C19.9385 25.8506 19.6007 25.6254 19.0376 25.5128C18.4745 25.2875 18.1367 25.0623 17.6862 24.8371C17.2358 24.6119 16.7853 24.3866 16.3349 24.1614C15.9971 23.8236 14.8709 23.5983 13.8574 23.3731Z" fill="#650000"/>
        <path d="M21.1768 20.896C21.8524 21.5717 22.7533 21.9095 23.6542 22.0221C24.1047 22.1347 24.5551 22.0221 25.0056 22.0221C25.456 21.9095 25.9065 21.7969 26.2443 21.5717C26.6948 21.2339 27.0326 21.0086 27.2578 20.7834C27.5957 20.4456 27.9335 20.1077 28.1587 19.8825L28.7218 19.3194C28.947 19.0942 29.0596 18.9816 29.2849 18.7564C29.6227 18.4185 29.9605 18.0807 30.2984 17.8555C29.6227 18.5311 29.1723 19.2068 28.4966 19.9951C28.1587 20.3329 27.8209 20.7834 27.5957 21.0086C27.2578 21.3465 26.8074 21.6843 26.4695 21.9095C26.2443 22.0221 26.0191 22.1347 25.7939 22.2474C25.5686 22.36 25.3434 22.36 25.0056 22.4726C24.4425 22.5852 24.1047 22.5852 23.5416 22.4726C23.3164 22.4726 23.0912 22.36 22.7533 22.2474C22.5281 22.1347 22.3029 22.0221 22.0776 21.9095C21.7398 21.6843 21.5146 21.3465 21.1768 20.896Z" fill="#650000"/>
        <path d="M36.0426 26.7519C35.8174 26.7519 35.7048 26.7519 35.4795 26.7519C35.2543 26.7519 35.1417 26.7519 34.9165 26.6393C34.6913 26.6393 34.5786 26.5267 34.3534 26.414C34.1282 26.3014 34.0156 26.1888 33.903 25.9636C33.7903 25.7384 33.6777 25.5131 33.6777 25.2879C33.6777 25.0627 33.7904 24.8375 33.7904 24.6122C34.0156 24.2744 34.2408 23.9366 34.5786 23.7113C35.2543 23.2609 35.8174 22.8104 36.493 22.6978C37.1687 22.36 37.8444 22.2474 38.6327 22.1348C37.8444 22.36 37.2813 22.5852 36.6057 22.9231C35.93 23.2609 35.3669 23.7113 34.8039 24.0492C34.6912 24.1618 34.5786 24.2744 34.3534 24.387C34.2408 24.4996 34.1282 24.6122 34.0156 24.8375C33.903 24.9501 33.903 25.1753 33.903 25.2879C33.903 25.4005 33.903 25.6258 34.0156 25.7384C34.1282 25.851 34.2408 25.9636 34.3534 26.0762C34.466 26.1888 34.6912 26.3014 34.8039 26.3014C35.0291 26.414 35.1417 26.414 35.3669 26.414C35.4795 26.414 35.5921 26.414 35.5921 26.5267C35.93 26.7519 35.93 26.7519 36.0426 26.7519Z" fill="#650000"/>
        <path d="M20.1631 30.2432C21.1766 30.1306 22.3027 29.9053 23.3162 29.6801C24.3298 29.3423 25.3433 28.8918 26.2442 28.554C27.1451 28.1035 28.2712 27.7657 29.2847 27.6531C29.8478 27.5405 30.2982 27.6531 30.8613 27.6531C31.4243 27.7657 31.8748 27.9909 32.3253 28.3288C31.7622 28.1035 31.4243 27.8783 30.8613 27.8783C30.6361 27.8783 30.2982 27.8783 30.073 27.8783C29.8478 27.8783 29.5099 27.8783 29.2847 27.9909C29.0595 27.9909 28.7217 28.1035 28.4964 28.2161C28.2712 28.3288 27.9334 28.3288 27.7081 28.4414C27.1451 28.6666 26.8072 28.7792 26.2442 29.0044C25.6811 29.2297 25.3433 29.4549 24.7802 29.6801C24.2171 29.9053 23.7667 30.0179 23.2036 30.2432C22.3027 30.1306 21.1766 30.2432 20.1631 30.2432Z" fill="#650000"/>
        <path d="M14.8701 26.9775C16.1089 27.428 17.3476 27.7658 18.6989 27.8784C19.3746 27.9911 19.9377 28.1037 20.6134 28.1037C21.289 28.1037 21.8521 28.1037 22.5278 28.1037C21.8521 28.2163 21.289 28.2163 20.6134 28.2163C19.9377 28.2163 19.3746 28.1037 18.6989 28.1037C17.4602 27.8784 16.1089 27.6532 14.8701 27.2028V26.9775Z" fill="#650000"/>
        <path d="M31.4258 26.1888C31.5384 26.0762 31.651 26.0762 31.7636 26.0762C31.8762 26.0762 31.9889 26.0762 32.1015 26.0762C32.2141 26.0762 32.3267 26.0762 32.4393 26.1888C32.5519 26.1888 32.6645 26.3014 32.7771 26.414C32.6645 26.5266 32.5519 26.5266 32.4393 26.5266C32.3267 26.5266 32.2141 26.5266 32.1015 26.5266C31.9889 26.5266 31.8762 26.5266 31.7636 26.414C31.651 26.3014 31.651 26.3014 31.4258 26.1888Z" fill="#650000"/>
        <path d="M23.3164 20.2207C23.6542 20.4459 23.9921 20.5585 24.3299 20.5585C24.6678 20.5585 25.0056 20.5585 25.2308 20.4459C25.5687 20.3333 25.9065 20.1081 26.1317 19.8828C26.3569 19.6576 26.5822 19.3198 26.92 18.9819C26.8074 19.3198 26.6948 19.7702 26.4696 19.9954C26.357 20.1081 26.2443 20.3333 26.0191 20.4459C25.7939 20.5585 25.6813 20.6711 25.456 20.7837C25.0056 20.8964 24.6678 20.8963 24.3299 20.8963C23.9921 20.6711 23.7669 20.4459 23.3164 20.2207Z" fill="#650000"/>
        <path d="M37.394 23.7114C37.1688 23.824 37.0562 24.0493 36.831 24.1619C36.7183 24.2745 36.6057 24.4997 36.6057 24.7249C36.6057 24.8376 36.6057 24.8376 36.7183 24.9502C36.8309 25.0628 36.831 25.0628 36.9436 25.0628H37.0562H37.1688C37.2814 25.0628 37.394 25.0628 37.5066 25.0628C37.6193 25.0628 37.7319 25.0628 37.8445 25.0628H38.1823C38.4075 25.0628 38.6328 25.0628 38.858 25.0628C39.3084 25.0628 39.7589 25.0628 40.2093 25.0628C39.7589 25.1754 39.3084 25.288 38.9706 25.4006C38.7454 25.4006 38.5201 25.5132 38.2949 25.5132H37.7319C37.6192 25.5132 37.5066 25.5132 37.394 25.5132C37.1688 25.5132 36.831 25.5132 36.6057 25.4006C36.4931 25.288 36.3805 25.288 36.2679 25.1754C36.2679 25.0628 36.1553 25.0628 36.1553 24.9502C36.1553 24.8376 36.1553 24.8376 36.1553 24.7249C36.1553 24.6123 36.1553 24.3871 36.2679 24.2745C36.3805 24.1619 36.3805 24.0493 36.4931 23.9367C36.9436 23.9367 36.9436 23.824 37.394 23.7114Z" fill="#650000"/>
        <path d="M17.7982 21.9097C18.5865 22.3601 19.1495 22.8106 19.9378 23.0358C20.7261 23.261 21.4018 23.7115 22.3027 23.9367C23.091 24.1619 23.8792 24.2745 24.7801 24.1619C25.0054 24.1619 25.2306 24.1619 25.4558 24.0493C25.5684 24.0493 25.681 24.0493 25.7937 23.9367H25.9063H26.0189L25.9063 24.0493H25.7937C25.681 24.0493 25.5684 24.1619 25.4558 24.1619C25.2306 24.1619 25.0054 24.2745 24.7801 24.2745C23.8792 24.3871 23.091 24.2745 22.3027 24.0493C21.4018 23.8241 20.7261 23.5989 19.9378 23.261C19.1495 22.9232 18.4738 22.5853 17.6855 22.2475L17.7982 21.9097Z" fill="#650000"/>
        <path d="M27.4834 23.0359C27.9338 22.5855 28.3843 22.135 28.8347 21.7972C29.2852 21.3467 29.7357 21.0089 30.2987 20.671C30.8618 20.3332 31.3122 19.9954 31.9879 19.7701C32.1005 19.7701 32.1005 19.6575 32.2131 19.6575L32.4384 19.5449H32.6636H32.7762H32.8888C33.2266 19.5449 33.5645 19.5449 33.7897 19.5449L33.6771 19.9954C33.3393 19.9954 33.0014 19.8828 32.7762 19.9954H32.6636H32.551H32.3257H32.1005C31.9879 19.9954 31.9879 19.9954 31.8753 20.108C31.1996 20.3332 30.7492 20.5584 30.1861 20.8963C29.623 21.2341 29.1726 21.572 28.6095 21.9098C28.4969 22.135 27.9338 22.4729 27.4834 23.0359Z" fill="#650000"/>
        <path d="M26.6953 24.8379C27.5962 24.6126 28.2719 24.1622 28.9476 23.8244C29.7359 23.3739 30.2989 22.9235 30.9746 22.3604C31.6503 21.7973 32.3259 21.4595 33.1142 21.1217C33.3395 21.009 33.5647 20.8964 33.7899 20.8964C33.9025 20.8964 34.0151 20.7838 34.1278 20.7838C34.2404 20.7838 34.353 20.7838 34.4656 20.6712C34.916 20.5586 35.3665 20.5586 35.7043 20.5586C35.2539 20.5586 34.8034 20.6712 34.5782 20.7838C34.4656 20.7838 34.353 20.8964 34.2404 20.8964C34.1277 20.8964 34.0151 21.009 33.9025 21.009C33.6773 21.1217 33.4521 21.2343 33.3394 21.3469C32.5512 21.7973 31.9881 22.2478 31.1998 22.6982C30.5241 23.2613 29.8485 23.5991 29.0602 24.0496C28.7223 24.2748 28.2719 24.5 27.9341 24.6126C27.4836 24.7253 27.0332 24.8379 26.6953 24.8379Z" fill="#650000"/>
        <path d="M11.2676 24.0498C12.0559 24.275 12.7315 24.3876 13.4072 24.6129C14.1955 24.8381 14.7586 25.0633 15.5469 25.2885C16.3351 25.5138 16.8982 25.739 17.6865 25.9642C18.4748 26.1894 19.0378 26.5273 19.8261 26.7525C19.0378 26.5273 18.4748 26.3021 17.6865 26.0768C16.8982 25.8516 16.3351 25.6264 15.5469 25.4012C14.7586 25.1759 14.0829 25.0633 13.4072 24.8381C12.6189 24.7255 11.9433 24.5003 11.2676 24.3876V24.0498Z" fill="#650000"/>
    </g>
    <path d="M42.123 26.8643L23.2041 34.2968V31.8193L42.123 24.1616V26.8643Z" fill="#F7A006"/>
    <path d="M23.2041 34.2966V31.7065L42.2356 24.0488V26.7515L23.2041 34.2966ZM23.3167 31.8191V34.2966L42.3482 26.6389V24.1614L23.3167 31.8191Z" fill="#650000"/>
    <g opacity="0.25">
        <path d="M32.2124 27.9902C32.325 28.2155 32.4376 28.5533 32.4376 28.7785C32.4376 28.8911 32.4376 29.0038 32.4376 29.229C32.4376 29.3416 32.4376 29.3416 32.4376 29.4542C32.4376 29.5668 32.4376 29.5668 32.4376 29.6794C32.4376 29.9046 32.325 30.2425 32.0998 30.4677C31.9872 30.6929 31.7619 30.9182 31.5367 31.1434C31.0863 31.4812 30.6358 31.7065 30.1854 31.9317C30.0728 31.9317 29.9601 32.0443 29.7349 32.0443C29.6223 32.0443 29.5097 32.1569 29.2845 32.1569C29.1719 32.1569 29.0592 32.1569 28.834 32.2695C28.7214 32.2695 28.6088 32.2695 28.3836 32.3821C28.1583 32.3821 27.8205 32.4947 27.5953 32.4947C27.3701 32.4947 27.0322 32.4947 26.807 32.4947C26.2439 32.4947 25.7935 32.4947 25.343 32.4947C24.78 32.4947 24.4421 32.6074 23.9917 32.8326C23.7665 32.9452 23.5412 33.0578 23.316 33.1704L23.2034 33.283L23.0908 33.3956C22.9782 33.5083 22.8655 33.5083 22.7529 33.6209C22.9782 33.3956 23.0908 33.283 23.316 33.0578C23.5412 32.8326 23.7665 32.72 23.9917 32.6074C24.2169 32.4947 24.4421 32.3821 24.78 32.2695C25.0052 32.1569 25.343 32.1569 25.5682 32.1569C25.7935 32.1569 26.1313 32.1569 26.3565 32.1569C26.5818 32.1569 26.9196 32.1569 27.1448 32.1569C27.7079 32.1569 28.0457 32.1569 28.6088 32.0443C28.834 32.0443 29.1718 31.9317 29.3971 31.9317C29.5097 31.9317 29.6223 31.9317 29.7349 31.8191C29.8475 31.8191 29.9601 31.7065 30.0727 31.7065L30.298 31.5938H30.4106H30.5232L30.6358 31.256L30.861 31.1434C31.0863 31.0308 31.3115 30.9182 31.5367 30.8056C31.7619 30.6929 31.8746 30.4677 32.0998 30.2425C32.2124 30.0173 32.325 29.792 32.4376 29.5668C32.5502 29.3416 32.5502 29.0037 32.5502 28.7785C32.5502 28.6659 32.5502 28.5533 32.5502 28.3281C32.325 28.4407 32.325 28.3281 32.2124 27.9902Z" fill="#650000"/>
        <path d="M33.5635 30.2429C33.7887 29.7925 34.0139 29.342 34.3518 29.1168C34.6896 28.6664 35.0274 28.3285 35.2527 28.2159C35.4779 28.1033 35.7031 27.9907 35.9283 27.8781C36.1536 27.7655 36.3788 27.7655 36.7166 27.6528C37.1671 27.5402 37.6175 27.6528 38.068 27.6528C38.5184 27.6528 38.9689 27.6528 39.4193 27.6528C39.6446 27.6528 39.8698 27.5402 40.095 27.5402C40.2076 27.5402 40.3202 27.4276 40.4328 27.4276C40.5454 27.315 40.6581 27.315 40.6581 27.2024C40.8833 27.0898 40.9959 26.8646 41.1085 26.6393C41.2211 26.4141 41.3337 26.1889 41.3337 25.9637C41.4464 25.5132 41.559 25.0628 41.559 24.6123H42.0094C42.0094 25.1754 41.8968 25.5132 41.7842 26.0763C41.6716 26.3015 41.559 26.5267 41.4464 26.7519C41.3337 26.9772 41.1085 27.2024 40.8833 27.315C40.4328 27.6528 39.9824 27.7655 39.5319 27.8781C38.9689 27.8781 38.631 27.8781 38.1806 27.8781C37.7301 27.8781 37.2797 27.7655 36.8292 27.8781C36.604 27.8781 36.3788 27.9907 36.1536 27.9907C35.9283 28.1033 35.7031 28.2159 35.4779 28.3285C35.0274 28.5538 34.6896 29.0042 34.577 29.2294C34.1265 29.342 33.7887 29.7925 33.5635 30.2429Z" fill="#650000"/>
        <path d="M39.9833 25.2881C40.0959 25.4007 40.2085 25.6259 40.3211 25.7385C40.3211 25.9638 40.3211 26.189 40.3211 26.3016C40.2085 26.5268 40.0959 26.6394 39.8707 26.752C39.7581 26.8647 39.6454 26.8647 39.5328 26.8647C39.4202 26.8647 39.3076 26.8647 39.195 26.8647C38.9698 26.8647 38.8572 26.8647 38.6319 26.8647C38.2941 26.8647 38.2941 26.752 38.0689 26.752C37.731 26.6394 37.3932 26.5268 37.168 26.4142C37.5058 26.4142 37.8436 26.4142 38.1815 26.5268H38.7445C38.9698 26.5268 39.0824 26.5268 39.195 26.5268C39.3076 26.5268 39.5328 26.5268 39.6454 26.4142C39.7581 26.3016 39.8707 26.3016 39.9833 26.0764C39.9833 25.7385 39.9833 25.4007 39.9833 25.2881Z" fill="#650000"/>
        <path d="M31.1985 28.666C30.9733 28.7786 30.8607 29.0039 30.7481 29.1165C30.6355 29.3417 30.6355 29.5669 30.5228 29.7921C30.4102 30.0174 30.2976 30.2426 30.185 30.4678C30.0724 30.5804 29.9598 30.693 29.8472 30.693C29.7346 30.8057 29.6219 30.8057 29.5093 30.8057C29.2841 30.8057 28.9463 30.8057 28.7211 30.8057C28.4958 30.8057 28.2706 30.693 28.0454 30.693C27.5949 30.5804 27.1445 30.4678 26.8066 30.3552C27.2571 30.3552 27.7075 30.3552 28.0454 30.3552C28.4958 30.3552 28.9463 30.4678 29.2841 30.3552C29.5093 30.3552 29.622 30.2426 29.8472 30.13C29.9598 30.0174 30.0724 29.7921 30.185 29.5669C30.185 29.4543 30.2976 29.3417 30.2976 29.2291C30.4102 29.1165 30.4102 29.0039 30.5228 28.8912C30.6355 28.7786 30.6355 28.666 30.7481 28.666C30.9733 28.7786 31.0859 28.666 31.1985 28.666Z" fill="#650000"/>
    </g>
    <path d="M35.8164 29.2301L37.2804 28.667V30.131L35.8164 29.2301Z" fill="#FFBF66"/>
    <path d="M42.123 26.8643L23.2041 34.2968V31.8193L42.123 24.1616V26.8643Z" fill="#FFDFB3"/>
    <g opacity="0.55">
        <path d="M42.122 24.1618L31.1986 18.1933L11.1535 24.9501L23.2031 31.8194L10.3652 24.4996L30.5229 17.8555L42.122 24.1618Z" fill="white"/>
        <path d="M23.2031 31.8196L10.3652 24.4998H10.4779L30.4103 17.9683L42.122 24.3872H42.0094L30.9733 18.3061L11.0409 24.8376L23.2031 31.8196ZM10.4779 24.4998L11.1535 24.8376L31.0859 18.3061L30.4103 17.9683L10.4779 24.4998Z" fill="#650000"/>
    </g>
    <path d="M23.2031 31.8193V34.2968L11.1535 27.3148L10.3652 27.0896V24.4995L11.0409 24.95L23.2031 31.8193Z" fill="#FFDFB3"/>
    <path d="M23.3157 34.2968L10.3652 27.0896V24.4995L23.3157 31.8193V34.2968ZM10.4779 27.0896L23.2031 34.2968V31.8193L10.4779 24.6121V27.0896Z" fill="#650000"/>
    <g opacity="0.55">
        <path d="M11.1535 24.95V27.3148L10.3652 27.0896V24.4995L11.0409 24.95H11.1535Z" fill="white"/>
        <path d="M11.1535 27.315L10.3652 26.8645V24.2744L11.0409 24.7249L11.1535 24.8375V27.315ZM10.4779 27.0897L11.1535 27.4276V24.9501L11.0409 24.8375L10.4779 24.4996V27.0897Z" fill="#650000"/>
    </g>
    <g opacity="0.25">
        <path d="M11.2683 24.9502C11.1557 25.7385 11.3809 26.4142 11.8313 26.8646C12.0566 27.0898 12.2818 27.4277 12.6196 27.5403C12.7322 27.6529 12.9575 27.6529 13.0701 27.7655C13.1827 27.7655 13.4079 27.8781 13.6331 27.8781C13.971 27.8781 14.4214 27.8781 14.6467 27.9907C14.7593 27.9907 14.8719 28.1033 14.9845 28.1033L15.0971 28.216H15.2097H15.3223C15.5475 28.3286 15.6602 28.4412 15.7728 28.5538C16.1106 28.779 16.3358 29.1169 16.4484 29.4547C16.5611 29.7925 16.6737 30.243 16.6737 30.4682C16.5611 29.6799 16.2232 29.1169 15.6602 28.6664C15.6602 28.6664 15.5476 28.6664 15.5476 28.5538C15.5476 28.5538 15.4349 28.5538 15.4349 28.4412L15.3223 28.3286H15.2097H14.8719H14.7593H14.6467C14.534 28.3286 14.534 28.3286 14.4214 28.216C14.0836 28.1033 13.7457 28.1033 13.4079 28.1033C13.1827 28.1033 12.9575 28.1033 12.8448 27.9907C12.6196 27.8781 12.507 27.8781 12.2818 27.7655C11.9439 27.5403 11.6061 27.3151 11.3809 26.9772C11.1557 26.4142 11.0431 25.6259 11.2683 24.9502Z" fill="#650000"/>
        <path d="M16.4473 28.3281L17.0103 29.5669C17.1229 29.7921 17.2356 30.0173 17.3482 30.2425C17.4608 30.4678 17.5734 30.693 17.7986 30.8056C18.0239 30.9182 18.2491 31.0308 18.4743 31.0308C18.6995 31.0308 18.9248 31.0308 19.15 30.9182C19.3752 30.8056 19.6004 30.693 19.713 30.5804C19.9383 30.4678 20.1635 30.2425 20.2761 30.1299L20.5013 30.4678C20.2761 30.5804 20.0509 30.8056 19.8256 30.9182C19.6004 31.0308 19.3752 31.1434 19.15 31.2561C18.9248 31.3687 18.5869 31.3687 18.3617 31.3687C18.1365 31.3687 17.7986 31.2561 17.5734 31.0308C17.4608 30.9182 17.3482 30.8056 17.3482 30.693C17.2356 30.5804 17.2356 30.4678 17.2356 30.3552C17.123 30.1299 17.0103 29.9047 17.0103 29.6795L16.4473 28.3281Z" fill="#650000"/>
        <path d="M21.1773 30.806C21.0647 30.806 21.0646 30.9186 20.952 31.0312C20.8394 31.1438 20.8394 31.1438 20.7268 31.2564C20.6142 31.369 20.5016 31.5943 20.5016 31.8195C20.5016 31.9321 20.5016 32.0447 20.5016 32.1573C20.5016 32.2699 20.5016 32.3825 20.5016 32.4952C20.5016 32.7204 20.6142 32.9456 20.7268 33.1708C20.6142 32.9456 20.5016 32.833 20.389 32.6078C20.389 32.4952 20.2764 32.3826 20.2764 32.2699C20.2764 32.1573 20.2764 32.0447 20.2764 31.9321C20.2764 31.7069 20.389 31.4816 20.5016 31.2564C20.6142 31.0312 20.7268 30.806 20.952 30.6934L21.1773 30.806Z" fill="#650000"/>
    </g>
    <path d="M23.204 34.5221L22.9788 34.4095V31.8194C22.9788 31.7068 22.8661 31.5942 22.9788 31.4816L42.0103 23.9365C42.1229 23.9365 42.1229 23.9365 42.2355 23.9365L42.3481 24.0491V26.7518C42.3481 26.8645 42.3481 26.8645 42.2355 26.9771L23.204 34.5221ZM23.3166 31.932V34.0717L42.0103 26.7518V24.6122L23.3166 31.932Z" fill="#823A3A"/>
    <path d="M23.2044 34.5217L10.3665 27.2019C10.2539 27.2019 10.2539 27.0892 10.2539 26.9766V24.4992C10.2539 24.3865 10.2539 24.3865 10.3665 24.2739C10.4791 24.2739 10.4791 24.2739 10.5917 24.2739L23.4296 31.5937C23.5422 31.5937 23.5422 31.7064 23.5422 31.819V34.4091C23.317 34.4091 23.317 34.4091 23.2044 34.5217C23.317 34.5217 23.317 34.5217 23.2044 34.5217ZM10.5917 26.9766L22.9791 34.0712V31.9316L10.5917 24.837V26.9766Z" fill="#823A3A"/>
    <path d="M10.4791 24.612C10.3665 24.612 10.3665 24.612 10.2539 24.4994C10.2539 24.3868 10.2539 24.2742 10.3665 24.2742L30.299 17.7427H30.4116L42.1233 24.049C42.2359 24.049 42.2359 24.2742 42.2359 24.2742C42.2359 24.3868 42.0107 24.3868 42.0107 24.3868L30.4116 18.0805L10.4791 24.612Z" fill="#823A3A"/>
    <g opacity="0.3">
        <path d="M36.0426 25.4013C36.0426 26.4148 33.4525 27.4283 29.9615 27.4283C26.4705 27.4283 23.8805 26.5274 23.8805 25.4013C23.8805 25.1761 23.9931 25.0635 24.1057 24.8382C23.8805 24.8382 23.5426 24.8382 23.3174 24.8382C19.939 24.8382 17.2363 23.9373 17.2363 22.8112C17.2363 21.7977 19.8264 20.7842 23.3174 20.7842C26.6958 20.7842 29.3985 21.6851 29.3985 22.8112C29.3985 23.0364 29.2859 23.149 29.1733 23.3743C29.3985 23.3743 29.7363 23.3743 29.9615 23.3743C33.3399 23.4869 36.0426 24.3878 36.0426 25.4013Z" fill="#650000"/>
    </g>
    <path d="M29.0597 12.2246C31.6498 12.2246 34.4651 13.8012 34.4651 15.2651V19.7697C34.4651 21.2336 31.875 22.8102 29.0597 22.8102C26.2444 22.8102 23.6543 21.2336 23.6543 19.7697V15.2651C23.7669 13.6886 26.4696 12.2246 29.0597 12.2246Z" fill="#4A1E11"/>
    <path d="M29.0584 18.0805C31.9816 18.0805 34.3512 16.7696 34.3512 15.1525C34.3512 13.5355 31.9816 12.2246 29.0584 12.2246C26.1353 12.2246 23.7656 13.5355 23.7656 15.1525C23.7656 16.7696 26.1353 18.0805 29.0584 18.0805Z" fill="#823A3A"/>
    <path d="M29.0588 17.6298C31.671 17.6298 33.7886 16.5206 33.7886 15.1523C33.7886 13.784 31.671 12.6748 29.0588 12.6748C26.4467 12.6748 24.3291 13.784 24.3291 15.1523C24.3291 16.5206 26.4467 17.6298 29.0588 17.6298Z" fill="#FAFAFA"/>
    <path d="M29.2862 15.1515L31.2006 15.8272C31.4258 15.602 31.5384 15.3767 31.5384 15.2641C31.5384 14.7011 30.5249 14.0254 29.1736 14.0254C28.3853 14.0254 27.9348 14.2506 27.4844 14.4758L29.2862 15.1515Z" fill="#F4511E"/>
    <path d="M31.2002 15.9402L29.2858 15.2646L27.2588 14.3637L27.3714 14.2511C27.8219 13.9132 28.3849 13.688 29.0606 13.688C30.4119 13.688 31.5381 14.4763 31.5381 15.0393C31.4255 15.3772 31.3128 15.6024 31.2002 15.9402ZM29.2858 15.0393L31.0876 15.715C31.2002 15.4898 31.3128 15.2646 31.3128 15.2646C31.3128 14.8141 30.4119 14.1384 29.0606 14.1384C28.3849 14.1384 28.0471 14.2511 27.5966 14.4763L29.2858 15.0393Z" fill="#424242"/>
    <path d="M27.371 14.4766C26.9205 14.7018 26.6953 15.0396 26.6953 15.2648C26.6953 15.6027 27.2584 16.1658 28.0467 16.2784L29.1728 15.1522L27.371 14.4766Z" fill="#F4511E"/>
    <path d="M28.1593 16.278C27.2584 16.0528 26.6953 15.4897 26.6953 15.1519C26.6953 14.9267 26.9205 14.4762 27.4836 14.251L29.5106 15.0393L28.1593 16.278ZM27.371 14.5888C26.9205 14.814 26.8079 15.1519 26.8079 15.2645C26.8079 15.4897 27.371 16.0528 28.0467 16.1654L28.9476 15.2645L27.371 14.5888Z" fill="#424242"/>
    <path d="M31.0864 15.7157L29.172 15.04L28.0459 16.1662C28.3837 16.2788 28.7216 16.2788 29.0594 16.2788C29.8477 16.2788 30.636 15.9409 31.0864 15.7157Z" fill="#F4511E"/>
    <path d="M29.172 16.3914C28.7216 16.3914 28.3837 16.3914 28.1585 16.2788H28.0459L29.2846 15.04L31.4243 15.8283L31.1991 15.9409C30.636 16.0536 29.8477 16.3914 29.172 16.3914ZM28.2711 16.1662C28.4963 16.1662 28.8342 16.1662 29.172 16.1662C29.8477 16.1662 30.4108 15.9409 30.8612 15.7157L29.2846 15.1527L28.2711 16.1662Z" fill="#424242"/>
    <path d="M20.7246 15.0405C23.6526 15.0405 26.8057 16.7297 26.8057 18.4189V23.4865C26.8057 25.1757 23.6526 26.8649 20.7246 26.8649C17.7967 26.8649 14.6436 25.1757 14.6436 23.4865V18.5315C14.6436 16.7297 17.7967 15.0405 20.7246 15.0405Z" fill="#4A1E11"/>
    <path d="M20.7256 21.4593C24.0841 21.4593 26.8067 19.9971 26.8067 18.1935C26.8067 16.3899 24.0841 14.9277 20.7256 14.9277C17.3671 14.9277 14.6445 16.3899 14.6445 18.1935C14.6445 19.9971 17.3671 21.4593 20.7256 21.4593Z" fill="#823A3A"/>
    <path d="M20.7264 20.7837C23.6495 20.7837 26.0192 19.6241 26.0192 18.1936C26.0192 16.7631 23.6495 15.6035 20.7264 15.6035C17.8033 15.6035 15.4336 16.7631 15.4336 18.1936C15.4336 19.6241 17.8033 20.7837 20.7264 20.7837Z" fill="#FAFAFA"/>
    <path d="M20.7262 17.9673L22.8659 18.7555C23.0911 18.5303 23.3163 18.3051 23.3163 18.0799C23.3163 17.5168 22.1902 16.7285 20.7262 16.7285C19.938 16.7285 19.2623 16.9537 18.6992 17.2916L20.7262 17.9673Z" fill="#F4511E"/>
    <path d="M22.8668 18.756L20.6146 17.9677L18.3623 17.0668L18.5875 16.9542C19.1506 16.6163 19.8263 16.3911 20.7272 16.3911C22.3037 16.3911 23.4299 17.292 23.4299 17.8551C23.4299 18.3055 23.2046 18.5308 22.8668 18.756ZM20.8398 17.8551L22.9794 18.6434C23.092 18.5308 23.4299 18.1929 23.4299 18.0803C23.4299 17.6299 22.4164 16.8416 20.8398 16.8416C20.1641 16.8416 19.601 16.9542 19.038 17.292L20.8398 17.8551Z" fill="#424242"/>
    <path d="M20.8378 18.0803L18.6981 17.292C18.2477 17.5172 18.0225 17.8551 18.0225 18.1929C18.0225 18.6433 18.6981 19.0938 19.4864 19.319C19.8243 19.4316 20.2747 19.5442 20.6126 19.5442C21.5135 19.5442 22.4144 19.2064 22.8648 18.756L20.8378 18.0803Z" fill="#689F38"/>
    <path d="M20.6138 19.5442C20.1634 19.5442 19.7129 19.4316 19.4877 19.319C18.5868 19.0938 17.9111 18.5307 17.9111 18.1929C17.9111 17.8551 18.1364 17.4046 18.6994 17.292L20.8391 18.0803L23.0913 18.8686L22.9787 18.9812C22.4156 19.2064 21.5147 19.5442 20.6138 19.5442ZM18.6994 17.4046C18.249 17.6298 18.1364 17.9677 18.1364 18.1929C18.1364 18.6433 18.812 19.0938 19.4877 19.2064C19.8256 19.319 20.276 19.4316 20.5012 19.4316C21.4021 19.4316 22.0778 19.2064 22.5283 18.756L20.7264 18.0803L18.6994 17.4046Z" fill="#424242"/>
    <path d="M29.5102 17.4053C32.1003 17.4053 35.0282 18.9819 35.0282 20.4458V25.0629C35.0282 26.6395 32.2129 28.1035 29.5102 28.1035C26.9201 28.1035 23.9922 26.5269 23.9922 25.0629V20.4458C24.2174 18.8692 27.0327 17.4053 29.5102 17.4053Z" fill="#4A1E11"/>
    <path d="M29.5089 23.1483C32.4942 23.1483 34.9143 21.8375 34.9143 20.2204C34.9143 18.6034 32.4942 17.2925 29.5089 17.2925C26.5236 17.2925 24.1035 18.6034 24.1035 20.2204C24.1035 21.8375 26.5236 23.1483 29.5089 23.1483Z" fill="#823A3A"/>
    <path d="M29.511 22.8101C32.1231 22.8101 34.2407 21.6504 34.2407 20.22C34.2407 18.7895 32.1231 17.6299 29.511 17.6299C26.8988 17.6299 24.7812 18.7895 24.7812 20.22C24.7812 21.6504 26.8988 22.8101 29.511 22.8101Z" fill="#FAFAFA"/>
    <path d="M29.6215 20.2204L31.6485 20.896C31.8737 20.6708 31.9863 20.4456 31.9863 20.333C31.9863 19.7699 30.9728 19.0942 29.5088 19.0942C28.7206 19.0942 28.1575 19.3195 27.707 19.6573L29.6215 20.2204Z" fill="#689F38"/>
    <path d="M31.7624 20.8963L29.6227 20.2206L27.5957 19.4323L27.7083 19.3197C28.1588 18.8693 28.7218 18.644 29.5101 18.644C30.8615 18.644 32.1002 19.4323 32.1002 19.9954C32.1002 20.3332 31.9876 20.6711 31.7624 20.8963ZM29.6227 20.108L31.6497 20.7837C31.7624 20.5585 31.875 20.3332 31.875 20.3332C31.875 19.7702 30.9741 19.2071 29.5101 19.2071C28.8344 19.2071 28.2714 19.3197 27.9335 19.6576L29.6227 20.108Z" fill="#424242"/>
    <path d="M27.9345 19.6582C27.484 19.8834 27.2588 20.2213 27.2588 20.4465C27.2588 20.7843 27.8218 21.3474 28.6101 21.46L29.7363 20.3339L27.9345 19.6582Z" fill="#F4511E"/>
    <path d="M28.7228 21.4596C27.8219 21.2344 27.2588 20.6714 27.2588 20.3335C27.2588 20.1083 27.484 19.6578 28.0471 19.4326L30.0741 20.2209L28.7228 21.4596ZM27.9345 19.7705C27.484 19.9957 27.3714 20.3335 27.3714 20.4461C27.3714 20.6714 27.9345 21.2344 28.6101 21.347L29.511 20.4461L27.9345 19.7705Z" fill="#424242"/>
    <path d="M31.6489 20.8964L29.7345 20.2207L28.6084 21.3468C28.9462 21.4594 29.2841 21.4594 29.6219 21.4594C30.5228 21.6847 31.1985 21.3468 31.6489 20.8964Z" fill="#FDD835"/>
    <path d="M30.1863 21.6847C29.961 21.6847 29.8484 21.6847 29.6232 21.5721C29.2854 21.5721 28.8349 21.5721 28.6097 21.4594H28.4971L29.7358 20.2207L31.8754 21.009L31.7628 21.1216C31.1998 21.4594 30.7493 21.6847 30.1863 21.6847ZM28.9475 21.3468C29.1727 21.3468 29.5106 21.3468 29.8484 21.3468C30.5241 21.4594 30.9745 21.3468 31.6502 20.8964L30.0736 20.3333L28.9475 21.3468Z" fill="#424242"/>
</svg>
