<svg width="48" height="48" viewBox="0 0 48 48" fill="none" xmlns="http://www.w3.org/2000/svg">
    <rect width="48" height="48" rx="24" fill="#95E1F6"/>
    <path opacity="0.2" d="M33.1342 37.2399C33.2516 38.7665 28.4371 39.9407 22.6831 39.9407C19.7475 39.9407 17.0466 39.5884 15.1678 39.1187C13.2889 38.649 12.1146 37.9445 11.9972 37.2399C11.8798 35.7133 16.6943 34.5391 22.4483 34.5391C26.7931 34.5391 30.6682 35.1262 32.1948 36.183C32.6645 36.5353 33.1342 36.8876 33.1342 37.2399Z" fill="#3A3A3A"/>
    <path d="M21.5068 22.0913V34.4212C21.5068 35.4781 22.3288 36.3001 23.3857 36.3001H30.5488C31.6056 36.3001 32.4276 35.4781 32.4276 34.4212V22.0913H21.5068Z" fill="#FFDD43"/>
    <path d="M28.4355 22.0913V36.3001H30.5492C31.6061 36.3001 32.4281 35.4781 32.4281 34.4212V22.0913H28.4355Z" fill="#FFAB17"/>
    <path d="M25.6183 17.2769H23.6221V36.3001H25.6183V17.2769Z" fill="#FFDFB3"/>
    <path d="M35.5991 8.35205C35.3642 8.35205 35.1294 8.46947 35.0119 8.5869L30.7845 11.7575C29.8451 12.462 29.1405 13.5189 29.0231 14.8106L26.792 31.3679C26.792 31.7202 26.9094 31.955 27.1443 32.1899C27.3791 32.4247 27.7314 32.4247 27.9663 32.3073C28.3186 32.1899 28.5534 31.8376 28.5534 31.6027L30.7845 15.0454C30.902 14.106 31.1368 13.7537 31.9588 13.1666L36.1862 9.99605C36.5385 9.76119 36.6559 9.40891 36.5385 9.05662C36.4211 8.70434 36.0688 8.35205 35.5991 8.35205Z" fill="#FFDFB3"/>
    <path d="M27.9675 22.0913L26.6758 31.603C26.6758 31.9552 26.7932 32.1901 27.0281 32.4249C27.2629 32.6598 27.6152 32.6598 27.8501 32.5424C28.2023 32.425 28.4372 32.0727 28.4372 31.8378L29.7289 22.0913C29.6115 22.0913 27.9675 22.0913 27.9675 22.0913Z" fill="#FFF086"/>
    <path d="M35.599 8C35.2467 8 35.0119 8.11743 34.777 8.35229L30.5496 11.5228C29.4928 12.3448 28.7882 13.4017 28.5534 14.8108L26.3223 31.3681C26.2048 31.8378 26.4397 32.0727 26.6745 32.4249C26.9094 32.6598 27.2617 32.8947 27.4965 32.8947C27.7314 32.8947 28.0837 32.8947 28.4359 32.6598C28.7882 32.4249 29.0231 32.0727 29.0231 31.7204L31.2542 15.1631C31.3716 14.3411 31.4891 14.1063 32.1936 13.5191L36.421 10.3486C37.0082 9.99627 37.0082 9.40915 36.8907 8.82201C36.7733 8.3523 36.3036 8 35.599 8ZM35.599 8.82201C35.8339 8.82201 35.9513 8.93942 36.0687 9.17428C36.1862 9.40913 36.0687 9.52656 35.8339 9.76141L31.6065 12.932C30.9019 13.5191 30.4322 14.1062 30.3148 15.0457L28.0837 31.603C28.0837 31.8378 27.9662 31.9552 27.8488 31.9552C27.7314 32.0727 27.614 32.0727 27.4965 32.0727C27.3791 32.0727 27.2617 31.9552 27.1442 31.9552C27.0268 31.8378 27.0268 31.7204 27.0268 31.603L29.2579 15.0457C29.4928 13.8714 29.9625 13.0494 31.0194 12.2274L35.2467 9.05686C35.4816 8.93943 35.599 8.82201 35.599 8.82201Z" fill="#823A3A"/>
    <path d="M21.0381 16.8066V17.2764V34.4208C21.0381 35.7125 22.0949 36.7693 23.3866 36.7693H30.5497C31.8414 36.7693 32.8983 35.7125 32.8983 34.4208V16.9241H21.0381V16.8066ZM21.9775 17.7461H32.1937V34.4208C32.1937 35.2428 31.6066 35.9473 30.6671 35.9473H23.6215C22.7995 35.9473 22.0949 35.3602 22.0949 34.4208L21.9775 17.7461Z" fill="#823A3A"/>
    <path d="M21.0381 21.6216V22.561H21.5078H32.6634H32.7808V21.739L32.6634 21.6216H21.5078H21.0381Z" fill="#823A3A"/>
    <path d="M16.8769 21.2516L16.0879 21.4824L17.3409 25.7653L18.1299 25.5345L16.8769 21.2516Z" fill="#823A3A"/>
    <path d="M17.1637 23.6178C16.5766 23.8527 16.2243 24.3224 16.2243 24.9095C14.4629 26.2012 13.9932 28.9021 14.6977 31.4855C15.4023 34.0689 17.3986 35.9477 19.5123 36.1826C19.8646 36.7697 20.4517 36.8871 21.1563 36.7697C21.7434 36.5349 22.0957 36.0652 22.0957 35.478C23.8571 34.1863 24.3268 31.4855 23.6222 28.9021C22.9177 26.3187 20.9214 24.4398 18.8077 24.205C18.4554 23.6178 17.7509 23.383 17.1637 23.6178Z" fill="#FFAB17"/>
    <path d="M16.8114 23.7354C16.3417 23.9702 16.2243 24.3225 16.2243 24.9096C14.4629 26.2013 13.9932 28.9022 14.6977 31.4856C14.9326 32.1901 15.2849 33.0121 15.7546 33.5993C16.8114 34.4213 17.9857 34.7735 19.0426 34.5387C19.982 34.1864 20.804 33.3644 21.2737 32.1901C21.7434 31.0159 21.7434 29.4893 21.2737 28.0802C20.4517 25.6142 18.6903 23.8528 16.8114 23.7354Z" fill="#FFDD43"/>
    <path d="M17.9857 28.1975C17.9857 29.6066 17.2812 30.6635 16.2243 30.7809C15.2849 30.7809 14.4629 29.724 14.4629 28.3149C14.4629 27.7278 14.5803 27.0232 14.9326 26.5535C15.2849 26.0838 15.6372 25.8489 16.2243 25.8489C17.1637 25.7315 17.9857 26.9058 17.9857 28.1975Z" fill="#FFDFB3"/>
    <path d="M19.1597 36.0653C17.3983 34.891 16.5763 32.7773 16.1066 31.0159C15.5195 29.2545 15.2846 27.0234 15.8718 25.1445C14.3452 26.5537 13.8755 29.1371 14.5801 31.603C15.2846 33.8342 17.1635 35.8304 19.1597 36.0653Z" fill="#FFDFB3"/>
    <path d="M17.0457 23.1476C16.3411 23.3825 15.8714 23.9696 15.754 24.6742C13.9926 26.2007 13.4054 28.9016 14.11 31.6024C14.8146 34.3032 16.9283 36.2995 19.2768 36.5344C19.7465 37.1215 20.4511 37.2389 21.0382 37.1215C21.7428 36.8866 22.2125 36.2995 22.3299 35.5949C24.0913 34.0684 24.6785 31.3675 23.9739 28.6667C23.2694 25.9659 21.1557 23.9696 18.8071 23.7348C18.4548 23.1476 17.7502 22.9128 17.0457 23.1476ZM17.2805 23.8522C17.7502 23.7347 18.1025 23.8522 18.3374 24.3219L18.4548 24.5567H18.6897C20.5685 24.7916 22.4474 26.4356 23.1519 28.9016C23.8565 31.3675 23.2693 33.8335 21.7428 35.0078L21.6254 35.1252V35.3601C21.6254 35.8298 21.2731 36.0646 20.9208 36.2995C20.4511 36.4169 20.0988 36.2995 19.864 35.8298L19.7465 35.5949H19.5117C17.6328 35.3601 15.754 33.7161 15.0494 31.2501C14.3449 28.7841 14.932 26.3182 16.4585 25.1439L16.576 25.0264V24.7916C16.576 24.4393 16.8108 24.087 17.2805 23.8522Z" fill="#823A3A"/>
    <path d="M14.462 26.318C12.7006 26.9052 10.5869 25.4961 10.5869 25.4961C10.5869 25.4961 11.5263 23.2649 13.4052 22.6778C15.284 22.0906 17.2803 23.4998 17.2803 23.4998C17.2803 23.4998 16.2234 25.8483 14.462 26.318Z" fill="#8AE287"/>
    <path d="M17.1629 23.6177L10.5869 25.4965C10.5869 25.4965 12.5832 26.9057 14.462 26.3185C16.2234 25.8488 17.1629 23.6177 17.1629 23.6177Z" fill="#57BF70"/>
    <path d="M13.1705 22.3256C11.0568 22.9128 10.1174 25.3787 10.1174 25.3787L10 25.731L10.3523 25.9659C10.3523 25.9659 12.466 27.4924 14.5797 26.9053C16.6934 26.3182 17.6328 23.8522 17.6328 23.8522L17.7502 23.4999L17.3979 23.265C17.3979 23.1476 15.2842 21.6211 13.1705 22.3256ZM13.5228 23.0302C14.8145 22.5605 16.2237 23.3825 16.576 23.6173C16.3411 24.087 15.6365 25.3788 14.3448 25.8485C13.0531 26.3182 11.644 25.4962 11.2917 25.2613C11.4091 24.909 12.2311 23.4999 13.5228 23.0302Z" fill="#823A3A"/>
    <path d="M17.0462 23.1478L10.4703 25.0266C10.3528 25.0266 10.2354 25.2615 10.118 25.3789C10.0006 25.4963 10.118 25.7312 10.2354 25.8486C10.3528 25.966 10.5877 25.966 10.7051 25.966L17.2811 24.0872C17.3985 24.0872 17.5159 23.8523 17.6333 23.7349C17.6333 23.6175 17.6333 23.3826 17.5159 23.2652C17.3985 23.1478 17.1636 23.0303 17.0462 23.1478Z" fill="#823A3A"/>
</svg>
