<svg width="48" height="48" viewBox="0 0 48 48" fill="none" xmlns="http://www.w3.org/2000/svg">
    <rect width="48" height="48" rx="24" fill="#95E1F6"/>
    <path opacity="0.2" d="M37.2652 33.7089C37.2652 36.5692 31.2014 38.743 23.5359 38.743C19.7603 38.743 16.3279 38.1709 13.9253 37.2557C11.4082 36.3404 9.9209 35.0818 9.9209 33.7089C9.9209 30.8486 15.9847 28.6748 23.6503 28.6748C29.2564 28.6748 34.0617 29.9333 36.2355 31.7639C36.8076 32.336 37.2652 32.908 37.2652 33.7089Z" fill="#3A3A3A"/>
    <path d="M22.5068 18.1489C22.8501 18.0345 23.3077 18.1489 23.6509 18.3777C23.7654 18.4921 23.8798 18.7209 23.9942 18.9498C24.1086 19.1786 23.9942 19.293 23.9942 19.5218C23.8798 19.1786 23.7654 18.8354 23.4221 18.6065C23.3077 18.3777 22.9645 18.2633 22.5068 18.1489Z" fill="#823A3A"/>
    <path d="M22.8496 19.2929C22.8496 18.9497 22.964 18.6064 23.3072 18.3776C23.4217 18.2632 23.6505 18.2632 23.7649 18.2632C23.9937 18.2632 24.1081 18.2632 24.2225 18.3776C23.8793 18.3776 23.5361 18.492 23.3072 18.6064C23.1928 18.7208 23.0784 19.0641 22.8496 19.2929Z" fill="#823A3A"/>
    <path d="M9.34961 19.5208C9.57843 24.5549 11.5234 28.6737 15.4134 30.9619C20.7908 34.051 30.4013 33.479 34.4057 29.8178C38.9822 25.699 39.0965 18.9487 39.0965 18.9487" fill="#FFDFB3"/>
    <mask id="mask0_1129_34103" style="mask-type:luminance" maskUnits="userSpaceOnUse" x="9" y="17" width="31" height="16">
        <path d="M9.68945 20.3217C9.91828 25.127 12.3209 28.7882 15.9821 30.962C21.245 33.9367 30.5123 33.3646 34.5167 29.9323C38.9787 26.0423 39.0931 19.5208 39.0931 19.5208C39.0931 19.5208 22.3891 15.1732 9.68945 20.3217Z" fill="white"/>
    </mask>
    <g mask="url(#mask0_1129_34103)">
        <path d="M10.0333 24.0972C10.0333 24.0972 19.1863 31.1907 31.4283 27.7584C31.4283 27.7584 33.03 27.644 31.5427 30.8475C30.0553 34.051 39.4371 31.7628 39.4371 31.7628L41.6109 22.9531L43.0982 16.7749L7.74512 17.2325L10.0333 24.0972Z" fill="#E2BF9A"/>
    </g>
    <path d="M24.4529 33.136C21.3638 33.136 18.2747 32.4495 15.872 31.191C11.9821 28.9028 9.69382 25.0128 9.35059 20.3219V20.0931L9.57942 19.9787C22.1647 14.7158 38.9831 19.0634 39.0975 19.1778L39.3264 19.2922V19.5211C39.3264 19.7499 39.0975 26.1569 34.7499 30.1613C32.4617 32.1063 28.4573 33.136 24.4529 33.136ZM10.0371 20.5508C10.2659 25.0128 12.5541 28.5595 16.2153 30.7334C21.3638 33.5936 30.5167 33.136 34.4067 29.7037C38.1823 26.2713 38.7543 20.894 38.8687 19.7499C36.8093 19.2922 21.5926 15.8599 10.0371 20.5508Z" fill="#823A3A"/>
    <mask id="mask1_1129_34103" style="mask-type:luminance" maskUnits="userSpaceOnUse" x="9" y="17" width="31" height="17">
        <path d="M24.4539 33.136C21.3648 33.136 18.2757 32.4495 15.873 31.191C11.983 28.9028 9.6948 25.0128 9.35156 20.3219V20.0931L9.5804 19.9787C22.1656 14.7158 38.9841 19.0634 39.0985 19.1778L39.3273 19.2922V19.5211C39.3273 19.7499 39.0985 26.1569 34.7509 30.1613C32.4627 32.1063 28.4583 33.136 24.4539 33.136ZM10.038 20.5508C10.2669 25.0128 12.5551 28.5595 16.2162 30.7334C21.3647 33.5936 30.5177 33.136 34.4077 29.7037C38.1832 26.2713 38.7553 20.894 38.8697 19.7499C36.8103 19.2922 21.5936 15.8599 10.038 20.5508Z" fill="white"/>
    </mask>
    <g mask="url(#mask1_1129_34103)">
        <path opacity="0.18" d="M11.2959 29.1313C11.2959 29.1313 24.682 34.5087 37.2673 29.1313C49.8525 23.754 31.089 37.1401 31.089 37.1401L16.902 40.458L11.2959 29.1313Z" fill="#823A3A"/>
    </g>
    <path d="M37.7244 19.0641C37.7244 19.293 37.7244 19.5218 37.61 19.7506C36.9235 22.7253 31.3174 25.0135 24.5671 25.1279C24.4527 25.1279 24.4527 25.1279 24.3382 25.1279C24.2238 25.1279 24.2239 25.1279 24.1094 25.1279C17.3592 25.1279 11.753 22.7253 11.0665 19.7506C11.0665 19.5218 10.9521 19.293 10.9521 19.0641C10.9521 15.7462 16.9015 13.1147 24.2238 13.1147C31.5462 13.1147 37.7244 15.7462 37.7244 19.0641Z" fill="#16120F"/>
    <path d="M24.4518 26.5012C32.7293 26.5012 39.4396 23.5302 39.4396 19.8654C39.4396 16.2005 32.7293 13.2295 24.4518 13.2295C16.1742 13.2295 9.46387 16.2005 9.46387 19.8654C9.46387 23.5302 16.1742 26.5012 24.4518 26.5012Z" fill="#FFBF66"/>
    <path d="M24.4511 26.8438C15.8702 26.8438 9.23438 23.7547 9.23438 19.8647C9.23438 15.9747 15.9846 13 24.4511 13C32.9175 13 39.6677 16.0891 39.6677 19.8647C39.6677 23.6403 33.0319 26.8438 24.4511 26.8438ZM24.4511 13.5721C16.3279 13.5721 9.80643 16.4323 9.80643 19.8647C9.80643 23.4114 16.4423 26.2717 24.4511 26.2717C32.4599 26.2717 39.0957 23.4114 39.0957 19.8647C39.0957 16.3179 32.5743 13.5721 24.4511 13.5721Z" fill="#823A3A"/>
    <path d="M37.6089 19.7505C36.9224 22.7252 31.3162 25.0134 24.566 25.1278C24.4516 25.1278 24.4516 25.1278 24.3371 25.1278C24.2227 25.1278 24.2228 25.1278 24.1083 25.1278C17.3581 25.1278 11.7519 22.7252 11.0654 19.7505C11.7519 17.3478 17.4725 15.4028 24.2227 15.4028C30.973 15.4028 36.9224 17.3478 37.6089 19.7505Z" fill="#F2E8D5"/>
    <path d="M11.1807 19.7505C11.8671 17.3478 17.5877 15.4028 24.338 15.4028C31.0882 15.4028 36.8088 17.2334 37.4953 19.7505" stroke="#D49572" stroke-width="0.2096" stroke-miterlimit="10"/>
    <path d="M16.2149 18.721C16.4437 18.6066 16.787 18.149 16.4437 17.4625C15.7573 17.3481 15.2996 17.2337 15.1852 16.8904C15.1852 16.8904 15.5284 17.2337 15.7573 16.6616C15.7573 16.6616 15.7573 16.6616 15.7573 16.5472C15.9861 15.9751 15.1852 15.5175 14.6131 15.6319C14.0411 15.7463 13.2402 16.4328 13.2402 17.2337C13.2402 18.0345 13.6979 18.6066 14.1555 18.6066C14.4987 18.6066 14.6131 18.4922 14.6131 18.3778C14.6131 18.2634 14.6131 18.0345 14.4987 17.9201C14.9564 17.9201 15.9861 18.3778 16.2149 18.721Z" fill="#EDD5A0"/>
    <path d="M14.7276 18.3778C14.4987 18.4922 13.9267 18.3778 13.6979 17.9201C13.469 17.4625 13.8123 16.3184 14.6131 16.0896C15.414 15.8607 15.6429 16.3184 15.7573 16.6616C15.7573 16.6616 15.7573 16.6616 15.7573 16.5472C15.9861 15.9751 15.1852 15.5175 14.6131 15.6319C14.0411 15.7463 13.2402 16.4328 13.2402 17.2337C13.2402 18.0345 13.6979 18.6066 14.1555 18.6066C14.6132 18.721 14.7276 18.6066 14.7276 18.3778Z" fill="#6F3124"/>
    <path d="M14.1551 16.6616C14.2695 16.6616 14.0407 17.0049 14.0407 17.3481C14.0407 17.6913 14.1551 17.9201 14.0407 17.9201C13.9263 17.9201 13.8119 17.6913 13.9263 17.2337C14.0407 16.776 14.1551 16.6616 14.1551 16.6616Z" fill="white"/>
    <path d="M16.2149 18.721C16.4437 18.6066 16.787 18.149 16.4437 17.4625C15.7573 17.3481 15.2996 17.2337 15.1852 16.8904C15.1852 16.8904 15.5284 17.2337 15.7573 16.6616C15.7573 16.6616 15.7573 16.6616 15.7573 16.5472C15.9861 15.9751 15.1852 15.5175 14.6131 15.6319C14.0411 15.7463 13.2402 16.4328 13.2402 17.2337C13.2402 18.0345 13.6979 18.6066 14.1555 18.6066C14.4987 18.6066 14.6131 18.4922 14.6131 18.3778C14.6131 18.2634 14.6131 18.0345 14.4987 17.9201C14.9564 17.9201 15.9861 18.3778 16.2149 18.721Z" stroke="#DEA181" stroke-width="0.0698781" stroke-miterlimit="10" stroke-linecap="round" stroke-linejoin="round"/>
    <path d="M14.7276 18.3778C14.4987 18.4922 13.9267 18.3778 13.6979 17.9201C13.469 17.4625 13.8123 16.3184 14.6131 16.0896C15.414 15.8607 15.6429 16.3184 15.7573 16.6616C15.7573 16.6616 15.7573 16.6616 15.7573 16.5472C15.9861 15.9751 15.1852 15.5175 14.6131 15.6319C14.0411 15.7463 13.2402 16.4328 13.2402 17.2337C13.2402 18.0345 13.6979 18.6066 14.1555 18.6066C14.6132 18.721 14.7276 18.6066 14.7276 18.3778Z" stroke="#512018" stroke-width="0.0698781" stroke-miterlimit="10" stroke-linecap="round" stroke-linejoin="round"/>
    <path d="M14.7262 18.3776C14.4974 18.4921 13.9254 18.3776 13.6965 17.92C13.4677 17.4624 13.8109 16.3182 14.6118 16.0894C15.4127 15.8606 15.6415 16.3182 15.7559 16.6615" stroke="#DEA181" stroke-width="0.0698781" stroke-miterlimit="10" stroke-linecap="round" stroke-linejoin="round"/>
    <path d="M15.2998 16.8901C15.1853 16.6613 15.1854 16.5469 15.4142 16.5469C15.643 16.5469 15.643 16.6613 15.643 16.6613" stroke="#DEA181" stroke-width="0.0698781" stroke-miterlimit="10" stroke-linecap="round" stroke-linejoin="round"/>
    <path d="M14.7264 18.0342C14.6119 18.0342 14.3831 18.0342 14.2687 18.1486C14.1543 18.263 14.3831 18.3774 14.6119 18.263" stroke="#DEA181" stroke-width="0.0698781" stroke-miterlimit="10" stroke-linecap="round" stroke-linejoin="round"/>
    <path d="M17.5874 17.5763C17.9307 17.5763 18.3883 17.4619 18.5027 16.661C17.9306 16.2034 17.7018 15.8602 17.8163 15.5169C17.8163 15.5169 17.9307 15.9746 18.3883 15.6313C18.846 15.2881 18.3883 14.4872 17.9306 14.2584C17.473 14.0296 16.4433 14.144 15.9857 14.9449C15.528 15.6313 15.6424 16.3178 16.1001 16.5466C16.3289 16.661 16.5577 16.661 16.6721 16.5466C16.7866 16.4322 16.7865 16.3178 16.7865 16.089C16.9009 16.2034 17.473 17.1187 17.5874 17.5763Z" fill="#EDD5A0"/>
    <path d="M16.4427 16.5466C16.2138 16.5466 15.7562 16.2034 15.8706 15.6313C15.985 15.0593 16.7859 14.2584 17.5868 14.4872C18.3876 14.716 18.3876 15.2881 18.1588 15.6313C18.6165 15.2881 18.1588 14.4872 17.7012 14.2584C17.2435 14.0296 16.2138 14.144 15.7562 14.9449C15.2985 15.6313 15.413 16.3178 15.8706 16.5466C16.0994 16.661 16.3282 16.661 16.4427 16.5466Z" fill="#6F3124"/>
    <path d="M16.9014 14.7158C16.9014 14.7158 16.5582 14.9446 16.4438 15.2879C16.2149 15.6311 16.215 15.8599 16.1006 15.7455C15.9861 15.6311 16.1005 15.4023 16.3294 15.1735C16.5582 14.9446 16.9014 14.7158 16.9014 14.7158Z" fill="white"/>
    <path d="M17.5874 17.5763C17.9307 17.5763 18.3883 17.4619 18.5027 16.661C17.9306 16.2034 17.7018 15.8602 17.8163 15.5169C17.8163 15.5169 17.9307 15.9746 18.3883 15.6313C18.846 15.2881 18.3883 14.4872 17.9306 14.2584C17.473 14.0296 16.4433 14.144 15.9857 14.9449C15.528 15.6313 15.6424 16.3178 16.1001 16.5466C16.3289 16.661 16.5577 16.661 16.6721 16.5466C16.7866 16.4322 16.7865 16.3178 16.7865 16.089C16.9009 16.2034 17.473 17.1187 17.5874 17.5763Z" stroke="#DEA181" stroke-width="0.0698781" stroke-miterlimit="10" stroke-linecap="round" stroke-linejoin="round"/>
    <path d="M16.4427 16.5466C16.2138 16.5466 15.7562 16.2034 15.8706 15.6313C15.985 15.0593 16.7859 14.2584 17.5868 14.4872C18.3876 14.716 18.3876 15.2881 18.1588 15.6313C18.6165 15.2881 18.1588 14.4872 17.7012 14.2584C17.2435 14.0296 16.2138 14.144 15.7562 14.9449C15.2985 15.6313 15.413 16.3178 15.8706 16.5466C16.0994 16.661 16.3282 16.661 16.4427 16.5466Z" stroke="#512018" stroke-width="0.0698781" stroke-miterlimit="10" stroke-linecap="round" stroke-linejoin="round"/>
    <path d="M16.4436 16.5463C16.2148 16.5463 15.7572 16.203 15.8716 15.631C15.986 15.0589 16.7869 14.258 17.5877 14.4868C18.3886 14.7157 18.3886 15.2877 18.1598 15.631" stroke="#DEA181" stroke-width="0.0698781" stroke-miterlimit="10" stroke-linecap="round" stroke-linejoin="round"/>
    <path d="M17.7021 15.5164C17.7021 15.2876 17.8165 15.1731 18.0454 15.2876C18.1598 15.402 18.1598 15.5164 18.1598 15.5164" stroke="#DEA181" stroke-width="0.0698781" stroke-miterlimit="10" stroke-linecap="round" stroke-linejoin="round"/>
    <path d="M16.6721 16.089C16.5576 15.9746 16.3288 15.8602 16.2144 15.9746C16.1 16.089 16.2144 16.2035 16.3288 16.2035" stroke="#DEA181" stroke-width="0.0698781" stroke-miterlimit="10" stroke-linecap="round" stroke-linejoin="round"/>
    <path d="M19.5317 16.661C19.7606 16.7754 20.3326 16.7754 20.6758 16.0889C20.3326 15.4024 20.2182 15.0592 20.3326 14.716C20.3326 14.716 20.3326 15.1736 20.7902 15.0592C20.7902 15.0592 20.7902 15.0592 20.9046 15.0592C21.4767 14.8304 21.3623 14.0295 20.9046 13.5719C20.447 13.2286 19.5317 12.9998 18.8453 13.4575C18.1588 13.9151 18.0444 14.6016 18.3876 15.0592C18.502 15.288 18.7309 15.288 18.9597 15.288C19.0741 15.288 19.1885 15.0592 19.1885 14.9448C19.3029 15.288 19.6461 16.3177 19.5317 16.661Z" fill="#EDD5A0"/>
    <path d="M18.8441 15.4028C18.6153 15.2884 18.3865 14.8307 18.6153 14.3731C18.8441 13.9154 19.9883 13.4578 20.6747 13.9154C21.3612 14.3731 21.1324 14.9451 20.9035 15.174C20.9035 15.174 20.9035 15.174 21.018 15.174C21.59 14.9451 21.4756 14.1443 21.018 13.6866C20.5603 13.3434 19.645 13.1146 18.9586 13.5722C18.2721 14.0298 18.1577 14.7163 18.5009 15.174C18.5009 15.4028 18.7297 15.4028 18.8441 15.4028Z" fill="#6F3124"/>
    <path d="M19.875 13.915C19.875 14.0294 19.5318 14.0294 19.1886 14.2582C18.8453 14.487 18.7309 14.7159 18.7309 14.6014C18.6165 14.487 18.8453 14.2582 19.1886 14.1438C19.5318 14.0294 19.875 13.8006 19.875 13.915Z" fill="white"/>
    <path d="M19.5317 16.661C19.7606 16.7754 20.3326 16.7754 20.6758 16.0889C20.3326 15.4024 20.2182 15.0592 20.3326 14.716C20.3326 14.716 20.3326 15.1736 20.7902 15.0592C20.7902 15.0592 20.7902 15.0592 20.9046 15.0592C21.4767 14.8304 21.3623 14.0295 20.9046 13.5719C20.447 13.2286 19.5317 12.9998 18.8453 13.4575C18.1588 13.9151 18.0444 14.6016 18.3876 15.0592C18.502 15.288 18.7309 15.288 18.9597 15.288C19.0741 15.288 19.1885 15.0592 19.1885 14.9448C19.3029 15.288 19.6461 16.3177 19.5317 16.661Z" stroke="#DEA181" stroke-width="0.0698781" stroke-miterlimit="10" stroke-linecap="round" stroke-linejoin="round"/>
    <path d="M18.8441 15.4028C18.6153 15.2884 18.3865 14.8307 18.6153 14.3731C18.8441 13.9154 19.9883 13.4578 20.6747 13.9154C21.3612 14.3731 21.1324 14.9451 20.9035 15.174C20.9035 15.174 20.9035 15.174 21.018 15.174C21.59 14.9451 21.4756 14.1443 21.018 13.6866C20.5603 13.3434 19.645 13.1146 18.9586 13.5722C18.2721 14.0298 18.1577 14.7163 18.5009 15.174C18.5009 15.4028 18.7297 15.4028 18.8441 15.4028Z" stroke="#512018" stroke-width="0.0698781" stroke-miterlimit="10" stroke-linecap="round" stroke-linejoin="round"/>
    <path d="M18.8451 15.4025C18.6163 15.2881 18.3874 14.8304 18.6163 14.3728C18.8451 13.9152 19.9892 13.4575 20.6757 13.9151C21.3622 14.3728 21.1333 14.9449 20.9045 15.1737" stroke="#DEA181" stroke-width="0.0698781" stroke-miterlimit="10" stroke-linecap="round" stroke-linejoin="round"/>
    <path d="M20.333 14.83C20.4474 14.6011 20.5619 14.4867 20.6763 14.7155C20.7907 14.83 20.6763 14.9444 20.6763 14.9444" stroke="#DEA181" stroke-width="0.0698781" stroke-miterlimit="10" stroke-linecap="round" stroke-linejoin="round"/>
    <path d="M19.0742 15.0593C19.0742 14.9449 18.8454 14.7161 18.731 14.8305C18.6166 14.9449 18.731 15.0593 18.8454 15.1737" stroke="#DEA181" stroke-width="0.0698781" stroke-miterlimit="10" stroke-linecap="round" stroke-linejoin="round"/>
    <path d="M21.5909 16.3176C21.8197 16.5464 22.2773 16.6608 22.8494 16.0888C22.735 15.4023 22.735 14.9447 22.9638 14.7158C22.9638 14.7158 22.8494 15.1735 23.307 15.1735C23.307 15.1735 23.307 15.1735 23.4215 15.1735C23.9935 15.1735 24.1079 14.2582 23.8791 13.8006C23.6503 13.3429 22.735 12.8853 21.9341 13.1141C21.1332 13.3429 20.79 13.915 21.0188 14.487C21.1332 14.7158 21.2476 14.8303 21.4764 14.8303C21.5909 14.8303 21.7053 14.7158 21.8197 14.6014C21.8197 14.9447 21.8197 15.9744 21.5909 16.3176Z" fill="#EDD5A0"/>
    <path d="M21.3609 14.9453C21.2465 14.8309 21.0177 14.2589 21.4753 13.9156C21.933 13.5724 22.9627 13.458 23.5347 14.1445C24.1068 14.8309 23.6491 15.1742 23.4203 15.403C23.4203 15.403 23.4203 15.403 23.5347 15.403C24.1068 15.403 24.2212 14.4877 23.9924 14.0301C23.7636 13.5724 22.8482 13.1148 22.0474 13.3436C21.2465 13.5724 20.9033 14.1445 21.1321 14.7165C21.0177 14.8309 21.1321 14.9453 21.3609 14.9453Z" fill="#6F3124"/>
    <path d="M22.7351 13.8007C22.7351 13.9151 22.3919 13.8007 22.0486 13.9151C21.7054 14.0295 21.4766 14.1439 21.4766 14.1439C21.4766 14.1439 21.7054 13.9151 22.0486 13.8007C22.3919 13.6862 22.7351 13.6862 22.7351 13.8007Z" fill="white"/>
    <path d="M21.5909 16.3176C21.8197 16.5464 22.2773 16.6608 22.8494 16.0888C22.735 15.4023 22.735 14.9447 22.9638 14.7158C22.9638 14.7158 22.8494 15.1735 23.307 15.1735C23.307 15.1735 23.307 15.1735 23.4215 15.1735C23.9935 15.1735 24.1079 14.2582 23.8791 13.8006C23.6503 13.3429 22.735 12.8853 21.9341 13.1141C21.1332 13.3429 20.79 13.915 21.0188 14.487C21.1332 14.7158 21.2476 14.8303 21.4764 14.8303C21.5909 14.8303 21.7053 14.7158 21.8197 14.6014C21.8197 14.9447 21.8197 15.9744 21.5909 16.3176Z" stroke="#DEA181" stroke-width="0.0698781" stroke-miterlimit="10" stroke-linecap="round" stroke-linejoin="round"/>
    <path d="M21.3609 14.9453C21.2465 14.8309 21.0177 14.2589 21.4753 13.9156C21.933 13.5724 22.9627 13.458 23.5347 14.1445C24.1068 14.8309 23.6491 15.1742 23.4203 15.403C23.4203 15.403 23.4203 15.403 23.5347 15.403C24.1068 15.403 24.2212 14.4877 23.9924 14.0301C23.7636 13.5724 22.8482 13.1148 22.0474 13.3436C21.2465 13.5724 20.9033 14.1445 21.1321 14.7165C21.0177 14.8309 21.1321 14.9453 21.3609 14.9453Z" stroke="#512018" stroke-width="0.0698781" stroke-miterlimit="10" stroke-linecap="round" stroke-linejoin="round"/>
    <path d="M21.3625 14.9447C21.2481 14.8303 21.0193 14.2583 21.4769 13.915C21.9346 13.5718 22.9643 13.4574 23.5363 14.1438C24.1084 14.8303 23.6507 15.1735 23.4219 15.4024" stroke="#DEA181" stroke-width="0.0698781" stroke-miterlimit="10" stroke-linecap="round" stroke-linejoin="round"/>
    <path d="M22.9639 14.8299C23.0783 14.7155 23.3071 14.601 23.3071 14.8299C23.4215 14.9443 23.1927 15.0587 23.1927 15.0587" stroke="#DEA181" stroke-width="0.0698781" stroke-miterlimit="10" stroke-linecap="round" stroke-linejoin="round"/>
    <path d="M21.7053 14.6015C21.7053 14.4871 21.5908 14.2583 21.4764 14.2583C21.362 14.2583 21.362 14.4871 21.4764 14.6015" stroke="#DEA181" stroke-width="0.0698781" stroke-miterlimit="10" stroke-linecap="round" stroke-linejoin="round"/>
    <path d="M18.1592 19.0639C18.388 18.9495 18.8457 18.6062 18.6169 17.8053C17.9304 17.5765 17.5872 17.3477 17.4728 17.1189C17.4728 17.1189 17.816 17.4621 18.0448 17.0045C18.0448 17.0045 18.0448 17.0045 18.0448 16.8901C18.2736 16.318 17.5872 15.8604 17.0151 15.8604C16.4431 15.8604 15.6422 16.5468 15.5278 17.3477C15.4134 18.1486 15.7566 18.7206 16.3286 18.835C16.5575 18.835 16.7863 18.7206 16.9007 18.6062C16.9007 18.4918 16.9007 18.263 16.9007 18.1486C17.0151 18.263 17.9304 18.7206 18.1592 19.0639Z" fill="#EDD5A0"/>
    <path d="M16.6712 18.7206C16.4424 18.835 15.8703 18.7206 15.7559 18.1486C15.6415 17.5765 15.9847 16.5468 16.7856 16.318C17.5865 16.2036 17.8154 16.6612 17.8154 17.0045C17.8154 17.0045 17.8154 17.0045 17.8154 16.8901C18.0442 16.318 17.3577 15.8604 16.7856 15.8604C16.2136 15.8604 15.4127 16.5468 15.2983 17.3477C15.1839 18.1486 15.5271 18.7206 16.0992 18.835C16.4424 18.9495 16.6712 18.835 16.6712 18.7206Z" fill="#6F3124"/>
    <path d="M16.3273 16.8901C16.4417 16.8901 16.2129 17.2334 16.0985 17.5766C16.0985 17.9198 16.0985 18.1487 15.9841 18.1487C15.8697 18.1487 15.7552 17.8054 15.8697 17.4622C15.9841 17.2334 16.2129 16.8901 16.3273 16.8901Z" fill="white"/>
    <path d="M18.1592 19.0639C18.388 18.9495 18.8457 18.6062 18.6169 17.8053C17.9304 17.5765 17.5872 17.3477 17.4728 17.1189C17.4728 17.1189 17.816 17.4621 18.0448 17.0045C18.0448 17.0045 18.0448 17.0045 18.0448 16.8901C18.2736 16.318 17.5872 15.8604 17.0151 15.8604C16.4431 15.8604 15.6422 16.5468 15.5278 17.3477C15.4134 18.1486 15.7566 18.7206 16.3286 18.835C16.5575 18.835 16.7863 18.7206 16.9007 18.6062C16.9007 18.4918 16.9007 18.263 16.9007 18.1486C17.0151 18.263 17.9304 18.7206 18.1592 19.0639Z" stroke="#DEA181" stroke-width="0.0698781" stroke-miterlimit="10" stroke-linecap="round" stroke-linejoin="round"/>
    <path d="M16.6712 18.7206C16.4424 18.835 15.8703 18.7206 15.7559 18.1486C15.6415 17.5765 15.9847 16.5468 16.7856 16.318C17.5865 16.2036 17.8154 16.6612 17.8154 17.0045C17.8154 17.0045 17.8154 17.0045 17.8154 16.8901C18.0442 16.318 17.3577 15.8604 16.7856 15.8604C16.2136 15.8604 15.4127 16.5468 15.2983 17.3477C15.1839 18.1486 15.5271 18.7206 16.0992 18.835C16.4424 18.9495 16.6712 18.835 16.6712 18.7206Z" stroke="#512018" stroke-width="0.0698781" stroke-miterlimit="10" stroke-linecap="round" stroke-linejoin="round"/>
    <path d="M16.6721 18.7204C16.4433 18.8348 15.8712 18.7204 15.7568 18.1483C15.6424 17.5762 15.9856 16.5465 16.7865 16.3177C17.5874 16.2033 17.8162 16.661 17.8162 17.0042" stroke="#DEA181" stroke-width="0.0698781" stroke-miterlimit="10" stroke-linecap="round" stroke-linejoin="round"/>
    <path d="M17.357 17.2334C17.2425 17.0045 17.357 16.8901 17.4714 16.8901C17.7002 16.8901 17.7002 17.119 17.7002 17.119" stroke="#DEA181" stroke-width="0.0698781" stroke-miterlimit="10" stroke-linecap="round" stroke-linejoin="round"/>
    <path d="M16.6715 18.2632C16.5571 18.2632 16.3283 18.2632 16.2139 18.3776C16.2139 18.492 16.3283 18.6064 16.4427 18.492" stroke="#DEA181" stroke-width="0.0698781" stroke-miterlimit="10" stroke-linecap="round" stroke-linejoin="round"/>
    <path d="M19.1902 18.7205C19.5334 18.8349 19.991 18.7205 20.2199 18.034C19.7622 17.462 19.6478 17.0043 19.7622 16.7755C19.7622 16.7755 19.7622 17.2331 20.2199 17.0043C20.2199 17.0043 20.2199 17.0043 20.3343 17.0043C20.9063 16.7755 20.5631 15.8602 20.1055 15.517C19.6478 15.1737 18.6181 15.1737 18.0461 15.7458C17.474 16.3178 17.3596 17.0043 17.7028 17.3475C17.9317 17.5764 18.0461 17.5764 18.2749 17.462C18.3893 17.3475 18.5037 17.2331 18.5037 17.1187C18.7325 17.2331 19.1902 18.2628 19.1902 18.7205Z" fill="#EDD5A0"/>
    <path d="M18.2749 17.462C18.0461 17.3475 17.7028 16.8899 17.9316 16.4322C18.1605 15.9746 19.0758 15.2881 19.8766 15.7458C20.6775 16.089 20.4487 16.6611 20.2199 17.0043C20.2199 17.0043 20.2199 17.0043 20.3343 17.0043C20.9063 16.7755 20.5631 15.8602 20.1055 15.517C19.6478 15.1737 18.6181 15.1737 18.0461 15.7458C17.474 16.3178 17.3596 17.0043 17.7028 17.3475C17.9317 17.5764 18.1605 17.5764 18.2749 17.462Z" fill="#6F3124"/>
    <path d="M19.0765 15.8603C19.0765 15.8603 18.7333 15.9747 18.5044 16.3179C18.2756 16.5468 18.1612 16.7756 18.0468 16.7756C17.9324 16.6612 18.0468 16.4323 18.3901 16.2035C18.7333 15.8603 19.0765 15.7459 19.0765 15.8603Z" fill="white"/>
    <path d="M19.1902 18.7205C19.5334 18.8349 19.991 18.7205 20.2199 18.034C19.7622 17.462 19.6478 17.0043 19.7622 16.7755C19.7622 16.7755 19.7622 17.2331 20.2199 17.0043C20.2199 17.0043 20.2199 17.0043 20.3343 17.0043C20.9063 16.7755 20.5631 15.8602 20.1055 15.517C19.6478 15.1737 18.6181 15.1737 18.0461 15.7458C17.474 16.3178 17.3596 17.0043 17.7028 17.3475C17.9317 17.5764 18.0461 17.5764 18.2749 17.462C18.3893 17.3475 18.5037 17.2331 18.5037 17.1187C18.7325 17.2331 19.1902 18.2628 19.1902 18.7205Z" stroke="#DEA181" stroke-width="0.0698781" stroke-miterlimit="10" stroke-linecap="round" stroke-linejoin="round"/>
    <path d="M18.2749 17.462C18.0461 17.3475 17.7028 16.8899 17.9316 16.4322C18.1605 15.9746 19.0758 15.2881 19.8766 15.7458C20.6775 16.089 20.4487 16.6611 20.2199 17.0043C20.2199 17.0043 20.2199 17.0043 20.3343 17.0043C20.9063 16.7755 20.5631 15.8602 20.1055 15.517C19.6478 15.1737 18.6181 15.1737 18.0461 15.7458C17.474 16.3178 17.3596 17.0043 17.7028 17.3475C17.9317 17.5764 18.1605 17.5764 18.2749 17.462Z" stroke="#512018" stroke-width="0.0698781" stroke-miterlimit="10" stroke-linecap="round" stroke-linejoin="round"/>
    <path d="M18.2742 17.4618C18.0454 17.3474 17.7021 16.8898 17.9309 16.4321C18.1598 15.9745 19.0751 15.288 19.8759 15.7457C20.6768 16.0889 20.448 16.6609 20.2192 17.0042" stroke="#DEA181" stroke-width="0.0698781" stroke-miterlimit="10" stroke-linecap="round" stroke-linejoin="round"/>
    <path d="M19.7627 16.7752C19.8771 16.5463 19.9915 16.4319 20.106 16.5463C20.2204 16.6608 20.106 16.7752 20.106 16.7752" stroke="#DEA181" stroke-width="0.0698781" stroke-miterlimit="10" stroke-linecap="round" stroke-linejoin="round"/>
    <path d="M18.5034 17.119C18.389 17.0045 18.1602 16.8901 18.1602 16.8901C18.1602 16.8901 18.1602 17.119 18.2746 17.2334" stroke="#DEA181" stroke-width="0.0698781" stroke-miterlimit="10" stroke-linecap="round" stroke-linejoin="round"/>
    <path d="M20.9045 18.0341C21.1333 18.1486 21.591 18.3774 22.163 17.8053C21.9342 17.1188 21.9342 16.6612 22.163 16.4324C22.163 16.4324 22.0486 16.89 22.5062 16.89C22.5062 16.89 22.5063 16.89 22.6207 16.89C23.1927 16.7756 23.3072 15.9747 22.9639 15.5171C22.6207 15.0594 21.7054 14.6018 20.9045 14.945C20.1036 15.2883 19.8748 15.8603 20.1036 16.318C20.218 16.5468 20.4469 16.6612 20.5613 16.6612C20.6757 16.6612 20.7901 16.5468 20.9045 16.4324C21.0189 16.5468 21.1333 17.6909 20.9045 18.0341Z" fill="#EDD5A0"/>
    <path d="M20.5613 16.5465C20.4469 16.432 20.218 15.86 20.5613 15.5168C20.9045 15.1735 22.0486 14.9447 22.6207 15.5168C23.1927 16.2032 22.8495 16.5465 22.5062 16.7753C22.5062 16.7753 22.5063 16.7753 22.6207 16.7753C23.1927 16.6609 23.3072 15.86 22.9639 15.4023C22.6207 14.9447 21.7054 14.4871 20.9045 14.8303C20.1036 15.1735 19.8748 15.7456 20.1036 16.2032C20.218 16.5465 20.3324 16.6609 20.5613 16.5465Z" fill="#6F3124"/>
    <path d="M21.9347 15.2881C21.9347 15.4025 21.5915 15.2881 21.2483 15.5169C20.9051 15.7457 20.7907 15.8601 20.6762 15.7457C20.5618 15.6313 20.7907 15.4025 21.1339 15.2881C21.4771 15.2881 21.8203 15.2881 21.9347 15.2881Z" fill="white"/>
    <path d="M20.9045 18.0341C21.1333 18.1486 21.591 18.3774 22.163 17.8053C21.9342 17.1188 21.9342 16.6612 22.163 16.4324C22.163 16.4324 22.0486 16.89 22.5062 16.89C22.5062 16.89 22.5063 16.89 22.6207 16.89C23.1927 16.7756 23.3072 15.9747 22.9639 15.5171C22.6207 15.0594 21.7054 14.6018 20.9045 14.945C20.1036 15.2883 19.8748 15.8603 20.1036 16.318C20.218 16.5468 20.4469 16.6612 20.5613 16.6612C20.6757 16.6612 20.7901 16.5468 20.9045 16.4324C21.0189 16.5468 21.1333 17.6909 20.9045 18.0341Z" stroke="#DEA181" stroke-width="0.0698781" stroke-miterlimit="10" stroke-linecap="round" stroke-linejoin="round"/>
    <path d="M20.5613 16.5465C20.4469 16.432 20.218 15.86 20.5613 15.5168C20.9045 15.1735 22.0486 14.9447 22.6207 15.5168C23.1927 16.2032 22.8495 16.5465 22.5062 16.7753C22.5062 16.7753 22.5063 16.7753 22.6207 16.7753C23.1927 16.6609 23.3072 15.86 22.9639 15.4023C22.6207 14.9447 21.7054 14.4871 20.9045 14.8303C20.1036 15.1735 19.8748 15.7456 20.1036 16.2032C20.218 16.5465 20.3324 16.6609 20.5613 16.5465Z" stroke="#512018" stroke-width="0.0698781" stroke-miterlimit="10" stroke-linecap="round" stroke-linejoin="round"/>
    <path d="M20.5621 16.5466C20.4477 16.4322 20.2189 15.8601 20.5621 15.5169C20.9054 15.1737 22.0495 14.9448 22.6215 15.5169C23.1936 16.2034 22.8503 16.5466 22.5071 16.7754" stroke="#DEA181" stroke-width="0.0698781" stroke-miterlimit="10" stroke-linecap="round" stroke-linejoin="round"/>
    <path d="M22.1621 16.4318C22.2765 16.3174 22.5053 16.203 22.5053 16.3174C22.6197 16.4318 22.3909 16.5462 22.3909 16.5462" stroke="#DEA181" stroke-width="0.0698781" stroke-miterlimit="10" stroke-linecap="round" stroke-linejoin="round"/>
    <path d="M20.9036 16.3183C20.9036 16.2039 20.6748 15.9751 20.5604 15.9751C20.446 15.9751 20.446 16.2039 20.5604 16.3183" stroke="#DEA181" stroke-width="0.0698781" stroke-miterlimit="10" stroke-linecap="round" stroke-linejoin="round"/>
    <path d="M10.6084 17.9191L10.7228 18.3768H10.6084L10.7228 18.8344C10.7228 18.8344 11.4093 18.72 11.5237 18.8344C11.0661 18.9488 10.7228 18.9488 10.7228 18.9488L10.9517 19.4065L11.6381 19.2921V19.5209C11.6381 19.5209 10.9516 19.6353 10.7228 19.7497C10.8372 19.9785 11.066 20.3218 11.066 20.3218L11.4093 20.2074C11.4093 20.2074 11.8669 21.2371 12.5534 21.6947C12.8966 22.0379 13.1255 22.1524 13.1255 22.1524L13.4687 22.4956L13.1255 22.7244L13.5831 23.0676L13.9263 22.8388C13.9263 22.8388 15.4137 23.2965 15.7569 23.5253C17.5875 22.7244 21.8207 20.5506 21.8207 20.5506L21.5919 18.4912C21.5919 18.4912 20.9054 18.148 19.7613 18.0335C18.846 17.9191 14.2696 17.5759 10.6084 17.9191Z" fill="#EE6B00"/>
    <path d="M10.6084 17.9191L10.7228 18.3768H10.6084L10.7228 18.8344C10.7228 18.8344 11.4093 18.72 11.5237 18.8344C11.0661 18.9488 10.7228 18.9488 10.7228 18.9488L10.9517 19.4065L11.6381 19.2921V19.5209C11.6381 19.5209 10.9516 19.6353 10.7228 19.7497C10.8372 19.9785 11.066 20.3218 11.066 20.3218L11.4093 20.2074C11.4093 20.2074 11.8669 21.2371 12.5534 21.6947C12.8966 22.0379 13.1255 22.1524 13.1255 22.1524L13.4687 22.4956L13.1255 22.7244L13.5831 23.0676L13.9263 22.8388C13.9263 22.8388 15.4137 23.2965 15.7569 23.5253C17.5875 22.7244 21.8207 20.5506 21.8207 20.5506L21.5919 18.4912C21.5919 18.4912 20.9054 18.148 19.7613 18.0335C18.846 17.9191 14.2696 17.5759 10.6084 17.9191Z" stroke="#D35916" stroke-width="0.0698781" stroke-miterlimit="10" stroke-linecap="round" stroke-linejoin="round"/>
    <path d="M21.4772 19.8638C21.4772 19.8638 19.761 19.9782 16.9007 20.6646C14.1548 21.3511 13.0107 22.0376 13.0107 22.0376L13.354 22.4952C13.354 22.4952 15.299 21.5799 17.244 21.1223C19.189 20.6646 21.4772 20.3214 21.4772 20.3214C21.4772 20.3214 21.9348 19.9782 21.4772 19.8638Z" fill="#EA550A"/>
    <path d="M21.4772 19.8638C21.4772 19.8638 19.761 19.9782 16.9007 20.6646C14.1548 21.3511 13.0107 22.0376 13.0107 22.0376L13.354 22.4952C13.354 22.4952 15.299 21.5799 17.244 21.1223C19.189 20.6646 21.4772 20.3214 21.4772 20.3214C21.4772 20.3214 21.9348 19.9782 21.4772 19.8638Z" stroke="#D35916" stroke-width="0.0698781" stroke-miterlimit="10"/>
    <path d="M20.219 19.5207C20.219 19.5207 18.3884 19.4063 15.4137 19.7496C12.439 20.0928 11.2949 20.6649 11.2949 20.6649L11.6381 21.2369C11.6381 21.2369 13.6976 20.5505 15.757 20.3216C17.8164 20.0928 20.3334 19.9784 20.3334 19.9784C20.3334 19.9784 20.6766 19.6352 20.219 19.5207Z" fill="#FB7C15"/>
    <path d="M20.219 19.5207C20.219 19.5207 18.3884 19.4063 15.4137 19.7496C12.439 20.0928 11.2949 20.6649 11.2949 20.6649L11.6381 21.2369C11.6381 21.2369 13.6976 20.5505 15.757 20.3216C17.8164 20.0928 20.3334 19.9784 20.3334 19.9784C20.3334 19.9784 20.6766 19.6352 20.219 19.5207Z" stroke="#D35916" stroke-width="0.0698781" stroke-miterlimit="10"/>
    <path d="M20.4478 19.4067C20.4478 19.4067 18.7316 19.0635 15.6425 19.0635C12.6678 19.0635 11.2949 19.4067 11.2949 19.4067L11.5238 19.9788C11.5238 19.9788 13.812 19.5211 15.8714 19.6355C17.9308 19.7499 20.4478 19.9788 20.4478 19.9788C20.4478 19.9788 20.7911 19.6355 20.4478 19.4067Z" fill="#F49C26"/>
    <path d="M20.4478 19.4067C20.4478 19.4067 18.7316 19.0635 15.6425 19.0635C12.6678 19.0635 11.2949 19.4067 11.2949 19.4067L11.5238 19.9788C11.5238 19.9788 13.812 19.5211 15.8714 19.6355C17.9308 19.7499 20.4478 19.9788 20.4478 19.9788C20.4478 19.9788 20.7911 19.6355 20.4478 19.4067Z" stroke="#D35916" stroke-width="0.0698781" stroke-miterlimit="10"/>
    <path d="M20.7905 19.7495C20.7905 19.7495 19.0743 19.7495 16.214 20.2071C13.4682 20.6648 12.4385 21.2369 12.4385 21.2369L12.8961 21.6945C12.8961 21.6945 14.7267 20.8936 16.6717 20.6648C18.6167 20.436 20.9049 20.2071 20.9049 20.2071C20.9049 20.2071 21.2481 19.8639 20.7905 19.7495Z" fill="#F49C26"/>
    <path d="M20.7905 19.7495C20.7905 19.7495 19.0743 19.7495 16.214 20.2071C13.4682 20.6648 12.4385 21.2369 12.4385 21.2369L12.8961 21.6945C12.8961 21.6945 14.7267 20.8936 16.6717 20.6648C18.6167 20.436 20.9049 20.2071 20.9049 20.2071C20.9049 20.2071 21.2481 19.8639 20.7905 19.7495Z" stroke="#D35916" stroke-width="0.0698781" stroke-miterlimit="10"/>
    <path d="M21.0194 20.207C21.0194 20.207 19.4177 20.4359 17.015 21.3511C14.6124 22.2664 13.8115 22.9529 13.8115 22.9529L14.3836 23.2961C14.3836 23.2961 15.8709 22.2664 17.4727 21.6944C19.1888 21.1223 21.2483 20.5503 21.2483 20.5503C21.2483 20.5503 21.3627 20.207 21.0194 20.207Z" fill="#F49C26"/>
    <path d="M21.0194 20.207C21.0194 20.207 19.4177 20.4359 17.015 21.3511C14.6124 22.2664 13.8115 22.9529 13.8115 22.9529L14.3836 23.2961C14.3836 23.2961 15.8709 22.2664 17.4727 21.6944C19.1888 21.1223 21.2483 20.5503 21.2483 20.5503C21.2483 20.5503 21.3627 20.207 21.0194 20.207Z" stroke="#D35916" stroke-width="0.0698781" stroke-miterlimit="10"/>
    <path d="M20.5623 18.9485C20.5623 18.9485 18.9605 18.3765 16.1003 17.9188C13.24 17.4612 11.9814 17.69 11.9814 17.69L12.0959 18.2621C12.0959 18.2621 14.2697 18.1477 16.2146 18.4909C18.1596 18.8341 20.4479 19.4062 20.4479 19.4062C20.4479 19.4062 20.9055 19.1774 20.5623 18.9485Z" fill="#EA550A"/>
    <path d="M20.5623 18.9485C20.5623 18.9485 18.9605 18.3765 16.1003 17.9188C13.24 17.4612 11.9814 17.69 11.9814 17.69L12.0959 18.2621C12.0959 18.2621 14.2697 18.1477 16.2146 18.4909C18.1596 18.8341 20.4479 19.4062 20.4479 19.4062C20.4479 19.4062 20.9055 19.1774 20.5623 18.9485Z" stroke="#D35916" stroke-width="0.0698781" stroke-miterlimit="10"/>
    <path d="M20.7909 19.1774C20.7909 19.1774 19.1892 18.7198 16.2145 18.6054C13.3542 18.491 12.0957 18.8342 12.0957 18.8342L12.3245 19.4063C12.3245 19.4063 14.4983 19.063 16.4433 19.1774C18.3883 19.2918 20.7909 19.6351 20.7909 19.6351C20.7909 19.6351 21.1342 19.2918 20.7909 19.1774Z" fill="#FB7C15"/>
    <path d="M20.7909 19.1774C20.7909 19.1774 19.1892 18.7198 16.2145 18.6054C13.3542 18.491 12.0957 18.8342 12.0957 18.8342L12.3245 19.4063C12.3245 19.4063 14.4983 19.063 16.4433 19.1774C18.3883 19.2918 20.7909 19.6351 20.7909 19.6351C20.7909 19.6351 21.1342 19.2918 20.7909 19.1774Z" stroke="#D35916" stroke-width="0.0698781" stroke-miterlimit="10"/>
    <path d="M32.6886 23.1828L32.3453 23.526L32.4598 23.6404L32.2309 23.8692C32.2309 23.8692 31.7733 23.526 31.6589 23.526C32.0021 23.7548 32.1165 23.9837 32.1165 23.9837L31.7733 24.2125L31.3156 23.8692L31.2012 23.9837C31.2012 23.9837 31.5444 24.3269 31.6589 24.4413C31.5444 24.5557 31.2012 24.6701 31.2012 24.6701L30.9724 24.4413C30.9724 24.4413 30.1715 24.8989 29.5995 24.8989C29.2562 25.0134 29.0274 25.0134 29.0274 25.0134H28.6842L28.7986 25.3566H28.3409L28.2265 25.1278C28.2265 25.1278 26.0527 25.2422 25.7095 25.1278C24.7942 23.8692 23.8789 20.3225 23.8789 20.3225L24.9086 19.064C24.9086 19.064 25.4807 19.1784 26.2816 19.5216C27.0824 19.8648 30.286 21.3522 32.6886 23.1828Z" fill="#CDF482"/>
    <path d="M32.6886 23.1828L32.3453 23.526L32.4598 23.6404L32.2309 23.8692C32.2309 23.8692 31.7733 23.526 31.6589 23.526C32.0021 23.7548 32.1165 23.9837 32.1165 23.9837L31.7733 24.2125L31.3156 23.8692L31.2012 23.9837C31.2012 23.9837 31.5444 24.3269 31.6589 24.4413C31.5444 24.5557 31.2012 24.6701 31.2012 24.6701L30.9724 24.4413C30.9724 24.4413 30.1715 24.8989 29.5995 24.8989C29.2562 25.0134 29.0274 25.0134 29.0274 25.0134H28.6842L28.7986 25.3566H28.3409L28.2265 25.1278C28.2265 25.1278 26.0527 25.2422 25.7095 25.1278C24.7942 23.8692 23.8789 20.3225 23.8789 20.3225L24.9086 19.064C24.9086 19.064 25.4807 19.1784 26.2816 19.5216C27.0824 19.8648 30.286 21.3522 32.6886 23.1828Z" stroke="#68A017" stroke-width="0.0698781" stroke-miterlimit="10" stroke-linecap="round" stroke-linejoin="round"/>
    <path d="M24.5645 19.8651C24.5645 19.8651 25.7086 20.666 27.196 22.3822C28.7977 24.0984 29.2554 24.8992 29.2554 24.8992L28.7977 25.0137C28.7977 25.0137 27.8824 23.5263 26.8527 22.4966C25.7086 21.3525 24.3357 20.094 24.3357 20.094C24.3357 20.094 24.2213 19.7507 24.5645 19.8651Z" fill="#DEF9A2"/>
    <path d="M24.5645 19.8651C24.5645 19.8651 25.7086 20.666 27.196 22.3822C28.7977 24.0984 29.2554 24.8992 29.2554 24.8992L28.7977 25.0137C28.7977 25.0137 27.8824 23.5263 26.8527 22.4966C25.7086 21.3525 24.3357 20.094 24.3357 20.094C24.3357 20.094 24.2213 19.7507 24.5645 19.8651Z" stroke="#68A017" stroke-width="0.0698781" stroke-miterlimit="10" stroke-linecap="round" stroke-linejoin="round"/>
    <path d="M25.5948 20.0937C25.5948 20.0937 26.8533 20.7801 28.6839 22.2675C30.5145 23.7548 31.0865 24.6701 31.0865 24.6701L30.6289 24.8989C30.6289 24.8989 29.5992 23.526 28.2262 22.4963C26.9677 21.4666 25.366 20.3225 25.366 20.3225C25.366 20.3225 25.2516 19.9793 25.5948 20.0937Z" fill="#DEF9A2"/>
    <path d="M25.5948 20.0937C25.5948 20.0937 26.8533 20.7801 28.6839 22.2675C30.5145 23.7548 31.0865 24.6701 31.0865 24.6701L30.6289 24.8989C30.6289 24.8989 29.5992 23.526 28.2262 22.4963C26.9677 21.4666 25.366 20.3225 25.366 20.3225C25.366 20.3225 25.2516 19.9793 25.5948 20.0937Z" stroke="#68A017" stroke-width="0.0698781" stroke-miterlimit="10" stroke-linecap="round" stroke-linejoin="round"/>
    <path d="M24.795 19.7505C24.795 19.7505 26.1679 20.0937 28.3417 21.009C30.5155 22.0387 31.3164 22.7252 31.3164 22.7252L30.9732 23.0684C30.9732 23.0684 29.4859 22.0387 27.9985 21.3522C26.5112 20.7802 24.5662 20.0937 24.5662 20.0937C24.5662 20.0937 24.4517 19.7505 24.795 19.7505Z" fill="#72C125"/>
    <path d="M24.795 19.7505C24.795 19.7505 26.1679 20.0937 28.3417 21.009C30.5155 22.0387 31.3164 22.7252 31.3164 22.7252L30.9732 23.0684C30.9732 23.0684 29.4859 22.0387 27.9985 21.3522C26.5112 20.7802 24.5662 20.0937 24.5662 20.0937C24.5662 20.0937 24.4517 19.7505 24.795 19.7505Z" stroke="#68A017" stroke-width="0.0698781" stroke-miterlimit="10" stroke-linecap="round" stroke-linejoin="round"/>
    <path d="M25.0229 20.0937C25.0229 20.0937 26.167 20.7801 27.8832 22.2675C29.4849 23.7548 29.9426 24.5557 29.9426 24.5557L29.3705 24.6701C29.3705 24.6701 28.4552 23.4116 27.3111 22.3819C26.167 21.3522 24.6797 20.3225 24.6797 20.3225C24.6797 20.3225 24.6797 19.9793 25.0229 20.0937Z" fill="#52AD02"/>
    <path d="M25.0229 20.0937C25.0229 20.0937 26.167 20.7801 27.8832 22.2675C29.4849 23.7548 29.9426 24.5557 29.9426 24.5557L29.3705 24.6701C29.3705 24.6701 28.4552 23.4116 27.3111 22.3819C26.167 21.3522 24.6797 20.3225 24.6797 20.3225C24.6797 20.3225 24.6797 19.9793 25.0229 20.0937Z" stroke="#476D05" stroke-width="0.0698781" stroke-miterlimit="10" stroke-linecap="round" stroke-linejoin="round"/>
    <path d="M24.4498 19.979C24.4498 19.979 25.3651 20.8943 26.3948 22.6105C27.4245 24.3267 27.6533 25.1276 27.6533 25.1276H27.0813C27.0813 25.1276 26.6237 23.7546 25.8228 22.6105C25.0219 21.4664 23.9922 20.0935 23.9922 20.0935C23.9922 20.0935 24.1066 19.7502 24.4498 19.979Z" fill="#72C125"/>
    <path d="M24.4498 19.979C24.4498 19.979 25.3651 20.8943 26.3948 22.6105C27.4245 24.3267 27.6533 25.1276 27.6533 25.1276H27.0813C27.0813 25.1276 26.6237 23.7546 25.8228 22.6105C25.0219 21.4664 23.9922 20.0935 23.9922 20.0935C23.9922 20.0935 24.1066 19.7502 24.4498 19.979Z" stroke="#68A017" stroke-width="0.0698781" stroke-miterlimit="10" stroke-linecap="round" stroke-linejoin="round"/>
    <path d="M25.8237 20.4365C25.8237 20.4365 27.0822 20.8942 29.1416 22.0383C31.0866 23.1824 31.8875 23.9833 31.8875 23.9833L31.4298 24.2121C31.4298 24.2121 30.1713 23.068 28.7983 22.2671C27.4254 21.4662 25.7093 20.6653 25.7093 20.6653C25.7093 20.6653 25.5949 20.4365 25.8237 20.4365Z" fill="#52AD02"/>
    <path d="M25.8237 20.4365C25.8237 20.4365 27.0822 20.8942 29.1416 22.0383C31.0866 23.1824 31.8875 23.9833 31.8875 23.9833L31.4298 24.2121C31.4298 24.2121 30.1713 23.068 28.7983 22.2671C27.4254 21.4662 25.7093 20.6653 25.7093 20.6653C25.7093 20.6653 25.5949 20.4365 25.8237 20.4365Z" stroke="#476D05" stroke-width="0.0698781" stroke-miterlimit="10" stroke-linecap="round" stroke-linejoin="round"/>
    <path d="M24.6811 18.3776C24.6811 18.3776 25.2532 19.5217 25.9396 21.8099C26.5117 23.9837 26.5117 25.0134 26.5117 25.0134L26.0541 24.899C26.0541 24.899 25.9396 23.1829 25.482 21.6955C25.0244 20.2082 24.3379 18.3776 24.3379 18.3776C24.3379 18.3776 24.4523 18.1488 24.6811 18.3776Z" fill="#DEF9A2"/>
    <path d="M24.6811 18.3776C24.6811 18.3776 25.2532 19.5217 25.9396 21.8099C26.5117 23.9837 26.5117 25.0134 26.5117 25.0134L26.0541 24.899C26.0541 24.899 25.9396 23.1829 25.482 21.6955C25.0244 20.2082 24.3379 18.3776 24.3379 18.3776C24.3379 18.3776 24.4523 18.1488 24.6811 18.3776Z" stroke="#68A017" stroke-width="0.0698781" stroke-miterlimit="10" stroke-linecap="round" stroke-linejoin="round"/>
    <path d="M16.7871 21.8094C16.9015 21.5805 17.4736 21.2373 18.2745 21.0085C19.0754 20.8941 19.3042 20.322 19.7618 20.4364C20.2195 20.5508 21.2492 20.8941 21.5924 21.0085C21.9356 21.1229 22.7365 20.8941 22.7365 20.8941C22.7365 20.8941 23.7662 21.0085 24.1095 21.2373C24.4527 21.4661 24.5671 22.0382 24.5671 22.0382C24.5671 22.0382 25.5968 21.695 25.5968 22.267C25.5968 22.8391 26.3977 24.7841 25.8256 25.0129C25.2536 25.2417 21.1348 24.8985 20.6771 24.7841C20.2195 24.7841 19.8762 24.6696 19.8762 24.6696L16.7871 21.8094Z" fill="#325B23"/>
    <path d="M16.7871 21.8094C16.9015 21.5805 17.4736 21.2373 18.2745 21.0085C19.0754 20.8941 19.3042 20.322 19.7618 20.4364C20.2195 20.5508 21.2492 20.8941 21.5924 21.0085C21.9356 21.1229 22.7365 20.8941 22.7365 20.8941C22.7365 20.8941 23.7662 21.0085 24.1095 21.2373C24.4527 21.4661 24.5671 22.0382 24.5671 22.0382C24.5671 22.0382 25.5968 21.695 25.5968 22.267C25.5968 22.8391 26.3977 24.7841 25.8256 25.0129C25.2536 25.2417 21.1348 24.8985 20.6771 24.7841C20.2195 24.7841 19.8762 24.6696 19.8762 24.6696L16.7871 21.8094Z" stroke="#28561B" stroke-width="0.0698781" stroke-miterlimit="10" stroke-linecap="round" stroke-linejoin="round"/>
    <path d="M21.4784 24.2126C21.2496 24.5559 21.0208 24.6703 21.0208 24.6703C21.0208 24.6703 20.9064 24.5559 20.6775 24.4415C20.6775 24.4415 20.5631 24.4415 20.5631 24.3271C20.4487 24.3271 20.4487 24.2126 20.3343 24.2126C19.8766 23.9838 19.419 23.5262 19.0758 23.1829C18.9614 22.3821 19.5334 21.81 19.419 21.4668C19.419 21.1235 19.3046 19.9794 19.8767 19.7506C20.4487 19.5218 20.6775 19.7506 20.6775 20.5515C20.6775 21.2379 20.6775 22.2677 21.0208 22.7253C21.5928 23.1829 21.7072 23.8694 21.4784 24.2126Z" fill="#4F791D"/>
    <path d="M21.4784 24.2126C21.2496 24.5559 21.0208 24.6703 21.0208 24.6703C21.0208 24.6703 20.9064 24.5559 20.6775 24.4415C20.6775 24.4415 20.5631 24.4415 20.5631 24.3271C20.4487 24.3271 20.4487 24.2126 20.3343 24.2126C19.8766 23.9838 19.419 23.5262 19.0758 23.1829C18.9614 22.3821 19.5334 21.81 19.419 21.4668C19.419 21.1235 19.3046 19.9794 19.8767 19.7506C20.4487 19.5218 20.6775 19.7506 20.6775 20.5515C20.6775 21.2379 20.6775 22.2677 21.0208 22.7253C21.5928 23.1829 21.7072 23.8694 21.4784 24.2126Z" stroke="#28561B" stroke-width="0.0698781" stroke-miterlimit="10" stroke-linecap="round" stroke-linejoin="round"/>
    <path d="M19.9909 21.1231C19.9909 21.4664 20.2197 21.5808 20.2197 21.5808C20.2197 21.5808 20.3341 20.7799 20.3341 20.5511C20.3341 20.3222 20.3341 19.979 20.3341 19.979C20.3341 19.979 20.4485 20.2078 20.4485 20.4367C20.4485 20.7799 20.3341 21.5808 20.3341 21.8096C20.5629 21.6952 20.7917 21.0087 20.7917 21.0087C20.7917 21.3519 20.4485 21.8096 20.3341 21.924C20.2197 22.496 20.3341 23.2969 20.3341 23.2969C20.3341 23.2969 20.5629 23.0681 20.6773 22.8393C20.7918 22.6105 20.7917 22.1528 20.7917 22.1528C20.7917 22.1528 20.9061 22.4961 20.7917 22.8393C20.6773 23.1825 20.4485 23.4113 20.4485 23.4113C20.4485 23.4113 20.5629 24.0978 20.6773 24.3266C20.5629 24.3266 20.5629 24.2122 20.4485 24.2122C20.4485 24.2122 20.4485 24.0978 20.3341 23.869C19.8764 23.6402 19.5332 23.4113 19.4188 23.2969C19.3044 23.1825 19.3044 22.9537 19.4188 23.1825C19.5332 23.4113 19.9909 23.7546 20.3341 23.869C20.3341 23.7546 20.2197 23.1825 20.2197 23.0681C19.9909 22.9537 19.6476 22.7249 19.6476 22.496C19.5332 22.1528 19.762 21.4664 19.762 21.4664C19.762 21.4664 19.6476 22.1528 19.6476 22.3816C19.762 22.6105 19.9909 22.8393 20.2197 22.9537C20.1053 22.8393 20.2197 21.924 20.2197 21.6952C19.9909 21.5808 19.8765 21.2375 19.9909 21.1231Z" fill="#28561B"/>
    <path d="M21.021 23.9833C20.9065 24.2122 20.7921 24.5554 20.7921 24.5554C20.7921 24.5554 20.6777 24.5554 20.6777 24.441C20.7921 24.2122 21.3642 23.2969 21.3642 23.2969C21.3642 23.2969 21.1354 23.7545 21.021 23.9833Z" fill="#28561B"/>
    <path d="M19.8758 24.8991C19.8758 24.7847 19.7613 24.7847 19.7613 24.6703C19.6469 24.2126 19.4181 23.6406 19.3037 23.183C19.6469 22.4965 20.3334 22.3821 20.5622 22.0388C20.7911 21.6956 21.2487 20.8947 21.9352 21.0091C22.5072 21.1235 22.6216 21.4668 22.164 22.0388C21.7063 22.6109 21.2487 23.4118 21.2487 23.9838C21.3631 24.4415 19.9902 24.8991 19.8758 24.8991Z" fill="#4F791D"/>
    <path d="M19.8758 24.8991C19.8758 24.7847 19.7613 24.7847 19.7613 24.6703C19.6469 24.2126 19.4181 23.6406 19.3037 23.183C19.6469 22.4965 20.3334 22.3821 20.5622 22.0388C20.7911 21.6956 21.2487 20.8947 21.9352 21.0091C22.5072 21.1235 22.6216 21.4668 22.164 22.0388C21.7063 22.6109 21.2487 23.4118 21.2487 23.9838C21.3631 24.4415 19.9902 24.8991 19.8758 24.8991Z" stroke="#28561B" stroke-width="0.0698781" stroke-miterlimit="10" stroke-linecap="round" stroke-linejoin="round"/>
    <path d="M19.8764 24.8991C19.8764 24.7847 19.762 24.7847 19.762 24.6703C19.762 24.6703 19.8764 24.5559 19.8764 24.3271C19.6476 23.8694 19.5332 23.5262 19.5332 23.4118C19.5332 23.1829 19.6476 23.0685 19.6476 23.2974C19.6476 23.5262 19.762 23.9838 19.9908 24.2126C19.9908 24.0982 20.2196 23.6406 20.3341 23.5262C20.2196 23.2973 20.1052 22.9541 20.2196 22.7253C20.1052 22.9541 20.2196 23.1829 20.3341 23.5262C20.3341 23.4118 20.9061 22.7253 21.0205 22.4965C20.9061 22.2676 21.0205 21.9244 21.135 21.81C21.2494 21.5812 21.4782 21.3524 21.4782 21.3524C21.4782 21.3524 21.2494 21.6956 21.135 21.9244C21.0205 22.1532 21.135 22.3821 21.135 22.3821C21.135 22.3821 21.5926 21.81 21.8214 21.5812C21.9358 21.3524 22.0502 21.1235 22.0502 21.1235C22.0502 21.1235 22.0503 21.3524 21.8214 21.5812C21.707 21.81 21.1349 22.3821 21.0205 22.6109C21.2494 22.6109 21.8214 22.2676 21.8214 22.2676C21.5926 22.4965 21.1349 22.7253 20.9061 22.7253C20.5629 23.1829 20.2196 23.8694 20.2196 23.8694C20.2196 23.8694 20.5629 23.755 20.6773 23.6406C20.9061 23.5262 21.135 23.1829 21.135 23.1829C21.135 23.1829 21.0205 23.5262 20.6773 23.755C20.3341 23.9838 20.1053 23.9838 20.1053 23.9838C20.1053 23.9838 19.9908 24.5559 19.8764 24.8991Z" fill="#28561B"/>
    <path d="M18.7326 24.6699C18.2749 24.6699 17.7029 24.4411 17.2453 24.3267C17.1308 24.3267 17.1308 24.3267 17.0164 24.2123C15.8723 23.7546 14.957 23.297 14.957 23.297C15.1859 23.297 15.4147 22.2673 15.7579 22.0385C16.1011 21.8096 17.0164 21.6952 17.4741 21.924C18.0461 22.2673 18.6182 24.0979 18.7326 24.6699Z" fill="#4F791D"/>
    <path d="M18.7326 24.6699C18.2749 24.6699 17.7029 24.4411 17.2453 24.3267C17.1308 24.3267 17.1308 24.3267 17.0164 24.2123C15.8723 23.7546 14.957 23.297 14.957 23.297C15.1859 23.297 15.4147 22.2673 15.7579 22.0385C16.1011 21.8096 17.0164 21.6952 17.4741 21.924C18.0461 22.2673 18.6182 24.0979 18.7326 24.6699Z" stroke="#28561B" stroke-width="0.0698781" stroke-miterlimit="10" stroke-linecap="round" stroke-linejoin="round"/>
    <path d="M17.5894 23.7547C17.475 23.8692 17.2462 24.098 17.2462 24.098V24.3268C17.1317 24.3268 17.1317 24.3268 17.0173 24.2124V23.9836C17.0173 23.9836 16.7885 23.9836 16.4453 23.8692C15.9876 23.7547 15.9876 23.2971 15.9876 23.2971C16.102 23.2971 16.102 23.6403 16.4453 23.7547C16.5597 23.8692 17.0173 23.8692 17.0173 23.8692C17.0173 23.8692 16.9029 23.4115 16.7885 23.1827C16.6741 23.1827 16.3309 23.1827 16.102 22.9539C15.8732 22.8394 15.7588 22.3818 15.7588 22.3818C15.7588 22.3818 15.8732 22.725 16.2164 22.9539C16.4452 23.0683 16.7885 23.0683 16.7885 23.0683C16.6741 22.725 16.4453 22.2674 16.4453 22.0386C16.6741 22.2674 16.9029 23.0683 16.9029 23.0683C16.9029 23.0683 17.0173 22.9539 17.0173 22.725C17.0173 22.4962 16.9029 22.3818 17.0173 22.2674C17.1317 22.2674 17.1317 22.4962 17.1317 22.6106C17.1317 22.725 17.0173 22.9539 17.0173 23.0683C17.0173 23.1827 17.2462 23.7547 17.2462 23.7547C17.2462 23.7547 17.3606 23.8692 17.5894 23.7547C17.5894 23.6403 17.5894 23.2971 17.5894 23.2971C17.7038 23.4115 17.7038 23.6403 17.5894 23.7547Z" fill="#28561B"/>
    <path d="M20.4482 24.3272C20.4482 24.6705 20.2193 24.8993 20.2193 24.8993C20.2193 24.8993 20.1049 24.8993 19.8761 24.8993H19.7617C19.6473 24.8993 19.6473 24.8993 19.5329 24.8993C19.0753 24.8993 18.5032 24.7849 17.9311 24.6705C17.4735 24.0984 17.7023 23.4119 17.4735 23.0687C17.2447 22.7255 16.787 21.9246 17.1303 21.467C17.4735 21.0093 17.8167 21.1237 18.16 21.6958C18.5032 22.2678 18.9608 23.0687 19.5329 23.2975C19.9905 23.4119 20.4482 23.8696 20.4482 24.3272Z" fill="#4F791D"/>
    <path d="M20.4482 24.3272C20.4482 24.6705 20.2193 24.8993 20.2193 24.8993C20.2193 24.8993 20.1049 24.8993 19.8761 24.8993H19.7617C19.6473 24.8993 19.6473 24.8993 19.5329 24.8993C19.0753 24.8993 18.5032 24.7849 17.9311 24.6705C17.4735 24.0984 17.7023 23.4119 17.4735 23.0687C17.2447 22.7255 16.787 21.9246 17.1303 21.467C17.4735 21.0093 17.8167 21.1237 18.16 21.6958C18.5032 22.2678 18.9608 23.0687 19.5329 23.2975C19.9905 23.4119 20.4482 23.8696 20.4482 24.3272Z" stroke="#28561B" stroke-width="0.0698781" stroke-miterlimit="10" stroke-linecap="round" stroke-linejoin="round"/>
    <path d="M19.7621 24.785C19.6477 24.785 19.6478 24.785 19.5333 24.785C19.5333 24.785 19.4189 24.6706 19.3045 24.5562C18.8469 24.5562 18.5036 24.5562 18.2748 24.4418C18.1604 24.3274 18.046 24.213 18.1604 24.3274C18.3892 24.4418 18.8469 24.4418 19.1901 24.4418C19.0757 24.4418 18.7324 23.9842 18.7324 23.8697C18.5036 23.8697 18.1604 23.8697 17.9316 23.6409C17.7027 23.4121 17.5883 22.7256 17.5883 22.7256C17.5883 22.7256 17.8171 23.4121 17.9316 23.5265C18.046 23.6409 18.3892 23.7553 18.618 23.7553C18.5036 23.6409 18.1604 22.9545 18.046 22.7256C17.7027 22.7256 17.5883 22.4968 17.4739 22.268C17.3595 22.1536 17.2451 21.8103 17.2451 21.8103C17.2451 21.8103 17.4739 22.1536 17.5883 22.3824C17.8172 22.6112 18.046 22.6112 18.046 22.6112C18.046 22.6112 17.7027 21.9248 17.5883 21.6959C17.4739 21.4671 17.3595 21.2383 17.3595 21.2383C17.3595 21.2383 17.4739 21.3527 17.7028 21.5815C17.8172 21.8103 18.1604 22.4968 18.2748 22.7256C18.3892 22.4968 18.2748 21.8103 18.2748 21.8103C18.3892 22.0392 18.3892 22.6112 18.2748 22.84C18.5036 23.4121 18.9613 23.9842 18.9613 23.9842C18.9613 23.9842 19.0757 23.6409 18.9613 23.4121C18.9613 23.1833 18.7324 22.84 18.7324 22.84C18.7324 22.84 18.9613 23.0689 19.0757 23.4121C19.1901 23.7553 19.0757 23.9842 19.0757 23.9842C19.0757 23.9842 19.5333 24.6706 19.7621 24.785Z" fill="#28561B"/>
    <path d="M19.8761 24.3276C19.8761 24.5564 19.8761 24.8996 19.8761 24.8996H19.7617C19.7617 24.6708 19.7617 23.6411 19.8761 23.6411C19.9905 23.6411 19.9905 24.0988 19.8761 24.3276Z" fill="#28561B"/>
    <path d="M22.9662 23.0684C23.6527 23.4116 24.1103 23.9836 24.3391 24.2125C24.6824 24.4413 25.4833 24.7845 25.5977 25.0134C24.568 25.1278 22.8518 25.0134 21.9365 25.0134C21.25 24.8989 22.9662 23.0684 22.9662 23.0684Z" fill="#4F791D"/>
    <path d="M22.9662 23.0684C23.6527 23.4116 24.1103 23.9836 24.3391 24.2125C24.6824 24.4413 25.4833 24.7845 25.5977 25.0134C24.568 25.1278 22.8518 25.0134 21.9365 25.0134C21.25 24.8989 22.9662 23.0684 22.9662 23.0684Z" stroke="#28561B" stroke-width="0.0698781" stroke-miterlimit="10" stroke-linecap="round" stroke-linejoin="round"/>
    <path d="M22.7373 24.2122C22.7373 24.2122 22.9661 24.3266 23.0805 24.3266C23.1949 24.2122 23.5381 23.9834 23.767 23.9834C23.9958 23.9834 24.5679 24.3266 24.5679 24.441C24.339 24.3266 23.8814 24.0978 23.6525 23.9834C23.5381 23.9834 23.1949 24.0978 23.0805 24.2122C23.4237 24.3266 24.1102 24.7843 24.1102 24.7843C24.1102 24.7843 24.2246 24.6699 24.5679 24.6699C24.7967 24.6699 25.2543 24.8987 25.3687 25.0131C25.1399 24.8987 24.7967 24.7843 24.5679 24.7843C24.339 24.7843 24.2246 24.8987 24.2246 24.8987L24.5679 25.1275H24.4534L23.9958 24.8987C23.9958 24.8987 24.1102 25.0131 24.1102 25.2419H23.9958C23.9958 25.2419 23.8814 25.1275 23.8814 24.8987C23.767 24.7843 23.0805 24.5555 22.7373 24.441C22.7373 24.5555 22.7373 24.6699 22.8517 24.7843C22.9661 24.8987 23.3093 25.1275 23.4237 25.1275C23.3093 25.1275 22.8517 24.8987 22.6229 24.6699C22.5084 24.3266 22.7373 24.2122 22.7373 24.2122Z" fill="#28561B"/>
    <path d="M20.2186 24.3271C20.1041 24.6703 20.333 24.8991 20.333 24.8991C20.333 24.8991 20.4474 24.8991 20.6762 24.8991H20.7906C20.905 24.8991 20.905 24.8991 21.0195 24.8991C21.4771 24.8991 22.1636 25.0135 22.6212 25.0135C23.7653 23.9838 23.0789 23.755 23.3077 23.5262C23.5365 23.2974 24.223 22.4965 23.9942 21.9244C23.7653 21.3524 23.4221 21.4668 22.9645 21.9244C22.5068 22.4965 21.9347 23.0685 21.3627 23.2974C20.7906 23.5262 20.2186 23.8694 20.2186 24.3271Z" fill="#4F791D"/>
    <path d="M20.2186 24.3271C20.1041 24.6703 20.333 24.8991 20.333 24.8991C20.333 24.8991 20.4474 24.8991 20.6762 24.8991H20.7906C20.905 24.8991 20.905 24.8991 21.0195 24.8991C21.4771 24.8991 22.1636 25.0135 22.6212 25.0135C23.7653 23.9838 23.0789 23.755 23.3077 23.5262C23.5365 23.2974 24.223 22.4965 23.9942 21.9244C23.7653 21.3524 23.4221 21.4668 22.9645 21.9244C22.5068 22.4965 21.9347 23.0686 21.3627 23.2974C20.7906 23.5262 20.2186 23.8694 20.2186 24.3271Z" stroke="#28561B" stroke-width="0.0698781" stroke-miterlimit="10" stroke-linecap="round" stroke-linejoin="round"/>
    <path d="M20.6758 24.8993C20.7902 24.8993 20.7902 24.8993 20.9046 24.8993C20.9046 24.8993 21.019 24.7849 21.1334 24.6705C21.5911 24.7849 21.9343 24.7849 22.1631 24.7849C22.2775 24.7849 22.3919 24.6705 22.2775 24.6705C22.0487 24.7849 21.5911 24.6705 21.2478 24.5561C21.3622 24.5561 21.7055 24.2128 21.8199 24.0984C22.0487 24.2128 22.3919 24.2128 22.6208 24.0984C22.8496 23.984 23.1928 23.2976 23.0784 23.2976C23.0784 23.2976 22.7352 23.8696 22.5063 23.984C22.2775 24.0984 22.0487 24.0984 21.7055 23.984C21.8199 23.8696 22.3919 23.2976 22.5063 23.0687C22.7352 23.1831 23.0784 22.9543 23.1928 22.7255C23.3072 22.6111 23.5361 22.3823 23.5361 22.2679C23.5361 22.2679 23.3072 22.6111 23.0784 22.7255C22.8496 22.9543 22.6208 22.8399 22.6208 22.8399C22.6208 22.8399 23.0784 22.2679 23.1928 22.039C23.3072 21.8102 23.5361 21.6958 23.5361 21.6958C23.5361 21.6958 23.3072 21.8102 23.1928 21.9246C22.964 22.1534 22.5064 22.7255 22.392 22.9543C22.2775 22.7255 22.5063 22.039 22.5063 22.039C22.3919 22.2679 22.2775 22.8399 22.2775 22.9543C21.9343 23.412 21.3622 23.984 21.3622 23.984C21.3622 23.984 21.3622 23.6408 21.4766 23.412C21.5911 23.1831 21.8199 22.8399 21.8199 22.8399C21.8199 22.8399 21.591 22.9543 21.3622 23.412C21.2478 23.7552 21.2478 23.984 21.2478 23.984C21.2478 23.984 20.9046 24.7849 20.6758 24.8993Z" fill="#28561B"/>
    <path d="M20.6759 24.3266C20.6759 24.5554 20.5615 24.8987 20.5615 24.8987H20.6759C20.7904 24.6698 20.9047 23.6401 20.7903 23.6401C20.7903 23.7545 20.6759 24.2122 20.6759 24.3266Z" fill="#28561B"/>
    <path d="M25.3662 16.6619C25.7094 15.6322 25.7094 14.8313 25.9383 14.6025C26.2815 14.3737 26.8536 14.2592 27.3112 14.6025C27.7689 14.1448 28.7986 14.3736 28.913 14.7169C29.5994 14.2592 30.5147 14.8313 30.7436 15.1745C31.43 14.9457 32.0021 15.2889 32.1165 15.6322C32.2309 15.9754 32.1165 16.3186 32.1165 16.3186L30.6291 18.4924L29.0274 18.7213L26.1671 17.2339L25.3662 16.6619Z" fill="#FFBC00"/>
    <path d="M25.3662 16.6619C25.7094 15.6322 25.7094 14.8313 25.9383 14.6025C26.2815 14.3737 26.8536 14.2592 27.3112 14.6025C27.7689 14.1448 28.7986 14.3736 28.913 14.7169C29.5994 14.2592 30.5147 14.8313 30.7436 15.1745C31.43 14.9457 32.0021 15.2889 32.1165 15.6322C32.2309 15.9754 32.1165 16.3186 32.1165 16.3186L30.6291 18.4924L29.0274 18.7213L26.1671 17.2339L25.3662 16.6619Z" stroke="#F69A01" stroke-width="0.0698781" stroke-miterlimit="10" stroke-linecap="round" stroke-linejoin="round"/>
    <path d="M27.5396 15.4033C27.4252 15.4033 27.3108 15.4033 27.3108 15.4033C27.1964 15.4033 27.1964 15.2889 27.082 15.1744C26.9676 14.8312 27.082 14.488 27.4252 14.3736C27.654 14.2592 27.8829 14.3736 27.9973 14.488C28.1117 14.6024 28.2261 14.7168 28.2261 14.8312C28.2261 14.9456 27.8829 15.2889 27.5396 15.4033Z" fill="#FFCC00"/>
    <path d="M27.3105 15.4036C27.7682 15.2892 27.997 14.7171 27.997 14.4883C28.1114 14.6027 28.2258 14.7171 28.2258 14.8315C28.2258 15.0603 27.6538 15.518 27.3105 15.4036Z" fill="#F49B01"/>
    <path d="M27.5405 14.4883C27.4261 14.4883 27.3117 14.4883 27.1973 14.7171C27.1973 14.9459 27.3117 14.6027 27.3117 14.6027C27.5405 14.4883 27.7693 14.4883 27.5405 14.4883Z" fill="white"/>
    <path d="M27.5387 15.4036C27.4243 15.4036 27.3099 15.4036 27.3099 15.4036C27.1955 15.4036 27.1955 15.2891 27.0811 15.1747C27.1955 15.0603 27.5387 15.2891 27.5387 15.4036Z" fill="#F9EABB"/>
    <path d="M27.3117 15.4035C26.9685 15.1747 27.0829 14.4882 27.4262 14.3738C27.7694 14.2594 28.3414 14.6026 28.227 14.8314C28.227 15.0603 27.655 15.5179 27.3117 15.4035Z" stroke="#DD8403" stroke-width="0.0698781" stroke-miterlimit="10" stroke-linecap="round" stroke-linejoin="round"/>
    <path d="M28.1118 16.4331C27.9974 16.4331 27.9973 16.4331 27.8829 16.4331C27.7685 16.4331 27.7685 16.3187 27.7685 16.2043C27.6541 15.9754 27.7685 15.5178 27.9974 15.4034C28.1118 15.289 28.3406 15.4034 28.5694 15.4034C28.6838 15.5178 28.7982 15.6322 28.7982 15.7466C28.6838 15.9754 28.3406 16.3187 28.1118 16.4331Z" fill="#FFCC00"/>
    <path d="M27.8828 16.433C28.226 16.3186 28.4549 15.6321 28.4549 15.4033C28.5693 15.5177 28.6837 15.6321 28.6837 15.7466C28.6837 15.9754 28.226 16.6618 27.8828 16.433Z" fill="#F49B01"/>
    <path d="M28.1118 15.5181C27.9974 15.5181 27.883 15.5181 27.7686 15.8613C27.7686 16.0901 27.883 15.7469 27.883 15.7469C27.9974 15.6325 28.3406 15.5181 28.1118 15.5181Z" fill="white"/>
    <path d="M28.1118 16.4329C27.9974 16.4329 27.9974 16.4329 27.883 16.4329C27.7686 16.4329 27.7686 16.3185 27.7686 16.2041C27.7686 16.2041 28.1118 16.3185 28.1118 16.4329Z" fill="#F9EABB"/>
    <path d="M27.883 16.4332C27.5398 16.3188 27.6542 15.6323 27.9974 15.4035C28.3407 15.2891 28.7983 15.5179 28.6839 15.7467C28.5695 15.9755 28.2263 16.662 27.883 16.4332Z" stroke="#DD8403" stroke-width="0.0698781" stroke-miterlimit="10" stroke-linecap="round" stroke-linejoin="round"/>
    <path d="M30.3996 17.1193C30.3996 17.2337 30.2852 17.2337 30.2852 17.3481C30.2852 17.4625 30.3996 17.4625 30.3996 17.5769C30.6284 17.6913 31.086 17.6913 31.3149 17.4625C31.4293 17.3481 31.4293 17.1193 31.4293 16.8904C31.4293 16.776 31.3148 16.6616 31.2004 16.6616C31.086 16.6616 30.6284 16.8904 30.3996 17.1193Z" fill="#FFCC00"/>
    <path d="M30.3994 17.3481C30.6283 17.0049 31.3147 16.8904 31.5435 16.8904C31.5435 16.776 31.4291 16.6616 31.3147 16.6616C30.9715 16.6616 30.285 17.0049 30.3994 17.3481Z" fill="#F49B01"/>
    <path d="M31.3152 17.3488C31.3152 17.4632 31.2008 17.5776 30.9719 17.5776C30.7431 17.5776 31.0863 17.4632 31.3152 17.3488Z" fill="white"/>
    <path d="M30.3996 17.1191C30.3996 17.2336 30.2852 17.2335 30.2852 17.348C30.2852 17.4624 30.3996 17.4624 30.3996 17.5768C30.6284 17.4624 30.514 17.2336 30.3996 17.1191Z" fill="#F9EABB"/>
    <path d="M30.3995 17.3481C30.5139 17.6913 31.2004 17.6913 31.4292 17.4625C31.658 17.2337 31.4292 16.6616 31.2003 16.6616C30.9715 16.6616 30.2851 17.0049 30.3995 17.3481Z" stroke="#DD8403" stroke-width="0.0698781" stroke-miterlimit="10" stroke-linecap="round" stroke-linejoin="round"/>
    <path d="M29.4841 15.4026C29.4841 15.517 29.3697 15.517 29.2553 15.6314C29.1408 15.6314 29.0264 15.6314 28.912 15.6314C28.6832 15.517 28.34 15.1738 28.4544 14.8305C28.5688 14.6017 28.6832 14.4873 28.912 14.4873C29.0264 14.4873 29.2553 14.4873 29.2553 14.4873C29.4841 14.6017 29.5985 15.0594 29.4841 15.4026Z" fill="#FFCC00"/>
    <path d="M29.2552 15.5172C29.484 15.1739 29.1408 14.4875 29.0264 14.373C29.1408 14.373 29.3696 14.373 29.3696 14.373C29.5984 14.6019 29.7128 15.4027 29.2552 15.5172Z" fill="#F49B01"/>
    <path d="M28.7971 14.7162C28.6827 14.8307 28.5683 14.9451 28.7971 15.1739C28.9116 15.2883 28.7971 15.0595 28.7971 14.9451C28.7971 14.8306 28.9116 14.6018 28.7971 14.7162Z" fill="white"/>
    <path d="M29.4842 15.4023C29.4842 15.5167 29.3698 15.5167 29.2554 15.6311C29.141 15.6311 29.0265 15.6311 28.9121 15.6311C29.0265 15.4023 29.3698 15.2879 29.4842 15.4023Z" fill="#F9EABB"/>
    <path d="M29.2562 15.5171C28.9129 15.6315 28.4553 15.0595 28.5697 14.7162C28.6841 14.373 29.2561 14.2586 29.485 14.373C29.5994 14.6018 29.7138 15.4027 29.2562 15.5171Z" stroke="#DD8403" stroke-width="0.0698781" stroke-miterlimit="10" stroke-linecap="round" stroke-linejoin="round"/>
    <path d="M30.0565 16.7758C30.0565 16.8902 29.9421 17.0046 29.8277 17.0046C29.7133 17.0046 29.5989 17.0046 29.4845 17.0046C29.1412 16.8902 28.9124 16.4326 29.0268 16.2037C29.1412 15.9749 29.3701 15.8605 29.4845 15.7461C29.7133 15.7461 29.8277 15.7461 29.9421 15.7461C30.1709 15.9749 30.1709 16.4326 30.0565 16.7758Z" fill="#FFCC00"/>
    <path d="M29.8267 17.0046C30.0555 16.547 29.7122 15.8605 29.4834 15.7461C29.7122 15.7461 29.8266 15.7461 29.941 15.7461C30.1699 15.9749 30.2843 16.8902 29.8267 17.0046Z" fill="#F49B01"/>
    <path d="M29.2552 16.0898C29.1407 16.2042 29.0263 16.3186 29.2552 16.5474C29.3696 16.6618 29.2552 16.433 29.2552 16.3186C29.2552 16.2042 29.484 15.9754 29.2552 16.0898Z" fill="white"/>
    <path d="M30.0555 16.7759C30.0555 16.8903 29.9411 17.0047 29.8267 17.0047C29.7122 17.0047 29.5978 17.0047 29.4834 17.0047C29.5978 16.8903 29.941 16.7759 30.0555 16.7759Z" fill="#F9EABB"/>
    <path d="M29.8275 17.0053C29.3698 17.1197 28.9122 16.5476 29.0266 16.2044C29.141 15.8611 29.8274 15.6323 29.9418 15.8612C30.1707 15.9756 30.2851 16.8909 29.8275 17.0053Z" stroke="#DD8403" stroke-width="0.0698781" stroke-miterlimit="10" stroke-linecap="round" stroke-linejoin="round"/>
    <path d="M30.399 16.0896C30.399 16.204 30.5133 16.204 30.6278 16.3184C30.7422 16.3184 30.8566 16.3184 30.971 16.3184C31.3142 16.204 31.5431 15.8608 31.4287 15.5175C31.3142 15.2887 31.1998 15.1743 30.971 15.1743C30.7422 15.1743 30.6278 15.1743 30.5133 15.1743C30.3989 15.2887 30.2845 15.7464 30.399 16.0896Z" fill="#FFCC00"/>
    <path d="M30.628 16.3184C30.3992 15.8608 30.7424 15.2887 30.8568 15.1743C30.628 15.1743 30.5136 15.1743 30.3992 15.1743C30.3992 15.2887 30.2847 16.0896 30.628 16.3184Z" fill="#F49B01"/>
    <path d="M31.1994 15.4037C31.3138 15.5182 31.4282 15.6326 31.1994 15.8614C31.0849 15.9758 31.1994 15.747 31.1994 15.6326C31.1994 15.5181 30.9705 15.2893 31.1994 15.4037Z" fill="white"/>
    <path d="M30.3984 16.0898C30.3984 16.2042 30.5128 16.2042 30.6272 16.3186C30.7417 16.3186 30.8561 16.3186 30.9705 16.3186C30.8561 16.0898 30.5128 15.9754 30.3984 16.0898Z" fill="#F9EABB"/>
    <path d="M30.6274 16.3187C30.9706 16.4332 31.5427 15.8611 31.4283 15.5179C31.3139 15.1746 30.7418 14.9458 30.513 15.1746C30.2842 15.4035 30.2842 16.0899 30.6274 16.3187Z" stroke="#DD8403" stroke-width="0.0698781" stroke-miterlimit="10" stroke-linecap="round" stroke-linejoin="round"/>
    <path d="M27.3111 15.8606C27.3111 15.975 27.1967 16.0894 27.0822 16.0894C26.9678 16.2039 26.8534 16.2039 26.739 16.0894C26.3958 15.975 26.0526 15.6318 26.167 15.2886C26.167 15.0597 26.3958 14.9453 26.6246 14.8309C26.8534 14.7165 26.9678 14.7165 27.0822 14.8309C27.3111 15.0597 27.5399 15.5174 27.3111 15.8606Z" fill="#FFCC00"/>
    <path d="M27.1969 16.0898C27.4257 15.6321 26.9681 14.9457 26.7393 14.9457C26.9681 14.8313 27.0825 14.8313 27.1969 14.9457C27.4257 15.0601 27.5401 15.861 27.1969 16.0898Z" fill="#F49B01"/>
    <path d="M26.51 15.2889C26.3956 15.4033 26.2812 15.5177 26.51 15.7465C26.6245 15.8609 26.51 15.6321 26.51 15.5177C26.51 15.4033 26.6245 15.0601 26.51 15.2889Z" fill="white"/>
    <path d="M27.3113 15.8608C27.3113 15.9753 27.1969 16.0897 27.0825 16.0897C26.9681 16.2041 26.8537 16.2041 26.7393 16.0897C26.8537 15.9752 27.1969 15.8608 27.3113 15.8608Z" fill="#F9EABB"/>
    <path d="M27.1967 16.0893C26.739 16.3181 26.167 15.7461 26.2814 15.4028C26.3958 15.0596 27.0823 14.7164 27.1967 14.9452C27.4255 15.0596 27.5399 15.8605 27.1967 16.0893Z" stroke="#DD8403" stroke-width="0.0698781" stroke-miterlimit="10" stroke-linecap="round" stroke-linejoin="round"/>
    <path d="M23.9942 16.6609C24.223 16.8897 24.6807 17.0041 25.2527 16.432C25.1383 15.7456 25.1383 15.2879 25.3671 15.0591C25.3671 15.0591 25.2527 15.5167 25.7104 15.5167C25.7104 15.5167 25.7104 15.5167 25.8248 15.5167C26.3968 15.5167 26.5112 14.6015 26.2824 14.1438C26.0536 13.6862 25.1383 13.2285 24.3374 13.4573C23.5365 13.6862 23.1933 14.2582 23.4221 14.8303C23.5365 15.0591 23.6509 15.1735 23.8798 15.1735C23.9942 15.1735 24.1086 15.0591 24.223 14.9447C24.223 15.1735 24.223 16.3176 23.9942 16.6609Z" fill="#EDD5A0"/>
    <path d="M23.7642 15.1739C23.6498 15.0594 23.421 14.4874 23.8786 14.1442C24.3363 13.8009 25.366 13.6865 25.938 14.373C26.5101 15.0594 26.0525 15.4027 25.8236 15.6315C25.8236 15.6315 25.8236 15.6315 25.938 15.6315C26.5101 15.6315 26.6245 14.7162 26.3957 14.2586C26.1669 13.8009 25.2516 13.3433 24.4507 13.5721C23.6498 13.8009 23.3066 14.373 23.5354 14.945C23.421 15.0594 23.5354 15.1739 23.7642 15.1739Z" fill="#6F3124"/>
    <path d="M25.1384 14.0299C25.1384 14.1443 24.7952 14.0299 24.4519 14.1443C24.1087 14.2587 23.8799 14.3731 23.8799 14.3731C23.8799 14.3731 24.1087 14.1443 24.4519 14.0299C24.7952 13.9154 25.1384 14.0299 25.1384 14.0299Z" fill="white"/>
    <path d="M23.9942 16.6609C24.223 16.8897 24.6807 17.0041 25.2527 16.432C25.1383 15.7456 25.1383 15.2879 25.3671 15.0591C25.3671 15.0591 25.2527 15.5167 25.7104 15.5167C25.7104 15.5167 25.7104 15.5167 25.8248 15.5167C26.3968 15.5167 26.5112 14.6015 26.2824 14.1438C26.0536 13.6862 25.1383 13.2285 24.3374 13.4573C23.5365 13.6862 23.1933 14.2582 23.4221 14.8303C23.5365 15.0591 23.6509 15.1735 23.8798 15.1735C23.9942 15.1735 24.1086 15.0591 24.223 14.9447C24.223 15.1735 24.223 16.3176 23.9942 16.6609Z" stroke="#DEA181" stroke-width="0.0698781" stroke-miterlimit="10" stroke-linecap="round" stroke-linejoin="round"/>
    <path d="M23.7642 15.1739C23.6498 15.0594 23.421 14.4874 23.8786 14.1442C24.3363 13.8009 25.366 13.6865 25.938 14.373C26.5101 15.0594 26.0525 15.4027 25.8236 15.6315C25.8236 15.6315 25.8236 15.6315 25.938 15.6315C26.5101 15.6315 26.6245 14.7162 26.3957 14.2586C26.1669 13.8009 25.2516 13.3433 24.4507 13.5721C23.6498 13.8009 23.3066 14.373 23.5354 14.945C23.421 15.0594 23.5354 15.1739 23.7642 15.1739Z" stroke="#512018" stroke-width="0.0698781" stroke-miterlimit="10" stroke-linecap="round" stroke-linejoin="round"/>
    <path d="M23.7658 15.1732C23.6514 15.0588 23.4226 14.4868 23.8802 14.1435C24.3379 13.8003 25.3676 13.6859 25.9396 14.3724C26.5117 15.0588 26.0541 15.4021 25.8252 15.6309" stroke="#DEA181" stroke-width="0.0698781" stroke-miterlimit="10" stroke-linecap="round" stroke-linejoin="round"/>
    <path d="M25.3672 15.1736C25.4816 15.0592 25.7104 14.9448 25.7104 15.1736C25.8249 15.288 25.596 15.4024 25.596 15.4024" stroke="#DEA181" stroke-width="0.0698781" stroke-miterlimit="10" stroke-linecap="round" stroke-linejoin="round"/>
    <path d="M24.1086 14.9453C24.1086 14.8309 23.9942 14.6021 23.8798 14.6021C23.7653 14.6021 23.7653 14.8309 23.8798 14.9453" stroke="#DEA181" stroke-width="0.0698781" stroke-miterlimit="10" stroke-linecap="round" stroke-linejoin="round"/>
    <path d="M33.9476 16.4326C33.0323 16.3182 32.6891 16.4326 32.5747 16.6614C32.4603 16.8902 32.4603 17.119 32.1171 17.2335C31.7738 17.3479 31.545 17.8055 31.4306 18.0343C31.3162 18.2632 30.7441 18.9496 30.5153 19.1785C30.2865 19.2929 30.0577 19.7505 30.4009 19.8649C30.7441 19.9793 30.5153 20.0937 30.4009 20.0937C30.2865 20.0937 29.6 20.2082 29.6 20.437C29.6 20.6658 28.6847 20.6658 28.5703 20.8946C28.5703 21.1234 29.8288 21.9243 30.4009 22.0387C30.973 22.1531 30.7441 23.1828 31.0873 23.2973C31.4306 23.4117 32.2315 23.8693 32.4603 23.8693C34.4053 23.4117 37.38 21.4667 37.38 20.2081C37.38 18.6064 36.1214 17.0046 35.6638 16.8902C35.2061 16.7758 33.9476 16.4326 33.9476 16.4326Z" fill="#892A0C"/>
    <path d="M35.2051 18.0345C35.2051 18.2633 34.6331 18.8353 34.4043 18.8353C34.2899 18.9497 33.8322 19.4074 33.7178 19.7506C32.5737 20.4371 30.8575 20.0939 30.7431 19.9794C30.7431 19.9794 30.6287 19.7506 30.5143 19.5218C30.2855 18.9497 30.0566 18.1489 30.1711 18.0345C30.2855 17.8056 30.9719 17.5768 31.4296 17.5768C31.7728 17.5768 32.2305 17.92 32.5737 18.0345C32.9169 18.1489 34.061 17.4624 34.5187 17.4624C34.8619 17.4624 35.0907 17.6912 35.0907 17.92L35.2051 18.0345Z" fill="#782201"/>
    <path d="M30.4004 18.6067C30.5148 18.3778 31.2013 18.149 31.5445 18.149C31.8877 18.2634 32.5742 18.6067 32.803 18.4922C33.0318 18.3778 34.0615 17.6914 34.5192 17.8058C34.9768 17.9202 34.8624 17.9202 34.4048 18.0346C34.0616 18.149 33.0319 18.7211 32.6886 18.7211C32.3454 18.7211 31.5445 18.3778 31.3157 18.3778L30.4004 18.6067Z" fill="#B96755"/>
    <path d="M35.2045 18.034C35.2045 18.2628 34.6325 18.8349 34.4037 18.8349C34.2893 18.9493 33.8316 19.4069 33.7172 19.7502C32.5731 20.4366 30.8569 20.0934 30.7425 19.979C30.7425 19.979 30.6281 19.7502 30.5137 19.5213C31.2001 19.7502 33.1451 19.979 33.374 19.5213C33.6028 19.0637 34.1749 18.6061 34.4037 18.4916C34.7469 18.2628 34.9757 18.1484 35.0901 17.8052C35.0901 17.9196 35.2045 18.034 35.2045 18.034Z" fill="#6E1900"/>
    <path d="M35.2051 18.0345C35.2051 18.2633 34.6331 18.8353 34.4043 18.8353C34.2899 18.9497 33.8322 19.4074 33.7178 19.7506C32.5737 20.4371 30.8575 20.0939 30.7431 19.9794C30.7431 19.9794 30.6287 19.7506 30.5143 19.5218C30.2855 18.9497 30.0566 18.1489 30.1711 18.0345C30.2855 17.8056 30.9719 17.5768 31.4296 17.5768C31.7728 17.5768 32.2305 17.92 32.5737 18.0345C32.9169 18.1489 34.061 17.4624 34.5187 17.4624C34.8619 17.4624 35.0907 17.6912 35.0907 17.92L35.2051 18.0345Z" stroke="#631607" stroke-width="0.0698781" stroke-miterlimit="10"/>
    <path d="M31.8881 20.5518C32.117 20.5518 32.4602 21.0094 32.4602 21.0094C32.4602 21.1238 32.8034 21.3526 33.1467 21.4671C33.6043 22.2679 33.3755 23.412 33.2611 23.5264C33.2611 23.5264 33.1467 23.6409 32.9178 23.6409C32.5746 23.7553 32.0026 23.9841 31.8881 23.8697C31.7737 23.7553 31.6593 23.2976 31.5449 23.0688C31.5449 22.84 31.7737 22.4967 31.8881 22.2679C32.0026 22.0391 31.5449 21.2382 31.5449 21.0094C31.5449 20.7806 31.6593 20.6662 31.8881 20.5518Z" fill="#782201"/>
    <path d="M32.2303 23.755C32.1158 23.755 31.887 23.1829 31.887 22.9541C31.887 22.7253 32.1159 22.2676 32.1159 22.1532C32.1159 22.0388 31.6582 21.2379 31.6582 21.0091C31.6582 20.6659 31.7726 20.7803 31.7726 21.0091C31.7726 21.2379 32.2303 21.9244 32.2303 22.1532C32.2303 22.382 32.0015 22.9541 32.0015 23.0685C32.0015 23.1829 32.3447 23.755 32.2303 23.755Z" fill="#B96755"/>
    <path d="M31.8877 20.5518C32.1165 20.5518 32.4598 21.0094 32.4598 21.0094C32.4598 21.1238 32.803 21.3526 33.1462 21.4671C33.6039 22.2679 33.3751 23.412 33.2606 23.5264C33.2606 23.5264 33.1462 23.6409 32.9174 23.6409C33.0318 23.1832 33.2606 21.9247 32.9174 21.6959C32.6886 21.5815 32.3453 21.1238 32.2309 21.0094C32.1165 20.7806 32.0021 20.6662 31.8877 20.5518Z" fill="#6E1900"/>
    <path d="M31.8881 20.5518C32.117 20.5518 32.4602 21.0094 32.4602 21.0094C32.4602 21.1238 32.8034 21.3526 33.1467 21.4671C33.6043 22.2679 33.3755 23.412 33.2611 23.5264C33.2611 23.5264 33.1467 23.6409 32.9178 23.6409C32.5746 23.7553 32.0026 23.9841 31.8881 23.8697C31.7737 23.7553 31.6593 23.2976 31.5449 23.0688C31.5449 22.84 31.7737 22.4967 31.8881 22.2679C32.0026 22.0391 31.5449 21.2382 31.5449 21.0094C31.5449 20.7806 31.6593 20.6662 31.8881 20.5518Z" stroke="#631607" stroke-width="0.0698781" stroke-miterlimit="10"/>
    <path d="M37.6074 19.98C37.3786 20.3232 37.1498 20.552 36.921 20.552C36.6921 20.552 36.4633 20.4376 36.3489 20.2088C36.2345 19.8655 36.0057 19.7511 35.8913 19.4079C35.7769 19.0647 36.0057 18.035 35.8913 17.5773C35.7769 17.1197 34.8616 16.8909 34.5183 16.8909C34.1751 16.8909 33.8319 16.7764 33.9463 16.5476C34.1751 15.8612 36.1201 16.3188 36.5778 16.5476C36.921 16.7764 37.0354 17.9206 37.2642 18.035C37.493 18.2638 38.0651 19.0647 37.6074 19.98Z" fill="#7F2801"/>
    <path d="M37.6076 19.9796C37.3788 20.3229 37.1499 20.5517 36.9211 20.5517C37.1499 20.094 37.3788 19.2932 37.2644 18.9499C37.2644 18.6067 36.8067 18.2635 36.5779 18.0346C36.3491 17.9202 36.4635 16.8905 36.1203 16.5473C35.6626 16.3185 34.4041 16.3185 33.832 16.4329C34.0609 15.7464 36.0058 16.204 36.4635 16.4329C36.8067 16.6617 36.9211 17.8058 37.15 17.9202C37.4932 18.2634 38.0652 19.0643 37.6076 19.9796Z" fill="#6E1900"/>
    <path d="M34.5176 16.6614C34.5176 16.7758 35.6617 16.8903 35.7761 17.0047C35.8905 17.0047 36.0049 17.5767 36.0049 17.92C36.0049 18.2632 36.4626 18.7208 36.577 18.9497C36.6914 19.1785 36.577 19.8649 36.6914 19.9794C36.8058 19.9794 36.8058 18.9497 36.6914 18.7208C36.577 18.492 36.1194 18.1488 36.1194 18.0344C36.1194 17.92 35.8905 16.8903 35.7761 16.7758C35.7761 16.7758 34.632 16.547 34.5176 16.6614Z" fill="#B96755"/>
    <path d="M37.6074 19.98C37.3786 20.3232 37.1498 20.552 36.921 20.552C36.6921 20.552 36.4633 20.4376 36.3489 20.2088C36.2345 19.8655 36.0057 19.7511 35.8913 19.4079C35.7769 19.0647 36.0057 18.035 35.8913 17.5773C35.7769 17.1197 34.8616 16.8909 34.5183 16.8909C34.1751 16.8909 33.8319 16.7764 33.9463 16.5476C34.1751 15.8612 36.1201 16.3188 36.5778 16.5476C36.921 16.7764 37.0354 17.9206 37.2642 18.035C37.493 18.2638 38.0651 19.0647 37.6074 19.98Z" stroke="#631607" stroke-width="0.0698781" stroke-miterlimit="10"/>
    <path d="M30.288 21.6957C30.4024 21.5813 31.2032 21.8101 31.7753 22.0389C32.3473 22.1534 33.0338 22.0389 33.377 21.9245C33.7203 21.8101 34.5212 22.2678 34.9788 22.0389C35.0932 21.9245 35.2076 21.8101 35.322 21.5813C35.4365 21.0092 35.322 20.0939 35.322 20.0939C35.322 20.0939 34.9788 19.7507 34.4068 19.9795C33.9491 20.2084 33.4915 20.0939 33.0338 20.0939C32.5762 20.0939 32.3474 20.4372 32.1185 20.5516C31.8897 20.666 31.0888 20.3228 30.5168 20.3228C30.5168 20.3228 30.4024 20.8948 30.288 21.2381C30.1735 21.4669 30.1735 21.6957 30.288 21.6957Z" fill="#782201"/>
    <path d="M30.288 21.6955C30.4025 21.5811 31.2033 21.8099 31.7754 22.0388C32.3474 22.1532 33.0339 22.0387 33.3771 21.9243C33.7204 21.8099 34.5213 22.2676 34.9789 22.0388C35.0933 21.9243 35.2077 21.8099 35.3221 21.5811C34.8645 21.6955 33.9492 21.2379 33.606 21.2379C33.2627 21.2379 32.5762 21.5811 32.233 21.5811C31.8898 21.6955 30.7457 21.1235 30.4025 21.2379C30.1736 21.4667 30.1736 21.6955 30.288 21.6955Z" fill="#6E1900"/>
    <path d="M30.8607 20.5512C31.2039 20.5512 31.776 20.7801 32.1192 20.6657C32.4625 20.5512 32.8057 20.3224 32.9201 20.208C33.1489 20.208 33.721 20.3224 34.0642 20.3224C34.4074 20.3224 34.6363 20.208 34.7507 20.208C34.8651 20.208 35.0939 20.3224 35.0939 20.3224C35.0939 20.3224 34.8651 20.208 34.6362 20.3224C34.4074 20.4368 33.8354 20.4368 33.6065 20.4368C33.3777 20.4368 33.0345 20.3224 32.9201 20.4368C32.8057 20.5512 32.348 20.7801 32.1192 20.7801C31.8904 20.7801 30.6319 20.5512 30.8607 20.5512Z" fill="#B96755"/>
    <path d="M30.288 21.6957C30.4024 21.5813 31.2032 21.8101 31.7753 22.0389C32.3473 22.1534 33.0338 22.0389 33.377 21.9245C33.7203 21.8101 34.5212 22.2678 34.9788 22.0389C35.0932 21.9245 35.2076 21.8101 35.322 21.5813C35.4365 21.0092 35.322 20.0939 35.322 20.0939C35.322 20.0939 34.9788 19.7507 34.4068 19.9795C33.9491 20.2084 33.4915 20.0939 33.0338 20.0939C32.5762 20.0939 32.3474 20.4372 32.1185 20.5516C31.8897 20.666 31.0888 20.3228 30.5168 20.3228C30.5168 20.3228 30.4024 20.8948 30.288 21.2381C30.1735 21.4669 30.1735 21.6957 30.288 21.6957Z" stroke="#631607" stroke-width="0.0698781" stroke-miterlimit="10"/>
    <path d="M37.2644 19.8647C37.0356 19.8647 36.6924 20.5511 36.3491 21.0088C36.0059 21.4664 35.4339 21.8097 34.9762 21.9241C34.633 22.0385 34.4042 22.9538 33.8321 23.0682C33.7177 23.0682 33.4889 23.0682 33.26 22.8394C32.8024 22.4961 32.3447 21.8097 32.3447 21.8097C32.3447 21.8097 32.4591 21.352 32.9168 21.1232C33.4888 21.0088 33.7177 20.6655 33.9465 20.3223C34.2897 19.9791 34.7474 20.0935 34.9762 19.9791C35.205 19.8647 35.6627 19.1782 36.0059 18.835C36.0059 18.835 36.4635 19.1782 36.8068 19.407C37.15 19.6358 37.3788 19.8647 37.2644 19.8647Z" fill="#782201"/>
    <path d="M37.2642 19.8644C37.0353 19.8644 36.6921 20.5509 36.3488 21.0085C36.0056 21.4661 35.4336 21.8094 34.9759 21.9238C34.6327 22.0382 34.4039 22.9535 33.8318 23.0679C33.7174 23.0679 33.4886 23.0679 33.2598 22.8391C33.7174 22.6103 34.0606 21.695 34.4039 21.4661C34.6327 21.2373 35.4336 21.0085 35.7768 20.8941C36.12 20.7797 36.5777 19.6356 36.9209 19.4067C37.1497 19.6356 37.3786 19.8644 37.2642 19.8644Z" fill="#6E1900"/>
    <path d="M36.1202 19.2921C35.8914 19.5209 35.5482 19.9785 35.2049 20.2073C34.8617 20.4362 34.4041 20.3218 34.2896 20.4362C34.1752 20.5506 33.7176 21.0082 33.4887 21.237C33.1455 21.4659 32.9167 21.4659 32.9167 21.6947C32.8023 21.8091 32.6879 22.0379 32.8023 22.0379C32.9167 22.0379 32.9167 21.8091 33.1455 21.6947C33.3743 21.5803 33.832 21.2371 33.9464 21.0082C34.1752 20.7794 34.2896 20.5506 34.4041 20.5506C34.5185 20.5506 34.9761 20.4362 35.2049 20.3218C35.4337 20.2074 36.2346 19.1776 36.1202 19.2921Z" fill="#B96755"/>
    <path d="M37.2644 19.8647C37.0356 19.8647 36.6924 20.5511 36.3491 21.0088C36.0059 21.4664 35.4339 21.8097 34.9762 21.9241C34.633 22.0385 34.4042 22.9538 33.8321 23.0682C33.7177 23.0682 33.4889 23.0682 33.26 22.8394C32.8024 22.4961 32.3447 21.8097 32.3447 21.8097C32.3447 21.8097 32.4591 21.352 32.9168 21.1232C33.4888 21.0088 33.7177 20.6655 33.9465 20.3223C34.2897 19.9791 34.7474 20.0935 34.9762 19.9791C35.205 19.8647 35.6627 19.1782 36.0059 18.835C36.0059 18.835 36.4635 19.1782 36.8068 19.407C37.15 19.6358 37.3788 19.8647 37.2644 19.8647Z" stroke="#631607" stroke-width="0.0698781" stroke-miterlimit="10"/>
    <path d="M33.1476 15.8608C33.3764 15.8608 33.6052 15.9752 33.7197 16.0897C33.7197 16.2041 33.8341 16.2041 33.8341 16.3185C33.8341 16.4329 33.9485 16.4329 33.9485 16.5473C33.9485 16.7761 33.7196 17.1194 33.6052 17.2338C33.3764 17.3482 32.9188 17.1194 32.4611 17.577C32.0035 17.9202 31.4314 18.4923 31.0882 18.3779C30.9738 18.2635 30.9738 18.2635 30.9738 18.1491C30.8594 17.8058 31.0882 17.4626 31.317 17.3482C31.5458 17.1194 31.8891 16.0897 32.0035 15.9752C32.2323 15.7464 32.8044 15.9753 33.1476 15.8608Z" fill="#782201"/>
    <path d="M33.1476 15.8607C33.3764 15.8607 33.6052 15.9751 33.7197 16.0895C33.4908 15.9751 33.262 15.9751 33.1476 16.0895C32.9188 16.0895 32.2323 16.0895 32.1179 16.0895C32.0035 16.0895 31.6603 17.1192 31.5458 17.348C31.4314 17.5768 30.9738 17.8057 30.9738 18.0345C30.8594 17.6912 31.0882 17.348 31.317 17.2336C31.5458 17.0048 31.8891 15.9751 32.0035 15.8607C32.2323 15.7463 32.8044 15.9751 33.1476 15.8607Z" fill="#6E1900"/>
    <path d="M33.9491 16.5474C33.9491 16.7762 33.7203 17.1194 33.6059 17.2338C33.3771 17.3482 32.9195 17.1194 32.4618 17.5771C32.0042 17.9203 31.4321 18.4924 31.0889 18.3779C31.2033 18.3779 32.3474 17.4627 32.4618 17.3482C32.5762 17.2338 33.1483 17.2338 33.2627 17.2338C33.3771 17.1194 33.8347 16.8906 33.9491 16.5474Z" fill="#B96755"/>
    <path d="M33.1476 15.8608C33.3764 15.8608 33.6052 15.9752 33.7197 16.0897C33.7197 16.2041 33.8341 16.2041 33.8341 16.3185C33.8341 16.4329 33.9485 16.4329 33.9485 16.5473C33.9485 16.7761 33.7196 17.1194 33.6052 17.2338C33.3764 17.3482 32.9188 17.1194 32.4611 17.577C32.0035 17.9202 31.4314 18.4923 31.0882 18.3779C30.9738 18.2635 30.9738 18.2635 30.9738 18.1491C30.8594 17.8058 31.0882 17.4626 31.317 17.3482C31.5458 17.1194 31.8891 16.0897 32.0035 15.9752C32.2323 15.7464 32.8044 15.9753 33.1476 15.8608Z" stroke="#631607" stroke-width="0.0698781" stroke-miterlimit="10"/>
    <path d="M23.5373 17.9199C23.7662 18.0343 24.2238 18.2631 24.7958 17.6911C24.567 17.0046 24.567 16.5469 24.7958 16.3181C24.7958 16.3181 24.6814 16.7758 25.1391 16.7758C25.1391 16.7758 25.1391 16.7758 25.2535 16.7758C25.8256 16.6614 25.94 15.8605 25.5967 15.4028C25.2535 14.9452 24.3382 14.4875 23.5373 14.8308C22.7365 15.174 22.5076 15.7461 22.7364 16.2037C22.8509 16.4325 23.0797 16.5469 23.1941 16.5469C23.3085 16.5469 23.4229 16.4325 23.5373 16.3181C23.6517 16.4325 23.7662 17.4622 23.5373 17.9199Z" fill="#EDD5A0"/>
    <path d="M23.1941 16.4322C23.0797 16.3178 22.8508 15.7457 23.1941 15.4025C23.5373 15.0593 24.6814 14.8304 25.2535 15.4025C25.8256 16.089 25.4823 16.4322 25.1391 16.661C25.1391 16.661 25.1391 16.661 25.2535 16.661C25.8256 16.5466 25.94 15.7457 25.5967 15.2881C25.2535 14.8304 24.3382 14.3728 23.5373 14.716C22.7365 15.0593 22.5076 15.6313 22.7364 16.089C22.8509 16.4322 22.9653 16.5466 23.1941 16.4322Z" fill="#6F3124"/>
    <path d="M24.5676 15.1738C24.5676 15.2882 24.2243 15.1738 23.8811 15.4026C23.5379 15.6315 23.4235 15.7459 23.3091 15.6315C23.1946 15.5171 23.4235 15.2882 23.7667 15.1738C24.1099 15.1738 24.4532 15.1738 24.5676 15.1738Z" fill="white"/>
    <path d="M23.5373 17.9199C23.7662 18.0343 24.2238 18.2631 24.7958 17.6911C24.567 17.0046 24.567 16.5469 24.7958 16.3181C24.7958 16.3181 24.6814 16.7758 25.1391 16.7758C25.1391 16.7758 25.1391 16.7758 25.2535 16.7758C25.8256 16.6614 25.94 15.8605 25.5967 15.4028C25.2535 14.9452 24.3382 14.4875 23.5373 14.8308C22.7365 15.174 22.5076 15.7461 22.7364 16.2037C22.8509 16.4325 23.0797 16.5469 23.1941 16.5469C23.3085 16.5469 23.4229 16.4325 23.5373 16.3181C23.6517 16.4325 23.7662 17.4622 23.5373 17.9199Z" stroke="#DEA181" stroke-width="0.0698781" stroke-miterlimit="10" stroke-linecap="round" stroke-linejoin="round"/>
    <path d="M23.1941 16.4322C23.0797 16.3178 22.8508 15.7457 23.1941 15.4025C23.5373 15.0593 24.6814 14.8304 25.2535 15.4025C25.8256 16.089 25.4823 16.4322 25.1391 16.661C25.1391 16.661 25.1391 16.661 25.2535 16.661C25.8256 16.5466 25.94 15.7457 25.5967 15.2881C25.2535 14.8304 24.3382 14.3728 23.5373 14.716C22.7365 15.0593 22.5076 15.6313 22.7364 16.089C22.8509 16.4322 22.9653 16.5466 23.1941 16.4322Z" stroke="#512018" stroke-width="0.0698781" stroke-miterlimit="10" stroke-linecap="round" stroke-linejoin="round"/>
    <path d="M23.195 16.4328C23.0805 16.3184 22.8517 15.7464 23.195 15.4031C23.5382 15.0599 24.6823 14.8311 25.2544 15.4031C25.8264 16.0896 25.4832 16.4328 25.14 16.6616" stroke="#DEA181" stroke-width="0.0698781" stroke-miterlimit="10" stroke-linecap="round" stroke-linejoin="round"/>
    <path d="M24.7949 16.3181C24.9093 16.2036 25.1382 16.0892 25.1382 16.2036C25.1382 16.3181 25.0238 16.4325 25.0238 16.4325" stroke="#DEA181" stroke-width="0.0698781" stroke-miterlimit="10" stroke-linecap="round" stroke-linejoin="round"/>
    <path d="M23.5365 16.2041C23.5365 16.0897 23.3076 15.8608 23.1932 15.8608C23.0788 15.8608 23.0788 16.0897 23.1932 16.2041" stroke="#DEA181" stroke-width="0.0698781" stroke-miterlimit="10" stroke-linecap="round" stroke-linejoin="round"/>
    <path d="M27.4808 19.104C27.5249 17.9675 26.0763 16.9887 24.2453 16.9178C22.4143 16.8468 20.8943 17.7105 20.8503 18.847C20.8062 19.9835 22.2548 20.9623 24.0858 21.0333C25.9168 21.1043 27.4368 20.2405 27.4808 19.104Z" fill="#F79C27"/>
    <path d="M23.7647 20.7794C25.5953 20.8938 27.1971 20.0929 27.3115 18.9488C27.3115 18.4912 27.1971 18.1479 26.9683 17.8047V17.9191C26.8539 19.0632 25.2521 19.8641 23.4215 19.7497C22.2774 19.6353 21.2477 19.1776 20.79 18.6056C20.79 19.7497 22.0486 20.665 23.7647 20.7794Z" fill="#EE7901"/>
    <path d="M21.9344 17.4621C22.5064 17.0044 23.5361 16.7756 24.337 16.89C24.9091 17.0044 24.5658 17.2332 24.1082 17.1188C23.6505 17.1188 22.7353 17.1188 22.392 17.3476C21.9344 17.8053 21.5911 17.8053 21.9344 17.4621Z" fill="white"/>
    <path d="M27.1878 19.0606C27.2319 17.9241 25.7833 16.9453 23.9523 16.8743C22.1214 16.8034 20.6014 17.6671 20.5573 18.8036C20.5132 19.9401 21.9618 20.9189 23.7928 20.9898C25.6238 21.0608 27.1438 20.1971 27.1878 19.0606Z" stroke="#FF6A17" stroke-width="0.2758" stroke-miterlimit="9.998"/>
    <path d="M27.0813 23.526C26.9669 23.6404 26.7381 23.0684 26.8525 23.0684C26.9669 23.0684 27.0813 23.0684 27.0813 23.0684C27.0813 23.0684 27.1957 23.526 27.0813 23.526Z" fill="#414042"/>
    <path d="M27.0813 23.526C26.9669 23.6404 26.7381 23.0684 26.8525 23.0684C26.9669 23.0684 27.0813 23.0684 27.0813 23.0684C27.0813 23.0684 27.1957 23.526 27.0813 23.526Z" stroke="#231F20" stroke-width="0.0698781" stroke-miterlimit="10" stroke-linecap="round" stroke-linejoin="round"/>
    <path d="M19.4186 15.2874C19.4186 15.4018 18.9609 15.2874 18.9609 15.173C18.9609 15.0586 18.9609 15.0586 19.0753 15.0586C19.1897 15.0586 19.4186 15.173 19.4186 15.2874Z" fill="#414042"/>
    <path d="M19.4186 15.2874C19.4186 15.4018 18.9609 15.2874 18.9609 15.173C18.9609 15.0586 18.9609 15.0586 19.0753 15.0586C19.1897 15.0586 19.4186 15.173 19.4186 15.2874Z" stroke="#231F20" stroke-width="0.0698781" stroke-miterlimit="10" stroke-linecap="round" stroke-linejoin="round"/>
    <path d="M28.9137 19.0635C28.9137 19.178 28.4561 19.178 28.4561 19.178C28.4561 19.0636 28.4561 19.0635 28.5705 19.0635C28.5705 18.9491 28.9137 19.0635 28.9137 19.0635Z" fill="#414042"/>
    <path d="M28.9137 19.0635C28.9137 19.178 28.4561 19.178 28.4561 19.178C28.4561 19.0636 28.4561 19.0635 28.5705 19.0635C28.5705 18.9491 28.9137 19.0635 28.9137 19.0635Z" stroke="#231F20" stroke-width="0.0698781" stroke-miterlimit="10" stroke-linecap="round" stroke-linejoin="round"/>
    <path d="M31.6594 16.6611C31.545 16.7755 31.3162 16.3179 31.4306 16.3179C31.545 16.3179 31.545 16.3179 31.6594 16.3179C31.545 16.3179 31.6594 16.6611 31.6594 16.6611Z" fill="#414042"/>
    <path d="M31.6594 16.6611C31.545 16.7755 31.3162 16.3179 31.4306 16.3179C31.545 16.3179 31.545 16.3179 31.6594 16.3179C31.545 16.3179 31.6594 16.6611 31.6594 16.6611Z" stroke="#231F20" stroke-width="0.0698781" stroke-miterlimit="10" stroke-linecap="round" stroke-linejoin="round"/>
    <path d="M28.3417 15.0596C28.4561 15.0596 28.4561 15.5172 28.4561 15.5172C28.3417 15.5172 28.3417 15.5172 28.3417 15.5172C28.2273 15.4028 28.2273 15.0596 28.3417 15.0596Z" fill="#414042"/>
    <path d="M28.3417 15.0596C28.4561 15.0596 28.4561 15.5172 28.4561 15.5172C28.3417 15.5172 28.3417 15.5172 28.3417 15.5172C28.2273 15.4028 28.2273 15.0596 28.3417 15.0596Z" stroke="#231F20" stroke-width="0.0698781" stroke-miterlimit="10" stroke-linecap="round" stroke-linejoin="round"/>
    <path d="M32.9186 20.2082C32.8042 20.2082 32.6898 19.865 32.8042 19.7506C32.9186 19.6361 32.9186 19.7506 32.9186 19.7506C33.0331 19.865 33.0331 20.2082 32.9186 20.2082Z" fill="#414042"/>
    <path d="M32.9186 20.2082C32.8042 20.2082 32.6898 19.865 32.8042 19.7506C32.9186 19.6361 32.9186 19.7506 32.9186 19.7506C33.0331 19.865 33.0331 20.2082 32.9186 20.2082Z" stroke="#231F20" stroke-width="0.0698781" stroke-miterlimit="10" stroke-linecap="round" stroke-linejoin="round"/>
    <path d="M35.4352 18.2634C35.3208 18.2634 35.2064 17.9201 35.3208 17.8057C35.4352 17.6913 35.4352 17.8057 35.4352 17.8057C35.4352 17.8057 35.5497 18.2634 35.4352 18.2634Z" fill="#414042"/>
    <path d="M35.4352 18.2634C35.3208 18.2634 35.2064 17.9201 35.3208 17.8057C35.4352 17.6913 35.4352 17.8057 35.4352 17.8057C35.4352 17.8057 35.5497 18.2634 35.4352 18.2634Z" stroke="#231F20" stroke-width="0.0698781" stroke-miterlimit="10" stroke-linecap="round" stroke-linejoin="round"/>
    <path d="M24.4518 15.5176C24.4518 15.6321 23.9941 15.6321 23.9941 15.6321C23.9941 15.5176 23.9941 15.5176 24.1086 15.5176C24.223 15.5176 24.4518 15.4032 24.4518 15.5176Z" fill="#414042"/>
    <path d="M24.4518 15.5176C24.4518 15.6321 23.9941 15.6321 23.9941 15.6321C23.9941 15.5176 23.9941 15.5176 24.1086 15.5176C24.223 15.5176 24.4518 15.4032 24.4518 15.5176Z" stroke="#231F20" stroke-width="0.0698781" stroke-miterlimit="10" stroke-linecap="round" stroke-linejoin="round"/>
    <path d="M21.1336 24.2121C21.0192 24.0977 21.4768 23.8689 21.4768 23.9833C21.4768 24.0977 21.4768 24.0977 21.4768 24.2121C21.4768 24.2121 21.248 24.3266 21.1336 24.2121Z" fill="#414042"/>
    <path d="M21.1336 24.2121C21.0192 24.0977 21.4768 23.8689 21.4768 23.9833C21.4768 24.0977 21.4768 24.0977 21.4768 24.2121C21.4768 24.2121 21.248 24.3266 21.1336 24.2121Z" stroke="#231F20" stroke-width="0.0698781" stroke-miterlimit="10" stroke-linecap="round" stroke-linejoin="round"/>
    <path d="M18.5035 22.8392C18.5035 22.9536 18.0459 22.7248 18.0459 22.7248C18.0459 22.6103 18.1603 22.6104 18.1603 22.6104C18.2747 22.6104 18.5035 22.8392 18.5035 22.8392Z" fill="#414042"/>
    <path d="M18.5035 22.8392C18.5035 22.9536 18.0459 22.7248 18.0459 22.7248C18.0459 22.6103 18.1603 22.6104 18.1603 22.6104C18.2747 22.6104 18.5035 22.8392 18.5035 22.8392Z" stroke="#231F20" stroke-width="0.0698781" stroke-miterlimit="10" stroke-linecap="round" stroke-linejoin="round"/>
    <path d="M27.3124 34.5091H20.7909C20.4477 34.5091 20.1045 34.1659 20.1045 33.8227V32.793H27.9989V33.8227C27.9989 34.1659 27.6556 34.5091 27.3124 34.5091Z" fill="#823A3A"/>
    <path d="M22.5068 17.5766C22.9645 17.2334 23.5366 17.2334 23.9942 17.4622C24.4518 17.691 24.9095 18.1487 25.0239 18.6063C24.7951 18.4919 24.5662 18.3775 24.3374 18.2631C24.1086 18.1487 23.9942 18.0343 23.7654 17.9198C23.3077 17.8054 22.9645 17.691 22.5068 17.5766Z" fill="#823A3A"/>
    <path d="M23.5369 18.7204C23.1937 18.4916 23.3081 17.9195 23.5369 17.5763C23.6513 17.4619 23.7658 17.3475 23.9946 17.2331C24.109 17.1187 24.3378 17.1187 24.5666 17.1187C24.3378 17.4619 24.2234 17.6907 24.109 17.9195C23.7658 18.1484 23.6513 18.2628 23.5369 18.7204Z" fill="#823A3A"/>
</svg>
