<svg width="48" height="48" viewBox="0 0 48 48" fill="none" xmlns="http://www.w3.org/2000/svg">
    <rect width="48" height="48" rx="24" fill="#95E1F6"/>
    <path opacity="0.2" d="M39.9994 32.855C39.9994 35.6812 33.5228 37.9186 25.2797 37.9186C21.276 37.9186 17.5077 37.3298 14.917 36.5055C12.2086 35.5634 10.6777 34.3859 10.6777 32.9728C10.6777 30.1466 17.1544 27.9092 25.3975 27.9092C31.4031 27.9092 36.5845 29.2045 38.8219 30.9709C39.5284 31.5597 39.9994 32.2662 39.9994 32.855Z" fill="#3A3A3A"/>
    <path fill-rule="evenodd" clip-rule="evenodd" d="M10.2064 24.0239C17.6252 17.4295 28.6944 17.0762 36.4664 23.3174C43.5319 35.682 13.1504 42.2764 8.55784 31.0894C7.61578 28.7343 8.55783 26.0258 10.2064 24.0239Z" fill="#FFBF66" stroke="#823A3A" stroke-width="0.6938" stroke-miterlimit="10"/>
    <path d="M20.57 37.0945C19.8634 37.0945 19.0391 37.0945 18.3326 36.9767C15.9774 36.7412 13.8578 36.2702 12.2092 35.2103C10.325 34.2683 9.0297 32.8552 8.44091 31.0888C7.96988 29.9112 7.85214 28.6159 8.20542 27.3206C8.55869 26.143 9.14745 24.9654 10.0895 23.7878C13.74 20.4906 18.3326 18.7242 23.2784 18.6065C28.2242 18.4887 32.8168 20.1373 36.7028 23.199C36.7028 23.199 36.7028 23.199 36.7028 23.3168C38.1159 25.7897 38.1159 28.3804 36.7028 30.6178C35.2897 32.8552 32.5812 34.6215 29.0485 35.7991C26.3401 36.7412 23.2784 37.0945 20.57 37.0945ZM10.325 24.2589C8.44092 26.3785 7.85214 28.9692 8.67644 31.0888C9.97177 34.2683 13.3868 36.1524 18.2148 36.6234C21.6298 36.9767 25.398 36.5057 28.6953 35.4458C32.228 34.2683 34.8186 32.5019 36.114 30.3823C37.4093 28.2626 37.5271 26.0252 36.114 23.6701C28.6952 17.4289 17.7438 17.6644 10.325 24.2589Z" fill="#650001"/>
    <path fill-rule="evenodd" clip-rule="evenodd" d="M17.1562 19.5484C22.102 17.8998 27.2833 17.782 32.1114 19.4306C34.4666 20.0194 36.2329 21.7858 36.7039 24.2587C37.175 26.6138 36.1152 29.0867 34.231 30.3821C33.9955 30.4998 33.8778 30.3821 33.6422 30.2643C33.6422 30.8531 33.289 31.2064 32.7002 31.5597C26.3413 35.4457 18.5693 36.1522 11.8571 32.855C11.6215 32.7372 11.6216 32.384 11.7393 32.1484C10.915 32.2662 9.73745 31.6774 9.38418 30.4998C7.97108 26.3783 10.6795 22.139 14.801 20.8437C15.1543 20.726 15.3898 20.726 15.5076 20.8437C15.7431 20.2549 16.2141 19.7839 17.1562 19.5484Z" fill="#FFBF66"/>
    <path d="M20.9238 35.3285C17.7444 35.3285 14.5649 34.6219 11.7388 33.2088C11.5032 33.0911 11.3855 32.9733 11.3855 32.5023C10.5612 32.5023 9.38358 31.7957 9.0303 30.6181C8.32376 28.734 8.44151 26.8499 9.50133 24.9658C10.4434 22.8461 12.4453 21.3153 14.6827 20.6087C14.9182 20.491 15.1537 20.491 15.3892 20.491C15.6247 19.9022 16.0958 19.6667 17.0379 19.3134C19.393 18.4891 22.1014 18.0181 24.5743 18.0181C27.165 18.0181 29.6379 18.4891 32.1108 19.1956C34.466 19.7844 36.3501 21.6686 36.9389 24.1415C37.1744 25.3191 37.0566 26.6144 36.5856 27.792C36.1146 28.9695 35.408 29.9116 34.3482 30.5004C34.2305 30.6182 34.1127 30.6182 33.8772 30.5004C33.7594 30.9714 33.4062 31.3247 32.9351 31.678C29.7557 33.6799 26.2229 34.8574 22.5724 35.0929C21.9837 35.2107 21.5126 35.3285 20.9238 35.3285ZM11.7388 32.0312C11.8565 32.149 11.9742 32.2668 11.9742 32.3845C11.8565 32.7378 11.9742 32.8555 11.9742 32.9733C18.4509 36.1528 26.3407 35.564 32.5818 31.678C33.1706 31.3247 33.2884 30.9714 33.4062 30.6181C33.4062 30.5004 33.5239 30.5004 33.5239 30.3826C33.5239 30.2649 33.6417 30.3826 33.7594 30.3826L33.995 30.5004C35.8791 29.3228 36.8211 26.8499 36.3501 24.6125C35.8791 22.3751 34.1127 20.6087 31.8753 20.02C27.165 18.3713 21.8659 18.3713 17.0379 20.1377C16.2135 20.491 15.7425 20.8443 15.6247 21.1975C15.6247 21.3153 15.507 21.433 15.3892 21.3153C15.1537 21.1975 14.9182 21.1975 14.6827 21.3153C12.4453 22.0218 10.7967 23.5527 9.73686 25.4368C8.91255 27.0854 8.79481 29.0873 9.3836 30.7359C9.97239 31.5602 10.9144 32.149 11.7388 32.0312Z" fill="#650001"/>
    <g opacity="0.5">
        <path fill-rule="evenodd" clip-rule="evenodd" d="M11.7385 30.1462C15.2713 26.6135 16.6843 23.6695 15.9778 21.4321C11.1497 23.6695 9.73666 26.6135 11.7385 30.1462Z" fill="white"/>
    </g>
    <g opacity="0.5">
        <path fill-rule="evenodd" clip-rule="evenodd" d="M12.4453 31.0884C18.3332 27.4379 25.6342 26.7313 32.1109 29.2042C29.2847 31.5594 25.8697 32.8547 22.337 33.0903C22.6903 33.0903 22.808 33.208 22.808 33.3258C22.808 33.4435 22.337 33.5613 21.9837 33.5613C21.3949 33.5613 21.0416 33.4435 21.0416 33.3258C21.0416 33.208 21.1594 33.208 21.3949 33.0903C18.3332 33.4435 15.1537 32.6192 12.4453 31.0884Z" fill="white"/>
    </g>
    <g opacity="0.5">
        <path fill-rule="evenodd" clip-rule="evenodd" d="M29.8715 28.1447C28.8117 25.3185 29.0472 22.7278 30.4603 20.2549C32.2267 20.7259 33.6398 21.9035 34.1108 23.5521C34.6996 25.2007 34.3463 27.0848 33.2865 28.4979C31.8734 27.7914 30.5781 27.6736 29.8715 28.1447Z" fill="white"/>
    </g>
    <g opacity="0.3">
        <path fill-rule="evenodd" clip-rule="evenodd" d="M11.6201 29.9111C11.7379 29.9111 11.7379 29.9111 11.8556 29.9111H11.6201C11.7379 30.0289 11.6201 30.0289 11.6201 29.9111Z" fill="#650001"/>
    </g>
    <path fill-rule="evenodd" clip-rule="evenodd" d="M28.2246 19.9016C29.2844 19.9016 29.9909 19.9016 30.3442 19.7838C30.1087 20.2548 30.2265 20.6081 30.462 20.7259C33.7592 21.5502 34.7013 25.7895 32.2284 28.1446C31.9928 28.3801 31.9928 28.7334 31.9928 28.8512C31.7573 28.8512 31.5218 29.0867 31.2863 29.2044C26.1049 32.8549 19.1572 33.4437 13.2694 30.6175C13.0338 30.4998 12.6806 30.4998 12.445 30.4998C12.5628 30.1465 12.5628 29.7932 12.3273 29.6755C10.2077 27.2026 11.1497 24.1409 15.7423 21.4324C19.5105 19.5483 23.9853 19.3128 28.2246 19.9016Z" fill="#FFBF66"/>
    <path d="M21.1589 32.855C18.4504 32.855 15.8598 32.2662 13.2691 30.9709C13.0336 30.8531 12.7981 30.8531 12.5625 30.9709C12.4448 30.9709 12.327 30.9709 12.327 30.8531C12.2093 30.7353 12.2093 30.7353 12.327 30.6176C12.4448 30.2643 12.327 30.1466 12.327 30.0288C11.5027 28.969 11.1494 27.7914 11.2672 26.4961C11.6205 24.7297 13.1513 22.8456 15.742 21.4325C19.9813 18.9596 24.8094 19.0773 28.1066 19.5484C29.4019 19.5484 29.9907 19.5484 30.2262 19.4306C30.344 19.4306 30.4617 19.4306 30.4617 19.5484C30.5795 19.6661 30.5795 19.6661 30.4617 19.7839C30.2262 20.3727 30.4617 20.4904 30.4617 20.4904C32.1103 20.9615 33.2879 22.139 33.6412 23.7876C34.1122 25.4362 33.5234 27.2026 32.2281 28.2624C32.1103 28.3802 31.9926 28.6157 31.9926 28.969C31.9926 29.0867 31.8748 29.2045 31.7571 29.2045C31.5216 29.2045 31.4038 29.3222 31.286 29.44C28.4598 31.7952 24.8094 32.855 21.1589 32.855ZM12.9158 30.4998C13.1513 30.4998 13.3869 30.4998 13.5046 30.6176C19.2747 33.4438 25.9869 32.855 31.1683 29.2045C31.286 29.0867 31.5215 28.969 31.6393 28.8512C31.6393 28.4979 31.757 28.1447 31.9926 28.1447C33.1701 27.0849 33.6412 25.554 33.2879 24.1409C32.9346 22.7278 31.8748 21.5502 30.344 21.197C30.344 21.197 30.344 21.197 30.2262 21.197C29.9907 21.0792 29.7552 20.7259 29.8729 20.3727C29.4019 20.3727 28.9309 20.3727 27.9888 20.3727C24.6916 19.7839 19.9813 19.6661 15.742 22.139C13.2691 23.6699 11.856 25.3185 11.5027 26.9671C11.2672 28.0269 11.6205 29.0867 12.4448 30.0288C12.798 29.911 13.0336 30.1466 12.9158 30.4998Z" fill="#650001"/>
    <g opacity="0.3">
        <path fill-rule="evenodd" clip-rule="evenodd" d="M14.5651 30.5L14.8006 30.3822C14.6829 30.5 14.5651 30.5 14.5651 30.5ZM20.453 30.0289C21.3951 29.9112 22.3371 30.3822 22.4549 30.8532C22.4549 31.442 21.7483 31.9131 20.6885 32.0308C19.7464 32.1486 18.8044 31.6775 18.6866 31.2065C18.8044 30.7355 19.5109 30.1467 20.453 30.0289ZM18.0979 25.6719C18.9222 25.5541 19.6287 25.9074 19.7465 26.3785C19.7465 26.8495 19.0399 27.2027 18.3333 27.3205C17.509 27.4383 16.8025 27.085 16.6847 26.614C16.567 26.2607 17.2735 25.6719 18.0979 25.6719ZM14.2118 24.7298C14.9184 24.4943 15.3894 24.6121 15.6249 24.9654C15.7427 25.3186 15.2717 25.7897 14.6829 25.9074C13.9763 26.1429 13.5053 26.0252 13.2698 25.6719C13.152 25.3186 13.5053 24.9654 14.2118 24.7298ZM27.4007 24.6121C28.1073 24.4943 28.5783 24.7298 28.696 25.2009C28.696 25.5541 28.225 25.9074 27.6362 26.0252C26.9297 26.1429 26.4587 25.9074 26.3409 25.4364C26.2231 25.2009 26.6942 24.7298 27.4007 24.6121ZM30.6979 25.6719C31.5222 25.5541 32.2288 25.9074 32.3465 26.3785C32.3465 26.8495 31.64 27.2027 30.9334 27.3205C30.1091 27.4383 29.4026 27.085 29.2848 26.614C29.2848 26.2607 29.9914 25.7897 30.6979 25.6719ZM23.0437 23.5523C23.868 23.199 25.2811 23.0812 26.1054 22.728C25.9876 23.3167 25.5166 23.67 25.0456 23.9055C24.339 24.141 23.3969 23.7878 23.0437 23.5523ZM31.0512 23.7878C31.5222 23.67 31.8755 23.67 31.9933 24.0233C32.111 24.2588 31.7577 24.6121 31.2867 24.7298C30.8157 24.8476 30.4624 24.8476 30.3447 24.4943C30.3447 24.3766 30.5802 24.0233 31.0512 23.7878ZM26.9297 30.0289C27.283 29.9112 27.4007 29.7934 27.2829 29.6757C27.0474 29.2046 26.5764 28.9691 26.1054 29.0869C25.6343 29.2046 25.1633 29.5579 25.1633 29.9112C25.1633 30.1467 25.3988 30.2645 25.8699 30.1467C26.1054 30.1467 26.1054 30.3822 26.1054 30.7355C26.1054 30.971 26.3409 31.0888 26.5764 31.0888C26.8119 31.0888 27.0474 30.8532 27.0474 30.6177C26.8119 30.3822 26.6942 30.1467 26.9297 30.0289ZM14.8006 27.7915C15.1539 27.6738 15.2717 27.556 15.1539 27.4383C14.9184 26.9672 14.4474 26.7317 13.9763 26.8495C13.5053 26.9672 13.0342 27.3205 13.0342 27.6738C13.0342 27.9093 13.2698 28.0271 13.7408 27.9093C13.9763 27.9093 13.9763 28.1448 13.9763 28.4981C13.9763 28.7336 14.2118 28.8514 14.4474 28.8514C14.6829 28.8514 14.9184 28.6158 14.9184 28.3803C14.6829 28.1448 14.5651 27.9093 14.8006 27.7915ZM24.9278 27.9093C25.3988 27.7915 25.7521 27.9093 25.8699 28.2626C25.9876 28.4981 25.6343 28.8514 25.1633 28.9691C24.6923 29.0869 24.339 28.9691 24.2212 28.6158C24.2212 28.2626 24.5745 28.0271 24.9278 27.9093ZM19.3932 32.5018C17.2736 32.2663 15.3894 31.7953 13.3875 30.7355C13.152 30.6177 12.7987 30.6177 12.5632 30.6177C12.681 30.2645 12.681 29.9112 12.4455 29.7934C10.3258 27.3205 11.2679 24.2588 15.8605 21.5504C16.9203 20.8438 18.2156 20.3728 19.5109 20.0195C13.152 23.199 11.5034 26.614 13.2698 29.0869C13.9763 29.9112 15.0362 29.9112 16.3315 29.2046C15.9782 29.4401 15.7427 29.7934 15.6249 29.9112C17.3913 28.9691 19.7465 27.556 22.9259 25.7897C23.1614 25.5541 23.2792 25.3186 23.2792 25.0831C23.2792 24.4943 23.2792 24.141 23.397 23.7878C23.6325 24.4943 24.339 24.4943 25.5166 23.67C25.5166 23.67 25.5166 23.7878 25.6343 24.1411C24.6923 24.8476 24.8101 25.3186 25.8699 25.7897C25.3988 25.9074 25.1633 26.0252 25.1633 26.0252C24.1035 25.4364 23.1614 25.5541 22.4549 26.4962C22.5726 26.3784 22.5726 26.2607 22.6904 26.2607C21.2773 27.2027 19.3932 28.4981 17.1558 29.7934C16.096 30.5 15.7427 30.971 16.3315 31.442C16.9203 31.7953 18.0979 32.2663 19.3932 32.5018Z" fill="#650001"/>
    </g>
    <path d="M11.7375 32.5024C11.6197 32.5024 11.502 32.3846 11.502 32.2669C11.502 31.5603 12.0907 30.736 12.7973 30.5005C12.9151 30.5005 13.0328 30.5005 13.1506 30.6182C13.1506 30.736 13.1505 30.8538 13.0328 30.9715C12.444 31.207 12.0907 31.6781 11.973 32.2669C11.8552 32.5024 11.7375 32.5024 11.7375 32.5024Z" fill="#650001"/>
    <path d="M11.2663 32.5012C11.1486 32.5012 11.1486 32.5012 11.2663 32.5012C10.5598 31.7947 10.5598 31.0881 10.6775 30.8526C10.913 30.2638 11.3841 30.0283 11.9729 30.0283C12.4439 30.0283 12.7972 30.2638 12.9149 30.6171C13.0327 30.7349 12.9149 30.8526 12.7972 30.9704C12.6794 31.0881 12.5616 30.9704 12.4439 30.8526C12.3261 30.4993 11.9729 30.4994 11.7374 30.4994C11.3841 30.4994 11.0308 30.8526 10.913 31.2059C10.7953 31.5592 10.913 31.9124 11.2663 32.2657C11.5018 32.2657 11.5018 32.3835 11.2663 32.5012Z" fill="#650001"/>
    <path d="M33.5238 30.8528C33.406 30.8528 33.2882 30.7351 33.2882 30.6173C33.2882 30.264 33.1705 29.9108 32.8172 29.6752C32.464 29.4397 32.1107 29.322 31.8751 29.322C31.7574 29.322 31.6396 29.2042 31.6396 29.0865C31.6396 28.9687 31.7574 28.8509 31.8751 28.8509C32.4639 28.7332 32.8172 28.9687 33.2882 29.322C33.6415 29.6753 33.877 30.0285 33.877 30.6173C33.7593 30.7351 33.7593 30.8528 33.5238 30.8528Z" fill="#650001"/>
    <path d="M33.877 29.0871C33.7592 29.0871 33.7592 29.0871 33.6415 28.9694C33.1704 28.4983 32.5816 28.3806 31.9929 28.6161C31.8751 28.7338 31.7574 28.6161 31.6396 28.4983C31.5218 28.3806 31.6396 28.2628 31.7574 28.1451C32.4639 27.7918 33.406 27.9095 33.877 28.6161C33.9947 28.7338 33.9947 28.8516 33.877 29.0871Z" fill="#650001"/>
    <path d="M15.8605 22.0216C15.6249 21.9038 15.6249 21.7861 15.6249 21.6683C15.7427 21.5505 15.6249 21.315 15.6249 21.1973C15.5072 21.0795 15.3894 20.9617 15.2717 20.9617C15.1539 20.9617 15.0361 20.844 15.0361 20.7262C15.0361 20.6085 15.1539 20.4907 15.2717 20.4907C15.6249 20.4907 15.8604 20.7262 15.9782 20.9617C16.0959 21.1973 16.2137 21.5505 16.0959 21.7861C16.0959 21.9038 15.9782 22.0216 15.8605 22.0216Z" fill="#650001"/>
    <path d="M16.6848 20.9617C16.5671 20.9617 16.4493 20.8439 16.4493 20.8439C16.3316 20.6084 16.096 20.3729 15.8605 20.3729C15.7428 20.3729 15.625 20.2551 15.625 20.1374C15.625 20.0196 15.7428 19.9019 15.8605 19.9019C16.3316 20.0196 16.5671 20.2551 16.6848 20.6084C17.0381 20.8439 16.9203 20.8439 16.6848 20.9617Z" fill="#650001"/>
    <path d="M13.7403 31.2062C13.6226 31.2062 13.6226 31.2062 13.5048 31.0885C13.3871 30.9707 13.5048 30.8529 13.6226 30.7352C20.0992 27.2024 25.6339 23.7875 30.1086 20.3725C30.2264 20.2547 30.3442 20.2547 30.4619 20.3725C30.5797 20.4903 30.5797 20.608 30.4619 20.7258C25.8694 24.2585 20.3348 27.7912 13.7403 31.2062Z" fill="#650001"/>
    <path d="M31.9922 29.3225C26.3398 26.9673 21.0407 24.2589 15.9771 21.786C15.8593 21.6682 15.8594 21.5505 15.8594 21.4327C15.9771 21.3149 16.0949 21.3149 16.2126 21.3149C21.2762 23.7879 26.6931 26.3785 32.1099 28.8514C32.2277 28.8514 32.3454 29.0869 32.2277 29.2047C32.2277 29.3225 32.1099 29.3225 31.9922 29.3225Z" fill="#650001"/>
    <path fill-rule="evenodd" clip-rule="evenodd" d="M27.4002 29.6752C27.7534 29.5574 27.8712 29.4397 27.7534 29.3219C27.5179 28.8509 27.0469 28.6154 26.5758 28.7331C26.1048 28.8509 25.6338 29.2042 25.6338 29.5574C25.6338 29.7929 25.8693 29.9107 26.3403 29.7929C26.5759 29.7929 26.5758 30.0285 26.5758 30.3817C26.5758 30.6173 26.8114 30.735 27.0469 30.735C27.2824 30.735 27.5179 30.4995 27.5179 30.264C27.2824 30.0285 27.1646 29.6752 27.4002 29.6752Z" fill="#FFD8AD"/>
    <path d="M26.8121 31.0885C26.5766 31.0885 26.3411 30.9708 26.2233 30.853C26.1055 30.7352 26.1055 30.6175 26.1055 30.4997C26.1055 30.382 26.1055 30.2642 26.1055 30.1465C25.7523 30.2642 25.5167 30.2642 25.399 30.0287C25.2812 29.9109 25.2813 29.7932 25.2813 29.6754C25.399 29.0866 25.87 28.7334 26.4588 28.6156C27.0476 28.4978 27.6364 28.8511 27.8719 29.3221C27.9897 29.4399 27.9897 29.5577 27.8719 29.6754C27.7541 29.9109 27.6364 29.9109 27.4009 30.0287C27.4009 30.1465 27.4009 30.382 27.4009 30.4997C27.4009 30.6175 27.4009 30.853 27.2831 30.9708C27.1654 30.9708 27.0476 30.9708 26.8121 31.0885ZM26.2233 29.5577C26.3411 29.5577 26.4588 29.5577 26.5766 29.6754C26.6943 29.7932 26.6943 30.1464 26.6943 30.382C26.6943 30.382 26.8121 30.4997 26.9299 30.4997C27.0476 30.4997 27.0476 30.4997 27.1653 30.382V30.2642C27.1653 29.9109 27.1654 29.5577 27.5186 29.4399C27.6364 29.4399 27.6364 29.3221 27.7541 29.3221C27.5186 28.9689 27.1654 28.7334 26.8121 28.8511C26.3411 28.9689 26.1055 29.2044 25.9878 29.5577C25.7523 29.5577 25.87 29.5577 26.2233 29.5577C26.1055 29.5577 26.1055 29.5577 26.2233 29.5577Z" fill="#650001"/>
    <path fill-rule="evenodd" clip-rule="evenodd" d="M20.8059 29.5579C21.748 29.4401 22.69 29.9111 22.8078 30.3822C22.8078 30.9709 22.1013 31.442 21.0414 31.5597C20.0994 31.6775 19.1573 31.2065 19.0395 30.7354C18.9218 30.2644 19.7461 29.6756 20.8059 29.5579Z" fill="#EB2D04"/>
    <path d="M20.6882 31.9124C20.2172 31.9124 19.9817 31.7946 19.6284 31.6769C19.1574 31.4413 18.9219 31.0881 18.9219 30.8525C18.9219 30.617 19.1574 30.146 19.5107 29.9105C19.8639 29.675 20.335 29.4395 20.9238 29.4395C21.5126 29.4395 21.9836 29.4394 22.3369 29.675C22.8079 29.9105 23.0434 30.2638 23.0434 30.4993C23.0434 30.7348 22.8079 31.2058 22.4546 31.4413C22.1013 31.6768 21.6303 31.9124 21.0415 31.9124C20.9238 31.9124 20.806 31.9124 20.6882 31.9124ZM20.806 29.7927C20.335 29.7927 19.9817 30.0282 19.6284 30.2638C19.3929 30.4993 19.1574 30.7348 19.2752 30.8525C19.2752 31.0881 19.5107 31.2058 19.7462 31.4413C20.0995 31.5591 20.4527 31.6769 20.9238 31.6769C21.3948 31.6769 21.7481 31.4413 22.1013 31.2058C22.3369 30.9703 22.5724 30.7348 22.4546 30.617C22.4546 30.3815 22.2191 30.2638 21.9836 30.0282C21.7481 29.7927 21.277 29.675 20.806 29.7927Z" fill="#650001"/>
    <path fill-rule="evenodd" clip-rule="evenodd" d="M30.9328 25.201C31.7571 25.0833 32.4637 25.4366 32.5814 25.9076C32.5814 26.3786 31.8749 26.7319 31.1684 26.8496C30.3441 26.9674 29.6375 26.6141 29.5197 26.1431C29.402 25.6721 30.1085 25.201 30.9328 25.201Z" fill="#EB2D04"/>
    <path d="M30.8151 27.0847C30.4619 27.0847 30.1086 26.967 29.8731 26.8492C29.402 26.6137 29.1665 26.3782 29.1665 26.1427C29.0488 25.4361 29.8731 24.9651 30.8151 24.9651C31.7572 24.8473 32.6993 25.3184 32.6993 25.7894C32.6993 26.1427 32.5815 26.4959 32.2282 26.6137C31.875 26.8492 31.5217 26.967 31.0507 27.0847C31.0507 27.0847 30.9329 27.0847 30.8151 27.0847ZM30.9329 25.3184C30.2263 25.4361 29.6375 25.7894 29.6375 26.0249C29.6375 26.1427 29.7553 26.3782 29.9908 26.4959C30.2264 26.6137 30.6974 26.7314 30.9329 26.6137C31.2862 26.6137 31.6394 26.4959 31.8749 26.2604C32.1105 26.1427 32.2282 25.9071 32.2282 25.7894C32.346 25.5539 31.7572 25.3184 30.9329 25.3184Z" fill="#650001"/>
    <path fill-rule="evenodd" clip-rule="evenodd" d="M27.636 24.259C28.3426 24.1413 28.8136 24.3768 28.9313 24.8478C29.0491 25.3188 28.4603 25.5543 27.8715 25.6721C27.165 25.7899 26.6939 25.5543 26.5762 25.0833C26.3407 24.73 26.9295 24.259 27.636 24.259Z" fill="#EB2D04"/>
    <path d="M27.517 25.7899C27.2815 25.7899 27.046 25.7899 26.8105 25.6721C26.4572 25.5544 26.2217 25.3189 26.2217 24.9656C26.2217 24.7301 26.3394 24.3768 26.5749 24.259C26.8105 24.0235 27.1637 23.9058 27.517 23.9058C27.8703 23.9058 28.2236 23.9058 28.4591 24.0235C28.8123 24.1413 29.0479 24.3768 29.0479 24.7301C29.0479 24.9656 28.9301 25.3189 28.6946 25.4366C28.4591 25.6721 28.1058 25.7899 27.7525 25.7899C27.6348 25.7899 27.6348 25.7899 27.517 25.7899ZM27.7525 24.3768C27.6348 24.3768 27.6348 24.3768 27.517 24.3768C27.1637 24.3768 26.9282 24.4946 26.8105 24.6123C26.6927 24.7301 26.5749 24.8478 26.5749 24.9656C26.5749 25.0833 26.6927 25.2011 26.9282 25.2011C27.1637 25.3189 27.3993 25.3189 27.6348 25.3189C27.9881 25.3189 28.2235 25.2011 28.3413 25.0833C28.4591 24.9656 28.5768 24.8478 28.5768 24.7301C28.5768 24.6123 28.4591 24.4946 28.2236 24.4946C28.2236 24.4946 27.988 24.3768 27.7525 24.3768Z" fill="#650001"/>
    <path fill-rule="evenodd" clip-rule="evenodd" d="M18.333 25.201C19.1573 25.0833 19.8639 25.4366 19.9816 25.9076C19.9816 26.3786 19.2751 26.7319 18.5685 26.8496C17.7442 26.9674 17.0377 26.6141 16.9199 26.1431C16.9199 25.6721 17.5087 25.201 18.333 25.201Z" fill="#EB2D04"/>
    <path d="M18.3327 27.0855C17.9794 27.0855 17.6262 26.9677 17.3907 26.8499C16.9196 26.6144 16.6841 26.3789 16.6841 26.1434C16.5663 25.4369 17.3906 24.9658 18.3327 24.9658C18.8037 24.9658 19.157 24.9658 19.5103 25.2013C19.9813 25.4369 20.2168 25.6724 20.2168 25.9079C20.2168 26.2612 20.0991 26.6144 19.7458 26.7322C19.3925 26.9677 19.0393 27.0855 18.5682 27.2032C18.4505 27.0855 18.3327 27.0855 18.3327 27.0855ZM18.4505 25.3191C17.7439 25.4369 17.1551 25.7901 17.1551 26.0256C17.1551 26.1434 17.2729 26.3789 17.5084 26.4967C17.7439 26.6144 18.215 26.7322 18.4505 26.6144C18.8037 26.6144 19.157 26.4967 19.3926 26.2612C19.6281 26.1434 19.7458 25.9079 19.7458 25.7901C19.7458 25.6724 19.6281 25.4369 19.3926 25.3191C19.0393 25.3191 18.8037 25.3191 18.4505 25.3191Z" fill="#650001"/>
    <path fill-rule="evenodd" clip-rule="evenodd" d="M14.3285 24.1411C15.0351 23.9056 15.5061 24.0233 15.7416 24.3766C15.8594 24.7299 15.3883 25.2009 14.7995 25.3187C14.093 25.5542 13.622 25.4364 13.3865 25.0831C13.1509 24.8476 13.622 24.3766 14.3285 24.1411Z" fill="#EB2D04"/>
    <path d="M14.0928 25.7895C13.6217 25.7895 13.2684 25.554 13.1507 25.2007C13.0329 24.9652 13.1507 24.6119 13.3862 24.4941C13.6217 24.2586 13.975 24.0231 14.2105 23.9054C14.5638 23.7876 14.9171 23.7876 15.1526 23.7876C15.5059 23.9054 15.7414 24.0231 15.8591 24.3764C15.9769 24.8474 15.5058 25.4362 14.7993 25.6717C14.5638 25.7895 14.3283 25.7895 14.0928 25.7895ZM14.9171 24.2586C14.6815 24.2586 14.5638 24.2586 14.3283 24.3764C14.0927 24.4941 13.7395 24.6119 13.6217 24.8474C13.504 24.9652 13.3862 25.0829 13.504 25.2007C13.6217 25.4362 14.0928 25.554 14.5638 25.3185C15.1526 25.0829 15.3881 24.7297 15.2703 24.6119C15.2703 24.4941 15.1526 24.4941 14.9171 24.3764C15.0348 24.2586 14.9171 24.2586 14.9171 24.2586Z" fill="#650001"/>
    <path fill-rule="evenodd" clip-rule="evenodd" d="M30.9321 23.5519C31.4032 23.4341 31.7564 23.4341 31.8742 23.7874C31.9919 24.0229 31.6387 24.3762 31.1677 24.4939C30.6966 24.6117 30.3433 24.6117 30.2256 24.2584C30.2256 23.9051 30.4611 23.6696 30.9321 23.5519Z" fill="#EB2D04"/>
    <path d="M30.6978 24.7296C30.3446 24.7296 29.9913 24.6118 29.9913 24.2586C29.8736 23.7875 30.2268 23.4342 30.8156 23.3165C31.0511 23.1987 31.4044 23.1987 31.5221 23.1987C31.7577 23.1987 31.9932 23.4342 32.1109 23.6698C32.2287 24.1408 31.8754 24.4941 31.2866 24.6118C31.1689 24.7296 30.9333 24.7296 30.6978 24.7296ZM31.4044 23.6698C31.2866 23.6698 31.1689 23.6698 31.0511 23.7875C30.5801 23.9053 30.4623 24.1408 30.4623 24.2586C30.4623 24.3763 30.8156 24.4941 31.1689 24.2586C31.6399 24.1408 31.7577 23.9053 31.7577 23.7875C31.7577 23.7875 31.6399 23.6698 31.4044 23.6698Z" fill="#650001"/>
    <path fill-rule="evenodd" clip-rule="evenodd" d="M24.8091 27.4387C25.2801 27.3209 25.6334 27.4387 25.7511 27.792C25.8689 28.0275 25.5156 28.3808 25.0446 28.4985C24.5736 28.6163 24.2203 28.4985 24.1025 28.1452C24.1025 27.792 24.4558 27.5564 24.8091 27.4387Z" fill="#EB2D04"/>
    <path d="M24.8084 28.6157C24.6906 28.6157 24.5729 28.6157 24.4551 28.6157C24.2196 28.498 23.9841 28.3802 23.9841 28.1447C23.8664 27.6737 24.3374 27.4381 24.8084 27.2026C25.515 27.0849 25.8682 27.2026 25.986 27.6737C26.1037 28.1447 25.6327 28.3802 25.1617 28.6157C24.9262 28.6157 24.8084 28.6157 24.8084 28.6157ZM24.9262 27.6737C24.4551 27.7914 24.3374 28.0269 24.3374 28.1447C24.3374 28.1447 24.4552 28.2625 24.5729 28.2625C24.6907 28.2625 24.9262 28.2625 25.1617 28.2625C25.6327 28.1447 25.7505 27.9092 25.7505 27.7914C25.6327 27.6737 25.2794 27.5559 24.9262 27.6737Z" fill="#650001"/>
    <path fill-rule="evenodd" clip-rule="evenodd" d="M15.2722 27.4379C15.6255 27.3201 15.7432 27.2024 15.6255 27.0846C15.39 26.6136 14.9189 26.3781 14.4479 26.4958C13.9769 26.6136 13.5059 26.9669 13.5059 27.3201C13.5059 27.5556 13.7413 27.6734 14.2124 27.5557C14.4479 27.5557 14.4479 27.7912 14.4479 28.1444C14.4479 28.38 14.6834 28.4977 14.9189 28.4977C15.1544 28.4977 15.39 28.2622 15.39 28.0267C15.1544 27.7912 15.1545 27.4379 15.2722 27.4379Z" fill="#FFD8AD"/>
    <path d="M14.6803 28.7335C14.4448 28.7335 14.2093 28.6158 14.0915 28.498C13.9737 28.3803 13.9737 28.2625 13.9737 28.1447C13.9737 28.027 13.9737 27.9092 13.9737 27.7915C13.6205 27.9092 13.3849 27.9092 13.2672 27.6737C13.1494 27.556 13.1494 27.4382 13.1494 27.3204C13.2672 26.7316 13.7382 26.3784 14.327 26.2606C14.9158 26.1429 15.5046 26.4961 15.7401 26.9672C15.8579 27.0849 15.8579 27.2027 15.7401 27.3204C15.6223 27.556 15.5046 27.556 15.2691 27.6737C15.2691 27.7915 15.2691 28.027 15.2691 28.1447C15.2691 28.2625 15.2691 28.498 15.1513 28.6158C15.1513 28.6158 14.9158 28.6158 14.6803 28.7335ZM14.0915 27.3204C14.2093 27.3204 14.327 27.3204 14.4448 27.4382C14.5625 27.556 14.5625 27.9092 14.5625 28.1447C14.5625 28.1447 14.6803 28.2625 14.798 28.2625C14.9158 28.2625 14.9158 28.2625 15.0335 28.1447V28.027C15.0335 27.6737 15.0335 27.3204 15.3868 27.2027C15.5046 27.2027 15.5046 27.0849 15.6223 27.0849C15.3868 26.7317 15.0336 26.4961 14.6803 26.6139C14.2093 26.7317 13.9737 26.9672 13.856 27.3204C13.6205 27.4382 13.7382 27.4382 14.0915 27.3204Z" fill="#650001"/>
    <path fill-rule="evenodd" clip-rule="evenodd" d="M19.3931 24.6123C24.5744 23.0815 29.2847 20.8441 33.7595 18.6067C35.7614 20.373 38.7054 16.2515 34.4661 13.4253C31.2866 11.1879 27.4006 10.7169 23.6324 11.7767C22.2193 12.3655 22.1015 14.3674 23.1613 14.9562C20.5707 18.7244 18.9221 21.4329 18.451 22.9637C18.3333 24.0235 18.6866 24.8478 19.3931 24.6123Z" fill="#FF8906"/>
    <path d="M19.1568 24.9653C18.9213 24.9653 18.6858 24.8475 18.568 24.7298C18.2147 24.3765 18.097 23.7877 18.3325 22.8456C18.8035 21.3148 20.3344 18.7241 22.9251 14.9559C22.454 14.6026 22.2185 14.0138 22.3363 13.3073C22.454 12.483 22.925 11.7764 23.6316 11.5409C27.2821 10.4811 31.4036 10.9521 34.5831 13.1895C36.1139 14.2493 36.8205 15.5447 36.8205 16.9578C36.7027 17.8998 36.1139 18.7241 35.2896 19.0774C34.7008 19.3129 34.2298 19.1952 33.641 18.7241C29.1662 20.9615 24.5737 23.0812 19.3923 24.7298C19.3923 24.9653 19.2746 24.9653 19.1568 24.9653ZM23.8671 12.0119C23.2783 12.2474 22.9251 12.7185 22.9251 13.425C22.9251 14.0138 23.1606 14.4848 23.5139 14.7204C23.6316 14.7204 23.6316 14.8381 23.6316 14.8381C23.6316 14.9559 23.6316 14.9559 23.6316 15.0736C21.0409 18.7241 19.5101 21.5503 18.9213 22.9634C18.6858 23.6699 18.8035 24.141 19.039 24.3765C19.039 24.3765 19.1568 24.4942 19.5101 24.4942C24.6914 22.9634 29.284 20.726 33.7588 18.4886C33.8765 18.4886 33.9943 18.4886 33.9943 18.4886C34.4653 18.8419 34.8186 18.9596 35.2896 18.8419C35.9962 18.6064 36.3494 18.0176 36.4672 17.0755C36.585 15.8979 35.8784 14.6026 34.4653 13.6605C31.4036 11.5409 27.5176 10.8343 23.8671 12.0119Z" fill="#650001"/>
    <path fill-rule="evenodd" clip-rule="evenodd" d="M36.5847 16.251C36.4669 15.4266 35.8781 14.3668 34.5828 13.5425C31.4034 11.3051 27.5173 10.8341 23.7491 11.8939C23.2781 12.0117 23.0426 12.3649 22.9248 12.6005C24.9267 11.8939 26.9285 11.8939 28.9304 12.0117C28.9304 12.1294 29.2837 12.365 29.637 12.4827C30.108 12.6005 30.4613 12.6005 30.4613 12.4827C30.4613 12.4827 30.4613 12.365 30.3435 12.2472C32.8164 12.9537 34.9361 14.2491 36.5847 16.251Z" fill="#FFDFB3"/>
    <g opacity="0.3">
        <path fill-rule="evenodd" clip-rule="evenodd" d="M19.3931 24.6124C24.5744 23.0815 29.2847 20.8441 33.7595 18.6067C34.9371 19.6665 36.5857 18.489 36.5857 16.6048C36.4679 15.8983 35.6437 15.4273 34.9371 15.6628C34.4661 15.7805 34.1128 16.0161 33.6418 15.7805C30.5801 13.7787 27.0473 13.1899 23.2791 13.5431C22.9258 13.5431 22.8081 12.9543 22.8081 12.6011C22.5726 13.3076 22.4548 13.8964 22.6903 14.3674C22.6903 14.3674 22.6903 14.4852 22.8081 14.4852C22.9258 14.7207 23.2791 14.9562 23.5146 14.9562C27.5184 14.2497 30.6978 15.074 33.053 17.1936C33.1707 17.9002 32.3464 18.3712 30.9334 18.7245C25.1632 20.8441 21.0417 22.1395 18.5688 22.6105C18.5688 22.7282 18.5688 22.7282 18.451 22.846C18.3333 24.0236 18.6866 24.8479 19.3931 24.6124Z" fill="#650001"/>
    </g>
    <path d="M19.1568 24.9653C18.9213 24.9653 18.6858 24.8475 18.568 24.7298C18.2147 24.3765 18.097 23.7877 18.3325 22.8456C18.8035 21.3148 20.3344 18.7241 22.9251 14.9559C22.454 14.6026 22.2185 14.0138 22.3363 13.3073C22.454 12.483 22.925 11.7764 23.6316 11.5409C27.2821 10.4811 31.4036 10.9521 34.5831 13.1895C36.1139 14.2493 36.8205 15.5447 36.8205 16.9578C36.7027 17.8998 36.1139 18.7241 35.2896 19.0774C34.7008 19.3129 34.2298 19.1952 33.641 18.7241C29.1662 20.9615 24.5737 23.0812 19.3923 24.7298C19.3923 24.9653 19.2746 24.9653 19.1568 24.9653ZM23.8671 12.0119C23.2783 12.2474 22.9251 12.7185 22.9251 13.425C22.9251 14.0138 23.1606 14.4848 23.5139 14.7204C23.6316 14.7204 23.6316 14.8381 23.6316 14.8381C23.6316 14.9559 23.6316 14.9559 23.6316 15.0736C21.0409 18.7241 19.5101 21.5503 18.9213 22.9634C18.6858 23.6699 18.8035 24.141 19.039 24.3765C19.039 24.3765 19.1568 24.4942 19.5101 24.4942C24.6914 22.9634 29.284 20.726 33.7588 18.4886C33.8765 18.4886 33.9943 18.4886 33.9943 18.4886C34.4653 18.8419 34.8186 18.9596 35.2896 18.8419C35.9962 18.6064 36.3494 18.0176 36.4672 17.0755C36.585 15.8979 35.8784 14.6026 34.4653 13.6605C31.4036 11.5409 27.5176 10.8343 23.8671 12.0119Z" fill="#650001"/>
    <path fill-rule="evenodd" clip-rule="evenodd" d="M18.6855 23.0813C19.5099 20.8439 21.0407 18.0177 23.3959 15.0738C26.8108 14.3672 30.4613 14.956 33.052 17.1934C33.6408 17.6644 33.052 18.2532 31.9922 18.6065C29.9903 19.1953 29.166 19.9018 29.0482 20.8439C29.0482 21.4327 28.8127 21.9037 28.9304 22.6102C28.9304 24.0233 27.5174 24.0233 27.7529 22.728C27.9884 21.1972 28.1062 20.4906 27.3996 20.6084C24.3379 21.5504 22.8071 22.728 22.9248 24.1411C23.2781 25.4364 23.0426 26.3785 22.2183 26.8495C21.9828 26.9673 21.6295 26.9673 21.394 26.8495C21.1584 26.614 21.0407 26.2607 21.1585 26.143C21.6295 25.0832 21.7472 24.1411 21.5117 23.7878C21.2762 23.5523 20.8052 23.5523 20.3341 23.7878C19.2743 23.7878 18.6855 23.7878 18.6855 23.0813Z" fill="#FFBF66"/>
    <path d="M21.9829 26.7317C21.7474 26.7317 21.5119 26.6139 21.3941 26.4962C21.0409 26.2606 20.9231 25.7896 21.0409 25.4363C21.5119 24.4943 21.6297 23.67 21.3941 23.1989C21.2764 23.0812 21.0409 22.9634 20.5699 23.3167C19.7456 23.7877 19.1568 23.7877 18.8035 23.5522C18.6857 23.4345 18.4502 23.3167 18.4502 22.8457V22.7279C19.2745 20.4905 20.8053 17.6643 23.1605 14.6026L23.2783 14.4849C25.0446 14.1316 26.9288 14.0138 28.4596 14.3671C30.226 14.7204 31.8746 15.4269 33.1699 16.6045C33.4054 16.84 33.5232 17.0755 33.5232 17.3111C33.4054 17.7821 32.8166 18.1354 32.1101 18.3709C30.226 18.9597 29.4017 19.5485 29.4017 20.3728C29.4017 20.6083 29.4017 20.8438 29.2839 21.0793C29.2839 21.4326 29.1662 21.7858 29.1662 22.1391C29.1662 22.7279 28.9306 23.0812 28.5774 23.3167C28.3419 23.4345 27.9886 23.4345 27.8708 23.3167C27.5175 23.0812 27.3998 22.6102 27.5176 22.2569C27.6353 21.5503 27.7531 20.6083 27.6353 20.3728H27.5176C24.5736 21.1971 23.1605 22.3746 23.2783 23.67C23.6315 25.0831 23.396 26.0251 22.5717 26.6139C22.3362 26.7317 22.1007 26.7317 21.9829 26.7317ZM21.5119 25.6719C21.3941 25.9074 21.5119 26.1429 21.6297 26.2606C21.8652 26.3784 22.1007 26.3784 22.2185 26.2606C22.925 25.7896 23.0428 25.0831 22.8072 23.7877C22.8072 23.0812 23.1605 22.3746 23.8671 21.6681C24.5736 21.0793 25.8689 20.6083 27.3998 20.0195C27.6353 20.0195 27.8708 20.0195 27.9886 20.255C28.3419 20.6083 28.2241 21.1971 27.9886 22.4924C27.8708 22.9634 27.9886 23.1989 28.1063 23.1989C28.2241 23.1989 28.2241 23.1989 28.3418 23.1989C28.4596 23.0812 28.6951 22.8457 28.6951 22.4924C28.6951 22.0214 28.6951 21.7859 28.8129 21.3148C28.8129 21.0793 28.8129 20.8438 28.9306 20.726C29.0484 19.784 29.9905 18.9597 31.9923 18.3709C32.6989 18.1354 33.0521 17.7821 33.0521 17.6643C33.0521 17.6643 33.0522 17.5466 32.9344 17.3111C30.5793 15.3092 27.0465 14.6026 23.5138 15.1914C21.2764 18.2531 19.7455 20.8438 18.9212 23.1989C18.9212 23.4345 19.039 23.4345 19.039 23.4345C19.1567 23.5522 19.51 23.5522 20.4521 23.1989C21.1586 22.7279 21.6296 22.9634 21.8652 23.1989C21.8652 23.1989 21.8652 23.1989 21.8652 23.3167C22.1007 23.7877 21.9829 24.4943 21.5119 25.6719Z" fill="#650001"/>
    <g opacity="0.5">
        <path fill-rule="evenodd" clip-rule="evenodd" d="M18.9219 22.1393C19.7462 20.0196 21.1593 17.6645 23.2789 14.9561C23.3967 14.9561 23.3967 14.9561 23.5145 14.9561H23.6322C21.9836 17.6645 20.4527 20.1374 19.1574 22.7281C19.0396 22.3748 19.0396 22.257 18.9219 22.1393Z" fill="white"/>
    </g>
    <path d="M21.9829 26.7317C21.7474 26.7317 21.5119 26.6139 21.3941 26.4962C21.0409 26.2606 20.9231 25.7896 21.0409 25.4363C21.5119 24.4943 21.6297 23.67 21.3941 23.1989C21.2764 23.0812 21.0409 22.9634 20.5699 23.3167C19.7456 23.7877 19.1568 23.7877 18.8035 23.5522C18.6857 23.4345 18.4502 23.3167 18.4502 22.8457V22.7279C19.2745 20.4905 20.8053 17.6643 23.1605 14.6026L23.2783 14.4849C25.0446 14.1316 26.9288 14.0138 28.4596 14.3671C30.226 14.7204 31.8746 15.4269 33.1699 16.6045C33.4054 16.84 33.5232 17.0755 33.5232 17.3111C33.4054 17.7821 32.8166 18.1354 32.1101 18.3709C30.226 18.9597 29.4017 19.5485 29.4017 20.3728C29.4017 20.6083 29.4017 20.8438 29.2839 21.0793C29.2839 21.4326 29.1662 21.7858 29.1662 22.1391C29.1662 22.7279 28.9306 23.0812 28.5774 23.3167C28.3419 23.4345 27.9886 23.4345 27.8708 23.3167C27.5175 23.0812 27.3998 22.6102 27.5176 22.2569C27.6353 21.5503 27.7531 20.6083 27.6353 20.3728H27.5176C24.5736 21.1971 23.1605 22.3746 23.2783 23.67C23.6315 25.0831 23.396 26.0251 22.5717 26.6139C22.3362 26.7317 22.1007 26.7317 21.9829 26.7317ZM21.5119 25.6719C21.3941 25.9074 21.5119 26.1429 21.6297 26.2606C21.8652 26.3784 22.1007 26.3784 22.2185 26.2606C22.925 25.7896 23.0428 25.0831 22.8072 23.7877C22.8072 23.0812 23.1605 22.3746 23.8671 21.6681C24.5736 21.0793 25.8689 20.6083 27.3998 20.0195C27.6353 20.0195 27.8708 20.0195 27.9886 20.255C28.3419 20.6083 28.2241 21.1971 27.9886 22.4924C27.8708 22.9634 27.9886 23.1989 28.1063 23.1989C28.2241 23.1989 28.2241 23.1989 28.3418 23.1989C28.4596 23.0812 28.6951 22.8457 28.6951 22.4924C28.6951 22.0214 28.6951 21.7859 28.8129 21.3148C28.8129 21.0793 28.8129 20.8438 28.9306 20.726C29.0484 19.784 29.9905 18.9597 31.9923 18.3709C32.6989 18.1354 33.0521 17.7821 33.0521 17.6643C33.0521 17.6643 33.0522 17.5466 32.9344 17.3111C30.5793 15.3092 27.0465 14.6026 23.5138 15.1914C21.2764 18.2531 19.7455 20.8438 18.9212 23.1989C18.9212 23.4345 19.039 23.4345 19.039 23.4345C19.1567 23.5522 19.51 23.5522 20.4521 23.1989C21.1586 22.7279 21.6296 22.9634 21.8652 23.1989C21.8652 23.1989 21.8652 23.1989 21.8652 23.3167C22.1007 23.7877 21.9829 24.4943 21.5119 25.6719Z" fill="#650001"/>
    <g opacity="0.3">
        <path fill-rule="evenodd" clip-rule="evenodd" d="M27.7529 23.0815C27.6351 22.9638 27.6351 22.6105 27.7529 22.375V22.1395C27.7529 22.4927 27.7529 22.7283 27.7529 23.0815ZM25.6332 20.1376C25.8688 20.0198 26.222 19.9021 26.3398 19.7843C26.6931 19.7843 27.0463 20.0198 27.1641 20.3731C24.2201 21.3152 22.8071 22.4927 22.8071 23.9058C23.1603 25.2012 22.9248 26.1432 22.1005 26.6143C21.865 26.732 21.5117 26.732 21.2762 26.6143L21.1585 26.4965V25.4367C21.1585 25.5545 21.0407 25.6722 21.0407 25.79C20.9229 26.0255 21.0407 26.3788 21.1585 26.4965C22.2183 26.4965 22.5716 25.4367 22.2183 23.5526C22.2183 22.846 22.5715 22.375 23.1603 21.6685C23.2781 21.5507 23.2781 21.5507 23.3959 21.4329C23.8669 20.9619 23.9846 20.7264 23.3959 20.7264C23.2781 20.7264 23.2781 20.7264 23.1603 20.7264C22.4538 20.6086 22.1005 20.2554 21.9827 19.7843C21.865 19.0778 22.5715 18.6067 23.2781 18.489C23.9846 18.3712 24.8089 18.8423 24.9267 19.4311C24.9267 19.6666 24.9267 19.7843 24.8089 20.0198C24.8089 20.1376 24.6912 20.1376 24.6912 20.2554C24.809 20.3731 25.0445 20.4909 25.6332 20.1376ZM25.9865 17.4292C26.1043 17.4292 26.222 17.5469 26.222 17.6647C26.222 17.7824 26.1043 17.9002 25.9865 17.9002C25.8687 17.9002 25.751 17.7824 25.751 17.6647C25.8688 17.5469 25.8687 17.4292 25.9865 17.4292ZM21.2762 19.5488C21.394 19.5488 21.394 19.6666 21.2762 19.5488C21.394 19.7843 21.2762 19.7843 21.2762 19.7843C21.1584 19.7843 21.1584 19.6666 21.2762 19.5488ZM27.7529 19.4311C27.8706 19.4311 27.8706 19.5488 27.7529 19.4311C27.8706 19.6666 27.7529 19.6666 27.7529 19.6666C27.6351 19.6666 27.6351 19.5488 27.7529 19.4311ZM24.1024 15.1918C24.2202 15.1918 24.2202 15.3095 24.1024 15.1918C24.2202 15.4273 24.1024 15.4273 24.1024 15.4273C23.9847 15.4273 23.9847 15.3095 24.1024 15.1918C23.9847 15.3095 23.9847 15.1918 24.1024 15.1918ZM28.5772 15.545C28.6949 15.545 28.6949 15.6628 28.5772 15.545C28.6949 15.7806 28.5772 15.7806 28.5772 15.7806C28.4594 15.7806 28.4594 15.6628 28.5772 15.545ZM21.865 21.7862C21.9827 21.7862 22.1005 21.904 22.1005 22.0217C22.1005 22.1395 21.9827 22.2572 21.865 22.2572C21.7472 22.2572 21.6295 22.1395 21.6295 22.0217C21.7472 21.904 21.865 21.7862 21.865 21.7862ZM25.3977 16.4871C25.6332 16.7226 25.6332 17.0759 25.3977 17.1937C25.1622 17.3114 24.809 17.5469 24.6912 17.3114C24.4557 17.0759 24.4557 16.7226 24.6912 16.6049C24.809 16.4871 25.1622 16.3694 25.3977 16.4871ZM31.4034 16.6049C29.637 15.074 27.0463 14.603 23.3959 15.074C25.0445 14.4852 26.8108 14.3675 28.5772 14.8385H28.695C30.2258 15.1918 31.7567 15.7806 32.9342 16.9581C33.523 17.4292 32.9342 18.018 31.8744 18.3712C29.8725 18.96 29.0482 19.6666 28.9304 20.6086C28.9304 21.1974 28.695 21.6684 28.8127 22.375C28.8127 23.4348 27.9884 23.6703 27.7529 23.0815C28.2239 23.0815 28.4594 22.7283 28.4594 22.2572C28.4594 21.0797 28.6949 20.0198 29.0482 19.4311C29.0482 19.3133 29.166 19.3133 29.166 19.1955C29.4015 18.8423 29.2837 18.6068 28.9304 18.7245C28.2239 18.96 27.6351 18.8423 27.3996 18.2535C27.1641 17.6647 27.5174 17.0759 28.1062 16.7226C28.8127 16.3693 29.5193 16.6049 29.7548 17.1937C29.8725 17.4292 29.8725 17.7824 29.7548 17.9002C29.9903 18.2535 30.3435 18.2535 30.6968 18.1357C31.5211 17.6647 31.7566 17.0759 31.4034 16.6049ZM18.6855 23.0815C18.8033 22.846 18.8033 22.6105 18.921 22.375C19.0388 22.2572 19.1566 22.1395 19.3921 22.0217C19.0388 23.0815 19.6276 23.3171 21.2762 22.7283C21.5117 22.7283 21.6295 22.846 21.7473 22.846V23.0815C21.5117 22.9638 21.1584 22.9638 20.8052 23.1993C19.2743 23.7881 18.6855 23.7881 18.6855 23.0815Z" fill="#650001"/>
    </g>
    <path fill-rule="evenodd" clip-rule="evenodd" d="M35.7597 16.7227C35.9953 16.9582 35.9953 17.4293 35.7597 17.6648C35.5242 18.0181 35.0532 18.2536 34.9354 18.0181C34.6999 17.7825 34.6999 17.3115 34.9354 17.076C35.0532 16.7227 35.5242 16.4872 35.7597 16.7227Z" fill="#FF8906"/>
    <path d="M35.0547 18.3711C34.937 18.3711 34.8192 18.3711 34.7015 18.2534C34.3482 18.0179 34.3482 17.4291 34.7015 16.9581C34.8192 16.7225 35.0548 16.6048 35.2903 16.487C35.5258 16.3693 35.7613 16.3693 35.9968 16.6048C36.2323 16.7225 36.3501 16.958 36.3501 17.3113C36.3501 17.5468 36.2323 17.7823 36.1145 18.0179C35.6435 18.1356 35.2903 18.3711 35.0547 18.3711ZM35.5258 16.8403C35.2902 16.8403 35.1725 16.958 35.0547 17.1936C34.8192 17.5468 34.8192 17.7823 34.937 17.9001C35.0547 18.0179 35.408 17.9001 35.6435 17.5468C35.7613 17.4291 35.7613 17.1936 35.7613 17.0758C35.7613 16.958 35.7613 16.8403 35.5258 16.8403Z" fill="#650001"/>
    <path d="M33.878 18.136C33.5247 18.0183 33.1714 17.665 33.0537 17.3117C32.9359 17.194 33.0537 17.0762 33.1714 16.9584C33.2892 16.8407 33.407 16.9584 33.5247 17.0762C33.878 17.5472 33.9957 17.7827 34.2312 17.7827C34.349 17.9005 34.349 18.0183 34.349 18.136C33.9957 18.136 33.878 18.136 33.878 18.136Z" fill="#650001"/>
    <path fill-rule="evenodd" clip-rule="evenodd" d="M29.4016 16.8401C29.6371 17.4289 29.2838 18.0177 28.695 18.371C28.1062 18.7243 27.2819 18.4887 27.0464 17.8999C26.8109 17.3112 27.1642 16.7224 27.7529 16.3691C28.3417 16.0158 29.1661 16.3691 29.4016 16.8401Z" fill="#EB2D04"/>
    <path d="M27.9895 18.7237C27.8718 18.7237 27.754 18.7237 27.6363 18.7237C27.1652 18.6059 26.9297 18.3704 26.812 18.0171C26.6942 17.6639 26.6942 17.3106 26.812 16.9573C27.0475 16.6041 27.283 16.2508 27.6363 16.2508C27.9895 16.0153 28.3428 16.0153 28.6961 16.133C29.1671 16.2508 29.4026 16.4863 29.5204 16.8396C29.8736 17.5461 29.4026 18.2527 28.6961 18.7237C28.5783 18.7237 28.225 18.7237 27.9895 18.7237ZM28.4606 16.4863C28.225 16.4863 27.9895 16.4863 27.8718 16.604C27.5185 16.7218 27.283 16.9573 27.1652 17.1928C27.0475 17.4284 27.0475 17.6639 27.1652 17.8994C27.283 18.1349 27.5185 18.2527 27.754 18.3704C27.9895 18.4882 28.3428 18.3704 28.5783 18.2527C29.1671 18.0171 29.4026 17.4284 29.2849 17.0751C29.1671 16.8396 28.9316 16.7218 28.6961 16.604C28.5783 16.4863 28.5783 16.4863 28.4606 16.4863Z" fill="#650001"/>
    <path fill-rule="evenodd" clip-rule="evenodd" d="M24.927 18.9597C25.0448 19.5484 24.456 20.0195 23.7494 20.1372C23.0429 20.255 22.3364 19.784 22.3364 19.3129C22.2186 18.7241 22.8074 18.2531 23.5139 18.1354C24.2205 18.0176 24.8093 18.3709 24.927 18.9597Z" fill="#EB2D04"/>
    <path d="M23.5139 20.3729C23.1606 20.3729 22.8073 20.2551 22.6896 20.1374C22.3363 19.9019 22.1008 19.5486 22.1008 19.3131C21.983 18.6065 22.6896 17.9 23.5139 17.7822C23.9849 17.7822 24.2204 17.7822 24.5737 18.0177C24.927 18.2533 25.1625 18.6065 25.1625 18.842C25.2802 19.5486 24.5737 20.2551 23.7494 20.3729C23.6316 20.3729 23.5139 20.3729 23.5139 20.3729ZM23.6316 18.2533C23.5139 18.2533 23.5139 18.2533 23.3961 18.2533C22.6896 18.371 22.3363 18.842 22.454 19.1953C22.454 19.4308 22.5718 19.6663 22.8073 19.7841C23.0428 19.9019 23.3961 20.0196 23.6316 19.9019C24.3382 19.7841 24.6915 19.3131 24.5737 18.9598C24.5737 18.7243 24.4559 18.4888 24.2204 18.371C24.1026 18.2533 23.8671 18.2533 23.6316 18.2533Z" fill="#650001"/>
    <path d="M27.7539 20.7258C27.6361 20.7258 27.6361 20.7258 27.7539 20.7258C27.5184 20.4902 27.1651 20.3725 26.5763 20.2547C26.4586 20.2547 26.3408 20.137 26.3408 20.0192C26.3408 19.9015 26.4586 19.7837 26.5763 19.7837C27.2829 19.7837 27.7539 20.0192 27.9894 20.2547C28.1072 20.3725 28.1072 20.4902 27.9894 20.608C27.8717 20.7258 27.8716 20.7258 27.7539 20.7258Z" fill="#650001"/>
    <path d="M29.1662 20.3729C28.9307 20.3729 28.9307 20.2552 28.9307 20.1374C29.0484 19.5486 29.4017 19.0776 29.8727 18.371C29.9905 18.2533 30.1082 18.2533 30.226 18.371C30.3438 18.4888 30.3438 18.6066 30.226 18.7243C29.755 19.3131 29.4017 19.7841 29.1662 20.3729C29.284 20.3729 29.284 20.3729 29.1662 20.3729Z" fill="#650001"/>
    <path fill-rule="evenodd" clip-rule="evenodd" d="M25.1619 16.2512C25.3974 16.4867 25.3974 16.84 25.1619 16.9577C24.9263 17.1932 24.5731 17.311 24.4553 17.0755C24.3376 16.84 24.2198 16.4867 24.4553 16.3689C24.6908 16.2512 24.9263 16.0156 25.1619 16.2512Z" fill="#EB2D04"/>
    <path d="M24.8091 17.4288C24.6913 17.4288 24.4558 17.4288 24.338 17.311C24.2203 17.1933 24.1025 16.9577 24.1025 16.7222C24.1025 16.4867 24.2203 16.2512 24.338 16.1334C24.6913 15.7802 25.0446 15.6624 25.3978 15.8979C25.5156 16.0157 25.6334 16.2512 25.6334 16.4867C25.6334 16.7222 25.5156 16.9577 25.3978 17.0755C25.1623 17.311 24.9268 17.4288 24.8091 17.4288ZM24.9268 16.369C24.8091 16.369 24.6913 16.4867 24.5736 16.6045C24.4558 16.7222 24.4558 16.84 24.4558 16.9577C24.4558 16.9577 24.4558 17.0755 24.5736 17.1933C24.6913 17.311 24.9268 17.1933 25.0446 17.0755C25.1623 16.9577 25.1624 16.84 25.1624 16.7222C25.1624 16.6045 25.1623 16.4867 24.9268 16.369Z" fill="#650001"/>
    <path fill-rule="evenodd" clip-rule="evenodd" d="M31.0496 17.311C31.0496 17.311 31.0496 17.4287 30.9318 17.5465C30.8141 17.6643 30.6963 17.6643 30.6963 17.5465C30.6963 17.5465 30.6963 17.4287 30.8141 17.311C30.9318 17.1932 31.0496 17.1932 31.0496 17.311Z" fill="#99CC33"/>
    <path d="M30.6974 17.6641C30.5796 17.6641 30.5796 17.6641 30.4619 17.5463C30.3441 17.4286 30.4619 17.193 30.5796 17.0753C30.6974 17.0753 30.6974 16.9575 30.8151 16.9575C30.9329 16.9575 31.0506 16.9575 31.0506 17.0753C31.0506 17.193 31.0506 17.193 31.0506 17.3108C31.0506 17.4285 30.9329 17.4285 30.9329 17.4285C30.9329 17.6641 30.8151 17.6641 30.6974 17.6641Z" fill="#650001"/>
    <path fill-rule="evenodd" clip-rule="evenodd" d="M26.8122 15.7808C26.8122 15.7808 26.8122 15.8985 26.6945 16.0163C26.5767 16.134 26.459 16.134 26.459 16.0163C26.459 16.0163 26.459 15.8985 26.5767 15.7808C26.6945 15.7808 26.8122 15.7808 26.8122 15.7808Z" fill="#99CC33"/>
    <path d="M26.5763 16.2512C26.4586 16.2512 26.4586 16.2512 26.3408 16.1335C26.3408 16.0157 26.3408 16.0157 26.3408 15.898C26.3408 15.7802 26.4586 15.7802 26.4586 15.7802C26.6941 15.6625 26.8119 15.6625 26.9296 15.7802V15.898C26.9296 16.0157 26.8118 16.1335 26.5763 16.2512C26.6941 16.2512 26.6941 16.1335 26.5763 16.2512Z" fill="#650001"/>
    <path fill-rule="evenodd" clip-rule="evenodd" d="M23.2781 17.311C23.2781 17.311 23.2781 17.4287 23.1603 17.5465C23.0425 17.6643 22.9248 17.6643 22.9248 17.5465C22.9248 17.5465 22.9248 17.4287 23.0425 17.311C23.278 17.1932 23.2781 17.1932 23.2781 17.311Z" fill="#99CC33"/>
    <path d="M23.1603 17.782C23.0425 17.782 23.0426 17.782 22.9248 17.6643C22.9248 17.5465 22.9248 17.5465 22.9248 17.4287C22.9248 17.311 23.0425 17.311 23.0425 17.311C23.278 17.1932 23.3958 17.1932 23.5136 17.311C23.6314 17.4287 23.5136 17.6642 23.3958 17.782C23.2781 17.6642 23.1603 17.782 23.1603 17.782Z" fill="#650001"/>
    <path fill-rule="evenodd" clip-rule="evenodd" d="M23.2793 23.3171C24.1036 22.9639 25.1634 22.6106 25.87 22.2573C25.7522 22.8461 25.2812 23.1994 24.8101 23.4349C24.4569 23.6704 23.8681 23.5527 23.2793 23.3171Z" fill="#EB2D04"/>
    <path d="M24.3391 23.7879C23.9858 23.7879 23.6326 23.6702 23.3971 23.4347C23.2793 23.4347 23.2793 23.3169 23.2793 23.1991C23.2793 23.0814 23.3971 23.0814 23.3971 22.9636C24.2214 22.6104 25.2812 22.2571 25.9877 21.9038C26.1055 21.9038 26.2232 21.9038 26.2232 21.9038C26.341 22.0216 26.341 22.0216 26.341 22.1393C26.1055 22.8459 25.6345 23.1991 25.1634 23.4347C24.8102 23.7879 24.5746 23.7879 24.3391 23.7879ZM23.9859 23.3169C24.3391 23.3169 24.5746 23.3169 24.8101 23.1991C25.1634 23.0814 25.3989 22.8459 25.5167 22.6104C25.0457 22.8459 24.5746 23.0814 23.9859 23.3169Z" fill="#650001"/>
    <g opacity="0.3">
        <path fill-rule="evenodd" clip-rule="evenodd" d="M24.8088 18.9597C24.5733 19.1952 24.22 19.4308 23.8668 19.4308C23.278 19.5485 22.9247 19.313 22.5714 18.9597C22.4537 18.842 22.4537 18.842 22.4537 18.7242C22.4537 18.842 22.3359 18.842 22.3359 18.9597C22.3359 19.0775 22.3359 19.1952 22.3359 19.313C22.3359 19.4308 22.3359 19.5485 22.4537 19.5485C22.4537 19.6663 22.5714 19.6663 22.5714 19.6663C22.8069 20.0195 23.278 20.2551 23.8668 20.1373C24.3378 20.1373 24.5733 19.9018 24.8088 19.5485C24.9266 19.313 25.0444 19.0775 25.0444 18.842C25.0444 18.7242 25.0443 18.7242 24.9266 18.6064C24.8088 18.842 24.8088 18.842 24.8088 18.9597Z" fill="#650001"/>
    </g>
    <g opacity="0.3">
        <path fill-rule="evenodd" clip-rule="evenodd" d="M28.6969 17.6641C28.2258 17.8996 27.7548 17.8996 27.4015 17.6641C27.2838 17.5463 27.166 17.4285 27.0483 17.3108C27.0483 17.3108 27.0483 17.3108 27.0483 17.193C26.9305 17.4285 26.9305 17.7818 27.0483 17.8996C27.166 18.1351 27.2838 18.2529 27.4015 18.3706C27.6371 18.4884 27.9903 18.6061 28.2259 18.4884C28.3436 18.4884 28.4614 18.3706 28.6969 18.3706C29.4034 18.0173 29.6389 17.4286 29.4034 16.9575C29.2857 17.193 29.1679 17.5463 28.6969 17.6641Z" fill="#650001"/>
    </g>
    <g opacity="0.3">
        <path fill-rule="evenodd" clip-rule="evenodd" d="M25.1627 16.4871C25.045 16.7226 24.8095 16.7226 24.5739 16.7226C24.4562 16.7226 24.4562 16.7226 24.3384 16.6048L24.2207 16.4871C24.1029 16.7226 24.2207 16.9581 24.3384 17.0759C24.3384 17.0759 24.3384 17.0759 24.4562 17.0759C24.6917 17.1936 25.045 17.0758 25.1627 16.8403C25.2805 16.6048 25.3983 16.4871 25.2805 16.2515C25.2805 16.2515 25.2805 16.1338 25.1627 16.1338C25.2805 16.3693 25.2805 16.3693 25.1627 16.4871Z" fill="#650001"/>
    </g>
    <g opacity="0.3">
        <path fill-rule="evenodd" clip-rule="evenodd" d="M21.041 30.8535C20.3344 30.9713 19.5101 30.7358 19.2746 30.2647C19.1568 30.3825 19.0391 30.618 19.0391 30.8535C19.0391 31.4423 19.9811 31.7956 21.041 31.6778C21.983 31.5601 22.9251 30.9713 22.8073 30.5002C22.8073 30.3825 22.6896 30.2647 22.5718 30.147C22.3363 30.5002 21.7475 30.7358 21.041 30.8535Z" fill="#650001"/>
    </g>
    <g opacity="0.3">
        <path fill-rule="evenodd" clip-rule="evenodd" d="M25.0452 27.9094C24.6919 27.9094 24.5741 27.9094 24.3386 27.9094C24.2209 27.9094 24.1031 27.7917 24.1031 27.7917C24.1031 27.7917 24.1031 27.9094 23.9854 27.9094C23.9854 28.0272 23.9854 28.0272 23.9854 28.1449C24.1031 28.3805 24.5741 28.616 24.9274 28.4982C25.2807 28.3805 25.5162 28.2627 25.634 28.0272C25.634 27.9094 25.7517 27.7917 25.634 27.7917C25.634 27.6739 25.5162 27.6739 25.5162 27.5562C25.6339 27.6739 25.3984 27.7917 25.0452 27.9094Z" fill="#650001"/>
    </g>
    <g opacity="0.3">
        <path fill-rule="evenodd" clip-rule="evenodd" d="M31.1672 26.2612C30.4606 26.3789 29.8718 26.1434 29.6363 25.7901C29.5186 25.9079 29.5186 26.0256 29.5186 26.1434C29.5186 26.6144 30.2251 26.8499 31.1672 26.8499C31.9915 26.7322 32.698 26.2612 32.5803 25.9079C32.5803 25.7901 32.5803 25.6724 32.4625 25.6724C32.227 26.0256 31.756 26.2612 31.1672 26.2612Z" fill="#650001"/>
    </g>
    <g opacity="0.3">
        <path fill-rule="evenodd" clip-rule="evenodd" d="M27.6362 24.9651C27.1651 25.0828 26.6941 24.9651 26.4586 24.7296C26.3408 24.8473 26.3408 24.9651 26.3408 25.0828C26.3408 25.4361 27.0474 25.7894 27.6362 25.6716C28.3427 25.5539 28.8137 25.2006 28.696 24.8473C28.696 24.7296 28.5782 24.6118 28.5782 24.6118C28.5782 24.7296 28.1072 24.9651 27.6362 24.9651Z" fill="#650001"/>
    </g>
    <g opacity="0.3">
        <path fill-rule="evenodd" clip-rule="evenodd" d="M31.1677 23.905C30.8144 24.0228 30.4611 24.0228 30.3434 23.905C30.2256 24.0228 30.2256 24.1405 30.2256 24.2583C30.3433 24.4938 30.8144 24.6116 31.1677 24.4938C31.6387 24.3761 31.8742 24.0228 31.8742 23.7873C31.8742 23.6695 31.7565 23.6695 31.7565 23.5518C31.6387 23.7873 31.4032 23.7873 31.1677 23.905Z" fill="#650001"/>
    </g>
    <g opacity="0.3">
        <path fill-rule="evenodd" clip-rule="evenodd" d="M18.5685 26.143C17.862 26.2607 17.391 26.0252 17.0377 25.672C16.9199 25.7897 16.9199 25.9075 16.9199 26.143C16.9199 26.614 17.6265 26.8495 18.5685 26.8495C19.3928 26.7318 20.0994 26.2607 19.9816 25.9075C19.9816 25.7897 19.8639 25.672 19.8639 25.5542C19.6283 25.9075 19.0396 26.143 18.5685 26.143Z" fill="#650001"/>
    </g>
    <g opacity="0.3">
        <path fill-rule="evenodd" clip-rule="evenodd" d="M15.3876 24.1406C15.2698 24.4939 14.9166 24.8472 14.4456 24.8472C13.9745 24.9649 13.6213 24.9649 13.3857 24.8472C13.3857 24.9649 13.3857 25.0827 13.3857 25.0827C13.5035 25.436 14.0923 25.5537 14.7988 25.3182C15.0343 25.2004 15.3876 25.0827 15.5054 24.9649C15.7409 24.7294 15.8587 24.4939 15.8587 24.2584C15.6231 24.3761 15.6231 24.2584 15.3876 24.1406Z" fill="#650001"/>
    </g>
    <g opacity="0.3">
        <path fill-rule="evenodd" clip-rule="evenodd" d="M23.3958 28.8516C23.6313 28.8516 23.8669 29.0871 23.8669 29.3226C23.8669 29.5581 23.6313 29.7936 23.3958 29.7936C23.1603 29.7936 22.9248 29.5581 22.9248 29.3226C22.9248 29.0871 23.2781 28.8516 23.3958 28.8516Z" fill="#650001"/>
    </g>
    <g opacity="0.3">
        <path fill-rule="evenodd" clip-rule="evenodd" d="M30.6966 22.021C30.9321 22.021 31.1677 22.2565 31.1677 22.492C31.1677 22.7275 30.9321 22.9631 30.6966 22.9631C30.4611 22.9631 30.2256 22.7275 30.2256 22.492C30.3433 22.1388 30.5789 22.021 30.6966 22.021Z" fill="#650001"/>
    </g>
    <g opacity="0.3">
        <path fill-rule="evenodd" clip-rule="evenodd" d="M17.7423 30.6172C17.8601 30.6172 17.9779 30.7349 17.9779 30.8527C17.9779 30.9705 17.8601 31.0882 17.7423 31.0882C17.6246 31.0882 17.5068 30.9705 17.5068 30.8527C17.5068 30.7349 17.6246 30.6172 17.7423 30.6172Z" fill="#650001"/>
    </g>
    <g opacity="0.3">
        <path fill-rule="evenodd" clip-rule="evenodd" d="M28.3419 26.3784C28.4597 26.3784 28.5775 26.4962 28.5775 26.6139C28.5775 26.7317 28.4597 26.8494 28.3419 26.8494C28.2242 26.8494 28.1064 26.7317 28.1064 26.6139C28.1064 26.4962 28.2242 26.3784 28.3419 26.3784Z" fill="#650001"/>
    </g>
    <g opacity="0.3">
        <path fill-rule="evenodd" clip-rule="evenodd" d="M23.9846 26.3784C24.1023 26.3784 24.22 26.4962 24.22 26.6139C24.22 26.7317 24.1023 26.8494 23.9846 26.8494C23.8668 26.8494 23.749 26.7317 23.749 26.6139C23.749 26.4962 23.8668 26.3784 23.9846 26.3784Z" fill="#650001"/>
    </g>
    <g opacity="0.3">
        <path fill-rule="evenodd" clip-rule="evenodd" d="M29.1662 29.2046C29.284 29.2046 29.4017 29.3224 29.4017 29.4401C29.4017 29.5579 29.284 29.6756 29.1662 29.6756C29.0484 29.6756 28.9307 29.5579 28.9307 29.4401C28.9307 29.3224 29.0484 29.2046 29.1662 29.2046Z" fill="#650001"/>
    </g>
    <g opacity="0.3">
        <path fill-rule="evenodd" clip-rule="evenodd" d="M21.6291 28.1455C21.7468 28.1455 21.8646 28.2633 21.8646 28.381C21.8646 28.4988 21.7468 28.6165 21.6291 28.6165C21.5113 28.6165 21.3936 28.4988 21.3936 28.381C21.3936 28.2633 21.5113 28.1455 21.6291 28.1455Z" fill="#650001"/>
    </g>
    <g opacity="0.3">
        <path fill-rule="evenodd" clip-rule="evenodd" d="M24.103 31.0889C24.2207 31.0889 24.2207 31.0889 24.103 31.0889C24.2207 31.3244 24.103 31.3244 24.103 31.3244C23.9852 31.2066 23.9852 31.0889 24.103 31.0889C23.9852 31.0889 23.9852 31.0889 24.103 31.0889Z" fill="#650001"/>
    </g>
    <g opacity="0.3">
        <path fill-rule="evenodd" clip-rule="evenodd" d="M27.1643 23.3169C27.2821 23.3169 27.2821 23.4347 27.1643 23.3169C27.2821 23.5524 27.1643 23.5524 27.1643 23.5524C27.0465 23.5524 27.0465 23.4347 27.1643 23.3169C27.0465 23.3169 26.9288 23.4347 27.1643 23.3169Z" fill="#650001"/>
    </g>
    <g opacity="0.3">
        <path fill-rule="evenodd" clip-rule="evenodd" d="M18.5676 21.4331C18.6854 21.4331 18.6854 21.5509 18.5676 21.4331C18.6854 21.6686 18.5676 21.6686 18.5676 21.6686C18.4499 21.6686 18.4499 21.5509 18.5676 21.4331C18.4499 21.4331 18.3321 21.4331 18.5676 21.4331Z" fill="#650001"/>
    </g>
    <g opacity="0.5">
        <path fill-rule="evenodd" clip-rule="evenodd" d="M20.9224 30.0288C21.2756 30.0288 21.6289 30.0288 21.6289 30.1466C21.6289 30.2643 21.2756 30.3821 20.9224 30.3821C20.5691 30.3821 20.2158 30.3821 20.2158 30.2643C20.2158 30.1466 20.5691 30.0288 20.9224 30.0288Z" fill="white"/>
    </g>
    <g opacity="0.5">
        <path fill-rule="evenodd" clip-rule="evenodd" d="M18.4491 25.436C18.8024 25.436 19.0379 25.436 19.0379 25.5538C19.0379 25.6715 18.8024 25.7893 18.4491 25.7893C18.0959 25.7893 17.8604 25.7893 17.8604 25.6715C17.8604 25.5538 18.0959 25.436 18.4491 25.436Z" fill="white"/>
    </g>
    <g opacity="0.5">
        <path fill-rule="evenodd" clip-rule="evenodd" d="M14.447 24.4941C14.6825 24.3763 14.8003 24.3763 14.8003 24.4941C14.8003 24.4941 14.6825 24.6118 14.447 24.7296C14.2115 24.8474 14.0938 24.8474 14.0938 24.7296C14.0938 24.7296 14.2115 24.6118 14.447 24.4941Z" fill="white"/>
    </g>
    <g opacity="0.5">
        <path fill-rule="evenodd" clip-rule="evenodd" d="M31.0513 25.436C31.4046 25.436 31.7578 25.436 31.7578 25.5538C31.7578 25.6715 31.4046 25.7893 31.0513 25.7893C30.698 25.7893 30.3447 25.7893 30.3447 25.6715C30.3447 25.6715 30.5802 25.5538 31.0513 25.436Z" fill="white"/>
    </g>
    <g opacity="0.5">
        <path fill-rule="evenodd" clip-rule="evenodd" d="M27.6355 24.4946C27.871 24.4946 27.9888 24.4946 27.9888 24.4946C27.9888 24.4946 27.871 24.6124 27.6355 24.4946C27.4 24.6124 27.2822 24.6124 27.2822 24.6124C27.2822 24.6124 27.5178 24.6124 27.6355 24.4946Z" fill="white"/>
    </g>
    <g opacity="0.5">
        <path fill-rule="evenodd" clip-rule="evenodd" d="M28.1054 16.8398C28.4587 16.722 28.8119 16.722 28.8119 16.8398C28.8119 16.9575 28.5764 17.0753 28.2232 17.3108C27.8699 17.4286 27.5166 17.4286 27.5166 17.3108C27.5166 17.1931 27.6344 16.9575 28.1054 16.8398Z" fill="white"/>
    </g>
    <g opacity="0.5">
        <path fill-rule="evenodd" clip-rule="evenodd" d="M23.6313 18.4893C23.9846 18.4893 24.3379 18.607 24.3379 18.7248C24.3379 18.8425 23.9846 18.8425 23.6313 18.8425C23.278 18.8425 22.9248 18.7248 22.9248 18.607C23.0426 18.4893 23.278 18.4893 23.6313 18.4893Z" fill="white"/>
    </g>
</svg>
