<svg width="48" height="48" viewBox="0 0 48 48" fill="none" xmlns="http://www.w3.org/2000/svg">
    <rect width="48" height="48" rx="24" fill="#95E1F6"/>
    <path opacity="0.2" d="M36.4996 31.2002C36.4996 34.8002 30.8996 37.6002 23.7996 37.6002C20.2996 37.6002 17.1996 36.9002 14.7996 35.7002C12.4996 34.5002 11.0996 32.9002 11.0996 31.1002C11.0996 27.5002 16.6996 24.7002 23.7996 24.7002C29.0996 24.7002 33.4996 26.3002 35.3996 28.6002C36.0996 29.4002 36.4996 30.3002 36.4996 31.2002Z" fill="#3A3A3A"/>
    <path d="M35.7 18.5998H31.7C29.5 17.4998 26.8 16.7998 23.8 16.7998C20.8 16.7998 18.2 17.4998 15.9 18.5998H11.9C11.9 18.5998 11 23.1998 11 25.2998C11 30.0998 16.7 33.7998 23.7 33.7998C30.7 33.7998 36.4 29.9998 36.4 25.2998C36.6 23.0998 35.7 18.5998 35.7 18.5998Z" fill="#FFDFB3"/>
    <mask id="mask0_1129_34094" style="mask-type:luminance" maskUnits="userSpaceOnUse" x="11" y="16" width="26" height="18">
        <path d="M35.7 18.5998H31.7C29.5 17.4998 26.8 16.7998 23.8 16.7998C20.8 16.7998 18.2 17.4998 15.9 18.5998H11.9C11.9 18.5998 11 23.1998 11 25.2998C11 30.0998 16.7 33.7998 23.7 33.7998C30.7 33.7998 36.4 29.9998 36.4 25.2998C36.6 23.0998 35.7 18.5998 35.7 18.5998Z" fill="white"/>
    </mask>
    <g mask="url(#mask0_1129_34094)">
        <path d="M11.2002 19.7C11.2002 19.7 15.5002 28.9 31.8002 24.4C31.8002 24.4 35.2002 26.5 31.8002 31.5C28.4002 36.6 46.1002 23.8 46.1002 23.8L40.8002 15.8L24.7002 15.5L7.7002 17L11.2002 19.7Z" fill="#E2BF9A"/>
    </g>
    <mask id="mask1_1129_34094" style="mask-type:luminance" maskUnits="userSpaceOnUse" x="11" y="16" width="26" height="18">
        <path d="M35.7 18.5998H31.7C29.5 17.4998 26.8 16.7998 23.8 16.7998C20.8 16.7998 18.2 17.4998 15.9 18.5998H11.9C11.9 18.5998 11 23.1998 11 25.2998C11 30.0998 16.7 33.7998 23.7 33.7998C30.7 33.7998 36.4 29.9998 36.4 25.2998C36.6 23.0998 35.7 18.5998 35.7 18.5998Z" fill="white"/>
    </mask>
    <g mask="url(#mask1_1129_34094)">
        <path opacity="0.49" d="M17.4004 19.4999C17.4004 19.4999 9.90039 32.4999 19.2004 39.0999C28.3004 45.5999 4.6004 42.9999 4.6004 42.7999C4.6004 42.5999 3.40039 19.0999 3.40039 19.0999L15.9004 10.3999L17.4004 19.4999Z" fill="#FFFAF3"/>
    </g>
    <mask id="mask2_1129_34094" style="mask-type:luminance" maskUnits="userSpaceOnUse" x="11" y="16" width="26" height="18">
        <path d="M35.7 18.5998H31.7C29.5 17.4998 26.8 16.7998 23.8 16.7998C20.8 16.7998 18.2 17.4998 15.9 18.5998H11.9C11.9 18.5998 11 23.1998 11 25.2998C11 30.0998 16.7 33.7998 23.7 33.7998C30.7 33.7998 36.4 29.9998 36.4 25.2998C36.6 23.0998 35.7 18.5998 35.7 18.5998Z" fill="white"/>
    </mask>
    <g mask="url(#mask2_1129_34094)">
        <path opacity="0.18" d="M9.09961 28.3999C9.09961 28.3999 22.1996 36.7999 39.6996 28.3999C57.1996 19.9999 19.8996 47.4999 19.8996 47.4999C19.8996 47.4999 16.8996 49.0999 15.2996 46.8999C13.6996 44.5999 9.09961 28.3999 9.09961 28.3999Z" fill="#823A3A"/>
    </g>
    <path d="M23.8996 34.0999C16.6996 34.0999 11.0996 30.0999 11.0996 24.9999C11.0996 22.7999 11.9996 18.0999 11.9996 17.8999V17.6999H16.0996C18.7996 16.4999 21.2996 15.8999 23.9996 15.8999C26.8996 15.8999 29.5996 16.4999 31.8996 17.6999H35.9996V17.8999C35.9996 18.0999 36.8996 22.6999 36.6996 24.9999C36.6996 29.9999 30.8996 34.0999 23.8996 34.0999ZM12.3996 18.1999C12.1996 19.0999 11.4996 23.0999 11.4996 24.9999C11.4996 29.7999 16.8996 33.5999 23.7996 33.5999C30.5996 33.5999 36.0996 29.6999 36.0996 24.9999C36.2996 22.9999 35.5996 19.0999 35.3996 18.1999H31.5996C29.2996 16.9999 26.6996 16.3999 23.8996 16.3999C21.2996 16.3999 18.7996 16.9999 16.1996 18.1999H16.0996H12.3996Z" fill="#823A3A"/>
    <path d="M17.1998 29.6001C16.0998 29.0001 14.9998 28.6001 13.9998 27.8001C13.8998 27.7001 13.7998 27.5001 13.7998 27.2001C13.7998 26.6001 13.7998 25.9001 13.8998 25.4001C13.9998 24.9001 14.4998 24.8001 14.5998 24.9001C15.3998 25.5001 16.3998 25.9001 17.3998 26.3001C17.5998 26.4001 17.8998 26.6001 17.8998 26.9001C17.8998 27.6001 17.8998 28.4001 17.8998 29.1001C17.9998 29.4001 17.4998 29.7001 17.1998 29.6001Z" fill="#823A3A"/>
    <path d="M23.8998 11C30.4998 11 35.9998 13.5 35.9998 17.3C35.9998 21.1 30.5998 24.1 23.8998 24.1C17.2998 24.1 11.7998 21.1 11.7998 17.3C11.7998 13.5 17.0998 11 23.8998 11Z" fill="#823A3A"/>
    <path d="M34.6996 16.8999C34.6996 20.0999 29.7996 22.7999 23.8996 22.7999C17.9996 22.7999 13.0996 20.1999 13.0996 16.8999C13.0996 13.6999 17.9996 11.3999 23.8996 11.3999C29.8996 11.3999 34.6996 13.5999 34.6996 16.8999Z" fill="#823A3A"/>
    <path d="M23.8998 22.9004C29.754 22.9004 34.4998 20.6618 34.4998 17.9004C34.4998 15.139 29.754 12.9004 23.8998 12.9004C18.0456 12.9004 13.2998 15.139 13.2998 17.9004C13.2998 20.6618 18.0456 22.9004 23.8998 22.9004Z" fill="#F4511E"/>
    <path d="M23.9002 22.9002C18.0002 22.9002 13.2002 20.6002 13.2002 17.8002C13.2002 15.0002 18.0002 12.7002 23.9002 12.7002C29.8002 12.7002 34.6002 15.0002 34.6002 17.8002C34.6002 20.6002 29.8002 22.9002 23.9002 22.9002ZM23.9002 13.0002C18.1002 13.0002 13.4002 15.2002 13.4002 17.9002C13.4002 20.6002 18.1002 22.8002 23.9002 22.8002C29.7002 22.8002 34.4002 20.6002 34.4002 17.9002C34.4002 15.2002 29.7002 13.0002 23.9002 13.0002Z" fill="#424242"/>
    <path d="M33.0002 17.3C32.3002 17.1 31.6002 17.2 31.1002 16.8C30.5002 16.5 30.3002 16 29.6002 16C29.1002 16 28.9002 16.2 28.5002 16.5C28.0002 16.7 27.8002 16.7 27.2002 16.7C26.7002 16.6 26.5002 16.4 26.1002 16.4C25.5002 16.3 25.3002 16.4 24.8002 16.6C24.3002 16.8 24.1002 17.2 23.8002 17.2C23.2002 17.2 23.0002 16.9 22.4002 16.9C21.9002 16.8 21.7002 17 21.3002 17.2C20.8002 17.4 20.6002 17.8 20.3002 17.8C19.8002 18 19.6002 18 19.2002 17.8C18.9002 17.6 18.6002 17.2 18.9002 17.1C19.0002 16.9 19.4002 16.8 19.6002 16.8C19.8002 16.8 20.2002 16.8 20.3002 16.8C20.9002 16.6 21.0002 16 21.6002 15.7C22.2002 15.5 22.5002 15.7 23.1002 15.8C23.4002 15.9 23.8002 16 24.1002 16C24.2002 16 24.4002 15.9 24.6002 15.8C24.8002 15.8 25.1002 15.8 25.2002 15.8C25.9002 15.8 26.6002 15.7 27.1002 15.6C27.7002 15.5 28.0002 15.4 28.6002 15.3C28.8002 15.3 29.2002 15.1 28.8002 14.7C28.7002 14.6 28.2002 14.5 28.1002 14.5C27.9002 14.5 27.5002 14.6 27.4002 14.6C26.8002 14.6 26.4002 14 25.7002 14C24.9002 13.9 24.1002 14.8 23.3002 14.7C22.7002 14.6 22.4002 14.1 21.8002 14.1C21.3002 14 21.0002 14.1 20.5002 14.3C19.9002 14.6 19.8002 15 19.2002 15.1C18.6002 15.4 18.4002 15.7 17.7002 15.8C17.0002 15.9 16.0002 15.7 15.8002 16.5C15.7002 16.8 15.7002 17.1 15.7002 17.2C15.7002 17.5 15.6002 17.8 15.5002 17.9C15.3002 18.1 14.9002 18.2 14.8002 18.5C14.6002 18.6 14.5002 18.8 14.2002 19C14.5002 19.5 14.9002 19.8 15.5002 20.1C15.5002 20 15.6002 19.9 15.6002 19.8C15.8002 19.5 16.1002 19.2 16.3002 19.1C16.9002 18.9 17.3002 19.1 17.9002 19.1C18.4002 19.1 18.6002 18.9 18.8002 18.8C19.0002 18.7 19.4002 18.5 19.7002 18.3C20.2002 18.2 20.4002 18.3 20.6002 18.5C20.8002 18.7 21.1002 19.2 20.8002 19.3C20.6002 19.4 20.2002 19.6 20.1002 19.6C20.0002 19.6 19.5002 19.5 19.3002 19.5C18.4002 19.5 17.6002 20.3 16.8002 20.8C17.6002 21.4 18.7002 21.6 20.0002 21.9C20.1002 21.8 20.2002 21.7 20.2002 21.7C20.5002 21.4 20.9002 21 21.3002 21.1C21.8002 21.2 22.0002 21.7 22.2002 21.8C22.5002 22 22.9002 21.9 23.1002 21.9C23.4002 21.8 23.7002 21.7 24.0002 21.6C25.1002 21.1 26.6002 21.4 27.6002 22.2C28.9002 21.9 30.0002 21.5 31.0002 21.2C30.8002 21.1 30.7002 20.9 30.5002 20.6C30.3002 20.4 30.0002 20 29.8002 20C29.2002 19.8 28.5002 20.3 28.0002 20.1C27.5002 20 27.3002 19.5 27.1002 19.4C26.5002 18.9 25.8002 18.9 25.2002 19.1C24.6002 19.3 23.8002 19.4 23.1002 19.4C22.9002 19.4 22.6002 19.4 22.5002 19.2C22.4002 19 22.5002 18.6 22.6002 18.5C22.8002 18.2 23.2002 17.9 23.4002 17.9C24.0002 17.9 24.3002 18.4 24.8002 18.2C25.4002 18.1 25.5002 17.5 26.1002 17.3C26.4002 17.2 26.7002 17.4 26.9002 17.6C27.2002 17.8 27.5002 18.1 27.6002 18.3C27.9002 18.5 28.2002 18.5 28.3002 18.6C28.5002 18.7 28.9002 18.8 29.0002 18.8C29.6002 18.9 30.0002 18.8 30.7002 18.8C31.4002 18.8 31.8002 18.8 32.3002 19.1C32.6002 19.3 32.9002 19.6 32.9002 19.8C33.5002 19.2 33.8002 18.8 34.2002 18.1C34.0002 17.8 33.5002 17.4 33.0002 17.3Z" fill="#FC8D70"/>
    <path d="M16.3003 16.6997C16.0003 16.9997 15.7003 17.2997 15.6003 17.4997C15.5003 17.7997 15.3003 18.1997 15.4003 18.4997C15.5003 18.7997 15.6003 19.0997 15.9003 19.1997C16.1003 19.4997 16.4003 19.7997 16.5003 19.8997C16.6003 20.0997 16.8003 20.3997 17.0003 20.4997C17.3003 20.6997 17.7003 20.5997 18.0003 20.6997C18.3003 20.7997 18.6003 20.8997 18.7003 21.1997C19.0003 21.2997 19.3003 21.3997 19.4003 21.3997C19.6003 21.3997 20.0003 21.1997 20.0003 20.7997C20.0003 20.5997 19.9003 20.2997 19.7003 20.1997C19.5003 20.0997 19.2003 19.9997 19.1003 19.9997C18.9003 19.8997 18.5003 19.8997 18.4003 19.8997C18.1003 19.8997 17.8003 19.8997 17.6003 19.7997C17.0003 19.6997 16.9003 19.1997 16.6003 18.9997C16.5003 18.8997 16.4003 18.6997 16.3003 18.3997C16.2003 18.1997 16.2003 17.8997 16.4003 17.7997C16.5003 17.5997 16.9003 17.5997 17.0003 17.4997C17.3003 17.2997 17.5003 16.8997 17.6003 16.7997C17.9003 16.1997 18.3003 16.0997 18.7003 15.6997C18.9003 15.5997 19.4003 15.1997 19.3003 15.0997C19.1003 14.8997 18.6003 15.2997 18.5003 15.3997C17.4003 15.7997 16.8003 16.1997 16.3003 16.6997Z" fill="#E0F294"/>
    <path d="M22.7003 21.3001C23.3003 21.4001 23.6003 21.1001 24.2003 21.2001C24.5003 21.3001 24.8003 21.5001 25.0003 21.7001C25.6003 21.8001 26.0003 21.5001 26.6003 21.4001C27.3003 21.3001 28.1003 21.6001 28.8003 21.5001C29.5003 21.4001 30.2003 20.8001 30.7003 20.1001C31.2003 19.5001 31.4003 19.1001 31.6003 18.3001C31.8003 17.6001 31.7003 16.9001 31.1003 16.5001C30.8003 16.2001 30.4003 15.9001 30.2003 15.8001C30.0003 15.7001 29.7003 15.6001 29.6003 15.5001C29.4003 15.4001 29.1003 15.7001 29.4003 16.0001C29.6003 16.1001 29.9003 16.3001 30.0003 16.5001C30.2003 16.7001 30.5003 16.6001 30.6003 16.7001C30.9003 16.9001 31.2003 17.3001 31.2003 17.6001C31.2003 17.9001 31.0003 18.3001 30.6003 18.5001C30.5003 18.6001 30.3003 18.7001 30.1003 18.8001C30.0003 19.0001 30.1003 19.3001 30.1003 19.4001C30.1003 19.7001 29.9003 20.0001 29.8003 20.1001C29.5003 20.6001 29.2003 20.8001 28.8003 20.9001C28.5003 21.0001 28.1003 20.8001 27.9003 20.8001C27.6003 20.8001 27.3003 20.8001 27.2003 20.9001C26.9003 21.0001 26.6003 21.0001 26.4003 21.1001C26.1003 21.2001 25.8003 21.2001 25.6003 21.3001C24.9003 21.4001 24.3003 21.4001 23.7003 21.3001C23.4003 21.2001 23.1003 21.2001 22.9003 21.0001C22.7003 20.9001 22.3003 20.5001 22.2003 20.5001C21.6003 20.6001 22.2003 21.2001 22.7003 21.3001Z" fill="#E0F294"/>
    <path d="M27.9004 15.2999C28.0004 15.3999 28.1004 15.3999 28.2004 15.3999C28.4004 15.3999 28.8004 15.3999 28.8004 15.1999C28.8004 14.9999 28.8004 14.8999 28.6004 14.8999C28.4004 14.7999 28.1004 14.8999 28.0004 14.8999C27.9004 14.7999 27.6004 14.9999 27.9004 15.2999Z" fill="#E0F294"/>
    <path d="M26.8004 14.0999C26.9004 14.2999 27.0004 14.6999 26.8004 14.7999C26.6004 14.7999 26.5004 14.5999 26.5004 14.4999C26.5004 14.2999 26.5004 14.1999 26.4004 13.9999C26.3004 13.8999 26.1004 13.7999 25.9004 13.7999C25.4004 13.7999 25.2004 13.7999 24.8004 13.7999C24.5004 13.7999 24.1004 13.7999 23.9004 13.8999C23.6004 13.8999 23.3004 13.8999 23.2004 13.9999C22.7004 14.0999 22.5004 14.0999 22.2004 14.2999C22.1004 14.2999 22.0004 14.2999 22.0004 14.2999C21.9004 14.1999 22.0004 14.0999 22.1004 13.9999C22.2004 13.8999 22.3004 13.9999 22.4004 13.9999C23.0004 13.9999 23.4004 13.3999 24.1004 13.3999C24.4004 13.3999 24.7004 13.4999 25.0004 13.4999C25.2004 13.4999 25.5004 13.4999 25.6004 13.4999C26.0004 13.5999 26.6004 13.6999 26.8004 14.0999Z" fill="#E0F294"/>
    <path d="M22.1004 16.5999C22.0004 16.6999 21.8004 16.6999 21.6004 16.7999C21.5004 16.8999 21.4004 16.8999 21.4004 17.0999C21.4004 17.1999 21.5004 17.2999 21.6004 17.2999C21.7004 17.2999 21.8004 17.2999 21.9004 17.1999C22.0004 17.0999 22.1004 17.0999 22.1004 16.9999C22.3004 16.7999 22.7004 16.7999 22.8004 16.8999C23.0004 16.8999 23.4004 16.9999 23.3004 16.6999C23.2004 16.4999 22.8004 16.3999 22.7004 16.3999C22.7004 16.3999 22.4004 16.4999 22.1004 16.5999Z" fill="#E0F294"/>
    <path d="M25.1006 17.3998C25.1006 17.4998 25.2006 17.4998 25.2006 17.5998H25.3006C25.4006 17.5998 25.5006 17.5998 25.6006 17.5998C25.7006 17.5998 25.8006 17.5998 25.8006 17.5998C26.0006 17.4998 25.8006 17.3998 25.7006 17.2998C25.6006 17.2998 25.1006 17.2998 25.1006 17.3998Z" fill="#E0F294"/>
    <path d="M18.8004 17.0002C18.7004 16.8002 18.7004 16.4002 18.7004 16.3002C18.2004 16.1002 18.0004 16.0002 17.4004 15.7002C17.4004 15.8002 17.4004 15.8002 17.4004 15.9002C17.5004 16.6002 17.7004 17.4002 18.0004 18.0002C18.0004 18.1002 18.1004 18.2002 18.2004 18.3002C18.7004 18.5002 18.9004 18.8002 19.3004 18.9002H19.4004C19.3004 18.1002 19.0004 17.5002 18.8004 17.0002Z" fill="#E8E88E"/>
    <path d="M18.8006 16.2002C18.9006 15.9002 19.1006 15.7002 19.4006 15.6002C19.9006 15.3002 20.2006 15.0002 20.7006 14.7002C20.6006 14.6002 20.6006 14.5002 20.5006 14.5002C20.2006 14.4002 19.9006 14.3002 19.8006 14.2002C19.6006 14.1002 19.5006 14.2002 19.2006 14.2002C18.6006 14.7002 18.2006 15.0002 17.7006 15.6002C17.6006 15.7002 17.6006 15.8002 17.6006 15.8002C18.1006 15.8002 18.4006 15.9002 18.8006 16.2002C18.7006 16.2002 18.7006 16.2002 18.8006 16.2002Z" fill="#F2F9AF"/>
    <path d="M20.7002 14.7002C20.1002 14.9002 19.8002 15.3002 19.3002 15.5002C19.1002 15.7002 18.7002 15.8002 18.7002 16.1002V16.2002C18.7002 16.4002 18.7002 16.8002 18.8002 16.9002C19.0002 17.5002 19.4002 18.0002 19.5002 18.7002C19.6002 18.7002 19.7002 18.7002 19.7002 18.6002C20.2002 18.4002 20.4002 18.1002 20.7002 17.9002C20.8002 17.8002 20.9002 17.6002 20.9002 17.4002C21.2002 16.7002 20.9002 15.7002 20.7002 14.7002Z" fill="#D8D57D"/>
    <path d="M23.7001 19.8005C23.1001 19.2005 22.4001 18.9005 21.8001 18.5005C21.7001 18.6005 21.7001 18.6005 21.6001 18.7005C21.3001 19.3005 21.0001 19.6005 20.8001 20.2005C20.7001 20.4005 20.7001 20.8005 20.9001 20.9005L21.8001 21.8005C21.9001 21.9005 22.0001 21.9005 22.1001 22.0005C22.7001 21.3005 23.1001 20.6005 23.7001 19.8005C23.5001 19.9005 23.5001 19.9005 23.7001 19.8005Z" fill="#E8E88E"/>
    <path d="M23.7004 19.8004C23.7004 19.9004 23.6004 19.9004 23.6004 20.0004C23.0004 20.7004 22.6004 21.4004 21.9004 22.1004C22.1004 22.1004 22.2004 22.1004 22.5004 22.0004C23.3004 21.3004 24.3004 20.3004 25.0004 19.6004C25.2004 19.4004 25.2004 19.0004 25.1004 18.9004C24.6004 19.0004 24.1004 19.4004 23.7004 19.8004Z" fill="#D8D57D"/>
    <path d="M23.6996 19.8004C24.1996 19.3004 24.4996 19.1004 25.0996 18.8004C24.5996 18.2004 24.2996 18.1004 23.5996 17.9004C23.4996 17.9004 23.2996 17.9004 23.0996 17.9004C22.4996 18.2004 22.0996 18.5004 21.5996 18.7004C22.3996 18.9004 23.0996 19.2004 23.6996 19.8004Z" fill="#F2F9AF"/>
    <path d="M29.0998 18.1999L26.2998 17.8999C26.2998 17.9999 26.2998 18.0999 26.3998 18.0999C26.4998 18.1999 26.5998 18.3999 26.6998 18.5999C26.7998 18.6999 26.7998 18.7999 26.8998 18.7999C27.6998 19.0999 28.6998 19.3999 29.6998 19.4999C29.7998 19.4999 29.7998 19.4999 29.8998 19.4999C29.7998 18.8999 29.5998 18.6999 29.3998 18.0999C29.2998 18.1999 29.1998 18.1999 29.0998 18.1999Z" fill="#E8E88E"/>
    <path d="M30.8002 16.6001C30.7002 16.4001 30.6002 16.3001 30.3002 16.3001C29.5002 16.3001 28.6002 16.2001 27.8002 16.1001C27.6002 16.1001 27.5002 16.1001 27.3002 16.3001L26.3002 17.7001C26.2002 17.8001 26.2002 17.9001 26.2002 18.0001L29.0002 18.3001C29.1002 18.3001 29.2002 18.3001 29.3002 18.2001C29.4002 18.2001 29.5002 18.1001 29.6002 18.0001C30.1002 17.5001 30.5002 17.1001 30.8002 16.6001Z" fill="#F2F9AF"/>
    <path d="M30.8004 16.6001C30.3004 17.2001 30.1004 17.5001 29.7004 18.1001C29.6004 18.2001 29.5004 18.3001 29.4004 18.3001C29.5004 18.9001 29.7004 19.1001 29.9004 19.7001C30.1004 19.7001 30.2004 19.6001 30.4004 19.4001C30.7004 18.7001 31.0004 17.9001 31.1004 17.2001C31.1004 17.1001 31.1004 17.0001 31.1004 16.7001C30.9004 16.7001 30.8004 16.7001 30.8004 16.6001Z" fill="#D8D57D"/>
    <path d="M24.5004 16.5002C24.2004 15.8002 23.9004 14.9002 23.8004 14.1002C23.8004 13.9002 23.7004 13.6002 23.7004 13.5002C23.7004 13.4002 23.8004 13.3002 23.9004 13.2002C23.8004 13.2002 23.7004 13.2002 23.6004 13.3002C23.5004 13.4002 23.4004 13.5002 23.3004 13.6002C23.0004 13.9002 22.7004 14.2002 22.6004 14.4002C22.5004 14.6002 22.4004 14.7002 22.5004 15.0002C22.7004 15.3002 23.1004 15.6002 23.2004 15.7002C23.8004 16.3002 24.1004 16.5002 24.7004 17.1002C24.8004 17.2002 24.9004 17.3002 25.2004 17.2002C25.2004 17.2002 25.1004 17.2002 25.1004 17.1002C24.6004 17.0002 24.6004 16.7002 24.5004 16.5002Z" fill="#E8E88E"/>
    <path d="M25.9 13.9003C25.3 13.6003 24.9 13.3003 24.2 13.3003C24.1 13.3003 23.9 13.3003 23.7 13.3003C23.6 13.4003 23.5 13.5003 23.5 13.6003C23.5 13.8003 23.5 14.1003 23.6 14.2003C23.8 14.9003 24.2 15.9003 24.3 16.6003C24.4 16.8003 24.5 17.1003 24.8 17.2003C24.8 17.2003 24.9 17.2003 24.9 17.3003C25 17.3003 25 17.2003 25 17.1003C25.5 16.4003 25.7 15.7003 26.1 15.0003C26.2 14.8003 26.3 14.5003 26.3 14.4003C26.3 14.2003 26 14.0003 25.9 13.9003Z" fill="#F2F9AF"/>
    <path d="M30.9996 18.8997C30.4996 18.2997 29.6996 18.2997 29.1996 18.3997C28.4996 18.5997 28.0996 19.0997 27.3996 19.3997C26.7996 19.6997 26.2996 20.0997 25.5996 20.0997C25.0996 20.0997 24.8996 19.7997 24.7996 19.3997C24.6996 19.2997 24.5996 19.3997 24.5996 19.4997C24.6996 20.0997 25.0996 20.5997 25.3996 20.9997C26.0996 21.4997 26.9996 21.5997 27.7996 21.4997C28.4996 21.4997 29.3996 21.3997 29.9996 20.8997C30.6996 20.6997 31.5996 19.4997 30.9996 18.8997Z" fill="#CC3D3C"/>
    <path d="M31.1994 19C30.9994 19.5 30.5994 19.7 30.4994 19.9C29.8994 20.5 29.3994 20.6 28.6994 20.7C28.3994 20.5 28.0994 20.4 27.8994 20.4C27.6994 20.4 27.2994 20.6 27.0994 20.9C26.4994 20.8 26.0994 20.8 25.5994 20.4C25.2994 20.3 24.9994 19.9 24.8994 19.8C24.9994 20.4 25.3994 20.7 25.6994 20.9C26.3994 21.4 27.2994 21.5 28.0994 21.4C28.7994 21.4 29.6994 21.3 30.2994 20.8C30.6994 20.7 31.4994 19.7 31.1994 19Z" fill="#A92B3D"/>
    <path d="M32.3994 18.2998C32.3994 18.1998 32.2994 17.9998 32.1994 17.7998C31.9994 18.2998 31.5994 18.4998 31.2994 18.4998C31.0994 18.2998 30.5994 17.9998 30.3994 18.1998C30.3994 18.4998 30.5994 18.7998 30.8994 18.7998C30.6994 18.9998 30.3994 19.3998 30.3994 19.4998C30.5994 19.4998 30.9994 19.4998 31.0994 19.2998C30.9994 19.4998 30.9994 19.8998 31.0994 19.8998C31.3994 19.5998 31.6994 19.0998 31.5994 18.5998C31.7994 18.8998 32.3994 18.2998 32.3994 18.2998Z" fill="#C4D150"/>
    <path d="M27 34.7999H20.1C19.8 34.7999 19.5 34.5999 19.5 34.1999V33.3999H27.5V34.1999C27.5 34.5999 27.3 34.7999 27 34.7999Z" fill="#823A3A"/>
</svg>
