<svg width="48" height="48" viewBox="0 0 48 48" fill="none" xmlns="http://www.w3.org/2000/svg">
    <rect width="48" height="48" rx="24" fill="#95E1F6"/>
    <path opacity="0.2" d="M13.6551 35.4986C15.3754 34.2083 19.2462 33.3481 23.762 33.3481C29.8907 33.3481 34.7292 34.961 34.7292 36.8963C34.7292 37.864 33.5465 38.8317 31.5036 39.4768C29.5682 40.122 26.7726 40.552 23.762 40.552C17.6333 40.552 12.7949 38.9392 12.7949 37.0039C12.7949 36.3587 13.1175 35.9286 13.6551 35.4986Z" fill="#3A3A3A"/>
    <path d="M23.1169 36.143H22.2568C15.8055 36.143 10.6445 30.982 10.6445 24.5307V21.9502H34.8367V24.5307C34.7292 30.982 29.5682 36.143 23.1169 36.143Z" fill="#FFDFB3"/>
    <mask id="mask0_1129_34082" style="mask-type:luminance" maskUnits="userSpaceOnUse" x="10" y="21" width="25" height="16">
        <path d="M23.1169 36.143H22.2568C15.8055 36.143 10.6445 30.982 10.6445 24.5307V21.9502H34.8367V24.5307C34.7292 30.982 29.5682 36.143 23.1169 36.143Z" fill="white"/>
    </mask>
    <g mask="url(#mask0_1129_34082)">
        <path d="M34.7292 23.7782L33.7615 17.0043C33.439 14.8539 31.6111 13.3486 29.5682 13.3486L8.81667 13.8862C7.74146 13.9938 6.77376 14.4238 5.91359 15.1765L3.8707 17.2194C2.3654 18.7247 2.25788 21.1977 3.76317 22.8105C8.70913 28.4016 23.6546 42.2718 20.1064 38.7236C17.0958 35.6055 14.7303 31.0896 15.8055 30.2294C16.6657 29.7993 17.7409 29.6918 18.6011 29.9069C24.5147 31.4122 29.5682 29.4768 32.4713 27.7564C34.0841 26.8963 34.8367 25.2835 34.7292 23.7782Z" fill="#E2BF9A"/>
    </g>
    <path d="M23.1173 36.4658H22.2571C15.6983 36.4658 10.3223 31.0898 10.3223 24.531V21.6279H35.2671V24.531C35.1596 31.0898 29.676 36.4658 23.1173 36.4658ZM11.0749 22.3806V24.6385C11.0749 30.8747 16.1284 35.9282 22.3646 35.9282H23.2248C29.3535 35.9282 34.5145 30.8747 34.622 24.6385V22.3806H11.0749Z" fill="#823A3A"/>
    <mask id="mask1_1129_34082" style="mask-type:luminance" maskUnits="userSpaceOnUse" x="10" y="21" width="26" height="16">
        <path d="M23.1173 36.4658H22.2571C15.6983 36.4658 10.3223 31.0898 10.3223 24.531V21.6279H35.2671V24.531C35.1596 31.0898 29.676 36.4658 23.1173 36.4658ZM11.0749 22.3806V24.6385C11.0749 30.8747 16.1284 35.9282 22.3646 35.9282H23.2248C29.3535 35.9282 34.5145 30.8747 34.622 24.6385V22.3806H11.0749Z" fill="white"/>
    </mask>
    <g mask="url(#mask1_1129_34082)">
        <path opacity="0.18" d="M34.0844 30.4446C34.0844 30.4446 23.9774 40.3365 9.56959 30.4446C-4.83821 20.5526 19.2465 51.4111 19.2465 51.4111L34.0844 30.4446Z" fill="#823A3A"/>
    </g>
    <path d="M22.688 28.5099C29.4576 28.5099 34.9454 25.6216 34.9454 22.0587C34.9454 18.4957 29.4576 15.6074 22.688 15.6074C15.9185 15.6074 10.4307 18.4957 10.4307 22.0587C10.4307 25.6216 15.9185 28.5099 22.688 28.5099Z" fill="#FFBF66"/>
    <path d="M22.6875 28.9397C15.6986 28.9397 10 25.9291 10 22.1659C10 18.4027 15.6986 15.3921 22.6875 15.3921C29.6763 15.3921 35.375 18.4027 35.375 22.1659C35.375 25.9291 29.6763 28.9397 22.6875 28.9397ZM22.6875 16.0372C16.1287 16.0372 10.7526 18.7252 10.7526 22.0584C10.7526 25.3915 16.1287 28.0796 22.6875 28.0796C29.2462 28.0796 34.6223 25.3915 34.6223 22.0584C34.6223 18.7252 29.2462 16.0372 22.6875 16.0372Z" fill="#823A3A"/>
    <path d="M33.1169 21.951C33.1169 24.9615 28.3859 27.4345 22.6873 27.4345C16.8812 27.4345 12.2578 25.0691 12.2578 21.951C12.2578 18.9404 16.9887 16.8975 22.6873 16.8975C28.601 16.6824 33.1169 18.9404 33.1169 21.951Z" fill="#823A3A"/>
    <mask id="mask2_1129_34082" style="mask-type:luminance" maskUnits="userSpaceOnUse" x="10" y="13" width="25" height="15">
        <path d="M34.8371 20.3383C34.8371 29.8002 10.3223 29.8002 10.3223 20.3383C10.3223 10.8765 34.9446 10.984 34.8371 20.3383Z" fill="white"/>
    </mask>
    <g mask="url(#mask2_1129_34082)">
        <path d="M34.1925 22.9188C34.4076 25.9294 30.8594 27.7573 28.2789 28.5099C22.4727 30.0152 14.8387 29.4776 11.183 24.3166C10.968 23.779 10.968 23.0264 11.0755 22.1662C11.3981 21.8436 11.5056 21.6286 11.5056 21.1985C12.4733 18.9406 15.6989 17.6503 18.0644 17.1127C19.4621 16.6826 20.8599 17.3277 22.1502 16.6826C25.2683 16.7901 28.8165 17.1127 31.5045 18.9406C32.0421 19.8007 32.4722 19.2631 33.1173 20.4459C34.1925 20.7684 33.4399 21.1985 34.1925 22.9188Z" fill="#E0935F"/>
        <path d="M26.4507 27.3271C23.7627 28.5098 20.6446 28.6173 17.8491 27.7572C16.4513 27.4346 14.8385 26.897 13.8708 25.8218C12.043 24.5315 13.4407 24.424 13.4407 22.7037C13.1181 21.1984 13.1182 20.2307 14.946 20.2307C15.3761 19.9081 15.3761 19.3705 15.8062 19.1555C16.2363 18.8329 17.0964 18.6179 17.419 19.048C19.4619 20.4457 21.3973 22.1661 23.2251 23.8864C23.7627 24.3165 24.6229 24.9616 24.9455 25.4992C25.1605 26.2519 25.9131 27.2196 26.4507 27.3271Z" fill="white"/>
        <path d="M14.8392 23.7793C15.6993 24.2094 16.667 24.3169 17.7422 24.3169C16.452 24.747 15.1617 24.532 13.979 23.9944C13.8715 24.532 13.4414 25.1771 13.6564 25.7147C13.1188 25.2846 13.764 24.4245 13.764 23.8868C13.4414 23.2417 12.9038 22.4891 13.3339 21.6289C13.3339 22.5966 13.979 23.2417 14.8392 23.7793Z" fill="#EAEAEA"/>
        <path d="M18.1713 21.306C18.3864 22.3812 17.7412 23.4564 16.666 23.7789C17.5262 23.2413 18.1713 22.1661 17.9563 20.9834C18.4939 21.521 18.2788 22.7037 17.7412 23.3489C18.3864 22.9188 19.0315 21.521 18.0638 21.0909" fill="#EAEAEA"/>
        <path d="M15.913 23.4567C15.0528 23.4567 14.4077 23.0266 13.8701 22.2739C14.9453 23.3491 17.7409 23.6717 17.4183 21.7363C17.9559 22.9191 16.9882 23.7792 15.913 23.4567Z" fill="#EAEAEA"/>
        <path d="M15.9131 24.1017C17.0958 23.8866 18.6011 23.6716 18.9237 22.3813C18.7086 23.5641 16.9883 24.6393 15.9131 24.1017Z" fill="#EAEAEA"/>
        <path d="M14.1936 24.5317C13.7635 25.4994 14.5161 26.5746 15.4838 26.4671C14.6237 26.2521 14.0861 25.1769 14.4086 24.4242C14.7312 23.9941 14.086 24.1017 13.9785 23.9941C14.1936 24.1017 14.1936 24.3167 14.1936 24.5317Z" fill="#EAEAEA"/>
        <path d="M14.1923 24.5314C13.9773 25.1765 14.4074 25.9291 15.0525 26.3592C13.9773 26.0366 13.7622 24.8539 13.9773 23.8862C14.4074 23.9938 14.1923 24.2088 14.1923 24.5314Z" fill="#DDDDDD"/>
        <path d="M22.5799 26.1442C22.9024 26.6818 23.225 25.7142 25.0529 26.5743C24.4078 26.4668 23.6551 26.2518 22.9025 26.5743C23.1175 26.6818 23.3325 26.7894 23.4401 26.8969C23.01 27.1119 21.7197 26.3593 22.3649 25.9292C22.4724 25.9292 22.4724 26.1442 22.5799 26.1442Z" fill="#DDDDDD"/>
        <path d="M20.2141 27.9721C18.9239 27.757 18.0637 26.7893 16.7734 27.0044C17.7411 26.5743 18.7088 26.8968 19.569 27.3269C20.9668 27.9721 22.4721 26.7893 23.8698 27.0044C22.4721 27.3269 21.2893 27.9721 20.2141 27.9721Z" fill="#DDDDDD"/>
        <path d="M24.8373 26.4669C23.0094 26.7895 20.644 26.5744 19.1387 25.2842C20.1064 26.5744 21.5041 27.0045 23.1169 26.897C23.6545 26.897 25.3749 26.897 25.6975 26.4669C25.6975 25.9293 25.3749 26.4669 24.8373 26.4669Z" fill="#EAEAEA"/>
        <path d="M17.2041 25.9293C17.5267 25.9293 17.6342 26.0368 17.8493 26.2519L17.9568 26.1443C17.3117 25.1767 15.8064 26.3594 15.0537 25.2842C15.5913 26.3594 16.4515 26.1443 17.2041 25.9293Z" fill="#DDDDDD"/>
        <path d="M16.3434 26.4668C19.2465 26.3593 18.3863 24.9615 19.7841 25.4991C18.8164 25.3916 18.4938 26.5743 17.5261 26.5743C15.4832 26.4668 15.0531 27.757 13.5479 25.9292C14.3005 26.3593 15.2682 26.3593 16.3434 26.4668Z" fill="#EAEAEA"/>
        <path d="M13.8701 26.3594C14.8378 26.7895 15.913 26.7895 16.8807 26.4669C15.913 26.7895 14.5152 27.2195 13.8701 26.3594Z" fill="#DDDDDD"/>
        <path d="M18.0646 25.6064C18.2796 25.6064 18.4947 26.0364 18.7097 26.0364C18.3872 25.3913 17.4195 25.0688 16.7743 25.4988C16.1292 25.9289 14.9465 25.6064 15.054 24.6387C14.9465 24.6387 14.839 24.6387 14.7314 24.6387C15.054 26.7891 16.6668 25.0688 18.0646 25.6064Z" fill="#EAEAEA"/>
        <path d="M16.8823 26.7897C17.85 26.4671 19.0327 27.0047 19.8929 26.2521L19.7854 26.1445C18.7102 27.1122 16.8823 25.9295 15.8071 27.3273C15.6996 27.4348 16.0222 27.4348 16.0222 27.5423C16.1297 27.2197 16.5597 26.8972 16.8823 26.7897Z" fill="#DDDDDD"/>
        <path d="M13.1191 22.0586C13.5492 23.6714 15.5921 24.209 17.0974 24.4241C15.6997 24.5316 13.1191 24.1015 13.1191 22.0586Z" fill="#DDDDDD"/>
        <path d="M14.8392 21.0908C13.6565 21.4134 13.8715 23.0262 14.7317 23.6713C13.764 23.2413 13.4415 21.8435 14.3016 21.0908C15.1618 20.5532 16.6671 21.3059 17.0972 20.0156C17.5273 20.2307 17.2047 20.4457 16.9897 20.6608C16.237 21.1984 15.3768 20.9833 14.8392 21.0908Z" fill="#DDDDDD"/>
        <path d="M15.0537 20.1234C15.4838 20.3385 16.344 20.3385 16.559 19.6934C16.1289 20.0159 15.4838 20.0159 15.1612 19.8009C15.0537 20.0159 15.0537 20.0159 15.0537 20.1234Z" fill="#DDDDDD"/>
        <path d="M14.4075 20.7684C14.9451 20.6608 15.8053 20.9834 16.3429 20.4458C15.8053 20.8759 15.0527 20.5533 14.4075 20.5533C13.2248 20.7684 13.1172 22.0586 13.9774 22.7037C13.3323 21.9511 13.3323 20.8759 14.4075 20.7684Z" fill="#EAEAEA"/>
        <path d="M20.4297 24.7465C20.8598 24.854 21.9351 24.9615 22.2576 24.639C22.0426 24.4239 21.9351 24.639 21.8275 24.639C20.7523 24.7465 19.9997 23.9938 18.9245 24.1014C18.2793 24.3164 17.4192 24.7465 16.6665 24.4239C16.4515 24.4239 16.2364 24.5314 16.1289 24.4239C16.9891 25.4991 18.2794 24.3164 19.247 24.2089C19.5696 24.3164 19.9997 24.7465 20.4297 24.7465Z" fill="#EAEAEA"/>
        <path d="M20.1064 24.7467C19.0312 24.1016 18.0635 24.8542 16.9883 24.7467C17.5259 24.6392 18.171 24.4242 18.7086 24.2091C19.9989 24.1016 20.9665 25.2843 22.1493 24.6392C21.6117 25.2843 20.7515 25.2843 20.1064 24.7467Z" fill="#DDDDDD"/>
        <path d="M21.9346 25.9296C22.4722 26.0371 23.5474 25.8221 23.3324 24.9619C22.7948 26.6822 19.4616 24.5318 18.709 26.4672C18.8165 26.4672 19.1391 26.4672 19.1391 26.3597C19.5691 25.607 20.9669 25.8221 21.9346 25.9296Z" fill="#DDDDDD"/>
        <path d="M18.709 27.2191C19.6767 26.2515 20.8594 27.4342 21.8271 26.7891C22.2572 27.1116 21.9346 27.1116 21.612 27.2191C20.7519 27.4342 19.9992 26.8966 19.2466 27.2191C19.1391 27.3267 18.924 27.3267 18.709 27.2191Z" fill="#DDDDDD"/>
        <path d="M19.3545 26.6818C19.7846 26.6818 19.9996 26.5743 20.4297 26.4668C20.1072 26.7894 19.5696 26.6818 19.1395 26.7894C18.9244 26.7894 18.7094 27.0044 18.6019 27.1119C18.4944 27.1119 18.3868 27.0044 18.2793 27.0044C18.6019 26.6818 18.9244 26.6818 19.3545 26.6818Z" fill="#EAEAEA"/>
        <path d="M19.1396 24.7466C19.2471 24.7466 19.4621 24.7466 19.5697 24.7466C19.1396 24.7466 18.602 25.1767 18.4945 25.7143C17.9568 25.3917 18.9245 24.7466 19.1396 24.7466Z" fill="#EAEAEA"/>
        <path d="M19.4614 25.6068C19.2464 25.6068 19.0313 25.7144 18.9238 25.8219C19.3539 24.7467 20.4291 25.2843 21.3968 25.1767C20.6442 25.2843 19.999 25.0692 19.4614 25.6068Z" fill="#DDDDDD"/>
        <path d="M19.0317 23.7788C18.7091 23.7788 18.3865 23.8863 17.9564 23.7788C17.8489 23.8863 17.6339 23.9939 17.5264 24.1014C19.4617 23.9939 18.6016 23.8863 20.4294 24.5315C19.9993 24.4239 19.8918 24.1014 19.4617 23.9939C19.5693 23.8863 19.6768 23.8863 19.7843 23.7788C19.5693 23.7788 19.4617 23.7788 19.0317 23.7788Z" fill="#DDDDDD"/>
        <path d="M16.344 21.3056C15.6989 21.6281 14.8387 21.6281 13.9785 21.4131C14.086 21.3056 14.1936 21.0905 14.4086 21.1981C15.0538 21.5206 16.2365 21.3056 16.9891 20.8755C16.7741 21.0905 16.559 21.198 16.344 21.3056Z" fill="#DDDDDD"/>
        <path d="M16.9885 23.4565C16.5584 24.3167 15.3757 24.4242 14.623 23.7791C15.2682 23.9941 16.3434 23.9941 16.9885 23.4565Z" fill="#DDDDDD"/>
        <path d="M16.7735 21.0908C16.9885 20.8758 17.2035 20.6607 17.3111 20.5532C17.5261 20.9833 16.881 21.4134 16.3434 21.6284C15.9133 21.8435 15.2682 21.736 15.0531 22.166C14.9456 22.3811 14.7306 22.166 14.623 22.2736C15.0531 21.4134 16.1283 21.5209 16.7735 21.0908Z" fill="#EAEAEA"/>
        <path d="M16.0211 21.8436C16.4512 21.736 17.2038 21.521 17.4189 20.9834C17.3113 21.9511 16.0211 21.6285 15.591 22.2737C15.4835 22.2737 15.376 22.1661 15.376 22.1661C15.591 22.3812 15.8061 21.9511 16.0211 21.8436Z" fill="#DDDDDD"/>
        <path d="M15.8063 22.7037C15.2687 22.7037 14.6235 22.3812 14.0859 22.5962C14.7311 21.9511 16.0213 22.9188 17.0965 22.0586C16.989 22.5962 16.2364 22.7037 15.8063 22.7037Z" fill="#EAEAEA"/>
        <path d="M15.8063 25.069C16.2363 25.3916 16.8815 25.1766 17.204 25.3916C16.8815 25.069 16.5589 25.2841 16.0213 25.069C15.5912 24.9615 15.5912 24.2089 15.1611 24.5314C15.2687 24.639 15.5912 24.7465 15.8063 25.069Z" fill="#EAEAEA"/>
        <path d="M15.6995 26.144C16.0221 26.359 16.2371 26.4665 16.6672 26.4665C15.592 26.8966 14.6243 25.6064 14.7318 24.6387C14.7318 25.2838 15.0544 25.7139 15.6995 26.144Z" fill="#EAEAEA"/>
        <path d="M22.6884 25.2846C22.2583 24.1019 20.6455 23.9943 19.5703 23.7793C20.9681 24.2094 23.6561 24.747 21.6132 26.5748C22.2583 27.0049 22.7959 25.7147 22.6884 25.2846Z" fill="#EAEAEA"/>
        <path d="M23.1173 25.0694C23.1173 24.6394 22.6872 24.4243 22.1496 24.4243C23.2248 24.8544 22.6872 26.1447 21.9346 26.5747C22.5797 26.3597 23.2248 25.7146 23.1173 25.0694Z" fill="#EAEAEA"/>
        <path d="M21.935 25.2845C21.0749 25.607 20.1071 25.4995 19.3545 25.8221C19.9996 24.8544 21.2899 25.392 22.3651 24.9619C22.2576 25.0694 22.1501 25.2845 21.935 25.2845Z" fill="#DDDDDD"/>
        <path d="M13.4412 23.7791C13.4412 23.4565 13.2262 23.349 13.1187 22.9189C13.5488 24.1017 11.936 24.8543 13.4412 25.7145C13.0112 25.0694 13.3337 24.3167 13.4412 23.7791Z" fill="#DDDDDD"/>
        <path d="M16.0217 21.8435C15.5917 21.6285 12.9036 20.5533 13.1187 21.8435C13.3337 22.4887 14.1939 22.1661 14.5164 22.4887C14.5164 23.3488 14.5165 23.5639 15.4841 23.7789C18.7098 24.3165 17.4195 26.1444 21.2903 25.7143C22.1504 24.209 20.1075 23.5639 19.0323 23.1338C17.9571 22.7037 16.9894 22.0586 16.0217 21.8435Z" fill="#EAEAEA"/>
        <g opacity="0.4">
            <path d="M25.3753 16.7905C26.558 16.898 27.6332 17.1131 28.6009 17.6507C29.4611 17.8657 30.5363 17.4357 31.0739 18.1883C31.0739 18.7259 29.7837 18.8334 29.4611 19.4785C29.1385 19.8011 28.816 19.9086 28.1708 19.9086C26.7731 19.6936 20.8594 17.0056 25.3753 16.7905Z" fill="#E0935F"/>
        </g>
        <path d="M26.3426 17.0053C25.1598 17.2203 24.0846 16.8978 23.0094 17.0053C23.0094 16.8978 23.0094 16.7902 23.0094 16.5752C22.6869 17.2203 21.7192 17.2203 21.074 17.1128C20.6439 17.0053 19.8913 16.6827 19.5687 17.0053C19.1387 17.5429 18.386 17.4354 17.8484 17.6504C17.3108 17.8654 16.7732 18.8331 16.2356 18.7256C16.1281 18.6181 16.2356 18.5106 16.1281 18.5106C16.1281 18.7256 16.0206 18.9407 15.8055 19.0482V19.1557C15.3754 20.1234 13.1175 20.5535 13.8701 21.8437C14.1927 22.0588 14.7303 21.8437 15.0529 21.8437C15.5905 21.8437 16.3431 21.8437 16.9882 21.9512C15.8055 22.3813 17.2033 22.2738 17.4183 22.8114C16.9882 23.0265 16.9882 23.6716 17.5259 23.4565C18.6011 23.349 19.6763 23.349 20.644 23.4565C21.8267 23.4565 25.2673 26.5746 26.4501 27.2198C26.9877 27.2198 36.2345 24.6393 31.2885 21.3061C33.2239 20.876 31.7186 22.7039 32.5788 22.5964C32.6863 22.3813 32.1487 22.9189 32.1487 23.0265C32.2562 22.5964 32.6863 23.0265 32.3637 22.8114C32.9013 22.1663 32.7938 22.4889 32.9013 21.9512C32.7938 21.5212 32.4713 21.5212 32.6863 21.5212C32.2562 21.4136 32.6863 20.9836 32.2562 20.876C32.6863 20.876 31.5036 20.5535 31.7186 20.2309C31.9336 20.7685 32.7938 20.661 32.0412 20.5535C32.3637 20.5535 31.3961 19.9083 31.6111 19.8008C31.0735 19.5858 31.5036 19.3707 30.8584 19.3707C31.0735 19.0482 28.8155 18.4031 28.6005 18.0805C28.3855 18.188 28.1704 18.4031 27.9554 18.4031C28.0629 18.188 27.8479 17.973 27.6328 17.973C27.7403 17.8654 27.7403 17.7579 27.7403 17.6504C27.3103 17.7579 27.3103 17.5429 27.6328 17.3278C26.8802 16.8978 26.6651 16.8978 26.3426 17.0053Z" fill="white"/>
        <path d="M22.2581 23.1337C22.3656 22.9186 21.9355 23.1337 21.9355 23.1337C21.9355 23.4562 22.2581 23.2412 22.2581 23.1337Z" fill="white"/>
        <path d="M22.7955 23.1337C22.4729 22.8111 22.4729 23.4562 22.688 23.3487C22.7955 23.4562 23.0105 23.2412 22.7955 23.1337Z" fill="white"/>
        <path d="M19.7852 26.8966C20.2153 27.2191 21.398 27.2191 21.2905 26.4665C21.2905 26.2514 20.8604 26.4665 20.7529 26.3589C20.3228 26.1439 19.1401 26.2514 19.7852 26.8966Z" fill="#4F9140"/>
        <path d="M19.7845 26.6821C20.2145 26.8971 21.0747 27.0046 21.2897 26.467C21.2897 25.6068 19.0318 25.8219 19.7845 26.6821Z" fill="#C4E36D"/>
        <path d="M20.3231 26.145C20.4306 26.145 20.6456 26.2525 20.6456 26.3601C20.4306 26.3601 19.7855 26.2525 20.3231 26.145Z" fill="white"/>
        <path d="M20.43 26.4672C20.5375 26.2521 20.1074 26.4672 20.1074 26.4672C20.1074 26.6822 20.43 26.4672 20.43 26.4672Z" fill="white"/>
        <path d="M20.8599 26.4672C20.5374 26.1446 20.5374 26.7897 20.7524 26.6822C20.9674 26.4672 20.9675 26.4672 20.8599 26.4672Z" fill="white"/>
        <path d="M20.9672 26.145C21.2897 26.3601 20.6446 26.4676 20.5371 26.3601C20.6446 26.145 20.7521 26.145 20.9672 26.145Z" fill="white"/>
        <path d="M15.1616 26.8967C15.5917 27.2192 16.7744 27.2192 16.6669 26.4666C16.6669 26.2515 16.2368 26.4666 16.1293 26.3591C15.8067 26.144 14.624 26.144 15.1616 26.8967Z" fill="#4F9140"/>
        <path d="M15.1602 26.4669C15.5902 26.6819 16.4504 26.7894 16.6654 26.2518C16.8805 25.6067 14.6226 25.8217 15.1602 26.4669Z" fill="#C4E36D"/>
        <path d="M15.698 26.144C15.8055 26.144 16.0205 26.2516 16.0205 26.3591C15.913 26.3591 15.2679 26.144 15.698 26.144Z" fill="white"/>
        <path d="M15.9144 26.4667C16.0219 26.2516 15.5918 26.4667 15.5918 26.4667C15.3767 26.4667 15.9144 26.4667 15.9144 26.4667Z" fill="white"/>
        <path d="M16.3443 26.3593C16.0217 26.0367 16.0217 26.6818 16.2368 26.5743C16.3443 26.4668 16.4518 26.4668 16.3443 26.3593Z" fill="white"/>
        <path d="M16.3432 26.144C16.6657 26.3591 16.0206 26.4666 15.9131 26.3591C16.0206 26.144 16.2356 26.144 16.3432 26.144Z" fill="white"/>
        <path d="M14.4094 22.5958C14.8395 22.9183 15.8072 22.9183 15.6997 22.1657C15.6997 21.9506 15.2696 22.1657 15.2696 22.0582C14.732 21.8431 13.7643 21.9506 14.4094 22.5958Z" fill="#4F9140"/>
        <path d="M14.409 22.3811C14.8391 22.8112 16.4519 22.2736 15.4842 21.8435C15.0541 21.4134 13.8714 21.8435 14.409 22.3811Z" fill="#C4E36D"/>
        <path d="M14.7326 21.8433C14.8401 21.8433 14.8401 21.8433 14.9476 21.9508C15.0552 22.0583 14.3025 21.9508 14.7326 21.8433Z" fill="white"/>
        <path d="M14.9458 22.3812C15.0533 22.1662 14.7307 22.3812 14.6232 22.3812C14.5157 22.3812 14.8383 22.3812 14.9458 22.3812Z" fill="white"/>
        <path d="M15.2693 22.0585C14.9467 21.7359 14.9467 22.381 15.2693 22.2735C15.2693 22.381 15.2693 22.381 15.2693 22.0585Z" fill="white"/>
        <path d="M15.2698 21.8433C15.5924 21.9508 14.9473 22.0583 14.9473 22.0583C15.0548 21.8433 15.1623 21.8433 15.2698 21.8433Z" fill="white"/>
        <path d="M16.0207 23.7793C16.5583 24.2094 18.1711 24.2094 17.956 23.1342C17.956 22.9191 17.5259 23.0267 17.3109 22.9191C16.8808 22.8116 16.3432 22.9191 16.0207 23.1342C15.8056 23.1342 15.8056 23.4567 16.0207 23.7793Z" fill="#4F9140"/>
        <path d="M16.0215 23.2414C16.4516 23.6715 18.3869 23.564 17.7418 22.7038C17.3117 21.9512 15.1613 22.4888 16.0215 23.2414Z" fill="#C4E36D"/>
        <path d="M16.4503 22.7041C16.5579 22.7041 16.7729 22.8116 16.8804 22.9191C16.6654 22.9191 16.0203 22.9191 16.4503 22.7041Z" fill="white"/>
        <path d="M16.7744 23.0265C16.8819 22.8115 16.3443 22.919 16.3443 23.0265C16.2368 23.4566 16.7744 23.2415 16.7744 23.0265Z" fill="white"/>
        <path d="M17.4185 23.0265C16.9884 22.5964 16.9884 23.4566 17.311 23.2415C17.4185 23.2415 17.526 23.134 17.4185 23.0265Z" fill="white"/>
        <path d="M17.4184 22.7041C17.8484 22.9191 16.9883 23.1342 16.9883 22.9191C16.9883 22.9191 17.3108 22.7041 17.4184 22.7041Z" fill="white"/>
        <path d="M19.9994 17.3279C21.2896 18.1881 21.6122 17.543 22.9025 17.2204C21.2897 17.2204 21.6122 18.0806 19.7844 17.0054C19.6769 17.2204 19.7844 17.3279 19.9994 17.3279Z" fill="#EAEAEA"/>
        <path d="M23.6548 17.3282C24.73 17.6507 25.6977 17.3282 26.6654 17.0056C25.4827 16.7905 24.4074 17.5432 23.1172 17.0056C23.3322 17.1131 23.4398 17.3282 23.6548 17.3282Z" fill="#EAEAEA"/>
        <path d="M17.8487 19.5862C18.3863 20.2313 19.4616 20.2313 20.3217 20.8765C19.7841 20.2313 18.6014 20.2313 18.0638 19.3712C18.0638 19.2636 17.9563 19.2636 17.9563 19.3712C17.6337 19.3712 17.7412 19.4787 17.8487 19.5862Z" fill="#EAEAEA"/>
        <path d="M16.0211 20.4462C16.3437 20.2312 16.5587 20.0161 16.6662 19.4785C16.2361 20.4462 14.7309 20.1236 14.3008 21.1989C14.8384 20.7688 15.591 20.8763 16.0211 20.4462Z" fill="#EAEAEA"/>
        <path d="M29.354 21.4137C29.0315 21.1987 28.8164 21.1987 28.3863 21.0912C29.5691 20.6611 29.8916 22.0589 31.3969 21.5213C30.5367 21.7363 29.9991 21.0912 29.2465 20.9836C29.354 20.9836 29.4615 20.8761 29.569 20.8761C28.2788 20.8761 27.0961 21.3062 26.0209 21.7363C26.4509 20.5536 28.2788 21.4137 29.0314 20.446C29.4615 20.6611 29.9991 20.8761 30.4292 20.8761C29.9991 20.6611 29.354 20.446 29.0314 20.016C29.4615 20.1235 30.1067 20.016 30.5368 19.9084C29.6766 19.6934 28.8164 19.6934 27.9562 19.5859C27.5261 19.5859 27.0961 19.3708 26.7735 19.5859C27.4186 18.9408 28.4939 19.4784 29.354 19.0483C28.3863 19.0483 27.4186 18.7257 26.7735 19.5859C27.4186 19.5859 28.1713 19.9084 28.9239 20.1235C28.0638 20.6611 26.881 20.1235 26.2359 20.9836C26.666 20.5536 27.2036 20.3385 27.6337 19.9084C27.0961 19.9084 26.5585 20.3385 26.2359 20.7686C26.451 19.4784 27.8487 18.9407 28.3863 17.8655C27.5262 18.9407 26.1284 19.3708 26.1284 20.8761C26.1284 20.7686 26.1284 20.6611 26.1284 20.6611C26.1284 19.1558 27.3111 18.8332 27.5261 17.6505C27.2036 18.5107 26.2359 18.9407 26.0209 20.016C26.0209 19.8009 26.0209 19.5859 26.1284 19.3708C25.8058 19.6934 25.9133 20.231 25.9133 20.6611C25.4833 20.231 24.8381 20.1235 24.408 19.8009C25.2682 18.8332 26.9886 18.8332 27.3111 17.4355C26.9886 18.5107 26.0209 18.6182 25.1607 19.0483C24.0855 18.5107 22.6877 19.3708 21.8276 18.6182C23.1178 18.6182 24.193 18.0806 25.2682 18.5107C25.1607 18.4031 25.0532 18.4031 24.9457 18.2956C25.4833 17.758 26.666 17.8655 26.9885 17.0054C26.4509 17.4355 25.3757 17.4355 24.9457 18.2956C22.6877 17.2204 22.2576 19.6934 19.6771 17.1129C20.1072 18.2956 21.6125 18.4031 22.2576 19.4784C20.9674 18.2956 19.3546 19.9084 18.1718 19.0483C19.3546 20.3385 21.0749 19.0483 22.3652 19.5859C22.4727 19.6934 22.4727 19.8009 22.5802 19.8009C22.1501 19.9084 21.72 19.8009 21.2899 19.6934C22.5802 20.6611 23.2253 19.1558 26.0209 20.6611C26.0209 20.7686 26.1284 20.9836 26.1284 21.0912C25.9133 21.3062 25.8058 21.5213 25.6983 21.7363H25.4833C24.3005 20.8761 22.6877 20.8761 21.505 21.3062C22.7952 20.3385 24.4081 20.3385 25.6983 20.8761C24.3005 20.446 22.3652 20.016 21.2899 21.4137C21.505 20.9836 21.8276 20.3385 22.4727 20.1235C22.0426 20.1235 21.2899 20.5536 21.2899 21.3062C20.1072 20.446 18.7094 20.9836 17.3117 19.8009C17.4192 19.9084 17.5267 20.1235 17.7417 20.231C17.3117 20.1235 16.559 20.6611 16.4515 21.0912C16.0214 21.0912 15.4838 21.0912 15.0537 21.0912C16.6665 20.8761 19.032 21.9513 20.3223 22.919C20.1072 22.704 20.1072 22.4889 19.8922 22.3814C19.9997 22.3814 20.1072 22.3814 20.2147 22.2739C21.0749 22.704 23.3329 21.9513 24.6231 22.2739C24.4081 22.3814 23.3328 22.704 23.7629 22.919C24.408 22.704 25.0532 22.2739 25.6983 21.9513C27.3111 21.0912 28.8164 21.5213 30.4292 22.0589C30.8593 22.1664 31.2894 22.3814 31.612 22.1664C30.7518 22.0589 29.9991 21.8438 29.354 21.4137ZM23.1178 19.8009C22.9027 19.8009 22.6877 19.9084 22.4727 19.9084C22.3652 19.5859 22.1501 19.3708 22.0426 18.9407C23.0103 19.3708 24.0855 18.9408 25.0532 19.0483C24.7306 19.2633 24.6231 19.4784 24.5156 19.6934C23.978 19.6934 23.5479 19.6934 23.1178 19.8009ZM20.6448 21.0912C20.7523 21.0912 20.9674 21.3062 21.0749 21.3062V21.4137C20.6448 21.6288 19.9997 21.8438 19.5696 21.9513C19.3546 21.5213 19.1395 20.9836 18.6019 20.6611C19.3546 21.0912 20.1072 20.9836 20.6448 21.0912ZM19.3545 21.9513C18.4944 21.7363 17.7417 21.0912 16.7741 20.9836C16.8816 20.5536 17.2042 20.446 17.6342 20.016C18.4944 20.446 18.817 21.3062 19.5696 21.8438C19.5696 22.0589 19.4621 22.0589 19.3545 21.9513ZM24.5156 22.3814C23.1178 21.7363 21.6125 22.4889 20.2147 22.3814C21.72 21.5213 23.5479 21.4137 25.1607 22.0589C24.9457 21.9513 24.8381 22.0589 24.5156 22.3814Z" fill="#EAEAEA"/>
        <path d="M24.9453 22.9188C26.128 22.7037 27.3108 22.4887 28.0634 21.521C27.0957 21.9511 26.128 22.5962 24.9453 22.9188Z" fill="#EAEAEA"/>
        <path d="M15.5916 19.3706C15.3766 20.2308 14.4089 20.6609 14.3014 21.521C13.9789 20.5533 15.054 20.1233 15.5916 19.3706Z" fill="#EAEAEA"/>
        <path d="M16.4521 19.3702C17.6348 19.2627 18.925 18.9402 19.4626 17.6499C19.1401 19.3702 17.0972 19.9078 15.4844 19.4778C15.8069 19.3702 16.022 19.1552 16.4521 19.3702Z" fill="#EAEAEA"/>
        <path d="M17.3116 19.4785C17.5266 19.586 17.5267 19.8011 17.6342 19.9086C17.8492 20.1236 17.5266 20.1236 17.4191 20.0161C17.2041 20.1236 16.8815 19.4785 17.3116 19.4785Z" fill="#FFC94D"/>
        <path d="M14.7308 21.6283C15.0534 21.6283 15.376 20.9832 14.9459 21.0907C14.5158 21.0907 14.1932 21.8433 14.7308 21.6283Z" fill="#FFC94D"/>
        <path d="M19.139 16.8977C19.5691 16.2526 19.7841 17.4353 19.2465 17.3278C19.0315 17.4353 19.0315 17.1128 19.139 16.8977Z" fill="#FFC94D"/>
        <path d="M17.8488 18.9407C18.709 18.6182 18.0639 19.9084 17.6338 19.3708C17.5263 19.3708 17.7413 19.0482 17.8488 18.9407Z" fill="#FFC94D"/>
        <path d="M15.1609 19.156C15.806 18.7259 15.5909 20.0161 15.0533 19.5861C14.9458 19.5861 15.0533 19.371 15.1609 19.156Z" fill="#FFC94D"/>
        <path d="M21.2904 19.9086C21.2904 19.6936 21.1828 19.4785 20.9678 19.4785C20.5377 19.586 21.0753 20.4462 21.2904 19.9086Z" fill="#FFC94D"/>
        <path d="M20.7529 20.7685C20.6453 20.446 20.2153 20.3384 20.3228 20.7685C20.4303 20.9836 20.7529 21.0911 20.7529 20.7685Z" fill="#FFC94D"/>
        <path d="M23.3334 16.79C23.1184 16.575 22.9033 17.1126 22.9033 17.2201C23.1184 17.4352 23.4409 17.0051 23.3334 16.79Z" fill="#FFC94D"/>
        <path d="M24.8381 18.5103C24.9456 18.5103 25.0531 18.2953 25.0531 18.1878C24.8381 17.9727 24.6231 18.6178 24.8381 18.5103Z" fill="#FFC94D"/>
        <path d="M21.6119 18.8335C21.7194 18.941 21.9344 18.941 22.0419 18.8335C22.1495 18.5109 21.2893 18.4034 21.6119 18.8335Z" fill="#FFC94D"/>
        <path d="M25.8058 19.4781C25.9133 19.4781 26.2359 19.263 26.2359 19.048C26.0209 18.7254 25.3757 19.3705 25.8058 19.4781Z" fill="#FFC94D"/>
        <path d="M24.1935 19.9082C24.301 19.9082 24.6236 19.6932 24.6236 19.4781C24.4086 19.1556 23.7634 19.8007 24.1935 19.9082Z" fill="#FFC94D"/>
        <path d="M25.6985 21.0915C25.806 21.0915 26.1286 20.6614 25.9135 20.6614C25.591 20.3389 25.2684 21.0915 25.6985 21.0915Z" fill="#FFC94D"/>
        <path d="M27.5261 20.2309C27.8487 20.1234 27.8487 19.8008 27.5261 19.9084C27.2035 19.9084 27.2035 20.2309 27.5261 20.2309Z" fill="#FFC94D"/>
        <path d="M29.2468 19.3706C29.5694 19.263 29.5694 18.9405 29.2468 19.048C28.9242 18.9405 28.9242 19.3706 29.2468 19.3706Z" fill="#FFC94D"/>
        <path d="M29.4611 21.0908C29.7836 20.9833 29.7836 20.6607 29.4611 20.7682C29.246 20.8757 29.246 21.1983 29.4611 21.0908Z" fill="#FFC94D"/>
        <path d="M18.3879 17.6504C18.2804 18.7256 16.9901 19.0482 16.0225 18.9406C16.9901 18.8331 17.8503 18.403 18.3879 17.6504Z" fill="#EAEAEA"/>
        <path d="M24.0858 20.5536C24.5158 20.8762 25.6986 20.8762 25.591 20.1235C25.591 19.9085 25.161 20.1235 25.0534 20.016C24.6234 19.9085 23.5482 20.016 24.0858 20.5536Z" fill="#4F9140"/>
        <path d="M24.0859 20.3382C24.5159 20.5532 25.3761 20.6607 25.5911 20.1231C25.6987 19.3705 23.4407 19.5855 24.0859 20.3382Z" fill="#C4E36D"/>
        <path d="M24.5163 19.8008C24.6239 19.8008 24.8389 19.9083 24.8389 20.0158C24.7314 20.1233 24.0862 20.0158 24.5163 19.8008Z" fill="white"/>
        <path d="M24.7298 20.2308C24.8373 20.0158 24.4072 20.2308 24.4072 20.2308C24.4072 20.3383 24.7298 20.2308 24.7298 20.2308Z" fill="white"/>
        <path d="M25.1607 20.2308C24.8382 19.9083 24.8381 20.5534 25.0532 20.4459C25.1607 20.2308 25.2682 20.2308 25.1607 20.2308Z" fill="white"/>
        <path d="M25.268 19.8008C25.5905 20.0158 24.9454 20.1233 24.8379 20.0158C24.8379 19.9083 25.0529 19.8008 25.268 19.8008Z" fill="white"/>
        <path d="M17.6348 23.9939C18.6025 26.8969 22.5807 25.6067 21.8281 22.7036C20.7529 23.5638 19.0325 23.5638 17.6348 23.9939Z" fill="#A8BF52"/>
        <path d="M21.827 22.5961C21.9345 22.5961 22.042 22.4886 22.042 22.5961C21.9345 22.8112 21.827 22.9187 21.827 23.0262C21.7195 25.0691 18.6014 26.0368 17.7412 23.9939C18.7089 23.1337 20.4293 22.9187 21.827 22.5961Z" fill="#EDEBB4"/>
        <path d="M21.291 22.9184C22.2586 22.4883 21.1834 24.8538 20.0007 24.9613C19.3556 25.1764 18.4954 24.7463 18.1729 23.9936C18.1729 23.8861 18.1729 23.8861 18.1729 23.8861C19.033 23.456 20.3233 23.1335 21.291 22.9184Z" fill="#FFFFFE"/>
        <path d="M20.1077 24.1018C20.2152 24.3168 20.3228 24.5319 20.2152 24.6394C19.8927 24.3168 19.8927 23.7792 19.7852 23.3491C19.7852 23.7792 20.0002 23.9942 20.1077 24.1018Z" fill="#EAEAEA"/>
        <path d="M19.5704 24.1016C19.5704 24.2091 19.6779 24.7467 19.5704 24.7467C19.4629 24.3166 19.4629 23.8865 19.4629 23.564C19.5704 23.779 19.5704 23.994 19.5704 24.1016Z" fill="#EAEAEA"/>
        <path d="M19.3556 24.1019C19.3556 23.9943 19.4632 23.8868 19.4632 23.7793C19.3557 23.9943 19.1406 24.2094 19.1406 24.3169C19.1406 24.5319 19.3556 24.2094 19.3556 24.1019Z" fill="#EAEAEA"/>
        <path d="M18.9245 24.1015C19.032 23.994 19.1396 23.7789 19.2471 23.6714C18.817 23.7789 18.0643 24.7466 18.9245 24.1015Z" fill="#EAEAEA"/>
        <path d="M18.6029 23.7789C18.7105 23.6714 18.9255 23.6714 19.033 23.6714C18.9255 23.9939 17.9578 24.209 18.6029 23.7789Z" fill="#EAEAEA"/>
        <path d="M20.3219 23.9937C20.4294 24.1012 20.5369 24.5313 20.7519 24.5313C20.6444 24.1012 20.4294 23.8861 20.3219 23.4561C20.2143 23.7786 20.2143 23.7786 20.3219 23.9937Z" fill="#EAEAEA"/>
        <path d="M20.4308 23.7785C20.3233 23.671 20.3233 23.671 20.2158 23.5635C20.4309 23.671 20.6459 23.7785 20.7534 23.9936C20.7534 23.9936 20.5384 23.7785 20.4308 23.7785Z" fill="#EAEAEA"/>
        <path d="M20.7525 23.5641C20.6449 23.5641 20.1073 23.2416 20.5374 23.3491C20.7524 23.4566 21.075 23.3491 21.1825 23.5641C21.075 23.7792 20.9675 23.5641 20.7525 23.5641Z" fill="#EAEAEA"/>
        <path d="M20.8598 23.1338C20.7523 23.1338 20.5372 23.2413 20.4297 23.2413C20.6447 23.4564 21.72 23.1338 20.8598 23.1338Z" fill="#EAEAEA"/>
        <g opacity="0.4">
            <path d="M15.0525 25.6069C16.2353 26.037 17.5256 26.037 18.6008 26.6821C19.1384 27.0047 19.891 27.3272 20.4286 27.2197C20.9662 26.8971 21.6113 26.8971 22.1489 27.3272C23.2241 27.5423 24.2994 27.3272 25.267 26.8971C25.8046 26.4671 26.5573 26.6821 27.0949 26.8971C28.3852 27.1122 28.7077 25.7144 29.3529 24.9618C30.8582 24.4242 31.3957 24.5317 31.3957 22.4888C31.5033 22.0587 31.7183 21.1985 31.0732 21.1985C31.5033 20.7685 32.1484 21.1985 32.5785 21.5211C34.4063 21.9512 33.0086 24.9618 32.1484 25.8219C29.6754 28.0799 26.1272 29.0476 22.6865 29.1551C19.676 29.0476 14.1924 28.1874 12.4721 25.8219C12.042 25.2843 11.1818 24.5317 11.5044 23.779C11.9345 23.779 12.472 23.9941 12.9021 23.9941C15.4826 23.4565 13.5473 25.0693 15.0525 25.6069Z" fill="#E0935F"/>
        </g>
        <path d="M21.936 25.6068C21.3984 24.424 21.5059 23.994 22.3661 23.1338C22.1511 24.1015 21.5059 24.7466 21.936 25.6068Z" fill="#EAEAEA"/>
        <path d="M22.6876 24.6389C22.7951 24.3163 22.9026 23.7787 22.7951 23.3486C22.7951 24.4238 21.5049 25.284 22.365 26.3592C22.15 25.7141 22.4725 25.069 22.6876 24.6389Z" fill="#EAEAEA"/>
        <path d="M28.3875 22.9186C27.9575 23.3486 26.7747 23.5637 26.4521 22.811C26.8822 23.2411 27.7424 23.0261 28.3875 22.9186Z" fill="#EAEAEA"/>
        <path d="M27.204 21.5206C26.989 21.7357 26.6664 21.7357 26.2363 21.8432C26.6664 21.5206 27.204 21.4131 27.5266 20.8755C27.5266 21.0905 27.4191 21.4131 27.204 21.5206Z" fill="#EAEAEA"/>
        <path d="M28.3862 21.0905C28.2787 21.6281 27.4185 22.0582 26.8809 22.0582C27.3109 21.7357 28.1711 21.6281 28.3862 20.8755C28.3862 20.983 28.3862 21.0905 28.3862 21.0905Z" fill="#EAEAEA"/>
        <path d="M29.0317 21.8432C28.8167 21.9507 28.6017 22.0582 28.4941 22.1657C29.6769 21.9507 30.6446 21.5206 31.7198 21.3055C30.7521 21.0905 29.6769 21.3055 29.0317 21.8432Z" fill="#EAEAEA"/>
        <path d="M31.1822 20.983C30.7521 20.768 29.9994 20.768 29.5693 21.1981C30.1069 21.0906 30.7521 20.983 31.1822 20.983Z" fill="#EAEAEA"/>
        <path d="M31.936 21.9507C31.5059 22.8109 30.3232 22.5958 29.3555 22.3808C30.1081 22.5958 31.0758 22.4883 31.936 21.9507Z" fill="#EAEAEA"/>
        <path d="M22.5805 18.5097C23.1181 18.8322 24.1933 18.8322 24.0858 17.9721C24.0858 17.757 23.6557 17.8645 23.5482 17.757C23.2256 17.6495 22.7955 17.757 22.473 17.9721C22.3655 18.2946 22.3654 18.4022 22.5805 18.5097Z" fill="#4F9140"/>
        <path d="M22.5805 18.2948C23.0106 18.6174 24.5159 18.5098 23.9783 17.7572C23.6557 17.2196 22.0429 17.5422 22.5805 18.2948Z" fill="#C4E36D"/>
        <path d="M23.0108 17.7573C23.1183 17.6498 23.3333 17.8649 23.3333 17.9724C23.1183 17.9724 22.5807 17.8649 23.0108 17.7573Z" fill="white"/>
        <path d="M23.2259 18.1871C23.3334 17.9721 22.9033 18.0796 22.9033 18.1871C22.9033 18.2947 23.1183 18.2947 23.2259 18.1871Z" fill="white"/>
        <path d="M23.655 18.08C23.225 17.7574 23.3325 18.4025 23.5475 18.295C23.7626 18.295 23.7626 18.1875 23.655 18.08Z" fill="white"/>
        <path d="M23.7621 17.7573C24.0847 17.9724 23.4396 18.0799 23.332 17.9724C23.332 17.7573 23.5471 17.7573 23.7621 17.7573Z" fill="white"/>
    </g>
    <path d="M26.9894 19.5849C28.1722 15.9291 32.258 20.445 32.0429 22.703C31.9354 23.9932 30.9677 23.5631 29.785 23.4556C28.2797 23.2406 25.4841 24.3158 26.9894 19.5849Z" fill="#C17D49"/>
    <path d="M32.0424 22.9182C32.0424 23.1332 32.0424 23.3482 31.9349 23.3482C32.15 23.2407 32.2575 22.9182 32.2575 22.5956C32.365 20.5527 28.8168 16.4669 27.3115 18.9399C28.8168 17.112 32.0424 20.9828 32.0424 22.9182Z" fill="#D18F54"/>
    <path d="M30.2144 22.9184C28.4941 22.7034 25.6985 23.8861 27.2038 19.0477C27.2038 18.9401 27.3114 18.8326 27.3114 18.7251C27.0963 18.9401 26.9888 19.1552 26.8813 19.5853C25.376 24.4237 28.1715 23.241 29.8919 23.456C30.9671 23.5635 31.8272 23.8861 32.0423 23.0259C31.7197 23.241 31.0746 22.9184 30.2144 22.9184Z" fill="#96562C"/>
    <path d="M29.3539 20.015C29.1389 20.445 28.9238 20.7676 28.9238 20.7676C28.9238 20.7676 28.9238 20.3375 29.1389 19.9074C29.3539 19.4773 29.5689 19.1548 29.5689 19.1548C29.6764 19.2623 29.5689 19.5849 29.3539 20.015Z" fill="#96562C"/>
    <path d="M28.7329 19.5557C28.8827 19.2324 28.9169 18.9299 28.8092 18.8799C28.7014 18.83 28.4926 19.0515 28.3427 19.3747C28.1928 19.698 28.1586 20.0005 28.2664 20.0504C28.3741 20.1004 28.583 19.8789 28.7329 19.5557Z" fill="#96562C"/>
    <path d="M29.7375 21.6269C29.9623 21.142 30.0136 20.6883 29.852 20.6133C29.6904 20.5384 29.3771 20.8706 29.1522 21.3555C28.9274 21.8403 28.8761 22.2942 29.0377 22.3691C29.1994 22.444 29.5127 22.1117 29.7375 21.6269Z" fill="#96562C"/>
    <path d="M30.8601 20.7677C30.7526 21.0902 30.43 21.1978 30.43 21.1978C30.3225 21.0902 30.3225 20.7677 30.5375 20.5526C30.645 20.2301 30.9676 20.1226 30.9676 20.1226C30.9676 20.2301 30.9676 20.4451 30.8601 20.7677Z" fill="#96562C"/>
    <path d="M26.5586 21.9507C26.5586 18.725 30.967 21.4131 31.5046 23.1334C31.8271 24.3161 30.967 24.1011 29.9993 24.3161C28.3865 24.6387 26.5586 26.2515 26.5586 21.9507Z" fill="#C17D49"/>
    <path d="M31.2896 23.456C31.2896 23.6711 31.3971 23.7786 31.2896 23.8861C31.3971 23.6711 31.3971 23.456 31.2896 23.241C30.8595 21.5207 26.9888 19.1552 26.4512 21.5207C27.4189 19.4778 30.9671 21.8432 31.2896 23.456Z" fill="#D18F54"/>
    <path d="M29.9993 23.7784C28.6015 24.1009 26.6661 25.7137 26.6661 21.4129C26.6661 21.3054 26.6661 21.1979 26.6661 21.0903C26.5586 21.3054 26.5586 21.5204 26.5586 21.843C26.5586 26.1438 28.494 24.531 29.8918 24.2084C30.7519 23.9934 31.5046 24.1009 31.5046 23.2408C31.182 23.7784 30.6444 23.7784 29.9993 23.7784Z" fill="#96562C"/>
    <path d="M28.4939 21.843C28.3864 22.2731 28.2789 22.5956 28.2789 22.5956C28.1714 22.5956 28.1714 22.1655 28.2789 21.843C28.3864 21.4129 28.4939 21.0903 28.4939 21.0903C28.4939 21.0903 28.4939 21.1979 28.4939 21.843Z" fill="#96562C"/>
    <path d="M27.9573 21.4673C27.9965 21.173 27.9329 20.9217 27.8151 20.906C27.6974 20.8903 27.5702 21.1162 27.531 21.4105C27.4918 21.7048 27.5554 21.9561 27.6731 21.9718C27.7908 21.9875 27.9181 21.7616 27.9573 21.4673Z" fill="#96562C"/>
    <path d="M29.3544 23.004C29.4171 22.5332 29.3726 22.1387 29.2549 22.123C29.1371 22.1073 28.9908 22.4763 28.9281 22.9472C28.8653 23.4181 28.9099 23.8125 29.0276 23.8282C29.1453 23.8439 29.2916 23.4749 29.3544 23.004Z" fill="#96562C"/>
    <path d="M29.8916 22.058C29.8916 22.3806 29.6765 22.4881 29.569 22.4881C29.4615 22.4881 29.354 22.1655 29.4615 21.9505C29.4615 21.6279 29.6766 21.5204 29.7841 21.5204C29.8916 21.4129 29.9991 21.843 29.8916 22.058Z" fill="#96562C"/>
    <path fill-rule="evenodd" clip-rule="evenodd" d="M16.9894 25.3916C17.0969 25.1765 16.6668 24.6389 16.0217 24.2088C15.3766 23.7787 14.7314 23.7787 14.7314 23.9938C14.7314 24.3164 15.1615 24.7464 15.8067 25.1765C16.2367 25.6066 16.8819 25.7141 16.9894 25.3916Z" fill="#C10016"/>
    <path fill-rule="evenodd" clip-rule="evenodd" d="M16.6667 25.1762C16.7742 24.9611 16.3442 24.6386 15.9141 24.316C15.484 23.9934 14.9464 23.8859 14.9464 23.9934C14.8389 24.2085 15.2689 24.531 15.699 24.8536C16.2366 25.2837 16.6667 25.3912 16.6667 25.1762Z" fill="#C74118"/>
    <path fill-rule="evenodd" clip-rule="evenodd" d="M16.3438 24.8541C16.4513 24.8541 16.0212 24.5315 15.9137 24.6391C15.9137 24.424 15.3761 24.209 15.2686 24.209C15.2686 24.3165 15.8062 24.6391 15.9137 24.6391C16.1287 24.7466 16.3438 25.0692 16.3438 24.8541Z" fill="#D16D58"/>
    <path fill-rule="evenodd" clip-rule="evenodd" d="M16.5591 25.6065C16.6666 25.6065 16.7741 25.4989 16.5591 25.2839C16.4516 24.9613 16.129 24.8538 16.0215 24.7463C15.5914 24.5313 15.3764 24.4237 15.1613 24.3162C15.0538 24.3162 14.9463 24.3162 14.9463 24.3162L15.0538 24.4237C15.0538 24.3162 14.9463 24.3162 14.9463 24.2087V24.1012C14.9463 23.9937 15.0538 23.9937 15.0538 23.9937C15.1613 23.9937 15.1613 23.9937 15.2688 23.9937C15.4839 23.9937 15.8064 24.2087 16.129 24.4237C16.344 24.6388 16.5591 24.8538 16.6666 24.9613C16.8816 25.2839 16.7741 25.3914 16.5591 25.3914C16.3441 25.3914 16.129 25.2839 16.129 25.1764C16.0215 25.2839 16.129 25.2839 16.129 25.1764C16.2365 25.1764 16.4516 25.2839 16.5591 25.6065Z" fill="#A71718"/>
    <path fill-rule="evenodd" clip-rule="evenodd" d="M16.2373 25.069C16.3448 25.069 15.9148 24.7464 15.8072 24.8539C15.6997 24.7464 15.1621 24.4238 15.1621 24.4238C15.1621 24.5313 15.6997 24.8539 15.8072 24.8539C15.9148 24.8539 16.2373 25.069 16.2373 25.069Z" fill="#D16D58"/>
    <path fill-rule="evenodd" clip-rule="evenodd" d="M23.4403 25.6063C23.8704 25.2838 24.3005 24.9612 24.3005 24.7462C24.193 24.5311 23.7629 24.6386 23.2253 24.9612C22.7952 25.2838 22.4727 25.7138 22.4727 25.9289C22.4727 26.1439 22.9027 25.9289 23.4403 25.6063Z" fill="#C10016"/>
    <path fill-rule="evenodd" clip-rule="evenodd" d="M23.4402 25.3914C23.8702 25.0688 24.0853 24.8538 24.0853 24.7463C24.0853 24.6388 23.6552 24.7463 23.3326 24.9613C22.9025 25.2839 22.6875 25.4989 22.6875 25.6064C22.6875 25.8215 23.0101 25.714 23.4402 25.3914Z" fill="#C74118"/>
    <path fill-rule="evenodd" clip-rule="evenodd" d="M23.1186 25.2836C23.2261 25.2836 23.6562 24.8535 23.6562 24.8535C23.5487 24.8535 23.2261 25.1761 23.1186 25.2836C23.0111 25.2836 22.6885 25.3911 22.7961 25.4986L23.1186 25.2836Z" fill="#D16D58"/>
    <path fill-rule="evenodd" clip-rule="evenodd" d="M23.1177 25.6063C23.0102 25.7138 22.7952 25.8213 22.6876 25.8213C22.4726 25.8213 22.4726 25.8213 22.6876 25.4987C22.7952 25.2837 23.0102 25.1762 23.1177 25.0687C23.4403 24.8536 23.6553 24.7461 23.7629 24.7461C23.8704 24.7461 23.8704 24.7461 23.9779 24.7461C23.9779 24.7461 23.9779 24.7461 24.0854 24.7461C24.0854 24.7461 24.0854 24.7461 24.0854 24.8536C24.0854 24.8536 24.0854 24.9611 23.9779 24.9611L24.0854 24.8536H23.9779C23.7629 24.8536 23.5478 25.0687 23.3328 25.1762C23.1177 25.2837 22.9027 25.4987 22.9027 25.6063C22.7952 25.8213 22.7952 25.8213 22.9027 25.8213C22.7952 25.7138 22.9027 25.6063 23.1177 25.6063Z" fill="#A71718"/>
    <path fill-rule="evenodd" clip-rule="evenodd" d="M23.2251 25.3915C23.3326 25.3915 23.7627 24.9614 23.7627 24.9614C23.7627 24.9614 23.3326 25.284 23.2251 25.3915C23.1175 25.3915 22.795 25.499 22.9025 25.6065L23.2251 25.3915Z" fill="#D16D58"/>
    <path fill-rule="evenodd" clip-rule="evenodd" d="M24.0849 19.6932C24.515 19.3707 24.9451 19.0481 24.9451 18.8331C24.8375 18.618 24.4075 18.7255 23.8698 19.0481C23.4398 19.3707 23.1172 19.8008 23.1172 20.0158C23.1172 20.1233 23.5473 20.0158 24.0849 19.6932Z" fill="#C10016"/>
    <path fill-rule="evenodd" clip-rule="evenodd" d="M24.0847 19.4783C24.5148 19.1558 24.7298 18.9407 24.7298 18.8332C24.7298 18.7257 24.2997 18.8332 23.9772 19.0482C23.5471 19.3708 23.332 19.5858 23.332 19.6934C23.332 19.8009 23.6546 19.6934 24.0847 19.4783Z" fill="#C74118"/>
    <path fill-rule="evenodd" clip-rule="evenodd" d="M23.8696 19.3705C23.9771 19.3705 24.4072 18.9404 24.4072 18.9404C24.2997 18.9404 23.8696 19.1555 23.8696 19.3705C23.7621 19.3705 23.4395 19.478 23.547 19.5856C23.547 19.478 23.8696 19.3705 23.8696 19.3705Z" fill="#D16D58"/>
    <path fill-rule="evenodd" clip-rule="evenodd" d="M23.7623 19.5858C23.8698 19.5858 23.8698 19.5858 23.7623 19.5858C23.8698 19.6933 23.8698 19.6933 23.7623 19.5858C23.6547 19.6933 23.4397 19.8008 23.3322 19.8008C23.1171 19.8008 23.1171 19.8008 23.3322 19.4782C23.4397 19.2632 23.6547 19.1557 23.7623 19.0482C24.0848 18.8331 24.2999 18.7256 24.4074 18.7256C24.5149 18.7256 24.5149 18.7256 24.6224 18.7256C24.6224 18.7256 24.6224 18.7256 24.7299 18.7256C24.7299 18.7256 24.7299 18.7256 24.7299 18.8331C24.7299 18.8331 24.73 18.9406 24.6224 18.9406L24.7299 18.8331H24.6224C24.4074 18.8331 24.1924 19.0481 23.9773 19.1557C23.7623 19.2632 23.5472 19.4782 23.5472 19.5858C23.5472 19.6933 23.4397 19.8008 23.5472 19.8008C23.4397 19.6933 23.6547 19.6933 23.7623 19.5858Z" fill="#A71718"/>
    <path fill-rule="evenodd" clip-rule="evenodd" d="M23.977 19.3705C24.0846 19.3705 24.5146 18.9404 24.5146 18.9404C24.4071 19.048 23.977 19.263 23.977 19.3705C23.8695 19.3705 23.5469 19.478 23.6545 19.5856L23.977 19.3705Z" fill="#D16D58"/>
    <path fill-rule="evenodd" clip-rule="evenodd" d="M26.1281 23.7783C26.1281 23.7783 25.9131 23.5633 25.9131 23.4558C25.9131 23.1332 26.1281 22.7031 26.9883 22.7031C28.2785 22.8106 29.0312 24.1009 28.6011 25.2836C28.3861 25.8212 27.6334 26.5739 26.9883 25.9288C27.0958 25.7137 27.8485 24.531 27.741 24.4235C27.6334 23.9934 27.4184 23.6708 27.3109 23.3483C26.8808 23.4558 26.7732 23.7783 26.3432 23.7783H26.1281Z" fill="#63332C"/>
    <path fill-rule="evenodd" clip-rule="evenodd" d="M26.9884 23.671C26.8809 23.9936 26.6658 24.1011 26.5583 24.1011C26.0207 24.2086 25.6981 22.9184 26.9884 23.0259C28.2787 23.1334 28.4937 24.7462 28.2787 25.4989C28.0636 25.929 26.9884 26.4666 26.6659 25.8214C26.5583 25.6064 26.5583 24.9613 27.311 25.2838C27.4185 25.2838 27.6335 24.8538 26.4508 25.2838C26.0207 25.4989 25.8057 24.8538 25.8057 24.6387C25.8057 23.9936 26.1282 24.3162 26.9884 24.2086C27.0959 23.9936 27.2034 23.456 26.9884 23.671Z" fill="#E8C88D"/>
    <path fill-rule="evenodd" clip-rule="evenodd" d="M27.6343 23.9934C27.6343 24.1009 27.5268 24.1009 27.5268 24.2084C27.5268 24.2084 27.2042 24.531 27.0967 24.4234C27.0967 24.4234 27.3117 24.1009 27.4192 24.1009C27.4192 23.9934 27.5268 23.9934 27.6343 23.9934C27.6343 23.7783 27.5268 23.7783 27.6343 23.7783C27.7418 23.7783 27.7418 23.7783 27.6343 23.9934Z" fill="#D49A5E"/>
    <path fill-rule="evenodd" clip-rule="evenodd" d="M27.7407 24.5314C27.6332 24.5314 27.2031 24.6389 27.2031 24.5314C27.2031 24.4239 27.6332 24.3163 27.7407 24.3163C27.8483 24.3163 27.9558 24.2088 27.9558 24.3163C27.9558 24.5314 27.9558 24.5314 27.7407 24.5314Z" fill="#D49A5E"/>
    <path fill-rule="evenodd" clip-rule="evenodd" d="M27.7416 25.0689C27.6341 25.0689 27.3115 24.7464 27.3115 24.7464C27.3115 24.6389 27.7416 24.8539 27.7416 25.0689C27.7416 25.1765 27.7416 25.1765 27.7416 25.0689Z" fill="#D49A5E"/>
    <path fill-rule="evenodd" clip-rule="evenodd" d="M26.1279 23.4555C26.1279 23.0254 26.558 23.0254 26.6655 23.0254C26.9881 23.0254 27.2031 23.1329 27.4182 23.2404C27.6332 23.4555 27.8482 23.6705 27.9558 23.8856C28.0633 23.9931 28.0633 24.2081 28.0633 24.3156C28.1708 24.6382 28.1708 24.9608 28.0633 25.2833C27.9558 25.6059 27.7407 25.8209 27.5257 26.036C27.4182 26.036 27.4182 26.1435 27.3107 26.1435C27.4182 26.1435 27.4182 26.1435 27.5257 26.036C27.8483 25.9285 27.9558 25.6059 27.9558 25.3908C28.0633 25.0683 28.0633 24.7457 27.9558 24.4232C27.9558 24.2081 27.8483 24.1006 27.8483 23.9931C27.7408 23.6705 27.5257 23.563 27.3107 23.348C27.0956 23.2404 26.8806 23.1329 26.558 23.1329C26.6655 23.0254 26.2355 23.0254 26.1279 23.4555Z" fill="#D3A56C"/>
    <path fill-rule="evenodd" clip-rule="evenodd" d="M17.7412 20.6607C18.9239 19.8005 19.8916 20.9832 19.8916 20.9832C19.139 21.6283 18.3863 21.3058 17.7412 20.6607Z" fill="#509F3C"/>
    <path fill-rule="evenodd" clip-rule="evenodd" d="M18.6016 20.4458C19.0316 20.3383 19.6768 20.7684 19.7843 20.8759C19.3542 20.6609 19.0316 20.5533 18.6016 20.4458Z" fill="#5EA848"/>
    <path fill-rule="evenodd" clip-rule="evenodd" d="M18.9238 20.7681C19.4614 20.8757 19.8915 21.0907 19.9991 21.0907C19.2464 21.7358 18.4938 21.4133 17.8486 20.7681C18.0637 20.6606 18.4938 20.6606 18.9238 20.7681Z" fill="#4B8F36"/>
    <path fill-rule="evenodd" clip-rule="evenodd" d="M18.4939 20.7681C18.7089 20.7681 19.0315 20.8757 19.2465 20.8757C19.0315 20.7681 18.7089 20.7681 18.4939 20.7681C18.1713 20.7681 17.8487 20.7681 17.7412 20.7681C17.8487 20.6606 18.1713 20.6606 18.4939 20.7681Z" fill="#3B7128"/>
    <path fill-rule="evenodd" clip-rule="evenodd" d="M18.4933 20.8757C18.3857 20.8757 18.3857 20.7682 18.3857 20.6606C18.3857 20.7682 18.3857 20.7682 18.4933 20.8757Z" fill="#3B7128"/>
    <path fill-rule="evenodd" clip-rule="evenodd" d="M18.709 20.7685C18.709 20.7685 18.8165 20.661 19.1391 20.661C18.924 20.5534 18.709 20.7685 18.709 20.7685Z" fill="#3B7128"/>
    <path fill-rule="evenodd" clip-rule="evenodd" d="M18.9239 20.8757C19.0315 20.9832 19.139 20.9832 19.139 21.0907C19.139 21.0907 19.0315 20.9832 18.9239 20.8757C18.9239 20.8757 18.8164 20.7682 18.8164 20.6606C18.8164 20.7682 18.9239 20.7682 18.9239 20.8757Z" fill="#3B7128"/>
    <path fill-rule="evenodd" clip-rule="evenodd" d="M19.3544 20.8759C19.3544 20.9834 19.4619 20.9834 19.3544 20.8759C19.3544 20.9834 19.3544 20.9834 19.3544 20.8759Z" fill="#3B7128"/>
    <path fill-rule="evenodd" clip-rule="evenodd" d="M18.1719 20.8759C18.1719 20.8759 18.1718 20.9834 18.2794 20.9834C18.6019 21.091 18.817 21.1985 19.1396 21.1985C18.817 21.091 18.7095 21.091 18.3869 20.8759C18.2794 20.8759 18.1719 20.7684 18.1719 20.8759Z" fill="#437F2F"/>
    <path fill-rule="evenodd" clip-rule="evenodd" d="M17.7422 20.6606C16.882 19.4779 15.5918 20.4456 15.5918 20.4456C16.1294 21.1982 16.9896 21.0907 17.7422 20.6606Z" fill="#509F3C"/>
    <path fill-rule="evenodd" clip-rule="evenodd" d="M16.4518 20.2302C16.6668 20.2302 16.9894 20.2302 16.9894 20.2302C16.5593 20.0152 15.9142 20.2302 15.8066 20.3377C15.8066 20.3377 16.1292 20.2302 16.4518 20.2302Z" fill="#5EA848"/>
    <path fill-rule="evenodd" clip-rule="evenodd" d="M16.667 20.4453C16.1294 20.4453 15.5918 20.4453 15.5918 20.4453C16.1294 21.198 16.9896 21.0904 17.7422 20.6604C17.5272 20.5528 17.0971 20.4453 16.667 20.4453Z" fill="#4B8F36"/>
    <path fill-rule="evenodd" clip-rule="evenodd" d="M16.1294 20.4454C16.2369 20.4454 16.2369 20.4454 16.1294 20.4454C16.1294 20.4454 16.2369 20.4454 16.0219 20.6605C16.1294 20.6605 16.2369 20.6605 16.452 20.6605C16.452 20.6605 16.3445 20.6605 16.3445 20.768L16.1294 20.8755C16.2369 20.8755 16.3445 20.768 16.452 20.768L16.5595 20.6605C16.667 20.6605 16.7745 20.6605 16.8821 20.6605H16.9896C16.9896 20.6605 16.9896 20.768 16.8821 20.768C16.7745 20.8755 16.667 20.8755 16.5595 20.8755C16.667 20.8755 16.7745 20.768 16.8821 20.768C16.9896 20.768 16.9896 20.6605 17.0971 20.6605C17.3122 20.6605 17.5272 20.768 17.6347 20.768C17.6347 20.768 17.4197 20.768 17.3121 20.6605C17.3121 20.6605 17.2046 20.4454 16.8821 20.3379C17.0971 20.4454 17.3121 20.5529 17.3121 20.6605C17.3121 20.6605 17.2046 20.6605 17.0971 20.6605C16.9896 20.6605 16.9896 20.6605 16.8821 20.6605C16.8821 20.6605 16.7746 20.5529 16.5595 20.4454C16.667 20.4454 16.7745 20.5529 16.8821 20.6605C16.5595 20.3379 16.3444 20.3379 16.1294 20.4454C16.1294 20.4454 16.1294 20.3379 16.0219 20.3379C16.0219 20.3379 16.1294 20.3379 16.1294 20.4454C15.8068 20.4454 15.5918 20.4454 15.5918 20.4454C15.6993 20.4454 15.8068 20.4454 16.1294 20.4454C16.0219 20.4454 16.0219 20.5529 16.0219 20.5529C16.0219 20.5529 16.0219 20.5529 16.1294 20.4454Z" fill="#437F2F"/>
    <path fill-rule="evenodd" clip-rule="evenodd" d="M17.3115 20.768C17.3115 20.768 17.204 20.768 17.0965 20.8755C16.8815 20.8755 16.5589 20.983 16.2363 20.8755C16.6664 20.8755 16.6664 20.8755 17.0965 20.768C17.3116 20.768 17.3115 20.6605 17.3115 20.768Z" fill="#437F2F"/>
    <path fill-rule="evenodd" clip-rule="evenodd" d="M17.7413 20.6608C18.8165 19.8006 17.8488 18.9404 17.8488 18.9404C17.0961 19.478 17.3112 20.1232 17.7413 20.6608Z" fill="#509F3C"/>
    <path fill-rule="evenodd" clip-rule="evenodd" d="M18.0636 20.1235C18.2786 19.8009 18.0636 19.2633 17.9561 19.1558C18.0636 19.3708 18.1711 19.8009 18.0636 20.1235Z" fill="#5EA848"/>
    <path fill-rule="evenodd" clip-rule="evenodd" d="M17.9563 19.8006C17.9563 19.3705 17.8488 19.048 17.8488 18.9404C17.0961 19.478 17.3112 20.1232 17.7413 20.6608C17.7413 20.4457 17.9563 20.1232 17.9563 19.8006Z" fill="#4B8F36"/>
    <path fill-rule="evenodd" clip-rule="evenodd" d="M17.8487 20.1231C17.8487 19.908 17.8487 19.693 17.8487 19.4779C17.8487 19.5855 17.8487 19.908 17.8487 20.1231C17.8487 20.3381 17.7412 20.5531 17.7412 20.6607C17.7412 20.6607 17.8487 20.3381 17.8487 20.1231Z" fill="#3B7128"/>
    <path fill-rule="evenodd" clip-rule="evenodd" d="M17.6339 20.1232C17.7414 20.1232 17.7414 20.2308 17.8489 20.2308C17.8489 20.2308 17.7414 20.2308 17.6339 20.1232Z" fill="#3B7128"/>
    <path fill-rule="evenodd" clip-rule="evenodd" d="M17.9561 19.908C17.9561 19.908 18.0636 19.8005 18.1711 19.5854C18.0636 19.8005 17.8485 19.908 17.9561 19.908Z" fill="#3B7128"/>
    <path fill-rule="evenodd" clip-rule="evenodd" d="M17.7413 19.6931C17.6338 19.6931 17.6338 19.5855 17.6338 19.478C17.6338 19.5855 17.7413 19.6931 17.7413 19.6931L17.8488 19.8006C17.8488 19.8006 17.8488 19.8006 17.7413 19.6931Z" fill="#3B7128"/>
    <path fill-rule="evenodd" clip-rule="evenodd" d="M17.956 19.4781C17.956 19.4781 17.956 19.4781 17.956 19.3706C17.956 19.3706 17.8485 19.4781 17.956 19.4781Z" fill="#3B7128"/>
    <path fill-rule="evenodd" clip-rule="evenodd" d="M17.6338 20.3381C17.5263 20.3381 17.5263 20.2306 17.5263 20.2306C17.5263 20.0155 17.4188 19.908 17.5263 19.5854C17.5263 19.908 17.5263 19.908 17.6338 20.3381Z" fill="#437F2F"/>
    <path fill-rule="evenodd" clip-rule="evenodd" d="M17.7427 20.6606C18.7103 21.6283 17.6352 22.2735 17.6352 22.2735C16.99 21.5208 17.2051 20.9832 17.7427 20.6606Z" fill="#509F3C"/>
    <path fill-rule="evenodd" clip-rule="evenodd" d="M17.9572 20.8755C18.2798 21.3056 17.9572 21.9507 17.7422 22.0582C17.9572 21.8432 18.0648 21.3056 17.9572 20.8755Z" fill="#5EA848"/>
    <path fill-rule="evenodd" clip-rule="evenodd" d="M17.8502 21.4134C17.8502 21.8435 17.6352 22.166 17.6352 22.166C16.99 21.5209 17.2051 20.9833 17.7427 20.5532C17.7427 20.7683 17.8502 21.1984 17.8502 21.4134Z" fill="#4B8F36"/>
    <path fill-rule="evenodd" clip-rule="evenodd" d="M17.7432 21.0908C17.7432 21.3059 17.7432 21.5209 17.7432 21.6284C17.7432 21.6284 17.7432 21.3059 17.7432 21.0908C17.7432 20.8758 17.7432 20.6607 17.7432 20.5532C17.8508 20.7683 17.8508 20.8758 17.7432 21.0908Z" fill="#3B7128"/>
    <path fill-rule="evenodd" clip-rule="evenodd" d="M17.8506 20.8755C17.8506 20.8755 17.9581 20.983 18.0656 21.3056C17.9581 21.0905 17.8506 20.8755 17.8506 20.8755Z" fill="#3B7128"/>
    <path fill-rule="evenodd" clip-rule="evenodd" d="M17.6349 21.0908L17.5273 21.1983C17.5273 21.1983 17.5274 21.0908 17.6349 21.0908C17.7424 21.0908 17.7424 21.0908 17.8499 21.0908C17.7424 20.9832 17.7424 21.0908 17.6349 21.0908Z" fill="#3B7128"/>
    <path fill-rule="evenodd" clip-rule="evenodd" d="M17.6349 21.4131L17.5273 21.5206C17.5273 21.5206 17.5274 21.5206 17.6349 21.4131Z" fill="#3B7128"/>
    <path fill-rule="evenodd" clip-rule="evenodd" d="M17.6356 20.8755C17.6356 20.8755 17.528 20.8755 17.528 20.983C17.4205 21.0905 17.313 21.3056 17.4205 21.5206C17.4205 21.3056 17.528 21.3056 17.6356 20.8755Z" fill="#437F2F"/>
    <path fill-rule="evenodd" clip-rule="evenodd" d="M17.7421 20.6604C17.9572 20.0152 17.097 19.9077 17.097 19.9077C16.9895 20.3378 17.312 20.5528 17.7421 20.6604Z" fill="#71C047"/>
    <path fill-rule="evenodd" clip-rule="evenodd" d="M17.5267 20.1228C17.6342 20.2303 17.6342 20.3378 17.6342 20.3378C17.6342 20.1228 17.2041 20.0152 17.2041 20.0152C17.3116 19.9077 17.4192 20.0152 17.5267 20.1228Z" fill="#78AC5C"/>
    <path fill-rule="evenodd" clip-rule="evenodd" d="M17.5272 20.2303C17.4197 20.0152 17.2046 19.9077 17.2046 19.9077C17.0971 20.3378 17.3121 20.5528 17.8497 20.6604C17.6347 20.5528 17.6347 20.3378 17.5272 20.2303Z" fill="#67BD41"/>
    <path fill-rule="evenodd" clip-rule="evenodd" d="M17.6342 20.4453C17.6342 20.3378 17.5267 20.2303 17.4192 20.1228C17.3116 20.0152 17.2041 19.9077 17.2041 19.9077C17.2041 19.9077 17.2041 19.9077 17.4192 20.0152C17.5267 20.2303 17.5267 20.3378 17.6342 20.4453C17.6342 20.4453 17.7417 20.5528 17.7417 20.6604C17.7417 20.6604 17.6342 20.5528 17.6342 20.4453Z" fill="#529133"/>
    <path fill-rule="evenodd" clip-rule="evenodd" d="M17.6348 20.5524C17.6348 20.5524 17.6348 20.4449 17.6348 20.3374C17.7423 20.4449 17.6348 20.5524 17.6348 20.5524Z" fill="#529133"/>
    <path fill-rule="evenodd" clip-rule="evenodd" d="M17.5265 20.4452H17.4189C17.4189 20.3377 17.5265 20.4452 17.5265 20.4452Z" fill="#529133"/>
    <path fill-rule="evenodd" clip-rule="evenodd" d="M17.4195 20.0151C17.312 20.1227 17.4195 20.1227 17.4195 20.0151V20.0151Z" fill="#529133"/>
    <path fill-rule="evenodd" clip-rule="evenodd" d="M17.6342 20.5525C17.4192 20.5525 17.3116 20.445 17.2041 20.23C17.4191 20.3375 17.4192 20.3375 17.6342 20.5525Z" fill="#65B53D"/>
    <path fill-rule="evenodd" clip-rule="evenodd" d="M17.7412 20.6598C17.7412 20.0147 18.6014 20.2297 18.6014 20.2297C18.6014 20.6598 18.2788 20.7673 17.7412 20.6598Z" fill="#71C047"/>
    <path fill-rule="evenodd" clip-rule="evenodd" d="M18.1712 20.2301C18.0637 20.2301 17.8486 20.3376 17.8486 20.3376C17.9562 20.2301 18.2787 20.1226 18.4938 20.2301C18.4938 20.2301 18.3863 20.2301 18.1712 20.2301Z" fill="#78AC5C"/>
    <path fill-rule="evenodd" clip-rule="evenodd" d="M18.1713 20.3375C18.3864 20.23 18.6014 20.23 18.6014 20.23C18.6014 20.6601 18.1713 20.7676 17.7412 20.6601C17.8487 20.5525 17.9563 20.445 18.1713 20.3375Z" fill="#67BD41"/>
    <path fill-rule="evenodd" clip-rule="evenodd" d="M18.0639 20.445C17.9564 20.5525 17.8488 20.5525 17.8488 20.6601C17.7413 20.6601 17.8488 20.5525 18.0639 20.445Z" fill="#529133"/>
    <path fill-rule="evenodd" clip-rule="evenodd" d="M17.9556 20.5529C17.9556 20.5529 17.9556 20.4454 18.0631 20.3379C17.8481 20.4454 17.9556 20.5529 17.9556 20.5529Z" fill="#529133"/>
    <path fill-rule="evenodd" clip-rule="evenodd" d="M18.0635 20.4454C18.0635 20.4454 18.0635 20.3379 18.171 20.3379C18.171 20.3379 18.171 20.4454 18.0635 20.4454Z" fill="#529133"/>
    <path fill-rule="evenodd" clip-rule="evenodd" d="M17.9561 20.6603C18.0636 20.6603 18.0636 20.6603 17.9561 20.6603C18.1711 20.6603 18.2786 20.6603 18.3861 20.5527C18.2786 20.5527 18.2786 20.5527 17.9561 20.6603Z" fill="#65B53D"/>
    <path d="M20.2144 37.4339H25.5904C25.913 37.4339 26.128 37.2189 26.128 36.8963V36.0361H19.6768V36.8963C19.6768 37.1113 19.8918 37.4339 20.2144 37.4339Z" fill="#823A3A"/>
    <path d="M37.847 12.0594C37.9545 12.4895 37.632 12.9196 37.3094 12.9196L34.5139 13.4572L33.3311 13.6722L32.7935 13.7797L32.0409 13.8872L19.9985 16.2527C19.7835 16.2527 19.5685 16.1452 19.4609 15.9301C19.4609 15.8226 19.4609 15.7151 19.5685 15.6076C19.676 15.5001 19.676 15.3925 19.7835 15.3925L31.8258 12.4895L32.5785 12.2744L33.0086 12.1669L34.1913 11.8443L36.9869 11.1992C37.3094 11.4143 37.7395 11.6293 37.847 12.0594Z" fill="#FBBE25"/>
    <path d="M32.6855 13.1345C32.6855 13.3495 32.6855 13.5646 32.6855 13.7796L31.9328 13.8871C32.0403 13.6721 32.1479 13.457 32.1479 13.1345C32.1479 12.9194 31.9328 12.7044 31.7178 12.5969L32.4704 12.3818C32.578 12.7044 32.6855 12.9194 32.6855 13.1345Z" fill="#650000"/>
    <path d="M34.4058 12.8116C34.4058 13.0267 34.4058 13.2417 34.4058 13.5643L33.2231 13.7793L33.1156 13.6718C33.3306 13.4568 33.4381 13.2417 33.3306 13.0267C33.3306 12.8116 33.1155 12.5966 32.793 12.4891L33.9757 12.1665C34.2983 12.3815 34.4058 12.5966 34.4058 12.8116Z" fill="#650000"/>
    <g opacity="0.55">
        <path d="M37.847 12.0587C37.847 12.1662 37.847 12.1662 37.847 12.2737C37.7395 11.9512 37.3094 11.8437 36.9869 11.8437L34.1913 12.4888L33.0086 12.8113L32.5785 12.9189L31.8258 13.1339L19.7835 16.037C19.676 16.037 19.5685 16.1445 19.5685 16.252V16.3595C19.5685 16.3595 19.4609 16.252 19.4609 16.1445C19.4609 16.037 19.4609 15.9295 19.5685 15.8219C19.676 15.7144 19.676 15.6069 19.7835 15.6069L31.8258 12.7038L32.5785 12.4888L33.0086 12.3813L34.1913 12.0587L36.9869 11.4136C37.3094 11.4136 37.7395 11.6286 37.847 12.0587Z" fill="white"/>
    </g>
    <path d="M19.7835 16.5749C19.4609 16.5749 19.2458 16.3598 19.1383 16.0373C19.0308 15.7147 19.2458 15.3922 19.5684 15.2846L36.7718 11.1988C36.9868 11.0913 37.3094 11.1988 37.5244 11.3064C37.7395 11.4139 37.847 11.6289 37.9545 11.9515C38.062 12.1665 37.9545 12.4891 37.847 12.7041C37.7394 12.9192 37.5244 13.0267 37.2018 13.1342L19.7835 16.5749ZM37.0943 11.6289H36.9868L19.7835 15.7147C19.6759 15.7147 19.5684 15.8222 19.5684 15.9298C19.5684 16.0373 19.6759 16.1448 19.7835 16.1448L37.2018 12.7041C37.3094 12.7041 37.5244 12.5966 37.5244 12.4891C37.6319 12.3816 37.6319 12.1665 37.6319 12.059C37.6319 11.9515 37.5244 11.7364 37.4169 11.7364C37.3094 11.6289 37.2018 11.6289 37.0943 11.6289Z" fill="#823A3A"/>
    <path d="M37.0947 8.72612C37.2022 9.1562 36.9871 9.58629 36.6646 9.69381L33.869 10.554L32.6863 10.8765L32.1487 11.0916L31.3961 11.3066L19.6763 15.1774C19.4612 15.2849 19.2462 15.1774 19.1387 14.9623C19.1387 14.8548 19.1387 14.7473 19.1387 14.6398C19.1387 14.5323 19.2462 14.4247 19.3537 14.4247L30.966 10.1239L31.6111 9.90885L32.0412 9.69381L33.2239 9.26372L35.9119 8.29604C36.4496 8.18851 36.9871 8.40356 37.0947 8.72612Z" fill="#FBBE25"/>
    <path d="M19.6762 15.3924C19.4611 15.3924 19.3536 15.2848 19.2461 15.0698C19.2461 14.9623 19.2461 14.8548 19.2461 14.7472C19.2461 14.6397 19.3536 14.5322 19.4611 14.5322L36.1269 8.29597C36.3419 8.18845 36.557 8.18845 36.772 8.29597C36.987 8.40349 37.0946 8.51101 37.2021 8.72606C37.3096 8.9411 37.3096 9.15614 37.2021 9.37118C37.0946 9.58622 36.987 9.69374 36.772 9.80127L19.8912 15.3924C19.6762 15.2848 19.6762 15.3924 19.6762 15.3924ZM36.3419 8.29597C36.2344 8.29597 36.1269 8.29597 36.1269 8.29597L19.4611 14.5322C19.3536 14.5322 19.2461 14.6397 19.2461 14.7472C19.2461 14.8548 19.2461 14.9623 19.2461 15.0698C19.3536 15.2848 19.5687 15.3924 19.7837 15.2848L31.5035 11.4141L36.6645 9.69374C36.8795 9.58622 36.987 9.4787 37.0945 9.37118C37.2021 9.15614 37.2021 9.04862 37.0945 8.83358C36.987 8.61854 36.8795 8.51101 36.6645 8.40349C36.5569 8.29597 36.4494 8.29597 36.3419 8.29597Z" fill="#650000"/>
    <path d="M32.1484 10.5533C32.2559 10.7684 32.2559 10.9834 32.2559 11.1985L31.5032 11.4135C31.6108 11.1985 31.7183 10.8759 31.6108 10.6608C31.5033 10.4458 31.3957 10.2308 31.1807 10.1232L31.8258 9.9082C31.9333 10.1232 32.0409 10.3383 32.1484 10.5533Z" fill="#650000"/>
    <path d="M33.7622 9.90841C33.8697 10.1235 33.8697 10.3385 33.8697 10.5535L32.687 10.8761L32.5795 10.7686C32.7945 10.5535 32.7945 10.3385 32.687 10.1234C32.5795 9.90841 32.3645 9.69337 32.1494 9.58585L33.3321 9.15576C33.5472 9.47832 33.6547 9.69337 33.7622 9.90841Z" fill="#650000"/>
    <g opacity="0.55">
        <path d="M37.0945 8.72559C37.0945 8.83311 37.0945 8.83311 37.0945 8.94063C36.8794 8.61807 36.5569 8.51055 36.2343 8.61807L33.5463 9.58576L32.3636 10.0158L31.9335 10.2309L31.2883 10.4459L19.6761 14.7468C19.5686 14.7468 19.461 14.8543 19.461 14.9618V15.0693C19.3535 15.0693 19.3535 14.9618 19.3535 14.8543C19.3535 14.7468 19.3535 14.6392 19.3535 14.5317C19.3535 14.4242 19.461 14.3167 19.5686 14.3167L31.1808 10.0158L31.826 9.8008L32.256 9.58576L33.4388 9.15568L36.1268 8.18799C36.4494 8.18799 36.987 8.40303 37.0945 8.72559Z" fill="white"/>
    </g>
    <path d="M19.6767 15.4996C19.4616 15.4996 19.1391 15.2845 19.0315 15.0695C18.924 14.7469 19.139 14.4244 19.3541 14.3169L36.0198 8.08064C36.2349 7.97312 36.5574 7.97312 36.7725 8.08064C36.9875 8.18816 37.2026 8.4032 37.3101 8.61825C37.4176 8.83329 37.4176 9.15585 37.3101 9.37089C37.2026 9.58594 36.9875 9.80098 36.7725 9.9085L19.8917 15.6071C19.7842 15.4996 19.6767 15.4996 19.6767 15.4996ZM36.3424 8.4032C36.2349 8.4032 36.2349 8.4032 36.1274 8.4032L19.4616 14.6394C19.3541 14.6394 19.2466 14.8545 19.3541 14.962C19.3541 15.0695 19.5691 15.177 19.6767 15.0695L36.5574 9.47841C36.665 9.47841 36.7725 9.37089 36.88 9.15585C36.9875 9.04833 36.9875 8.83329 36.88 8.72577C36.88 8.61825 36.7725 8.51072 36.5574 8.4032C36.5574 8.51072 36.4499 8.4032 36.3424 8.4032Z" fill="#823A3A"/>
    <path d="M20.5361 23.1337V15.2847C20.5361 15.0696 20.6437 14.9621 20.8587 14.9621L22.364 14.6396H22.4715L23.3317 14.532H23.4392L24.2994 14.317H24.4069L24.9445 14.2095C25.1595 14.2095 25.3746 14.317 25.3746 14.532V23.1337" fill="white"/>
    <path d="M20.6438 23.1335H20.4287V15.2845C20.4287 15.0695 20.5363 14.8544 20.7513 14.8544L24.7295 13.8867C24.8371 13.8867 25.0521 13.8867 25.1597 13.9942C25.2672 14.1018 25.3747 14.2093 25.3747 14.3168V22.9185H25.1597V14.3168C25.1597 14.2093 25.1597 14.1018 25.0521 14.1018C24.9446 13.9942 24.9446 13.9942 24.8371 13.9942L20.8588 14.9619C20.7513 14.9619 20.6438 15.0695 20.6438 15.2845V23.1335Z" fill="#823A3A"/>
    <g opacity="0.55">
        <path d="M20.9652 19.2624C20.7502 19.2624 20.5352 19.0474 20.5352 18.8323V18.4023C20.5352 18.1872 20.7502 17.9722 20.9652 17.9722C21.1803 17.9722 21.3953 18.1872 21.3953 18.4023V18.8323C21.3953 19.0474 21.1803 19.2624 20.9652 19.2624Z" fill="white"/>
    </g>
    <g opacity="0.55">
        <path d="M22.0404 19.2624C21.8254 19.2624 21.6104 19.0474 21.6104 18.8323V18.4023C21.6104 18.1872 21.8254 17.9722 22.0404 17.9722C22.2555 17.9722 22.4705 18.1872 22.4705 18.4023V18.8323C22.4705 19.0474 22.2555 19.2624 22.0404 19.2624Z" fill="white"/>
    </g>
    <g opacity="0.55">
        <path d="M22.9027 19.2624C22.6877 19.2624 22.4727 19.0474 22.4727 18.8323V18.4023C22.4727 18.1872 22.6877 17.9722 22.9027 17.9722C23.1178 17.9722 23.3328 18.1872 23.3328 18.4023V18.8323C23.3328 19.0474 23.1178 19.2624 22.9027 19.2624Z" fill="white"/>
    </g>
    <g opacity="0.55">
        <path d="M23.9779 19.2624C23.7629 19.2624 23.5479 19.0474 23.5479 18.8323V18.4023C23.5479 18.1872 23.7629 17.9722 23.9779 17.9722C24.193 17.9722 24.408 18.1872 24.408 18.4023V18.8323C24.408 19.0474 24.193 19.2624 23.9779 19.2624Z" fill="white"/>
    </g>
    <path d="M21.505 14.8545V23.0261C21.3974 23.0261 21.3975 23.0261 21.3975 23.0261V14.8545H21.505Z" fill="#823A3A"/>
    <path d="M22.4708 14.5322V23.2414H22.3633V14.5322H22.4708Z" fill="#823A3A"/>
    <path d="M23.4396 14.3169V23.1336C23.4396 23.1336 23.332 23.1336 23.332 23.2411V14.3169H23.4396Z" fill="#823A3A"/>
    <path d="M24.4064 22.9188C24.2988 22.9188 24.2988 22.9188 24.2988 22.9188V14.1021H24.4064" fill="#823A3A"/>
    <g opacity="0.38">
        <path d="M25.3747 21.1983V23.0262C25.2672 23.0262 25.2672 23.0262 25.1597 23.0262C24.9446 23.0262 24.7296 23.0262 24.5145 23.0262C24.407 23.0262 24.2995 23.0262 24.1919 23.0262C24.0844 23.0262 23.9769 23.0262 23.9769 23.0262C23.9769 23.0262 23.8694 23.1337 23.5468 23.1337C23.4393 23.1337 23.3318 23.1337 23.2243 23.1337C23.0092 23.1337 22.7942 23.1337 22.5791 23.1337C22.4716 23.1337 22.3641 23.1337 22.2566 23.1337C22.1491 23.1337 22.0416 23.1337 21.934 23.1337C21.8265 23.1337 21.719 23.1337 21.6114 23.1337C21.5039 23.1337 21.3964 23.1337 21.2889 23.1337C21.0739 23.1337 20.8588 23.1337 20.6438 23.1337C20.5362 23.1337 20.5362 23.1337 20.4287 23.1337V21.8435C20.5362 21.8435 20.5362 21.8435 20.6438 21.8435C20.8588 21.8435 21.0739 21.951 21.2889 21.951C21.3964 21.951 21.5039 21.951 21.6114 21.951C21.8265 21.951 22.0415 21.951 22.2566 21.951C22.3641 21.951 22.4716 21.951 22.5791 21.951C22.7942 21.951 23.0092 21.951 23.2243 21.8435C23.3318 21.8435 23.4393 21.8435 23.5468 21.7359C23.7619 21.6284 23.9769 21.6284 24.1919 21.5209C24.2995 21.5209 24.407 21.4134 24.5145 21.4134C24.7296 21.3059 24.9446 21.1983 25.1597 21.0908C25.1597 21.1983 25.2672 21.1983 25.3747 21.1983Z" fill="#727272"/>
    </g>
    <path fill-rule="evenodd" clip-rule="evenodd" d="M25.6972 26.2523C25.9122 25.9297 26.3423 26.0372 26.6649 25.8222C26.5573 25.4996 26.3423 25.0695 26.1273 24.747C26.1273 24.6395 24.622 24.4244 24.4069 24.4244C24.2994 23.4567 25.3746 23.3492 25.9122 23.5643C27.0949 23.9943 27.6325 25.3921 26.8799 26.4673C26.3423 27.1124 25.8047 27.0049 25.5897 26.7899C25.4821 26.6824 25.4821 26.4673 25.4821 26.4673L25.6972 26.2523Z" fill="#63332C"/>
    <path fill-rule="evenodd" clip-rule="evenodd" d="M25.9122 25.8219C25.267 26.3595 25.3746 26.8971 24.837 26.4671C24.6219 26.252 24.2993 25.8219 24.7294 25.4994C25.8046 24.8542 25.3746 24.7467 25.267 24.8542C25.052 25.6069 24.5144 25.1768 24.4069 25.0693C24.0843 24.3166 25.1595 23.779 25.6971 23.9941C26.4498 24.2091 27.6325 25.3918 26.8799 26.4671C26.2347 27.5423 25.3746 26.4671 25.8046 26.1445C25.9122 26.037 26.1272 25.9294 26.4498 26.037C26.5573 25.8219 26.1272 25.6069 25.9122 25.8219Z" fill="#E8C88D"/>
    <path fill-rule="evenodd" clip-rule="evenodd" d="M26.6648 25.2844C26.5572 25.3919 26.6648 25.2844 26.5572 25.2844C26.4497 25.1769 26.4497 25.2844 26.3422 25.2844C26.2347 25.3919 25.9121 25.2844 25.9121 25.2844C25.9121 25.1769 26.3422 25.0693 26.3422 25.0693C26.4497 25.1769 26.4497 25.0693 26.5572 25.0693C26.5572 25.1769 26.7723 25.1769 26.6648 25.2844Z" fill="#D49A5E"/>
    <path fill-rule="evenodd" clip-rule="evenodd" d="M26.342 24.6397C26.4496 24.7472 26.2345 24.7472 26.2345 24.7472C26.127 24.8548 25.8045 25.1773 25.6969 25.0698C25.5894 24.9623 26.0195 24.7472 26.0195 24.6397C26.127 24.5322 26.127 24.5322 26.342 24.6397Z" fill="#D49A5E"/>
    <path fill-rule="evenodd" clip-rule="evenodd" d="M25.4825 24.2095C25.59 24.2095 25.59 24.317 25.4825 24.2095C25.59 24.4245 25.59 24.8546 25.375 24.8546C25.375 24.8546 25.375 24.4245 25.4825 24.2095Z" fill="#D49A5E"/>
    <path fill-rule="evenodd" clip-rule="evenodd" d="M26.45 26.4674C26.6651 26.2523 26.7726 25.9297 26.7726 25.7147C26.7726 25.3921 26.7726 25.0696 26.5575 24.8545C26.45 24.747 26.45 24.6395 26.3425 24.532C26.1274 24.3169 25.9124 23.9944 25.5899 23.8868C25.2673 23.7793 25.0522 23.6718 24.7297 23.8868C24.6221 23.8868 24.6222 23.8868 24.5146 23.9944C24.6222 23.8868 24.6221 23.9944 24.7297 23.8868C25.0522 23.7793 25.3748 23.7793 25.6974 23.8868C26.0199 23.9944 26.235 24.2094 26.45 24.532C26.5575 24.6395 26.6651 24.747 26.6651 24.8545C26.7726 25.1771 26.7726 25.4997 26.8801 25.7147C26.8801 25.9297 26.7726 26.2523 26.5575 26.4674C26.45 26.5749 26.235 26.8974 25.9124 26.6824C26.3425 26.7899 26.5575 26.6824 26.45 26.4674Z" fill="#D3A56C"/>
    <path d="M22.2575 21.8431L21.5049 21.628V14.8542L22.2575 14.6392V21.8431Z" fill="#EAEAEA"/>
    <path d="M24.1931 21.1983L23.4404 21.5209V14.4245L24.1931 14.2095V21.1983Z" fill="#EAEAEA"/>
</svg>
